<svg width="91" height="89" viewBox="0 0 91 89" fill="none" xmlns="http://www.w3.org/2000/svg">
<path d="M74 86V89H77V86H74ZM3 86H0V89H3V86ZM3 15V12H0V15H3ZM88.9953 2.83173C88.9023 1.17748 87.486 -0.0882123 85.8317 0.0047231L58.8742 1.51919C57.22 1.61213 55.9543 3.0285 56.0472 4.68274C56.1402 6.33699 57.5565 7.60268 59.2108 7.50975L83.173 6.16355L84.5192 30.1258C84.6121 31.78 86.0285 33.0457 87.6827 32.9528C89.337 32.8598 90.6027 31.4435 90.5097 29.7892L88.9953 2.83173ZM74 83H3V89H74V83ZM6 86V15H0V86H6ZM3 18H54V12H3V18ZM71 33V86H77V33H71ZM46.237 51.999L88.237 4.99899L83.763 1.00101L41.763 48.001L46.237 51.999Z" fill="currentColor"/>
</svg>
