<svg width="30" height="30" viewBox="0 0 30 30" fill="none" xmlns="http://www.w3.org/2000/svg">
<path opacity="0.202615" fill-rule="evenodd" clip-rule="evenodd" d="M14.9999 29.7692C23.1568 29.7692 29.7692 23.1568 29.7692 14.9999C29.7692 6.84312 23.1568 0.230713 14.9999 0.230713C6.84312 0.230713 0.230713 6.84312 0.230713 14.9999C0.230713 23.1568 6.84312 29.7692 14.9999 29.7692Z" fill="#FFBE03" fill-opacity="0.55"/>
<path d="M15 23C10.5817 23 7 19.4183 7 15C7 10.5817 10.5817 7 15 7C19.4183 7 23 10.5817 23 15C23 19.4183 19.4183 23 15 23Z" fill="#FFBE00"/>
<path d="M18.0424 16.9231V14.359C18.0424 12.7846 17.2113 11.4667 15.7621 11.1179V10.7692C15.7621 10.3436 15.4175 10 14.9969 10C14.5763 10 14.2419 10.3436 14.2419 10.7692V11.1179C12.7876 11.4667 11.9616 12.7795 11.9616 14.359V16.9231L11.3028 17.5846C10.9836 17.9077 11.2066 18.4615 11.6576 18.4615H18.3312C18.7822 18.4615 19.0102 17.9077 18.691 17.5846L18.0424 16.9231ZM14.9969 20C15.5543 20 16.0104 19.5385 16.0104 18.9744H13.9835C13.9835 19.5385 14.4344 20 14.9969 20ZM12.3518 11.1436C12.5646 10.9487 12.5697 10.6154 12.367 10.4103C12.1744 10.2154 11.8602 10.2103 11.6626 10.4C10.7961 11.2 10.1982 12.2872 10.0056 13.5077C9.96 13.8205 10.1982 14.1026 10.5123 14.1026C10.7556 14.1026 10.9684 13.9231 11.0089 13.6769C11.161 12.6821 11.6474 11.7949 12.3518 11.1436ZM18.3464 10.4C18.1437 10.2103 17.8295 10.2154 17.637 10.4103C17.4343 10.6154 17.4444 10.9436 17.6522 11.1385C18.3515 11.7897 18.843 12.6769 18.995 13.6718C19.0305 13.9179 19.2433 14.0974 19.4916 14.0974C19.8007 14.0974 20.044 13.8154 19.9933 13.5026C19.8007 12.2872 19.2079 11.2051 18.3464 10.4Z" fill="white"/>
</svg>
