<svg width="184" height="235" viewBox="0 0 184 235" fill="none" xmlns="http://www.w3.org/2000/svg">
  <g clip-path="url(#clip0)">
    <path d="M123.251 47.9409L112.666 22.8223L114.01 21.9822L126.303 46.2047L123.251 47.9409Z" fill="#020000"/>
    <path d="M113.618 23.2144C111.35 24.1945 108.718 23.1584 107.738 20.8901C106.757 18.6219 107.794 15.9896 110.062 15.0095C112.33 14.0294 114.962 15.0655 115.942 17.3338C116.922 19.602 115.886 22.2623 113.618 23.2144Z" fill="#020000"/>
    <path d="M111.882 15.4016C111.882 15.4016 111.686 15.4576 111.294 15.5136C111.098 15.5416 110.874 15.5976 110.678 15.7376C110.482 15.8776 110.202 15.9616 110.006 16.1856C109.53 16.5497 109.194 17.1937 108.97 17.8938C108.802 18.5939 108.746 19.434 109.026 20.1621C109.11 20.3861 109.082 20.4981 109.222 20.6661C109.334 20.8341 109.418 21.0581 109.558 21.1422C109.782 21.3942 110.09 21.5902 110.426 21.7582C111.098 22.0382 111.798 22.1783 112.414 22.0942C112.722 22.0942 113.002 21.9822 113.254 21.9542C113.506 21.9262 113.702 21.8142 113.87 21.7582C114.206 21.6182 114.402 21.5342 114.402 21.5342C114.402 21.5342 114.234 21.6462 113.898 21.8702C113.73 21.9822 113.562 22.1223 113.31 22.2063C113.058 22.2903 112.778 22.4583 112.442 22.4863C111.854 22.6823 111.014 22.7103 110.202 22.3743C109.81 22.1783 109.418 21.9822 109.054 21.5902C108.746 21.2822 108.494 20.8621 108.354 20.4141C108.046 19.518 108.13 18.5659 108.382 17.7538C108.662 16.9417 109.194 16.2697 109.754 15.9056C110.006 15.6536 110.342 15.5976 110.594 15.5136C110.846 15.4016 111.07 15.4016 111.266 15.4016C111.658 15.4296 111.882 15.4016 111.882 15.4016Z" fill="#FCFCFC"/>
    <path d="M115.69 52.2533L107.85 33.6594L108.858 33.0434L117.959 50.9932L115.69 52.2533Z" fill="#020000"/>
    <path d="M108.55 33.9395C106.869 34.6675 104.909 33.8835 104.181 32.2033C103.453 30.5231 104.237 28.5629 105.917 27.8348C107.597 27.1068 109.558 27.8908 110.286 29.571C110.986 31.2512 110.23 33.2114 108.55 33.9395Z" fill="#020000"/>
    <path d="M107.262 28.1429C107.262 28.1429 107.094 28.1709 106.842 28.2549C106.702 28.2829 106.534 28.3109 106.394 28.4509C106.253 28.5629 106.057 28.6189 105.917 28.7869C105.273 29.375 104.853 30.6071 105.245 31.6712C105.301 31.8392 105.273 31.8952 105.385 32.0352C105.469 32.1473 105.553 32.3433 105.637 32.3993C105.777 32.5673 106.001 32.7073 106.253 32.8473C106.73 33.0434 107.234 33.1554 107.682 33.1274C108.13 33.0714 108.522 33.0434 108.774 32.9033C109.026 32.8193 109.194 32.7633 109.194 32.7633C109.194 32.7633 109.054 32.8473 108.83 33.0154C108.606 33.1834 108.242 33.4074 107.766 33.5194C107.29 33.6314 106.646 33.6594 106.029 33.4074C105.721 33.2674 105.413 33.0994 105.161 32.7913C104.937 32.5393 104.741 32.2593 104.629 31.8952C104.405 31.2232 104.461 30.4951 104.657 29.879C104.881 29.263 105.273 28.7589 105.721 28.5069C105.917 28.3389 106.169 28.2829 106.366 28.2269C106.562 28.1429 106.73 28.1709 106.87 28.1709C107.094 28.1429 107.262 28.1429 107.262 28.1429Z" fill="#FCFCFC"/>
    <path d="M64.0531 29.907L68.0015 15.3736L70.8018 15.7936L69.6257 31.2232L64.0531 29.907Z" fill="#020000"/>
    <path d="M64.8932 15.4576C61.1968 12.3772 60.6647 6.86068 63.745 3.16431C66.8254 -0.532072 72.3419 -1.06413 76.0383 2.01619C79.7347 5.0965 80.2667 10.6131 77.1864 14.3094C74.1061 18.0058 68.5895 18.5099 64.8932 15.4576Z" fill="#020000"/>
    <path d="M69.4016 2.1282C69.4016 2.1282 69.1216 2.29622 68.5896 2.57625C68.3095 2.68826 68.0295 2.88428 67.7495 3.13631C67.4414 3.36033 67.1334 3.64036 66.7974 3.97639C66.4333 4.28442 66.1813 4.70447 65.8733 5.15251C65.5933 5.60056 65.3972 6.10461 65.2012 6.63666C65.0332 7.16872 64.9212 7.72878 64.9212 8.31684C64.8372 8.84889 65.0332 9.54896 65.0892 9.96901L65.4252 10.8931C65.5652 11.1451 65.7333 11.3411 65.8733 11.5652C66.1533 12.0132 66.6294 12.4613 66.9934 12.8533C67.4694 13.1893 67.8335 13.6374 68.3095 13.8614C68.7576 14.1414 69.1776 14.4215 69.6257 14.5615C70.0457 14.7575 70.4657 14.8975 70.8298 14.9535C71.1938 15.0375 71.5299 15.1495 71.8099 15.0935C72.3979 15.0935 72.706 15.0935 72.706 15.0935C72.706 15.0935 72.3979 15.2055 71.8379 15.3736C71.5579 15.4856 71.1938 15.4856 70.7738 15.4856C70.3537 15.5136 69.8777 15.4856 69.3736 15.3176C68.8416 15.2335 68.3375 15.0095 67.8055 14.7575C67.2454 14.5615 66.7414 14.1414 66.1813 13.7774C65.7053 13.3293 65.1452 12.9373 64.7252 12.2932C64.5291 11.9852 64.2771 11.6492 64.1091 11.3411L63.7451 10.4171C63.577 9.57697 63.437 8.9329 63.549 8.20483C63.577 7.47675 63.7731 6.80468 64.0251 6.18862C64.5571 4.95649 65.3972 3.97639 66.2373 3.38833C66.6294 3.0523 67.0494 2.82828 67.4694 2.68826C67.8615 2.52024 68.1695 2.38023 68.4775 2.32422C69.0656 2.18421 69.4016 2.1282 69.4016 2.1282Z" fill="#FCFCFC"/>
    <path d="M87.4637 169.697C85.1394 178.462 77.9147 185.015 76.9626 194.088C76.4585 198.736 77.6907 202.097 79.2308 206.353C81.135 211.618 80.967 212.934 79.7069 217.862C74.4423 238.192 107.206 234.524 115.13 222.259C119.891 214.866 115.046 204.645 115.242 196.944C115.439 188.963 120.507 181.319 122.495 173.618C124.343 166.449 126.388 154.296 118.995 148.863C111.406 143.291 102.221 149.479 96.9006 155.052C91.7201 160.456 89.7879 165.861 86.2875 171.854" fill="#7E9597"/>
    <path d="M95.7803 176.334C89.9277 182.187 82.703 192.268 84.8312 198.96C86.2593 203.413 88.9476 208.481 87.6315 213.718C86.2313 219.29 83.151 222.595 83.431 228.839C78.3065 227.747 79.8747 219.878 80.0427 216.07C80.2947 210.105 77.6624 205.933 77.0744 200.332C76.0103 190.083 83.6551 180.982 87.7715 172.302C89.5077 175.41 92.784 176.418 95.8083 174.598" fill="white"/>
    <path d="M87.5755 169.725C87.5755 169.725 87.3515 170.565 86.9035 172.134C86.4554 173.674 85.4753 175.97 84.1032 178.658C82.7591 181.403 80.7989 184.539 79.3427 188.375C79.0627 189.355 78.6706 190.335 78.4466 191.372C78.3346 192.408 77.9986 193.556 77.9706 194.564C77.8866 197.056 78.0266 199.184 78.8387 201.593C79.1467 202.797 79.6227 204.029 80.0988 205.289C80.6028 206.661 80.9669 207.921 81.4429 209.265C82.367 212.402 81.4429 215.678 80.7709 218.422C80.4068 219.934 80.2108 221.195 80.2948 222.595C80.3508 223.967 80.6588 225.339 81.3309 226.515C82.647 228.979 85.5313 230.464 88.5276 231.136C94.6883 232.452 101.633 231.136 107.57 228.111C110.51 226.515 113.282 224.359 114.906 221.475C116.587 218.562 116.643 215.062 116.278 211.73C115.886 208.341 115.018 205.009 114.458 201.537C114.206 199.772 113.982 198.036 114.122 196.132C114.206 195.264 114.234 194.424 114.346 193.556L114.878 190.867C116.699 184.007 120.031 178.126 121.347 171.966C122.719 165.861 123.503 159.476 121.459 154.408C120.927 153.176 120.255 152.056 119.387 151.159C118.995 150.711 118.379 150.263 118.043 149.955C117.455 149.619 116.811 149.087 116.334 148.919C115.382 148.359 114.094 148.135 112.918 147.967C111.714 147.939 110.51 147.967 109.362 148.303C104.657 149.479 100.849 152.532 97.8526 155.276C96.5085 156.676 95.1643 158.3 93.9882 159.644C92.9801 161.128 92.084 162.501 91.2439 163.705C88.1356 168.913 86.3434 171.882 86.3434 171.882L86.0914 171.742C86.0914 171.742 87.6036 168.633 90.2638 163.173C90.9919 161.829 91.888 160.344 92.8401 158.72C93.9882 157.236 95.0803 155.724 96.5645 154.016C99.5328 150.907 103.341 147.547 108.746 145.951C111.434 145.195 114.598 145.083 117.595 146.511C118.435 146.847 118.883 147.211 119.527 147.603C120.283 148.191 120.843 148.611 121.431 149.227C122.551 150.403 123.447 151.831 124.091 153.316C125.351 156.34 125.715 159.672 125.603 162.921C125.491 166.197 124.987 169.445 124.147 172.666C122.579 179.246 119.079 185.183 117.259 191.512L116.699 193.836C116.531 194.648 116.475 195.516 116.362 196.356C116.194 197.896 116.306 199.576 116.503 201.257C116.867 204.617 117.567 208.061 117.791 211.59C117.987 215.062 117.735 218.898 115.802 221.979C113.954 225.115 111.014 227.271 107.962 228.867C101.829 232.032 94.9123 233.516 88.2196 232.62C84.9433 232.088 81.4709 230.66 79.5387 227.607C78.5866 226.123 78.1106 224.415 77.9706 222.735C77.8306 221.083 78.1106 219.318 78.4186 217.946C79.1467 214.922 79.6507 212.402 79.0627 209.993C78.6426 208.677 78.2506 207.277 77.8586 206.101C77.4105 204.813 76.9625 203.553 76.6544 202.237C76.2344 200.977 76.0384 199.604 75.8984 198.26C75.6463 196.888 75.8984 195.768 75.8704 194.564C75.9544 193.192 76.3184 192.1 76.5424 190.923C76.8505 189.803 77.3265 188.767 77.6905 187.731C79.4827 183.755 81.5549 180.702 83.1231 178.126C84.7193 175.55 85.7834 173.506 86.3994 171.994C87.0155 170.481 87.3235 169.669 87.3235 169.669L87.5755 169.725Z" fill="#050505"/>
    <path d="M124.959 165.861C122.915 175.522 115.634 183.027 115.018 192.996C114.71 198.092 116.138 201.677 117.959 206.269C120.199 211.926 120.087 213.354 118.967 218.786C114.346 241.217 148.594 235.588 156.351 221.811C161.027 213.522 155.482 202.629 155.314 194.2C155.174 185.491 160.131 176.894 161.867 168.409C163.491 160.484 165.087 147.155 157.051 141.582C148.846 135.898 139.465 143.095 134.116 149.423C128.908 155.584 127.144 161.576 123.755 168.269" fill="#7E9597"/>
    <path d="M153.018 158.804C152.99 171.265 147.194 181.767 146.018 193.836C144.869 205.401 156.659 217.498 149.154 228.363C164.443 220.298 153.27 201.649 155.931 189.131C158.647 176.418 166.348 161.688 161.363 148.443C160.019 153.008 155.091 156.816 151.954 160.288C152.794 160.232 152.654 159.7 153.046 159.364" fill="#FFFDFD"/>
    <path d="M125.099 165.889C125.099 165.889 124.903 166.813 124.511 168.521C124.119 170.201 123.195 172.722 121.879 175.718C120.591 178.742 118.687 182.271 117.315 186.499C117.063 187.563 116.699 188.655 116.475 189.803C116.363 190.923 116.139 192.212 116.083 193.276C116.167 194.536 116.055 195.936 116.307 197.14C116.559 198.344 116.727 199.576 117.231 200.892C117.623 202.181 118.127 203.497 118.687 204.841C119.275 206.297 119.723 207.641 120.255 209.069C120.647 210.609 121.095 212.402 120.871 214.054C120.871 215.818 120.395 217.302 120.115 218.954C120.003 219.626 119.807 220.55 119.751 221.279C119.695 222.007 119.639 222.735 119.695 223.519C119.751 225.031 120.031 226.543 120.787 227.859C122.187 230.548 125.239 232.228 128.516 232.844C135.208 234.048 142.657 232.2 148.846 228.503C151.898 226.571 154.726 224.051 156.239 220.775C157.779 217.498 157.667 213.718 157.135 210.105C156.547 206.465 155.539 202.881 154.782 199.184C154.446 197.308 154.138 195.432 154.194 193.416C154.25 192.492 154.222 191.568 154.334 190.615L154.782 187.703C156.351 180.226 159.571 173.674 160.691 166.953C161.839 160.26 162.455 153.372 160.215 147.827C159.067 145.111 157.191 143.039 154.642 141.778C152.402 140.686 149.574 140.546 147.138 141.33C144.645 142.03 142.405 143.403 140.417 144.887C138.457 146.399 136.693 147.995 135.208 149.647C133.836 151.271 132.492 153.092 131.344 154.632C130.364 156.312 129.468 157.824 128.656 159.224C125.631 165.049 123.923 168.353 123.923 168.353L123.671 168.213C123.671 168.213 125.127 164.769 127.676 158.72C128.376 157.208 129.244 155.584 130.168 153.764C131.288 152.084 132.38 150.403 133.836 148.443C135.32 146.651 137.029 144.831 139.101 143.151C141.145 141.498 143.525 139.93 146.438 138.978C149.294 137.998 152.71 137.858 155.987 139.342C158.927 140.602 161.587 143.487 162.875 146.679C164.219 149.927 164.695 153.428 164.667 156.928C164.695 160.428 164.247 163.957 163.547 167.457C162.175 174.598 158.815 181.206 157.219 188.151L156.743 190.699C156.631 191.596 156.603 192.548 156.519 193.444C156.407 195.124 156.631 196.972 156.883 198.764C157.415 202.377 158.283 206.073 158.703 209.853C159.095 213.606 159.039 217.666 157.219 221.167C155.511 224.695 152.514 227.243 149.35 229.203C142.993 233.068 135.572 235.112 128.32 234.3C124.763 233.824 121.011 232.144 119.051 228.839C117.035 225.619 117.203 221.587 117.819 218.45C118.043 216.91 118.491 215.314 118.435 213.942C118.603 212.486 118.183 211.226 117.931 209.853C117.427 208.453 116.979 206.969 116.475 205.681C115.942 204.309 115.438 202.965 115.046 201.537C114.57 200.192 114.346 198.68 114.122 197.28C113.898 195.852 114.038 194.592 113.982 193.304C114.066 191.82 114.346 190.643 114.542 189.383C114.85 188.179 115.27 187.031 115.606 185.911C117.315 181.543 119.331 178.098 120.843 175.214C122.383 172.33 123.419 170.061 123.979 168.381C124.539 166.729 124.847 165.833 124.847 165.833L125.099 165.889Z" fill="#050505"/>
    <path d="M81.3308 179.582C81.3308 179.582 81.6108 179.526 82.0589 179.442C82.2829 179.386 82.5909 179.33 82.899 179.274C83.179 179.19 83.627 179.162 84.1591 179.162C84.6632 179.162 85.1952 179.19 85.7553 179.19C86.2873 179.246 86.7914 179.386 87.3234 179.498C88.4155 179.666 89.4516 180.198 90.5158 180.59C91.5239 181.094 92.532 181.543 93.4281 182.103C94.3241 182.607 95.1362 183.139 95.8363 183.587C97.2084 184.511 98.1045 185.099 98.1045 185.099C98.1045 185.099 97.0964 184.651 95.6123 183.979C94.8562 183.643 93.9881 183.279 93.036 182.943C92.0839 182.551 91.0478 182.299 90.0397 181.991C89.0036 181.823 87.9955 181.487 87.0434 181.515C86.5673 181.515 86.0913 181.459 85.6993 181.459C85.3352 181.515 84.9712 181.571 84.6351 181.627C84.3271 181.655 84.0191 181.683 83.6831 181.851C83.375 181.963 83.095 182.075 82.871 182.159C82.4229 182.327 82.1709 182.439 82.1709 182.439L81.3308 179.582Z" fill="#020000"/>
    <path d="M76.2064 194.984C76.2064 194.984 76.4304 194.844 76.9905 194.536C77.3265 194.396 77.7746 194.172 78.1946 194.032C78.5867 193.92 79.0627 193.78 79.5388 193.668C81.499 193.248 84.0472 193.024 86.5675 193.024C89.1157 193.024 91.636 193.276 93.4842 193.724C94.4083 193.948 95.1363 194.228 95.6404 194.48C96.1164 194.788 96.3405 194.984 96.3405 194.984C96.3405 194.984 96.0604 194.816 95.5844 194.592C95.0803 194.424 94.3243 194.228 93.4002 194.172C91.552 194.004 89.0877 194.144 86.6795 194.508C84.2432 194.872 81.863 195.46 80.2388 196.076C79.8188 196.216 79.4828 196.412 79.1747 196.524C78.9507 196.636 78.7547 196.748 78.5867 196.86C78.1946 197.14 77.9426 197.364 77.9426 197.364L76.2064 194.984Z" fill="#020000"/>
    <path d="M160.691 174.234C160.691 174.234 160.299 174.066 159.627 173.786C158.955 173.562 157.947 173.002 156.855 172.778C156.295 172.638 155.679 172.47 155.035 172.302C154.39 172.134 153.634 172.078 152.878 171.966C151.366 171.657 149.742 171.77 148.118 171.685C146.494 171.854 144.842 171.882 143.329 172.274C142.573 172.442 141.817 172.526 141.145 172.75C140.473 172.974 139.829 173.198 139.241 173.394C138.037 173.73 137.169 174.346 136.497 174.626C135.853 174.962 135.461 175.158 135.461 175.158C135.461 175.158 135.825 174.934 136.413 174.514C137.057 174.15 137.869 173.422 139.045 172.974C139.633 172.694 140.249 172.414 140.893 172.106C141.565 171.798 142.321 171.629 143.049 171.349C144.561 170.761 146.242 170.565 147.922 170.201C149.63 170.089 151.338 169.809 152.962 169.921C153.774 169.949 154.559 169.921 155.315 170.033C156.071 170.145 156.799 170.257 157.471 170.369C158.871 170.537 159.767 170.929 160.495 171.097C161.195 171.293 161.615 171.405 161.615 171.405L160.691 174.234Z" fill="#020000"/>
    <path d="M155.23 189.915C155.23 189.915 154.922 189.719 154.39 189.411C154.11 189.243 153.802 189.047 153.41 188.823C153.018 188.543 152.626 188.431 152.178 188.263C151.73 188.095 151.254 187.899 150.75 187.703C150.19 187.563 149.574 187.423 148.958 187.255C148.342 187.087 147.67 186.947 146.998 186.891C146.326 186.807 145.626 186.723 144.925 186.639C143.525 186.639 142.097 186.527 140.781 186.667C139.437 186.723 138.233 186.919 137.169 187.115C136.105 187.255 135.264 187.563 134.648 187.731C134.032 187.899 133.696 188.011 133.696 188.011C133.696 188.011 134.032 187.871 134.592 187.619C135.18 187.395 135.993 186.947 137.029 186.695C138.065 186.359 139.269 185.995 140.641 185.771C141.985 185.435 143.441 185.351 144.897 185.183C145.626 185.183 146.382 185.155 147.11 185.155C147.838 185.127 148.566 185.155 149.266 185.267C149.966 185.351 150.638 185.407 151.282 185.491C151.954 185.659 152.57 185.827 153.158 185.967C154.39 186.219 155.118 186.667 155.707 186.891C156.295 187.143 156.603 187.283 156.603 187.283L155.23 189.915Z" fill="#020000"/>
    <path d="M177.381 121.532C178.697 124.305 177.521 127.665 174.748 129.009L126.611 151.944C123.839 153.26 120.479 152.084 119.135 149.311L82.8148 73.1435C81.4987 70.3712 82.6748 67.0108 85.4471 65.6667L133.584 42.7324C136.356 41.4162 139.717 42.5923 141.061 45.3646L177.381 121.532Z" fill="#819598"/>
    <path d="M177.493 121.476C177.381 121.476 178.305 122.568 177.969 124.949C177.801 126.097 177.157 127.525 175.784 128.589C174.328 129.541 172.62 130.213 170.716 131.193C166.88 133.014 162.315 135.422 157.051 138.082C151.758 140.742 145.849 143.851 139.325 147.071C136.048 148.667 132.66 150.347 129.132 152.084C128.18 152.504 127.508 152.98 126.331 153.372C125.939 153.568 125.127 153.652 124.483 153.736C123.867 153.68 123.251 153.736 122.663 153.54C121.459 153.288 120.339 152.616 119.443 151.775C118.519 150.935 117.959 149.647 117.566 148.807C113.982 141.274 110.454 133.21 106.673 124.949C102.977 116.632 98.9726 108.119 94.8842 99.4941C92.812 95.2097 90.7118 90.8693 88.5835 86.5288C86.4273 82.1884 84.2431 77.8199 82.0869 73.4515C80.9388 71.1833 81.4148 67.6549 83.627 65.8907C84.7471 64.9106 85.9233 64.4906 86.9594 63.9305L90.2077 62.3063C94.5481 60.1781 98.8606 58.0499 103.145 55.9217C111.742 51.7493 120.199 47.6329 128.376 43.6564L131.428 42.1723L132.94 41.4442C133.78 41.1362 133.948 40.9962 134.9 40.8562C136.44 40.6041 137.785 40.8562 139.073 41.4722C140.333 42.0603 141.425 43.0404 142.097 44.2445C144.169 48.3889 145.849 52.1133 147.698 55.9217C151.31 63.4265 154.558 70.6232 157.583 77.2319C160.551 83.8966 163.239 89.9732 165.647 95.3777C168.084 100.782 170.1 105.515 171.92 109.351L177.493 121.476ZM177.241 121.56C177.241 121.56 175.112 117.22 171.388 109.603C169.568 105.767 167.132 101.202 164.471 95.9378C161.783 90.6732 158.759 84.7366 155.454 78.24C152.206 71.7153 148.678 64.6866 145.093 57.1538C143.301 53.4574 141.425 49.397 139.549 45.7287C138.821 44.3285 136.944 43.4884 135.488 43.7405C135.292 43.6564 134.452 44.0485 134.228 44.1045L132.688 44.8046L129.608 46.2327C121.375 50.0971 112.862 54.0735 104.209 58.1059C99.8687 60.0941 95.5002 62.1103 91.1038 64.1545L87.7995 65.6667C86.6793 66.1987 85.5312 66.6188 84.8032 67.2349C84.0191 67.8509 83.431 68.775 83.235 69.7831C83.039 70.8752 83.039 71.6593 83.543 72.8914C85.5592 77.2879 87.5474 81.6843 89.5356 86.0528C91.5798 90.4212 93.6241 94.7897 95.6683 99.1021C99.8127 107.699 103.901 116.156 108.018 124.277C112.078 132.426 116.11 140.238 119.695 147.771C120.199 148.779 120.507 149.479 121.123 150.011C121.711 150.543 122.411 150.991 123.195 151.103C123.559 151.243 123.979 151.187 124.371 151.215C124.735 151.103 124.931 151.215 125.463 150.991C126.191 150.795 127.199 150.207 128.068 149.843C131.624 148.191 135.068 146.595 138.373 145.083C144.981 142.031 151.114 139.398 156.518 136.99C161.923 134.554 166.656 132.538 170.492 130.717C172.368 129.793 174.216 129.093 175.532 128.253C176.821 127.301 177.465 125.985 177.633 124.893C177.997 122.709 177.129 121.588 177.241 121.56Z" fill="#020000"/>
    <path d="M149.014 65.5547C149.014 65.5547 143.413 53.0934 140.781 47.9969L139.689 46.5407C139.521 46.3167 139.185 45.9527 138.905 45.6726L138.148 44.9446L138.233 45.4766L138.036 44.9446H138.008L137.952 44.9166L137.756 44.8325L137 44.5245C136.664 44.4405 136.188 44.3845 135.796 44.3565C134.9 44.2445 134.172 44.5805 133.64 44.6645C132.464 44.8045 123.391 49.9291 123.391 49.9291C123.391 49.9291 136.496 44.4405 138.821 49.677L149.014 65.5547Z" fill="#FAFCFC"/>
    <path d="M31.7377 121.868C24.289 112.151 6.89919 128.869 3.28682 136.794C-1.89371 148.079 2.83877 164.069 17.5683 164.853C37.2823 165.889 53.2159 146.903 67.7214 135.842C72.4259 140.378 74.3581 142.647 77.9425 148.275C81.6668 154.128 84.2151 159.28 85.2232 166.113C86.3713 173.898 89.9837 176.558 98.0485 176.53C105.189 176.53 111.406 175.802 118.043 174.43C130.84 171.742 144.365 168.381 154.026 158.72C159.263 153.484 163.015 149.255 162.259 141.946C161.559 135.17 160.467 129.709 157.779 123.493C155.342 117.892 152.094 112.824 148.594 107.727C145.121 102.658 140.221 99.4941 136.44 94.9297C138.149 93.9496 140.053 93.1655 141.733 92.3534C140.669 96.5538 140.333 97.5899 142.965 100.782C144.925 103.163 146.717 105.375 148.37 107.839C153.018 114.728 156.883 116.324 164.835 114.112C177.521 110.555 187.322 97.1699 172.76 88.461C171.64 87.7889 170.352 87.2289 169.064 86.8368C172.312 73.9275 169.036 60.7942 154.306 57.3778C141.397 54.3815 124.175 59.282 112.61 65.2186C95.7243 73.8715 78.8385 81.3483 63.465 92.7454C56.2682 98.094 49.4355 103.779 42.5188 109.407C38.3464 112.795 35.6581 118.256 31.3457 121.056C31.2337 120.524 31.2617 119.992 31.2617 119.432L31.7377 121.868Z" fill="#7E9597"/>
    <path d="M136.048 94.3696C132.688 94.8737 129.272 96.2458 126.92 98.9061C136.721 105.011 143.385 116.436 147.894 126.937C151.562 135.478 159.571 149.983 153.214 159.252C177.661 150.879 148.426 101.762 134.312 94.9577" fill="#FFFDFD"/>
    <path d="M15.58 122.905C11.2396 127.245 2.92275 130.997 1.49461 144.019C0.15047 156.312 9.53143 166.141 18.8564 163.537C7.73925 165.049 3.87485 151.299 7.09518 143.795C9.2514 138.754 14.3199 133.602 18.5483 130.017" fill="white"/>
    <path d="M169.344 67.7949C158.115 59.17 130.84 64.9946 119.807 72.7234C119.975 69.139 118.715 66.0027 117.567 62.7544C122.747 56.7338 137.421 56.7898 145.373 56.4537C156.154 55.9777 160.999 60.1221 168.14 66.3387" fill="#FFFDFD"/>
    <path d="M67.1614 136.038C70.0737 133.714 78.8386 135.45 83.515 141.302C93.5681 153.876 94.5202 160.316 96.3684 165.833C98.6926 172.834 105.805 176.642 109.81 176.334C97.0124 178.77 86.8754 178.294 84.1031 164.069C82.1149 153.82 75.3662 143.851 67.7494 137.214" fill="white"/>
    <path d="M31.6258 121.952C30.7577 120.86 29.6936 120.02 28.4055 119.572C27.1453 119.124 25.7732 119.096 24.4291 119.292C21.7688 119.74 19.3045 121.056 17.0363 122.568C12.5558 125.677 8.66344 129.681 5.61113 134.134C2.55882 138.53 1.52271 144.187 2.33479 149.395C3.11887 154.632 6.08718 159.588 10.7357 161.941C13.0319 163.117 15.6082 163.733 18.2404 163.733C20.9567 163.789 23.561 163.509 26.1932 162.921C31.4018 161.688 36.3303 159.28 40.8947 156.34C50.0797 150.431 57.9485 142.647 66.8254 135.87L67.6655 135.226L68.3935 135.954C71.1098 138.642 74.2741 141.162 76.7104 144.467C79.0906 147.743 81.0788 151.103 82.815 154.772C84.4952 158.384 85.6713 162.361 86.1754 166.281C86.4834 168.213 86.9314 169.949 87.8555 171.517C88.7516 173.058 90.1798 174.178 91.8879 174.794C95.3603 176.054 99.3367 175.634 103.257 175.634C107.121 175.41 111.014 175.074 114.85 174.374C118.687 173.73 122.523 172.862 126.303 171.938C130.084 170.985 133.836 169.921 137.477 168.493C141.089 167.093 144.617 165.357 147.81 163.173C151.03 161.016 153.83 158.3 156.463 155.416C159.067 152.588 161.335 149.283 161.755 145.475C162.007 143.599 161.755 141.694 161.503 139.734C161.251 137.802 160.943 135.898 160.523 133.994C159.711 130.213 158.507 126.489 156.855 123.017C155.174 119.432 153.298 116.128 151.142 112.851C150.106 111.227 148.958 109.575 147.894 108.035C146.69 106.411 145.541 105.039 144.141 103.695C141.425 100.978 138.317 98.514 135.684 95.4057L134.9 94.4816L135.964 93.9216C137.757 92.9415 139.549 92.0734 141.313 91.2613L143.301 90.3652L142.769 92.4654C142.545 93.3615 142.209 94.2296 141.761 95.0137C141.341 95.7977 140.753 96.5538 140.529 97.0579C140.109 97.6179 141.173 98.8781 142.349 100.054C143.441 101.118 144.729 102.238 145.933 103.359C147.138 104.479 148.426 105.683 149.462 107.139C150.414 108.539 151.338 109.687 152.458 110.779C153.55 111.843 154.754 112.683 156.127 113.132C158.815 114.056 162.035 113.412 165.059 112.515C166.6 112.039 168 111.451 169.4 110.695C170.772 109.967 172.088 109.099 173.292 108.091C175.673 106.131 177.633 103.583 178.389 100.782C179.145 97.982 178.277 95.0697 176.261 92.8854C175.28 91.7653 174.076 90.8132 172.76 89.9732L172.256 89.6651C172.2 89.6371 172.004 89.5251 172.088 89.5531L171.808 89.4131L170.716 88.853C169.988 88.461 169.344 88.349 168.672 88.041L167.384 87.5089L167.692 86.3048C168.56 82.8044 168.952 79.1641 168.672 75.6357C168.392 72.1073 167.384 68.635 165.395 65.8347C163.435 63.0064 160.551 60.8782 157.275 59.6181C155.594 58.974 153.998 58.5819 152.094 58.2459C150.302 57.9379 148.594 57.8259 146.746 57.7419C139.465 57.6019 132.156 59.114 125.127 61.3542C121.627 62.4743 118.155 63.8185 114.822 65.3866L104.741 70.3432C91.2719 76.9238 77.7745 83.4205 65.5933 92.0454C62.5409 94.1456 59.6286 96.5538 56.6323 98.7661C53.636 101.006 50.7237 103.387 47.7834 105.683C44.8711 108.063 41.7348 110.107 39.3826 112.964C36.9463 115.736 34.7341 118.928 31.4858 121L31.2057 121.168L31.1777 120.86C31.0937 120.3 31.0937 119.74 31.1217 119.18L31.2337 117.612L31.4858 119.32L31.9338 122.344L31.6258 121.952ZM31.5138 121.42L31.1497 119.376L31.5138 119.348C31.4858 119.88 31.5418 120.412 31.6258 120.916L31.3178 120.776C34.3981 118.676 36.4423 115.456 38.8225 112.571C41.1468 109.519 44.3111 107.335 47.1114 104.871C49.9677 102.434 52.852 100.054 55.8203 97.7579C58.7886 95.4617 61.6168 93.0535 64.7252 90.8412C76.8784 81.8803 90.4318 75.1036 103.733 68.2989L113.758 63.1464C117.175 61.4662 120.703 60.0101 124.315 58.806C131.54 56.4257 139.101 54.8576 146.858 54.9696C148.762 55.0256 150.778 55.1656 152.682 55.5016C154.474 55.8097 156.547 56.2857 158.367 56.9858C162.091 58.3859 165.535 60.8782 167.832 64.2105C170.184 67.5429 171.332 71.5473 171.668 75.4397C172.004 79.3881 171.5 83.3085 170.548 87.0609L169.568 85.2967C170.408 85.6327 171.388 85.9407 172.116 86.3048L173.208 86.8648L173.488 87.0048L173.852 87.2289L174.412 87.5929C175.869 88.545 177.269 89.6651 178.473 91.0373C179.677 92.4094 180.657 94.0616 181.133 95.8818C181.637 97.7299 181.581 99.6902 181.133 101.482C180.125 105.095 177.773 107.979 175.084 110.163C173.74 111.255 172.256 112.207 170.716 113.02C169.204 113.832 167.524 114.504 165.9 114.98C164.247 115.456 162.595 115.876 160.803 116.044C159.039 116.212 157.163 116.128 155.37 115.512C153.578 114.924 152.038 113.776 150.806 112.515C149.574 111.283 148.482 109.827 147.586 108.483C146.746 107.223 145.597 106.131 144.421 105.011C143.217 103.863 142.013 102.826 140.781 101.538C140.193 100.922 139.633 100.334 139.073 99.4941C138.821 99.0741 138.541 98.626 138.401 98.01C138.261 97.3939 138.373 96.6378 138.625 96.1338C139.129 95.1537 139.605 94.5936 139.969 93.9496C140.333 93.3055 140.613 92.6334 140.809 91.9334L142.265 93.1375C140.445 93.9216 138.709 94.7616 137.029 95.6297L137.309 94.1176C139.717 97.0579 142.713 99.5501 145.513 102.406C148.426 105.263 150.47 108.651 152.57 111.983C154.67 115.288 156.603 118.844 158.199 122.4C159.851 126.041 160.999 129.849 161.755 133.742C162.147 135.674 162.427 137.634 162.651 139.594C162.847 141.526 163.099 143.571 162.847 145.587C162.371 149.703 159.907 153.176 157.247 156.032C154.558 158.916 151.702 161.688 148.398 163.873C145.093 166.057 141.565 167.849 137.897 169.333C134.228 170.817 130.448 171.91 126.639 172.918C122.831 173.87 119.023 174.766 115.13 175.466C111.266 176.222 107.346 176.67 103.397 176.978C99.5327 177.062 95.4723 177.622 91.4399 176.306C89.4517 175.634 87.5755 174.262 86.4554 172.414C85.3353 170.621 84.7752 168.521 84.4392 166.589C83.8511 162.725 82.703 159.14 81.0228 155.668C79.3707 152.252 77.2424 148.919 75.0022 145.867C72.762 142.843 69.7097 140.462 66.8534 137.69L68.4215 137.774C59.7967 144.495 51.7878 152.308 42.2669 158.3C37.5344 161.268 32.3539 163.789 26.7813 165.049C24.037 165.665 21.0967 165.945 18.2964 165.861C15.4121 165.805 12.4718 165.133 9.86756 163.733C7.2633 162.333 5.10708 160.204 3.56692 157.712C2.02676 155.22 1.10267 152.448 0.710628 149.591C0.318588 146.735 0.458602 143.851 1.07467 141.05C1.69073 138.278 2.86685 135.562 4.54702 133.266C6.17119 130.941 8.04738 128.869 10.0916 126.937C12.1078 125.005 14.292 123.241 16.6723 121.756C19.0525 120.3 21.6288 119.012 24.4571 118.648C25.8572 118.48 27.3133 118.564 28.6575 119.096C29.7216 119.628 30.7297 120.468 31.5138 121.42Z" fill="#020202"/>
    <path d="M139.213 92.2694C139.185 92.2414 140.109 92.0174 141.201 91.4573C142.321 90.9533 143.861 90.0292 145.401 89.1891C146.97 88.377 148.594 87.6209 149.91 87.3409C150.526 87.1169 151.114 87.1729 151.478 87.1169C151.87 87.0889 152.066 87.0609 152.066 87.0609C152.066 87.0609 151.842 87.0889 151.478 87.1729C151.114 87.2849 150.554 87.2569 149.966 87.5649C148.734 87.957 147.222 88.8531 145.765 89.8052C144.309 90.7853 142.937 91.7934 141.705 92.5214C141.117 92.9135 140.613 93.1375 140.277 93.3055C139.941 93.4735 139.745 93.5575 139.745 93.5575L139.213 92.2694Z" fill="#020202"/>
    <path d="M144.225 64.5746C165.843 60.4862 168.756 97.87 159.095 103.219C178.109 99.1581 172.648 49.8451 148.566 63.7065" fill="#FFFDFD"/>
    <path d="M7.31938 132.566C7.31938 132.566 7.29137 132.902 7.23537 133.49C7.23537 134.05 6.95534 135.03 7.09536 135.87C7.15136 136.318 7.17936 136.794 7.23537 137.298C7.20737 137.802 7.5154 138.362 7.65541 138.922C7.82343 139.482 7.96344 140.098 8.29948 140.63C8.60751 141.19 8.88754 141.778 9.22357 142.339C9.61561 142.843 10.0357 143.375 10.4277 143.879C10.7917 144.439 11.3238 144.803 11.7718 145.251C12.2479 145.671 12.6399 146.119 13.144 146.427C13.62 146.763 14.0681 147.043 14.4881 147.351C15.3282 147.939 16.1403 148.191 16.6723 148.499C17.2044 148.751 17.5124 148.919 17.5124 148.919C17.5124 148.919 17.1764 148.807 16.6163 148.639C16.0563 148.415 15.1882 148.275 14.2641 147.799C13.788 147.575 13.284 147.323 12.7519 147.043C12.1919 146.819 11.7158 146.399 11.1558 146.035C10.6237 145.615 10.0077 145.279 9.5316 144.747C9.02755 144.243 8.5235 143.767 8.01945 143.263C7.5714 142.703 7.17936 142.114 6.75932 141.526C6.28327 140.966 6.05925 140.294 5.75122 139.678C5.49919 139.034 5.10715 138.474 4.99514 137.802C4.85513 137.158 4.71511 136.542 4.5751 135.954C4.29507 134.778 4.43508 134.022 4.37908 133.406C4.35107 132.818 4.35107 132.454 4.35107 132.454L7.31938 132.566Z" fill="#020202"/>
    <path d="M129.3 58.414C129.3 58.414 129.72 59.7861 130.336 61.8583C130.644 62.8944 131.064 64.0705 131.344 65.4147C131.652 66.7588 131.988 68.159 132.324 69.5871C132.576 71.0152 132.716 72.4714 132.912 73.8155C133.136 75.1597 133.164 76.4198 133.136 77.5119C133.136 79.6681 133.136 81.0963 133.136 81.0963C133.136 81.0963 132.94 79.6681 132.66 77.5399C132.548 76.4758 132.352 75.2437 131.96 73.9555C131.596 72.6674 131.288 71.2953 130.868 69.9511C130.364 68.635 129.888 67.3189 129.412 66.0587C128.992 64.8266 128.404 63.6785 127.984 62.6984C127.088 60.7382 126.5 59.4221 126.5 59.4221L129.3 58.414Z" fill="#020202"/>
    <path d="M148.202 54.9416C148.202 54.9416 148.426 55.1936 148.846 55.6417C149.042 55.8937 149.294 56.0617 149.602 56.5378C149.882 56.9858 150.218 57.4898 150.526 58.0499C150.722 58.61 150.946 59.226 151.142 59.8701C151.226 60.5142 151.422 61.2142 151.45 61.9143C151.562 63.3144 151.506 64.7426 151.45 66.1147C151.366 67.4869 151.478 68.887 151.254 70.2592C151.058 71.5753 150.806 72.7794 150.582 73.8155C150.358 74.8516 150.134 75.6917 149.938 76.2798C149.854 76.5598 149.77 76.8118 149.686 76.9518C149.602 77.1479 149.49 77.0638 149.518 77.0358C149.49 77.0358 149.602 77.1199 149.658 76.9238C149.714 76.7838 149.77 76.5318 149.826 76.2518C149.938 75.6637 150.05 74.7956 150.134 73.7595C150.218 72.7234 150.302 71.4913 150.33 70.2031C150.358 68.943 150.078 67.5989 149.966 66.1707C149.826 64.7706 149.714 63.3984 149.462 62.1943C149.35 61.5783 149.126 61.0742 148.986 60.5422C148.762 60.0941 148.538 59.6461 148.342 59.254C148.062 58.946 147.866 58.666 147.67 58.4139C147.502 58.1619 147.11 57.9099 146.886 57.7139C146.41 57.3218 146.158 57.0978 146.158 57.0978L148.202 54.9416Z" fill="#020202"/>
    <path d="M167.832 64.8266C167.832 64.8266 167.916 65.1346 168.084 65.6667C168.168 65.9187 168.224 66.4228 168.308 66.8988C168.392 67.4309 168.336 67.8509 168.364 68.383C168.308 70.4832 167.636 73.0594 166.572 75.4397C165.507 77.8199 163.939 79.9761 162.399 81.1803C161.615 81.7683 160.859 82.0764 160.327 82.2164C159.767 82.2724 159.459 82.3284 159.459 82.3284C159.459 82.3284 159.767 82.2444 160.299 82.1044C160.803 81.9083 161.475 81.4883 162.119 80.8442C163.379 79.5001 164.555 77.2879 165.199 74.9356C165.844 72.6114 166.124 70.1471 165.872 68.467C165.788 68.0749 165.788 67.6269 165.675 67.4029C165.563 67.1228 165.591 66.9548 165.451 66.7028C165.227 66.1987 165.087 65.9187 165.087 65.9187L167.832 64.8266Z" fill="#020202"/>
    <path d="M139.913 96.8899C139.913 96.8899 139.885 97.1979 139.857 97.758C139.829 98.038 139.801 98.374 139.773 98.7661C139.745 99.1581 139.745 99.5781 139.549 100.138C139.381 100.67 139.213 101.258 139.045 101.874C138.905 102.518 138.569 103.022 138.261 103.583C137.925 104.143 137.673 104.759 137.253 105.263C136.86 105.795 136.44 106.299 136.02 106.831C135.628 107.363 135.096 107.783 134.676 108.259C134.228 108.707 133.78 109.183 133.276 109.547C132.352 110.331 131.456 111.031 130.616 111.535C129.832 112.095 129.132 112.487 128.628 112.767C128.152 113.048 127.872 113.216 127.872 113.216C127.872 113.216 128.124 113.02 128.572 112.655C129.02 112.319 129.636 111.815 130.336 111.171C131.064 110.555 131.82 109.743 132.604 108.875C133.024 108.455 133.388 107.951 133.752 107.475C134.088 106.971 134.536 106.523 134.816 105.963C135.124 105.431 135.432 104.899 135.712 104.367C136.02 103.863 136.16 103.275 136.356 102.742C136.552 102.21 136.776 101.706 136.804 101.258C136.889 100.81 136.945 100.362 137.001 99.9702C137.113 99.6061 137.029 99.1301 137.029 98.7661C137.001 98.374 136.973 98.038 136.945 97.758C136.917 97.1979 136.889 96.8899 136.889 96.8899H139.913Z" fill="#020202"/>
    <path d="M147.838 112.515L147.726 112.375C147.726 112.375 147.67 112.291 147.614 112.235L147.362 111.983L147.194 111.815C147.138 111.731 147.082 111.675 147.026 111.591L146.97 111.479C146.942 111.395 146.942 111.507 146.858 111.087C146.746 110.751 147.026 109.883 147.53 109.659C148.006 109.407 148.202 109.463 148.174 109.435H148.37C148.51 109.435 148.622 109.463 148.762 109.491L150.106 109.827L149.826 111.003C149.602 111.843 149.434 112.683 149.182 113.496L148.23 115.82C147.474 117.276 146.662 118.704 145.71 120.02C145.289 120.692 144.701 121.28 144.197 121.924C143.721 122.568 143.077 123.101 142.517 123.661C141.985 124.249 141.257 124.669 140.613 125.145C139.997 125.649 139.157 125.817 138.457 126.181C139.101 125.733 139.857 125.453 140.389 124.865C140.949 124.305 141.537 123.829 141.985 123.185C142.433 122.568 142.965 122.008 143.329 121.308C143.721 120.636 144.169 120.02 144.477 119.32C145.177 117.948 145.738 116.52 146.214 115.092L146.746 112.907C146.83 112.179 146.886 111.479 146.97 110.779L148.034 112.291C148.118 112.319 148.202 112.319 148.286 112.319H148.398C148.342 112.291 148.538 112.375 149.014 112.123C149.518 111.899 149.798 111.031 149.658 110.723C149.546 110.303 149.546 110.415 149.546 110.359L149.49 110.247C149.462 110.191 149.406 110.107 149.378 110.079C149.238 109.911 149.35 110.023 149.322 109.995C149.322 109.995 149.406 110.051 149.49 110.107C149.574 110.163 149.658 110.219 149.798 110.331L150.078 110.583L147.838 112.515Z" fill="#020202"/>
    <path d="M160.327 125.705C160.327 125.705 160.271 126.013 160.159 126.545C160.019 127.105 159.991 127.777 159.627 128.785C159.319 129.765 158.927 130.885 158.283 131.949C158.031 132.51 157.667 133.042 157.275 133.546C156.883 134.05 156.575 134.61 156.099 135.058L154.81 136.458C154.334 136.878 153.886 137.27 153.438 137.662C152.57 138.446 151.646 139.034 150.918 139.594C149.378 140.602 148.342 141.274 148.342 141.274C148.342 141.274 149.266 140.462 150.638 139.23C151.282 138.558 152.094 137.858 152.794 136.962C153.158 136.542 153.55 136.094 153.914 135.618C154.25 135.142 154.586 134.638 154.922 134.134C155.287 133.658 155.483 133.098 155.763 132.594C156.043 132.089 156.267 131.585 156.435 131.053C156.855 130.045 157.023 129.065 157.135 128.281C157.331 127.525 157.247 126.629 157.331 126.125C157.359 125.593 157.387 125.285 157.387 125.285L160.327 125.705Z" fill="#020202"/>
    <path d="M71.8658 142.787C71.8658 142.787 71.8098 142.787 71.6978 142.759C71.7258 142.759 71.6418 142.759 71.7258 142.759L71.8938 142.731H71.9498C72.0058 142.675 72.0618 142.815 72.6499 142.339C73.0699 142.171 73.238 140.686 72.6779 140.35C72.3139 139.986 72.1458 139.986 72.0338 139.93L71.8378 139.874C71.7258 139.874 71.8098 139.874 71.8378 139.874C71.9218 139.874 72.0058 139.902 72.1178 139.93C72.5939 139.986 73.266 140.07 74.078 140.154C74.8901 140.238 75.8422 140.322 76.8783 140.434C77.3824 140.462 77.9144 140.518 78.4465 140.546L79.2306 140.574C79.3426 140.574 79.5386 140.574 79.5386 140.574L79.9586 140.518C81.0788 140.378 82.1429 140.21 83.095 139.93C84.0751 139.706 84.9432 139.314 85.7272 139.034C86.5113 138.754 87.0994 138.39 87.5194 138.166C87.9395 137.942 88.1915 137.83 88.1915 137.83C88.1915 137.83 87.9675 137.998 87.5754 138.278C87.1834 138.558 86.6513 139.034 85.9233 139.454C85.1952 139.874 84.3831 140.434 83.375 140.854C82.3949 141.358 81.3308 141.694 80.2667 142.03L79.8746 142.143L79.3706 142.255L78.5025 142.367C77.9424 142.423 77.4104 142.479 76.8783 142.535C75.8422 142.619 74.8621 142.675 74.022 142.731C73.182 142.787 72.4819 142.815 71.9778 142.843C71.8378 142.843 71.7258 142.843 71.6138 142.843C71.5298 142.843 71.5298 142.843 71.3338 142.815H71.3058L71.1097 142.759C70.9977 142.703 70.8577 142.703 70.4657 142.339C69.9056 142.002 70.0736 140.49 70.4937 140.322C71.0817 139.846 71.1097 139.986 71.1657 139.93H71.2218L71.4458 139.902H71.5858C71.7258 139.902 71.8098 139.874 71.8098 139.874L71.8658 142.787Z" fill="#020202"/>
    <path d="M80.5748 150.431C80.5748 150.431 80.8268 150.571 81.2748 150.795C81.4988 150.907 81.7789 151.047 82.0869 151.215C82.4229 151.411 82.759 151.523 83.067 151.579C83.403 151.663 83.7951 151.747 84.1871 151.859C84.5792 152 85.1112 151.944 85.5873 152.028C86.0913 152.056 86.6234 152.14 87.1554 152.084C87.6875 152.056 88.2475 152.028 88.8076 152C89.3677 152 89.9277 151.859 90.4598 151.775C90.9918 151.663 91.5519 151.635 92.0559 151.467C93.092 151.187 94.0721 150.963 94.8562 150.655C96.4804 150.123 97.4605 149.451 97.4885 149.507C97.4605 149.451 96.6204 150.291 95.0522 151.075C94.2962 151.523 93.3721 151.915 92.364 152.364C91.8599 152.616 91.2999 152.728 90.7678 152.952C90.2077 153.12 89.6757 153.372 89.0876 153.456C88.4996 153.596 87.9115 153.708 87.3514 153.848C86.7914 153.988 86.1753 153.988 85.6153 154.072C85.0272 154.1 84.5232 154.24 83.9351 154.156C83.347 154.1 82.815 154.044 82.3109 153.988C81.2188 153.932 80.7148 153.568 80.1827 153.456C79.7067 153.316 79.4266 153.204 79.4266 153.204L80.5748 150.431Z" fill="#020202"/>
    <path d="M85.8114 161.352C85.8114 161.352 85.9795 161.576 86.2595 161.969C86.3715 162.081 86.4555 162.081 86.5675 162.221C86.7635 162.333 87.0436 162.501 87.3516 162.641C88.6397 163.201 90.824 163.509 93.0082 163.453C95.1924 163.425 97.4046 163.117 99.0288 162.697C100.653 162.305 101.633 161.716 101.633 161.716C101.633 161.716 100.765 162.473 99.1968 163.145C97.6286 163.845 95.4444 164.517 93.1762 164.937C90.908 165.357 88.5277 165.469 86.5955 165.049C86.1195 164.937 85.6714 164.769 85.2514 164.601C84.8033 164.349 84.3553 164.041 84.1033 163.845C83.7392 163.509 83.5432 163.313 83.5432 163.313L85.8114 161.352Z" fill="#020202"/>
    <path d="M86.2873 135.058C85.0552 135.73 84.6911 137.466 85.0552 138.166C87.8555 143.823 91.7759 150.599 93.512 153.96C93.9881 154.884 95.1642 155.472 96.6204 155.192C107.289 153.064 122.747 143.039 125.099 139.454C125.631 139.286 125.771 137.634 125.463 136.29C123.307 131.305 119.975 125.313 117.146 120.692C116.054 119.628 114.57 119.964 113.45 120.328C106.673 125.145 96.1443 130.969 86.2873 135.058Z" fill="#C5CCD0"/>
    <path d="M101.185 137.186C98.5526 138.642 95.5843 140.07 92.168 141.386C91.1879 141.778 89.9557 141.134 89.4517 139.958C88.9476 138.782 89.3677 137.55 90.3478 137.158C97.0125 134.61 101.997 131.501 105.973 128.785C106.869 128.169 108.13 128.561 108.802 129.625C109.474 130.689 109.334 132.033 108.438 132.65C106.337 134.106 103.957 135.646 101.185 137.186Z" fill="white"/>
    <path d="M101.885 148.583C100.401 149.311 98.7205 149.955 96.7323 150.375C96.1442 150.515 95.3042 149.703 94.8281 148.611C94.3521 147.491 94.4641 146.511 95.0241 146.371C98.9165 145.503 101.661 143.823 103.817 142.311C104.321 141.946 105.133 142.563 105.721 143.627C106.281 144.691 106.365 145.811 105.889 146.147C104.769 146.959 103.453 147.827 101.885 148.583Z" fill="white"/>
    <path d="M113.87 130.493C115.509 130.493 116.838 129.164 116.838 127.525C116.838 125.886 115.509 124.557 113.87 124.557C112.231 124.557 110.902 125.886 110.902 127.525C110.902 129.164 112.231 130.493 113.87 130.493Z" fill="white"/>
    <path d="M117.566 140.07C118.695 140.07 119.611 139.155 119.611 138.026C119.611 136.897 118.695 135.982 117.566 135.982C116.437 135.982 115.522 136.897 115.522 138.026C115.522 139.155 116.437 140.07 117.566 140.07Z" fill="white"/>
    <path d="M112.162 140.21C113.291 140.21 114.206 139.295 114.206 138.166C114.206 137.037 113.291 136.122 112.162 136.122C111.033 136.122 110.118 137.037 110.118 138.166C110.118 139.295 111.033 140.21 112.162 140.21Z" fill="white"/>
    <path d="M86.2873 135.058C85.0552 135.73 84.6911 137.466 85.0552 138.166C87.8555 143.823 91.7759 150.599 93.512 153.96C93.9881 154.884 95.1642 155.472 96.6204 155.192C107.289 153.064 122.747 143.039 125.099 139.454C125.631 139.286 125.771 137.634 125.463 136.29C123.307 131.305 119.975 125.313 117.146 120.692C116.054 119.628 114.57 119.964 113.45 120.328C106.673 125.145 96.1443 130.969 86.2873 135.058Z" stroke="#020202" stroke-width="0.5" stroke-miterlimit="10"/>
    <path d="M70.0178 127.917C97.8094 127.917 120.339 105.388 120.339 77.5959C120.339 49.8043 97.8094 27.2748 70.0178 27.2748C42.2262 27.2748 19.6967 49.8043 19.6967 77.5959C19.6967 105.388 42.2262 127.917 70.0178 127.917Z" fill="#7E9597"/>
    <path d="M22.1329 93.4175C25.2692 99.1861 28.2935 101.314 31.0378 102.714C40.4467 107.503 53.6921 109.463 67.8615 107.363C93.5401 103.583 112.526 87.957 110.258 72.4714C107.99 56.9578 85.3073 47.4648 59.6287 51.2172C43.527 53.6255 30.0577 60.6542 22.8049 69.3911C21.5728 70.8752 19.2766 73.0034 19.6686 78.744" fill="#F0EFEF"/>
    <path d="M67.8893 107.391C95.4722 102.798 112.554 87.985 110.286 72.4994C108.017 56.9858 85.2791 47.1288 59.6565 51.2452C55.5401 51.9173 41.9867 66.6748 42.7148 80.2842C43.8909 102.294 53.2158 107.839 57.5843 108.007C61.8687 108.203 63.6329 108.091 67.8893 107.391Z" fill="#C6CCD0"/>
    <path d="M28.2933 101.594C28.7694 102.294 35.9101 104.759 36.6662 105.739C58.0324 130.941 84.047 123.885 84.9431 123.633C86.7633 123.129 87.7994 122.849 87.7994 122.849C87.7994 122.849 86.7633 123.185 84.9991 123.745C84.103 124.025 83.0109 124.389 81.7508 124.753C80.4627 125.033 79.0065 125.313 77.4103 125.649C75.8422 126.041 74.05 126.041 72.1738 126.293C70.2976 126.545 68.3094 126.349 66.2652 126.377C64.221 126.237 62.0928 126.013 59.9646 125.621C57.8363 125.173 55.6801 124.725 53.6079 123.969C51.4797 123.381 49.5195 122.372 47.5313 121.532C45.6271 120.496 43.7229 119.544 42.0427 118.368C40.2785 117.304 38.7944 116.016 37.2822 114.868C35.9101 113.608 34.538 112.487 33.4458 111.255C32.2977 110.107 31.3456 108.959 30.5336 107.923C29.6935 106.915 27.9293 104.563 27.3412 103.779C25.073 101.034 23.2528 95.9658 23.2528 95.9658C23.2528 95.9658 25.073 98.794 28.2933 101.594Z" fill="#FCFCFC"/>
    <path d="M30.6457 62.4743C30.8978 61.5783 34.6221 36.9357 69.5697 30.5791C71.5579 30.5791 76.4024 29.963 76.4024 29.963C76.4024 29.963 75.2543 29.907 73.2661 29.795C72.258 29.767 71.0538 29.655 69.6537 29.627C68.2536 29.711 66.6854 29.795 64.9772 29.907C63.2411 29.935 61.4209 30.4391 59.4607 30.7191C57.5005 30.9711 55.5403 31.7832 53.4401 32.3153C51.4238 33.0713 49.3236 33.9114 47.2794 34.9195C45.2632 36.0116 43.219 37.1037 41.3708 38.5319C39.4106 39.792 37.7304 41.4442 35.9943 42.9283C34.3981 44.5805 32.7739 46.1767 31.4578 47.9129C30.0297 49.565 28.9096 51.3852 27.7614 53.0374C26.7813 54.8016 25.7452 56.3977 25.0452 58.0219C24.2331 59.59 23.673 61.1022 23.141 62.4463C22.6089 63.7625 22.3009 65.0786 21.9928 66.0867C21.5168 68.0749 20.7047 71.2392 20.7047 71.2392C20.7047 71.2392 27.3694 65.6947 30.6457 62.4743Z" fill="#FCFCFC"/>
    <path d="M22.7208 95.1817C23.0849 96.1338 23.2809 96.6938 23.2809 96.6938C23.2809 96.6938 23.7849 97.814 24.765 99.9422C25.1851 101.006 25.9132 102.266 26.7813 103.723C27.5653 105.235 28.6854 106.803 30.0016 108.539C32.6619 111.927 36.1062 116.072 41.0907 119.628C46.0192 123.185 52.2639 126.517 59.7126 128.169C67.1334 129.793 75.6462 129.821 84.0471 127.385C86.1473 126.713 88.1635 126.013 90.3197 125.117C92.2799 124.137 94.2681 123.269 96.2003 121.952C100.205 119.6 103.677 116.52 106.925 113.104C110.146 109.659 112.75 105.599 115.074 101.37C117.286 97.0579 118.799 92.4094 119.863 87.6209C120.843 82.8044 121.095 77.8199 120.731 72.8634C120.339 67.8789 119.135 62.9784 117.427 58.2459C115.55 53.6534 113.114 49.117 110.034 45.1126C106.841 41.2202 103.201 37.6918 99.1126 34.8075C94.9682 32.0072 90.4878 29.767 85.8393 28.1988C81.1348 26.7707 76.3463 25.7626 71.5578 25.6506C62.0089 25.2586 52.6559 27.8908 45.0951 32.0072C37.2543 36.3197 31.3457 42.3123 27.1733 48.7249C23.0569 55.1376 20.9287 61.9143 19.9206 67.9069C19.5845 69.7551 19.4445 71.5193 19.3325 73.2555C19.1365 73.7875 19.2765 74.3476 19.2485 74.7396C19.2485 74.9916 19.2765 75.2437 19.2765 75.4957C19.2765 78.464 19.5005 81.2083 19.7525 83.5885C19.8365 84.2606 19.9486 84.8766 20.0606 85.4927C20.3126 87.6489 20.8446 89.2171 21.1247 90.5052C21.5167 92.2134 21.7967 92.9695 21.7967 92.9695L21.8528 93.1655C21.8528 93.1655 21.5727 92.2974 21.2087 90.5892V90.5612C21.4887 91.6253 21.7687 92.6054 22.0768 93.3895C22.0768 93.4175 22.1048 93.4455 22.1048 93.5015L22.0208 93.5295C22.0208 93.4735 22.1608 94.1176 22.7208 95.1817ZM21.0407 72.0233C23.981 68.663 27.9294 65.4146 32.6339 62.5864C37.3383 59.7301 42.7429 57.0978 48.7075 55.1376C54.6721 53.1494 61.1968 51.9733 68.0575 51.7493C74.8902 51.5532 82.0309 52.1413 88.8916 54.1575C95.6403 56.2297 102.501 59.6181 106.645 65.5267C108.69 68.439 109.838 71.9673 109.782 75.5517C109.782 79.1361 108.55 82.6924 106.645 85.7167C102.865 91.9054 96.8164 96.2738 90.7118 99.3821C84.5231 102.49 78.0545 104.311 71.8939 105.543C65.7052 106.691 59.7406 107.195 54.2521 107.055C48.7635 106.887 43.751 106.215 39.4105 105.095C37.2823 104.451 35.2941 103.975 33.4739 103.135C31.5977 102.434 30.0856 101.762 28.7695 100.754C26.1652 98.8781 24.429 97.0019 23.4209 95.6017C23.3369 95.4337 23.1969 95.2097 23.0569 95.0137C22.8889 94.5096 22.6928 93.9496 22.4408 93.2215C22.0208 92.1574 21.6847 90.7572 21.3487 89.1331C20.9007 87.5089 20.6206 85.6327 20.3966 83.4765C20.0606 80.3682 20.0046 76.6718 20.5366 72.6674C20.7326 72.4434 20.8727 72.2473 21.0407 72.0233ZM23.5889 96.5538C24.569 97.954 26.1092 99.6901 28.3494 101.51C30.9817 103.639 34.6781 105.123 39.0745 106.635C43.443 108.035 48.5955 108.903 54.2521 109.155C59.8806 109.435 66.0693 109.071 72.3979 107.671C78.7266 106.355 85.2232 103.947 91.3558 100.502C97.4325 97.0299 103.369 92.4934 107.457 86.2488C109.418 83.1125 110.874 79.5001 111.07 75.6637C111.294 71.8553 110.202 67.9349 108.102 64.6586C103.873 58.0499 96.7044 54.1575 89.6477 51.9173C82.5069 49.649 75.0862 48.893 68.0295 49.201C60.9727 49.481 54.112 50.6851 48.0074 52.9814C41.9308 55.2216 36.4142 57.9659 31.7658 61.1862C27.3413 64.1825 23.5609 67.4869 20.8727 70.9872C21.0407 70.0351 21.1807 69.111 21.4047 68.1589C22.7208 62.3903 25.3251 56.1177 29.4975 50.2371C33.642 44.3845 39.6066 38.9519 46.6073 35.0315C53.944 31.0271 62.5129 28.9269 71.4738 29.0669C75.9543 29.1229 80.4627 29.963 84.8872 31.2232C89.3116 32.5953 93.5121 34.6955 97.5165 37.2158C101.465 39.82 105.021 43.0684 108.158 46.6807C111.266 50.3771 113.73 54.4655 115.802 58.918C117.623 63.4264 118.967 68.1309 119.555 72.9474C119.975 77.7919 119.807 82.6644 118.911 87.3969C117.903 92.1014 116.25 96.6098 114.038 100.782C111.742 104.899 108.97 108.651 105.693 111.843C102.417 114.98 98.8606 117.808 95.0802 119.796C93.288 120.944 91.1878 121.728 89.1996 122.624C87.3234 123.381 85.2792 124.053 83.319 124.641C75.3382 126.713 67.3854 126.909 60.2727 125.621C53.1599 124.277 46.9153 121.644 41.9308 118.424C36.9183 115.232 33.1379 111.507 30.5056 108.147C29.1615 106.467 28.0414 104.899 27.2293 103.443C26.3332 102.042 25.6051 100.81 25.1571 99.7462C24.121 97.6739 23.5889 96.5538 23.5889 96.5538Z" fill="#020000"/>
    <path d="M42.6027 141.778C29.6654 146.623 16.392 136.738 15.972 118.396C15.832 112.011 18.5202 104.339 25.5489 101.958C27.9292 101.146 32.5777 100.138 34.7339 101.342C38.1222 103.247 37.4782 106.523 34.7339 108.651C32.0736 110.751 27.5932 110.807 25.3809 112.291C33.3617 110.751 39.9704 112.655 44.3109 120.524C47.0551 125.481 48.0072 138.278 42.6027 141.834C42.8267 141.47 43.1628 141.078 43.3868 140.658" fill="white"/>
    <path d="M168.14 85.3527C168.98 84.7086 169.036 87.5649 168.28 88.7131C167.272 90.2812 167.944 92.6055 166.655 93.8936C164.135 96.3578 161.979 100.502 157.274 103.611C154.306 105.571 148.202 104.255 144.645 102.406C143.329 102.798 148.622 109.407 149.742 110.527C159.767 120.468 190.094 105.431 178.725 92.7455C176.372 90.1132 171.668 88.433 168.616 86.8089" fill="#FCFCFC"/>
    <path d="M168.14 85.3527C168.98 84.7086 169.344 84.9607 168.616 86.1368C167.608 87.7049 167.636 93.2495 164.723 97.1419C162.455 100.166 160.859 101.874 157.611 103.303C152.598 105.487 149.21 105.571 144.645 102.434C143.329 102.826 148.622 109.435 149.742 110.555C159.767 120.496 190.094 105.459 178.725 92.7735C176.372 90.1412 171.668 88.461 168.616 86.8369" fill="#FCFCFC"/>
    <path d="M42.6309 118.564C42.6309 118.564 40.9787 118.088 40.2226 117.724C39.8306 117.5 39.4105 117.388 38.9345 117.276C38.4584 117.136 37.8984 116.968 37.1983 116.94C35.8822 116.716 34.258 116.8 32.5498 116.996C30.8416 117.276 29.0215 117.696 27.3133 118.48C26.5012 118.76 25.6331 119.348 24.849 119.824C24.149 120.384 23.3929 120.86 22.8048 121.532C22.1328 122.12 21.6567 122.793 21.1807 123.465C20.7326 124.053 20.4526 124.865 20.1446 125.481C19.7525 126.825 19.5565 128.001 19.3885 128.841C19.1925 129.653 19.0804 130.129 19.0804 130.129C19.0804 130.129 19.1645 129.653 19.2765 128.813C19.3885 127.973 19.4725 126.797 19.8085 125.341C20.0605 124.641 20.2286 123.913 20.7046 123.157C21.1527 122.428 21.6287 121.672 22.2728 121C22.8328 120.272 23.6169 119.656 24.345 119.012C25.1571 118.452 25.8291 117.892 26.8092 117.416C28.5454 116.436 30.4496 115.848 32.2698 115.4C34.09 115.036 35.8542 114.812 37.3943 114.952C38.1504 114.952 38.8785 115.064 39.5505 115.232C40.2226 115.344 40.7827 115.484 41.1467 115.652C41.9308 115.96 41.0347 115.848 41.0347 115.848L42.6309 118.564Z" fill="#A7C4C3"/>
    <path d="M45.655 125.733C45.655 125.733 45.543 125.677 45.375 125.565C45.207 125.481 44.8709 125.257 44.6749 125.257C44.2549 125.089 43.1348 124.949 41.8746 125.005C41.2306 125.033 40.5025 125.089 39.7464 125.173L39.1583 125.229L39.0183 125.257C39.1303 125.229 38.9623 125.257 38.9623 125.257L38.6543 125.313C38.2623 125.397 37.8422 125.481 37.4222 125.565C36.5821 125.733 35.714 125.901 34.8459 126.097C33.9778 126.293 33.2217 126.713 32.4097 127.021C31.6256 127.357 30.7575 127.665 30.0014 128.029C29.3013 128.449 28.5733 129.009 27.9292 129.513C26.6131 130.577 25.4369 131.641 24.5409 132.622C23.6448 133.602 22.9727 134.554 22.7487 135.31C22.6087 135.674 22.6367 136.01 22.6927 136.206C22.7767 136.402 22.8327 136.514 22.8327 136.514C22.8607 136.514 22.4406 136.122 22.6367 135.31C22.8047 134.526 23.4207 133.518 24.2608 132.426C25.1009 131.333 26.193 130.157 27.4532 128.981C28.0972 128.393 28.7133 127.805 29.5254 127.245C30.3374 126.741 31.1775 126.377 32.0176 125.957C32.8577 125.565 33.6978 125.033 34.5659 124.781C35.434 124.529 36.2741 124.277 37.0861 124.053C37.5062 123.941 37.8982 123.829 38.2903 123.717L38.5703 123.633C38.6543 123.605 38.5703 123.605 38.7943 123.577L38.9343 123.549L39.5224 123.437C40.3065 123.297 41.0345 123.157 41.7626 123.073C43.2188 122.905 44.3669 122.877 45.487 123.185C46.0751 123.325 45.291 123.297 45.515 123.381C44.5349 123.213 45.655 123.381 45.655 123.381V125.733Z" fill="#A7C4C3"/>
    <path d="M46.6072 133.49C46.6072 133.49 46.2992 133.406 45.7671 133.266C45.4871 133.154 45.2071 133.154 44.9271 133.154C44.647 133.126 44.311 133.098 43.863 133.154C42.1548 133.238 39.7745 133.938 37.5063 134.89C36.9182 135.114 36.4422 135.366 35.8541 135.674C35.3221 135.982 34.734 136.206 34.286 136.542C33.3339 137.158 32.4658 137.802 31.8497 138.474C31.5417 138.81 31.1777 139.062 30.9816 139.398C30.7576 139.706 30.5616 139.958 30.3936 140.182C30.0575 140.63 29.8895 140.882 29.8895 140.882C29.8895 140.882 30.0295 140.602 30.3096 140.126C30.4496 139.874 30.6176 139.594 30.8136 139.258C30.9816 138.894 31.2897 138.614 31.5977 138.222C32.1578 137.438 32.9698 136.682 33.9219 135.898C34.37 135.478 34.902 135.198 35.4061 134.834C35.8821 134.498 36.4702 134.106 37.0303 133.826C39.2425 132.566 41.6227 131.529 43.6389 131.165C44.563 130.969 45.7952 130.969 46.2432 131.053C46.7753 131.137 47.0833 131.165 47.0833 131.165L46.6072 133.49Z" fill="#A7C4C3"/>
    <path d="M159.711 102.154C159.711 102.154 159.935 102.406 160.355 102.883C160.775 103.331 161.279 103.863 162.035 104.507C163.491 105.795 165.591 107.223 167.832 108.035C170.072 108.847 172.508 108.847 174.104 107.783C174.916 107.335 175.504 106.663 175.868 106.187C176.232 105.683 176.457 105.375 176.457 105.375C176.457 105.375 176.26 105.711 175.952 106.271C175.616 106.831 175.084 107.615 174.272 108.231C173.488 108.931 172.424 109.407 171.276 109.659C170.1 109.939 168.868 109.855 167.608 109.659C165.115 109.211 162.735 108.091 161.027 106.971C160.187 106.439 159.431 105.851 158.983 105.459C158.535 105.067 156.63 103.919 156.63 103.919L159.711 102.154Z" fill="#A7C4C3"/>
    <path d="M149.994 104.563C149.994 104.563 150.134 104.815 150.414 105.263C150.694 105.711 151.03 106.215 151.562 106.915C152.598 108.259 154.194 109.911 156.098 111.171C157.975 112.431 160.215 113.216 161.951 113.02C162.819 112.964 163.519 112.712 163.967 112.487C164.443 112.263 164.695 112.123 164.695 112.123C164.695 112.123 164.443 112.291 164.023 112.571C163.603 112.852 162.903 113.216 162.007 113.384C161.111 113.608 160.019 113.608 158.899 113.384C157.751 113.216 156.602 112.74 155.51 112.207C153.326 111.115 151.394 109.575 150.078 108.259C149.434 107.643 148.874 106.971 148.538 106.579C148.202 106.187 146.717 104.759 146.717 104.759L149.994 104.563Z" fill="#A7C4C3"/>
    <path d="M165.675 96.4978C165.675 96.4978 165.899 96.6939 166.263 97.0019C166.656 97.3099 167.104 97.702 167.804 98.15C169.148 99.0461 171.108 100.054 173.208 100.642C175.28 101.202 177.549 101.202 179.033 100.474C179.789 100.166 180.349 99.6902 180.685 99.3541C181.021 98.9901 181.217 98.7941 181.217 98.7941C181.217 98.7941 181.049 99.0181 180.741 99.4381C180.433 99.8302 179.929 100.39 179.173 100.838C178.445 101.314 177.465 101.678 176.373 101.846C175.28 102.042 174.132 101.986 172.984 101.846C170.688 101.538 168.476 100.726 166.88 99.9422C166.095 99.5782 165.395 99.1581 164.975 98.8781C164.555 98.5981 164.331 98.4581 164.331 98.4581L165.675 96.4978Z" fill="#A7C4C3"/>
    <path d="M26.6693 112.796C26.6693 112.796 26.4453 112.796 26.0812 112.824C25.7172 112.88 25.1011 112.796 24.5691 112.992C24.2891 113.076 23.981 113.132 23.645 113.216C23.309 113.272 22.9729 113.468 22.6089 113.608C22.2449 113.776 21.8528 113.888 21.5168 114.112L20.4247 114.728C18.9965 115.624 17.6524 116.716 16.8123 117.668C16.3923 118.144 16.1402 118.62 16.0002 118.956C15.9722 119.32 15.9442 119.544 15.9442 119.544C15.9442 119.544 15.9442 119.32 15.9442 118.956C16.0562 118.592 16.2802 118.088 16.6443 117.556C17.4004 116.492 18.6605 115.26 20.0326 114.168L21.0967 113.412C21.4328 113.132 21.8528 112.992 22.2169 112.768C22.5809 112.571 22.9169 112.347 23.309 112.235C23.701 112.095 24.037 111.983 24.3731 111.843C25.0451 111.563 25.5492 111.619 25.9412 111.507C26.3053 111.451 26.5293 111.423 26.5293 111.423L26.6693 112.796Z" fill="#020202"/>
    <path d="M45.4871 138.81C45.4871 138.81 44.199 141.134 42.7429 142.731C42.3788 143.123 41.9868 143.571 41.5667 144.019C41.1747 144.495 40.6146 144.887 40.0826 145.335C39.0185 146.203 37.8704 147.127 36.7502 148.051C35.6021 148.919 34.37 149.703 33.2499 150.459C32.1018 151.187 31.0377 151.859 30.0856 152.392C29.1335 152.924 28.3214 153.316 27.7053 153.512C27.3973 153.624 27.1453 153.624 26.9772 153.624C26.8092 153.568 26.7252 153.54 26.7252 153.54C26.7252 153.54 26.8092 153.568 26.9772 153.624C27.1453 153.596 27.3973 153.568 27.6773 153.456C28.2654 153.232 29.0495 152.784 29.9456 152.196C30.8416 151.607 31.8777 150.879 32.9419 150.067C34.006 149.255 35.1821 148.387 36.2462 147.435C37.2823 146.483 38.3184 145.503 39.2985 144.607C39.7746 144.159 40.2786 143.767 40.6426 143.235C41.0347 142.759 41.3987 142.283 41.7348 141.862C42.3788 141.05 41.4267 142.563 41.8748 141.974L45.4871 138.81Z" fill="#020202"/>
    <path d="M169.988 85.8848C170.156 85.7728 170.352 85.6607 170.548 85.5767C170.66 85.5487 170.772 85.4927 170.94 85.5487C171.136 85.6327 171.136 85.8848 171.108 85.9968C170.996 86.4728 170.688 86.8369 170.492 87.1449C170.1 87.789 169.876 88.601 169.652 89.3851C169.176 90.9813 168.672 92.5775 168 94.1176C167.3 95.6578 166.404 97.1419 165.227 98.374C164.135 99.6062 162.931 100.838 161.531 101.818C160.131 102.826 158.563 103.555 156.911 104.087C155.342 104.563 153.634 104.955 151.926 105.067C150.19 105.179 148.426 104.899 146.83 104.227C145.233 103.555 143.805 102.574 142.545 101.482L142.853 101.566C142.965 101.37 142.825 101.734 142.965 102.07C143.049 102.406 143.189 102.742 143.329 103.079C143.609 103.751 143.973 104.423 144.337 105.067C145.093 106.355 145.905 107.643 146.746 108.875C148.398 111.395 151.114 112.936 153.998 113.608C156.883 114.308 159.907 114.28 162.847 113.916C165.788 113.496 168.672 112.768 171.416 111.647C174.132 110.499 176.737 109.043 178.865 107.083C180.965 105.151 182.533 102.49 182.253 99.6902C182.141 98.318 181.581 96.9739 180.825 95.7418C180.461 95.1257 179.985 94.6217 179.481 94.0336C178.949 93.5576 178.473 93.0255 177.857 92.6055C175.533 90.7573 172.872 89.3011 170.38 87.5649L170.464 87.4529C173.096 88.9371 175.869 90.1412 178.389 91.9334C179.033 92.3254 179.649 92.8855 180.237 93.3895C180.741 93.8936 181.329 94.5096 181.749 95.1537C182.645 96.4418 183.345 97.954 183.541 99.5782C183.765 101.202 183.457 102.91 182.729 104.339C182.029 105.795 180.993 107.055 179.873 108.147C177.577 110.331 174.804 111.843 171.948 112.936C169.064 114.056 166.068 114.784 162.987 115.036C159.935 115.288 156.799 115.148 153.858 114.308C152.374 113.888 150.974 113.244 149.658 112.403C148.37 111.563 147.25 110.415 146.438 109.155C145.541 107.923 144.701 106.663 143.889 105.375C143.497 104.731 143.105 104.059 142.769 103.387C142.601 103.051 142.433 102.686 142.293 102.294C142.237 102.098 142.181 101.902 142.153 101.65C142.097 101.454 142.265 100.894 142.713 100.81L142.881 100.782L143.021 100.894C144.309 101.874 145.709 102.742 147.194 103.303C148.678 103.835 150.274 104.003 151.842 103.891C153.438 103.751 154.978 103.387 156.575 102.883C157.331 102.63 158.087 102.378 158.815 102.042C159.543 101.706 160.243 101.314 160.887 100.894C162.231 99.9982 163.379 98.8781 164.583 97.73C165.76 96.6379 166.6 95.2377 167.328 93.7816C168.028 92.3254 168.56 90.7573 169.092 89.1891C169.4 88.405 169.624 87.6209 170.128 86.8369C170.38 86.4728 170.716 86.2208 170.828 85.8848C171.052 85.6607 170.408 85.7728 170.1 85.9688L169.988 85.8848Z" fill="#020202"/>
    <path d="M42.6308 141.722L39.9705 142.647L37.1423 143.151C35.2381 143.263 33.2779 143.151 31.4297 142.591C30.5056 142.311 29.5815 142.03 28.7414 141.554C27.8453 141.19 27.0332 140.658 26.2491 140.07C24.653 138.978 23.2808 137.578 22.0207 136.15C20.8166 134.638 19.6965 133.07 18.8284 131.361C17.9603 129.653 17.2042 127.889 16.6442 126.041C16.0561 124.221 15.7201 122.316 15.524 120.412C15.356 119.404 15.496 118.508 15.44 117.556C15.496 116.604 15.6921 115.624 15.8041 114.7L16.5322 111.927L17.5963 109.267L19.0524 106.803L20.8726 104.591C21.6287 104.003 22.3287 103.331 23.1128 102.798C23.9809 102.378 24.821 101.93 25.7171 101.566C27.5093 100.978 29.3855 100.502 31.2897 100.362C32.2418 100.306 33.2499 100.306 34.23 100.614C34.482 100.726 34.678 100.754 35.014 100.922L35.6021 101.314C35.9941 101.538 36.3582 101.902 36.7222 102.35C37.3943 103.191 37.7023 104.339 37.4783 105.403C37.3383 106.495 36.7222 107.363 36.0781 108.147C35.6861 108.483 35.4061 108.847 34.93 109.183C34.51 109.435 34.202 109.743 33.6979 109.939C32.7458 110.415 31.8497 110.723 30.9256 111.003C29.1054 111.563 27.2012 111.927 25.8291 112.796L25.297 111.507L28.1813 111.087C29.1614 111.031 30.1415 111.003 31.0936 111.003C32.0737 111.115 33.0538 111.227 34.0059 111.367C34.958 111.675 35.9381 111.871 36.8342 112.291C37.7023 112.795 38.6544 113.104 39.4105 113.748C40.1386 114.392 41.0627 114.868 41.6507 115.652C42.2668 116.408 43.0229 117.052 43.4989 117.92C44.003 118.76 44.535 119.544 45.0111 120.412C45.4031 121.224 45.7951 122.204 46.0752 123.129C46.3552 124.053 46.5792 124.977 46.7752 125.929C47.1393 127.805 47.2793 129.737 47.2233 131.669C47.1953 132.622 47.0833 133.574 46.9433 134.526C46.7752 135.478 46.5232 136.402 46.1592 137.298C45.7671 138.194 45.3191 139.034 44.731 139.818L43.7789 140.882L42.6588 141.778L42.5748 141.666L43.6109 140.742L44.479 139.65C44.9831 138.866 45.3751 138.026 45.6551 137.158C45.9071 136.262 46.1312 135.366 46.2712 134.47C46.3832 133.546 46.4392 132.622 46.4392 131.697C46.4392 129.849 46.1872 128.001 45.7951 126.181C45.5991 125.285 45.3471 124.389 45.0391 123.521C44.731 122.625 44.395 121.868 43.9469 121C43.4989 120.244 42.9388 119.488 42.4348 118.732C41.9587 117.948 41.2307 117.388 40.6706 116.66C40.1106 115.932 39.2985 115.512 38.6264 114.924C37.9263 114.336 37.0582 114.084 36.2742 113.636C35.4621 113.272 34.566 113.104 33.7259 112.824L31.0376 112.515L28.2934 112.571L25.5491 112.936L22.0767 113.412L25.045 111.675C26.8932 110.583 28.7974 110.331 30.5616 109.799C31.4577 109.547 32.3258 109.267 33.0818 108.903C33.4739 108.763 33.8659 108.427 34.286 108.203C34.594 108.007 34.93 107.643 35.2381 107.391C36.4142 106.187 37.0582 104.283 35.9941 102.994C35.7701 102.686 35.5181 102.35 35.098 102.098L34.538 101.678C34.426 101.65 34.174 101.538 34.0059 101.482C33.2219 101.202 32.2978 101.146 31.3737 101.174C29.5255 101.23 27.7053 101.594 25.9131 102.126C25.045 102.434 24.2609 102.882 23.4209 103.275C22.6648 103.779 21.9647 104.395 21.2366 104.983L19.4444 107.111L18.0443 109.519L17.0362 112.123C16.8402 113.02 16.6162 113.916 16.4201 114.812C16.3641 115.736 16.2241 116.632 16.1961 117.556C16.2801 118.48 16.2241 119.488 16.3921 120.328C16.6722 122.148 17.0922 123.969 17.7083 125.705C18.2683 127.469 19.0244 129.149 19.8645 130.773C20.7326 132.398 21.7407 133.938 22.8608 135.394C24.0649 136.794 25.3251 138.138 26.8092 139.202C27.5373 139.734 28.2934 140.266 29.1334 140.658C29.9175 141.134 30.7856 141.442 31.6537 141.75C32.4938 142.142 33.4179 142.171 34.314 142.395C35.2101 142.535 36.1342 142.507 37.0582 142.563L39.8025 142.283L42.5468 141.582L42.6308 141.722Z" fill="#020202"/>
    <path d="M115.97 215.482C118.519 223.323 109.614 231.332 97.7964 233.544C85.9792 235.756 74.9181 231.248 73.1259 223.491C71.3337 215.734 79.4826 207.641 91.2998 205.429C103.145 203.217 113.506 207.865 115.97 215.482Z" fill="white"/>
    <path d="M116.11 215.426C116.11 215.426 116.278 215.846 116.418 216.686C116.558 217.526 116.67 218.814 116.362 220.382C116.026 221.951 115.326 223.855 113.954 225.675C112.61 227.495 110.734 229.343 108.354 230.856C106.001 232.396 103.145 233.544 100.009 234.272C96.8724 235 93.4841 235.112 90.0397 234.776C86.6234 234.356 83.123 233.488 79.8747 231.892C78.2505 231.08 76.7104 230.071 75.3942 228.727C74.0501 227.439 72.958 225.787 72.3979 223.911C71.8099 222.091 71.7819 219.99 72.2579 218.114C72.762 216.21 73.7141 214.474 74.8622 212.99C77.2144 209.993 80.3507 207.865 83.5151 206.353C86.7074 204.869 90.1237 204.001 93.2321 203.693C96.5364 203.357 99.5607 203.525 102.333 204.197C105.077 204.869 107.458 205.961 109.362 207.193C111.266 208.397 112.694 209.825 113.674 211.086C114.654 212.346 115.27 213.466 115.606 214.25C115.942 215.006 116.11 215.426 116.11 215.426ZM115.83 215.51C115.83 215.51 115.662 215.09 115.354 214.334C114.99 213.578 114.402 212.514 113.31 211.394C111.238 209.097 107.093 206.997 101.969 206.493C99.4207 206.213 96.5644 206.185 93.7361 206.549C90.7118 206.969 87.7435 207.725 84.7752 208.985C81.8349 210.245 78.9786 212.066 76.8504 214.53C74.6942 216.966 73.294 220.242 73.9661 223.519C74.2741 225.143 75.1142 226.683 76.2343 227.999C77.3824 229.287 78.8106 230.296 80.3227 231.136C83.4031 232.732 86.8754 233.348 90.1517 233.32C93.4561 233.32 96.5924 232.704 99.4487 231.948C102.333 231.192 104.937 230.155 107.261 228.979C109.558 227.803 111.574 226.459 113.03 224.947C114.514 223.435 115.494 221.811 115.914 220.326C116.362 218.842 116.278 217.61 116.138 216.798C115.998 215.958 115.83 215.51 115.83 215.51Z" fill="#020000"/>
    <path d="M86.2875 232.536C86.2875 232.536 83.7952 229.903 82.6471 228.363C82.3391 227.971 82.171 227.579 81.919 227.131C81.667 226.683 81.415 226.235 81.1349 225.731C80.8549 225.255 80.6589 224.667 80.4068 224.107C80.1828 223.547 79.9028 222.987 79.7348 222.371C79.5388 221.783 79.3707 221.167 79.2027 220.578C79.0067 219.99 78.9227 219.374 78.7827 218.814C78.5027 217.638 78.4186 216.546 78.2786 215.594C78.1106 213.69 78.0826 212.43 78.0826 212.43C78.0826 212.43 77.9146 213.662 77.8026 215.538C77.8026 216.49 77.7186 217.61 77.8306 218.842C77.8866 219.458 77.8586 220.102 77.9706 220.747C78.0546 221.391 78.1666 222.063 78.2506 222.707C78.3346 223.379 78.5587 224.023 78.6987 224.667C78.8947 225.311 78.9787 225.955 79.2307 226.571C79.4548 227.187 79.7068 227.803 79.9028 228.363C80.1268 228.923 80.3228 229.539 80.5469 229.931C81.443 231.668 81.2189 231.472 81.2189 231.472L86.2875 232.536Z" fill="#A7C4C3"/>
    <path d="M97.4606 233.992C97.4606 233.992 94.6883 231.332 93.1482 229.203C92.7561 228.671 92.5041 228.083 92.14 227.467C91.776 226.851 91.412 226.207 91.0479 225.535C90.6839 224.835 90.3759 224.079 90.0398 223.323C89.7318 222.539 89.3118 221.783 89.0597 220.971C88.4997 219.346 87.9396 217.722 87.6036 216.154C87.1555 214.586 86.9595 213.102 86.7075 211.842C86.3435 209.293 86.2034 207.557 86.2034 207.557C86.2034 207.557 86.1194 209.265 86.1474 211.87C86.2314 213.158 86.2314 214.698 86.4555 216.322C86.5955 217.946 86.9315 219.682 87.2956 221.419C87.4356 222.287 87.7436 223.127 87.9676 223.995C88.2197 224.835 88.4157 225.675 88.7237 226.487C89.0597 227.299 89.3678 228.055 89.6478 228.783C89.9558 229.511 90.2078 230.267 90.5439 230.828C91.804 233.152 92.2241 234.104 92.2241 234.104L97.4606 233.992Z" fill="#A7C4C3"/>
    <path d="M106.114 231.472C106.114 231.472 105.497 230.604 103.929 228.475C103.537 227.943 103.285 227.355 102.921 226.739C102.557 226.123 102.193 225.479 101.829 224.807C101.465 224.107 101.157 223.351 100.821 222.595C100.513 221.811 100.093 221.055 99.8409 220.242C99.2808 218.618 98.7208 216.994 98.3847 215.426C97.9367 213.858 97.7406 212.374 97.4886 211.114C97.1246 208.565 96.9846 206.829 96.9846 206.829C96.9846 206.829 96.9006 208.537 96.9286 211.142C97.0126 212.43 97.0126 213.97 97.2366 215.594C97.3766 217.218 97.7126 218.954 98.0767 220.691C98.2167 221.559 98.5247 222.399 98.7487 223.267C99.0008 224.107 99.1968 224.947 99.5048 225.759C99.8409 226.571 100.149 227.327 100.429 228.055C100.737 228.783 100.989 229.539 101.325 230.099C102.585 232.424 103.005 232.648 103.005 232.648L106.114 231.472Z" fill="#A7C4C3"/>
    <path d="M114.206 225.759C114.206 225.759 113.674 225.535 112.554 224.135C112.246 223.771 111.77 222.707 111.518 222.315C111.266 221.895 110.65 220.579 110.398 220.13C110.118 219.682 109.978 218.898 109.726 218.394C109.502 217.862 109.194 217.358 109.026 216.798C108.634 215.678 108.214 214.558 107.99 213.466C107.682 212.374 107.542 211.338 107.374 210.441C107.121 208.649 107.037 207.445 107.037 207.445C107.037 207.445 106.925 208.621 106.897 210.441C106.925 211.338 106.925 212.43 107.065 213.578C107.149 214.726 107.402 215.958 107.654 217.218C107.766 217.834 107.99 218.45 108.158 219.038C108.354 219.626 108.466 220.242 108.718 220.803C108.97 221.363 109.194 221.923 109.418 222.455C109.642 222.959 109.838 223.547 110.09 223.911C110.986 225.507 111.798 227.075 111.798 227.075L114.206 225.759Z" fill="#A7C4C3"/>
    <path d="M116.138 215.454C116.138 215.454 116.25 215.902 116.418 216.714C116.587 217.526 117.511 218.086 117.427 219.682C117.315 221.279 116.783 224.107 115.41 225.899C114.01 227.691 111.49 229.203 109.222 230.94C106.982 232.62 104.041 233.908 100.821 234.552C99.2247 234.86 97.4606 235 95.8364 235C94.1002 235 92.364 234.916 90.5999 234.692C87.0995 234.216 83.5151 233.404 80.1268 231.836C76.8504 230.296 73.4061 227.775 72.258 223.883C71.6699 222.119 71.6139 219.934 72.034 218.086C72.51 216.21 73.3781 214.446 74.4982 212.934C76.7944 209.937 79.8468 207.725 83.0391 206.157C86.2314 204.589 89.7038 203.665 92.8681 203.357C96.2284 202.965 99.3647 203.133 102.221 203.805C105.077 204.477 107.542 205.597 109.502 206.857C111.518 208.089 112.918 209.601 113.898 210.89C114.878 212.206 115.41 213.354 115.69 214.166C116.026 215.006 116.138 215.454 116.138 215.454ZM115.802 215.51C115.802 215.51 115.662 215.09 115.41 214.306C115.102 213.55 114.57 212.43 113.478 211.31C111.406 208.957 107.066 207.053 101.885 206.689C99.3087 206.465 96.4525 206.493 93.6242 206.913C90.6279 207.389 87.6876 208.145 84.7473 209.405C81.835 210.638 79.1187 212.458 76.9905 214.866C74.9183 217.274 73.5741 220.27 74.1062 223.547C74.6102 226.795 77.3825 229.511 80.5748 230.968C83.7952 232.452 87.3515 232.9 90.6559 232.844C92.336 232.816 93.9602 232.676 95.5004 232.48C97.1525 232.228 98.6087 232.004 100.037 231.64C102.893 230.996 105.413 229.931 107.654 228.727C109.838 227.551 111.966 226.151 113.45 224.779C114.934 223.379 115.914 221.783 116.138 220.298C116.39 218.814 116.39 218.478 116.25 217.666C116.11 216.826 115.802 215.51 115.802 215.51Z" fill="#020000"/>
    <path d="M156.266 212.822C159.515 220.522 151.198 229.483 139.409 232.816C127.592 236.176 115.998 232.648 113.506 224.947C111.014 217.246 118.575 208.285 130.364 204.953C142.153 201.621 153.102 205.345 156.266 212.822Z" fill="white"/>
    <path d="M156.379 212.766C156.379 212.766 156.575 213.158 156.827 214.026C157.051 214.866 157.275 216.154 157.107 217.778C156.911 219.402 156.351 221.391 155.118 223.351C153.914 225.311 152.178 227.355 149.91 229.091C147.67 230.856 144.869 232.312 141.789 233.32C138.681 234.356 135.264 234.804 131.736 234.776C128.208 234.692 124.595 234.16 121.151 232.816C119.443 232.144 117.763 231.248 116.334 230.015C114.85 228.839 113.59 227.271 112.862 225.423C112.106 223.631 111.882 221.503 112.218 219.542C112.582 217.582 113.366 215.734 114.402 214.11C116.53 210.862 119.499 208.425 122.579 206.577C125.687 204.757 129.048 203.553 132.184 202.965C135.488 202.293 138.597 202.181 141.453 202.601C144.309 202.993 146.802 203.917 148.846 204.953C150.918 205.989 152.458 207.305 153.578 208.481C154.698 209.657 155.398 210.749 155.818 211.506C156.183 212.346 156.379 212.766 156.379 212.766ZM156.127 212.878C156.127 212.878 155.93 212.486 155.538 211.73C155.118 211.002 154.39 209.965 153.214 208.929C150.89 206.773 146.494 205.065 141.229 205.009C138.625 204.953 135.712 205.205 132.856 205.849C129.832 206.577 126.892 207.613 123.979 209.153C121.123 210.693 118.379 212.822 116.418 215.538C114.43 218.198 113.31 221.671 114.29 224.947C114.766 226.571 115.718 228.055 116.979 229.287C118.267 230.492 119.807 231.388 121.431 232.06C124.707 233.404 128.292 233.656 131.624 233.32C134.956 233.012 138.093 232.088 140.921 231.052C143.777 230.015 146.326 228.699 148.566 227.299C150.806 225.899 152.71 224.359 154.054 222.679C155.426 221.027 156.295 219.262 156.547 217.722C156.883 216.182 156.659 214.922 156.463 214.11C156.323 213.298 156.127 212.878 156.127 212.878Z" fill="#020000"/>
    <path d="M127.592 232.928C127.592 232.928 124.819 230.492 123.559 229.035C123.195 228.671 123.027 228.279 122.719 227.859C122.439 227.439 122.131 226.991 121.795 226.515C121.459 226.067 121.235 225.479 120.927 224.947C120.647 224.387 120.311 223.855 120.087 223.267C119.863 222.679 119.611 222.091 119.387 221.503C119.135 220.915 118.995 220.326 118.799 219.738C118.407 218.59 118.211 217.47 117.987 216.518C117.651 214.614 117.511 213.326 117.511 213.326C117.511 213.326 117.455 214.586 117.483 216.518C117.567 217.498 117.595 218.618 117.791 219.85C117.903 220.467 117.931 221.111 118.099 221.755C118.267 222.399 118.407 223.071 118.575 223.715C118.715 224.387 118.995 225.003 119.219 225.647C119.471 226.291 119.611 226.935 119.919 227.523C120.227 228.139 120.507 228.727 120.759 229.287C121.039 229.819 121.291 230.436 121.571 230.828C122.635 232.508 122.383 232.34 122.383 232.34L127.592 232.928Z" fill="#A7C4C3"/>
    <path d="M139.073 233.348C139.073 233.348 136.021 230.912 134.256 228.895C133.808 228.391 133.5 227.831 133.08 227.243C132.66 226.655 132.24 226.011 131.792 225.367C131.344 224.695 130.98 223.939 130.56 223.211C130.168 222.455 129.692 221.727 129.384 220.915C128.684 219.318 127.956 217.75 127.48 216.182C126.892 214.642 126.556 213.158 126.192 211.898C125.603 209.349 125.295 207.613 125.295 207.613C125.295 207.613 125.351 209.349 125.603 211.982C125.799 213.298 125.939 214.838 126.304 216.462C126.584 218.114 127.088 219.822 127.592 221.559C127.816 222.427 128.208 223.267 128.516 224.107C128.852 224.947 129.132 225.787 129.496 226.543C129.888 227.327 130.28 228.083 130.644 228.783C131.036 229.483 131.344 230.24 131.708 230.772C133.192 232.984 133.696 233.936 133.696 233.936L139.073 233.348Z" fill="#A7C4C3"/>
    <path d="M147.642 229.987C147.642 229.987 146.942 229.175 145.177 227.159C144.729 226.655 144.421 226.095 144.001 225.507C143.581 224.919 143.161 224.275 142.713 223.631C142.265 222.959 141.901 222.203 141.481 221.475C141.089 220.719 140.613 219.99 140.305 219.178C139.605 217.582 138.877 216.014 138.401 214.446C137.813 212.906 137.477 211.422 137.113 210.161C136.524 207.613 136.216 205.877 136.216 205.877C136.216 205.877 136.272 207.613 136.524 210.245C136.72 211.562 136.86 213.102 137.225 214.726C137.505 216.378 138.009 218.086 138.513 219.822C138.737 220.691 139.129 221.531 139.437 222.371C139.773 223.211 140.053 224.051 140.417 224.807C140.809 225.591 141.201 226.347 141.565 227.047C141.957 227.747 142.265 228.503 142.629 229.035C144.113 231.248 144.533 231.472 144.533 231.472L147.642 229.987Z" fill="#A7C4C3"/>
    <path d="M155.342 223.407C155.342 223.407 154.782 223.239 153.522 221.895C153.186 221.559 152.598 220.523 152.29 220.158C152.01 219.766 151.282 218.478 150.946 218.058C150.61 217.638 150.414 216.854 150.106 216.35C149.826 215.846 149.49 215.342 149.238 214.782C148.734 213.69 148.23 212.598 147.894 211.506C147.474 210.441 147.25 209.377 146.997 208.509C146.605 206.717 146.409 205.485 146.409 205.485C146.409 205.485 146.409 206.689 146.549 208.537C146.661 209.461 146.745 210.553 146.997 211.702C147.165 212.878 147.558 214.082 147.894 215.342C148.062 215.958 148.342 216.546 148.566 217.162C148.818 217.75 148.986 218.366 149.294 218.898C149.602 219.458 149.882 219.99 150.162 220.494C150.442 220.999 150.694 221.559 150.974 221.895C152.038 223.407 152.99 224.947 152.99 224.947L155.342 223.407Z" fill="#A7C4C3"/>
    <path d="M156.435 212.794C156.435 212.794 156.575 213.214 156.827 214.026C157.079 214.838 158.059 215.314 158.115 216.938C158.143 218.562 157.835 221.503 156.603 223.435C155.342 225.367 152.934 227.159 150.75 229.119C148.622 231.024 145.765 232.62 142.545 233.572C140.949 234.02 139.185 234.356 137.533 234.496C135.768 234.636 134.004 234.748 132.184 234.664C128.6 234.524 124.875 234.02 121.319 232.76C117.847 231.5 114.15 229.259 112.638 225.451C111.882 223.715 111.63 221.531 111.91 219.598C112.218 217.638 112.946 215.79 113.954 214.138C116.026 210.862 118.939 208.341 122.047 206.465C125.155 204.589 128.572 203.329 131.792 202.685C135.18 201.985 138.373 201.845 141.341 202.265C144.281 202.657 146.886 203.581 149.014 204.673C151.142 205.737 152.71 207.109 153.83 208.341C154.95 209.573 155.566 210.694 155.958 211.506C156.267 212.346 156.435 212.794 156.435 212.794ZM156.071 212.878C156.071 212.878 155.902 212.458 155.566 211.702C155.174 210.974 154.53 209.881 153.326 208.845C151.03 206.661 146.466 205.121 141.173 205.233C138.541 205.261 135.628 205.541 132.8 206.241C129.804 206.997 126.864 208.061 124.007 209.601C121.151 211.114 118.547 213.242 116.614 215.846C114.71 218.478 113.618 221.643 114.458 224.919C115.242 228.167 118.295 230.66 121.655 231.836C125.043 233.04 128.684 233.152 132.044 232.788C133.752 232.62 135.376 232.312 136.917 231.976C138.569 231.556 140.025 231.22 141.453 230.716C144.309 229.791 146.746 228.475 148.93 227.047C151.058 225.647 153.074 224.051 154.474 222.483C155.874 220.915 156.715 219.234 156.799 217.694C156.939 216.182 156.911 215.846 156.687 215.034C156.519 214.194 156.071 212.878 156.071 212.878Z" fill="#020000"/>
  </g>
  <defs>
    <clipPath id="clip0">
      <rect width="183.195" height="235" fill="white" transform="translate(0.402588)"/>
    </clipPath>
  </defs>
</svg>
