<svg width="288" height="236" viewBox="0 0 288 236" fill="none" xmlns="http://www.w3.org/2000/svg">
  <g clip-path="url(#clip0)">
    <path d="M262.612 78.0253C259.501 77.6049 250.056 77.2685 246.525 77.0162L248.207 77.1003C248.178 77.1284 246.497 76.9882 246.469 77.0162C241.424 76.6519 238.509 76.3435 233.324 76.2875H231.306C231.25 76.3716 229.064 76.2034 229.008 76.2875C223.01 76.2314 208.857 76.4276 202.411 76.6799C204.036 71.9429 204.933 66.8695 204.933 61.5719C204.933 60.7591 204.849 59.9743 204.821 59.1894C204.849 58.9091 204.905 58.6569 204.933 58.3485L204.737 57.4236C204.373 53.2472 203.42 49.2389 202.046 45.4269L201.906 44.7822C201.514 43.633 201.065 42.708 200.617 41.9232C193.162 25.8062 176.906 14.5944 157.96 14.5944C132.008 14.5944 110.959 35.6446 110.959 61.6C110.959 64.8794 111.296 68.1028 111.94 71.2141L101.43 71.7467L98.2633 73.5686L96.6938 76.9602L96.5817 94.5067C93.8911 95.712 91.7331 96.5529 89.2387 97.8142C89.1546 97.8142 87.7533 98.627 88.51 98.1786L86.9405 99.0195C84.3901 100.309 83.6053 100.897 81.4192 102.187C67.9384 110.091 60.9317 118.164 73.1513 131.814C76.1222 135.15 79.4013 138.485 82.9607 141.26L81.7275 141.148C76.4585 143.082 77.1872 151.435 79.7656 154.995C82.6244 158.863 88.0335 160.965 92.9102 160.853C95.0122 160.797 97.1422 160.404 99.1882 159.704H101.935H102.327C102.327 159.732 102.327 159.788 102.327 159.816L101.935 159.704C102.075 159.788 102.187 159.872 102.327 159.928C102.047 163.992 102.383 167.748 104.766 170.831C104.177 176.97 104.261 182.94 104.485 187.313C104.766 192.61 105.102 209.933 105.803 215.146C106.783 222.462 112.977 227.283 113.061 227.087C115.248 228.376 118.078 229.413 121.778 230.086C124.496 230.59 127.159 230.618 129.709 230.226C129.709 230.226 129.793 230.394 129.878 230.198C132.4 229.805 134.754 228.937 136.856 227.675C140.92 225.629 143.583 222.518 143.835 218.986C144.059 218.397 144.311 217.837 144.479 217.192C145.741 212.231 144.648 207.074 144.816 202.028C144.844 205.111 144.928 208.111 145.18 211.698C145.32 213.913 145.657 215.819 146.133 217.501C146.133 217.613 146.077 217.753 146.077 217.865C146.077 220.892 147.955 223.611 150.954 225.573C150.954 225.573 151.066 225.909 151.178 225.685C153.028 226.862 155.326 227.703 157.848 228.18V228.236C157.848 228.208 160.651 228.6 162.164 228.6C163.426 228.6 164.631 228.488 165.78 228.292C165.78 228.292 165.92 228.544 166.06 228.236C172.422 227.171 177.243 223.555 178.027 219.07C179.681 215.959 180.41 212.735 180.242 210.493C180.017 207.494 179.961 203.542 179.933 199.225L180.326 199.113C180.41 198.889 180.242 198.917 179.933 199.113C179.905 190.172 180.101 179.633 179.849 172.373L178.588 172.681C183.212 166.879 181.727 151.267 183.745 137.42C184.025 137.196 183.801 136.943 183.801 136.943C184.642 131.45 186.043 126.236 188.65 122.088C191.368 114.968 238.818 109.475 259.249 108.606L262.612 78.0253ZM144.171 181.903L141.172 180.978C142.237 180.978 143.33 180.978 144.451 180.978C144.451 184.818 144.844 189.443 144.844 194.376C144.844 194.684 144.844 194.937 144.844 195.245C144.62 191.013 144.171 186.416 144.171 181.903Z" fill="#FCFAFA" stroke="#020000" stroke-width="0.5" stroke-miterlimit="10"/>
    <path d="M258.857 108.578C260.426 108.718 262.444 110.848 264.266 111.885C266.536 113.202 269.227 113.903 271.749 114.352C273.403 114.66 275.14 114.688 276.794 114.408C276.794 114.408 282.091 113.343 284.585 108.914C290.05 99.1316 285.314 87.7235 271.553 83.2108C274.72 81.6691 277.607 76.8761 273.066 75.0542C270.376 73.989 262.528 76.9041 261.828 78.1935" fill="#FCFAFA"/>
    <path d="M258.857 108.578C260.426 108.718 262.444 110.848 264.266 111.885C266.536 113.202 269.227 113.903 271.749 114.352C273.403 114.66 275.14 114.688 276.794 114.408C276.794 114.408 282.091 113.343 284.585 108.914C290.05 99.1316 285.314 87.7235 271.553 83.2108C274.72 81.6691 277.607 76.8761 273.066 75.0542C270.376 73.989 262.528 76.9041 261.828 78.1935" stroke="#020000" stroke-width="0.5" stroke-miterlimit="10"/>
    <path d="M105.214 43.0444C107.232 43.0444 108.857 41.4187 108.857 39.4005C108.857 37.3824 107.232 35.7567 105.214 35.7567C103.196 35.7567 101.57 37.3824 101.57 39.4005C101.542 41.4187 103.196 43.0444 105.214 43.0444Z" fill="#FCFAFA" stroke="#020000" stroke-width="0.5" stroke-miterlimit="10"/>
    <path d="M120.993 12.2399C121.357 12.2399 121.694 12.1278 122.058 12.0156L128.14 23.7881L131.615 21.854L123.319 11.371C124.104 10.6982 124.665 9.74524 124.665 8.59602C124.665 6.57789 123.039 4.95218 121.021 4.95218C119.003 4.95218 117.378 6.57789 117.378 8.59602C117.35 10.6142 118.975 12.2399 120.993 12.2399Z" fill="#FCFAFA" stroke="#020000" stroke-width="0.5" stroke-miterlimit="10"/>
    <path d="M102.72 70.7656L106.167 70.3732V43.0444H105.214H104.261L102.72 70.7656Z" fill="#FCFAFA" stroke="#020000" stroke-width="0.5" stroke-miterlimit="10"/>
    <path d="M102.243 156.004C102.467 159.087 105.186 161.413 108.241 161.189L160.791 157.265C163.874 157.041 166.2 154.322 165.976 151.267L160.202 74.1572C159.978 71.0739 157.26 68.7475 154.205 68.9717L101.655 72.8959C98.5716 73.1201 96.2454 75.839 96.4696 78.8942L102.243 156.004Z" fill="#819598"/>
    <path d="M102.355 155.976C102.439 155.948 102.299 157.265 103.56 158.947C104.233 159.732 105.326 160.572 106.839 160.853C108.325 161.077 110.175 160.713 112.193 160.6C116.228 160.292 121.133 159.703 126.767 159.171C132.4 158.61 138.734 157.882 145.685 157.265C149.16 156.957 152.775 156.648 156.503 156.312C157.428 156.228 158.381 156.144 159.334 156.088L160.651 156.004C161.071 155.891 161.744 155.891 161.94 155.723C162.529 155.583 163.229 155.023 163.762 154.49C164.238 153.873 164.687 153.201 164.827 152.416C164.967 152.023 164.911 151.631 164.967 151.239L164.911 149.725C164.883 148.716 164.827 147.707 164.799 146.67C164.743 144.624 164.687 142.549 164.659 140.447C164.575 136.271 164.463 131.982 164.35 127.638C164.182 118.92 163.846 109.951 163.482 100.813C163.257 96.2445 163.005 91.6477 162.781 87.0228L162.36 80.0995L162.136 76.6238C162.052 75.4466 162.08 74.2693 161.688 73.3724C161.043 71.5224 158.997 70.2891 157.091 70.4012L150.197 70.9618C145.6 71.2982 141.004 71.6626 136.436 71.9989C127.327 72.6436 118.358 73.2603 109.67 73.8769C107.512 74.0171 105.354 74.1572 103.224 74.2974C102.748 74.3254 102.019 74.3534 101.767 74.3814C101.234 74.4655 100.674 74.5496 100.477 74.6898C99.8888 74.914 99.1321 75.4466 98.7397 76.0632C98.2633 76.6799 98.011 77.4367 97.983 78.1935C97.955 78.5298 97.955 79.0063 98.011 79.5669L98.1231 81.1085C98.2633 83.1547 98.4034 85.1728 98.5435 87.1629C99.1601 95.1233 99.5805 102.635 99.9449 109.615C100.281 116.566 100.561 122.957 100.842 128.591C101.122 134.253 101.29 139.186 101.57 143.222C102.075 151.379 102.383 156.004 102.355 155.976ZM102.103 156.032C102.103 156.004 101.711 151.379 101.01 143.306C100.702 139.27 100.113 134.365 99.5805 128.731C98.992 123.097 98.3474 116.762 97.6187 109.811C96.974 102.888 96.2454 95.3756 95.6848 87.4152C95.5167 85.4251 95.3765 83.407 95.2084 81.3608L95.0963 79.8192C95.0402 79.3427 95.0122 78.7821 95.0402 78.0813C95.0963 76.792 95.5167 75.4746 96.3014 74.4095C97.0581 73.3163 98.0671 72.4754 99.4404 71.9429C100.225 71.6345 100.702 71.5785 101.234 71.4944C102.047 71.3823 102.383 71.4103 102.972 71.3542C105.102 71.2421 107.26 71.102 109.418 70.9899C118.106 70.5134 127.075 70.0369 136.212 69.5604C140.78 69.3361 145.376 69.1119 150.001 68.8876L156.951 68.6074C159.67 68.5513 162.276 70.2891 163.089 72.9519C163.538 74.2413 163.426 75.4466 163.482 76.5677L163.594 80.0714L163.79 87.0228C163.958 91.6477 164.154 96.2445 164.322 100.813C164.771 109.951 165.219 118.92 165.836 127.61C166.116 131.954 166.396 136.215 166.677 140.391C166.817 142.493 166.957 144.539 167.069 146.586C167.125 147.595 167.181 148.632 167.237 149.641L167.321 151.154C167.293 151.743 167.321 152.388 167.153 152.948C166.621 155.331 164.995 157.293 162.585 158.106C161.912 158.386 161.576 158.33 161.071 158.47L159.502 158.61C158.549 158.666 157.596 158.75 156.671 158.807C152.915 159.031 149.3 159.255 145.825 159.479C138.874 159.9 132.484 160.124 126.851 160.404C121.189 160.685 116.256 160.853 112.221 161.161C110.175 161.217 108.409 161.581 106.755 161.301C105.13 160.965 103.981 160.04 103.28 159.199C101.991 157.293 102.187 155.976 102.103 156.032Z" fill="#020000"/>
    <path d="M104.149 71.0179L105.438 43.3807L106.447 43.1565L106.531 71.3542L104.149 71.0179Z" fill="#020000"/>
    <path d="M105.354 44.1936C102.916 44.2777 100.87 42.3436 100.786 39.9051C100.702 37.4665 102.635 35.4203 105.074 35.3362C107.512 35.2521 109.558 37.1862 109.642 39.6248C109.726 42.0633 107.82 44.1095 105.354 44.1936Z" fill="#020000"/>
    <path d="M105.158 36.2612C105.158 36.2612 104.99 36.3173 104.653 36.4013C104.485 36.4294 104.289 36.4854 104.121 36.6256C103.953 36.7657 103.757 36.8498 103.588 37.0741C103.196 37.4104 102.972 37.999 102.804 38.6157C102.692 39.2323 102.663 39.9611 102.916 40.5778C102.972 40.7179 103 40.9421 103.084 41.0262C103.196 41.1664 103.28 41.3626 103.392 41.4747C103.588 41.6709 103.841 41.8671 104.121 42.0073C104.681 42.2595 105.298 42.3717 105.831 42.2876C106.111 42.2876 106.335 42.1754 106.559 42.1474C106.783 42.1194 106.952 42.0073 107.092 41.9512C107.4 41.8111 107.568 41.727 107.568 41.727C107.568 41.727 107.428 41.8391 107.148 42.0353C107.008 42.1474 106.867 42.2876 106.643 42.3717C106.419 42.4557 106.195 42.6239 105.915 42.6519C105.354 42.7921 104.625 42.8201 103.897 42.5398C103.56 42.3717 103.196 42.1754 102.888 41.8391C102.635 41.5868 102.411 41.1944 102.299 40.802C102.019 40.0172 102.075 39.1763 102.271 38.4755C102.495 37.7468 102.888 37.1301 103.392 36.7938C103.588 36.5695 103.897 36.4854 104.121 36.4013C104.345 36.2892 104.541 36.2892 104.709 36.2892C104.99 36.2612 105.158 36.2612 105.158 36.2612Z" fill="#FCFCFC"/>
    <path d="M104.822 170.018C104.149 176.465 104.261 182.744 104.485 187.341C104.765 192.638 105.018 209.961 105.802 215.174C106.811 221.957 109.642 227.871 121.806 230.114C131.951 231.992 141.901 227.647 144.535 217.192C145.853 211.951 144.592 206.513 144.9 201.243C145.236 195.722 144.227 188.686 144.227 181.903" fill="#7E9597"/>
    <path d="M144.423 180.894C144.423 184.734 144.816 189.415 144.816 194.376C144.816 200.767 144.788 205.336 145.208 211.698C146.357 229.805 160.202 228.796 165.219 228.264C176.01 227.115 180.606 215.931 180.242 210.549C179.569 201.327 180.242 183.22 179.849 172.429" fill="#7E9597"/>
    <path d="M98.4034 97.1415C98.4034 97.1415 98.0951 84.5001 98.2913 79.1745L98.6277 77.5208C98.6837 77.2405 98.8519 76.82 98.964 76.4837L99.3283 75.5867L99.4965 76.0632L99.4404 75.5307L99.4685 75.5026L99.4965 75.4746L99.6366 75.3345L100.169 74.7739C100.449 74.5777 100.842 74.3534 101.178 74.1572C101.935 73.7087 102.72 73.7087 103.252 73.5686C104.345 73.2322 114.659 73.8769 114.659 73.8769C114.659 73.8769 100.618 74.4936 100.758 79.8192L98.4034 97.1415Z" fill="#FAFCFC"/>
    <path d="M105.214 43.8292C102.776 43.8292 100.786 41.8391 100.786 39.4005C100.786 36.962 102.776 34.9719 105.214 34.9719C107.652 34.9719 109.642 36.962 109.642 39.4005C109.642 41.8391 107.652 43.8292 105.214 43.8292Z" fill="#020000"/>
    <path d="M105.27 35.8968C105.27 35.8968 105.102 35.9529 104.766 36.009C104.597 36.037 104.401 36.093 104.233 36.2332C104.065 36.3453 103.841 36.4574 103.672 36.6536C103.28 36.99 103.028 37.5786 102.832 38.1672C102.692 38.7839 102.635 39.5127 102.888 40.1293C102.944 40.2695 102.972 40.4937 103.028 40.5778C103.112 40.7179 103.196 40.9141 103.308 41.0263C103.504 41.2505 103.729 41.4187 104.009 41.5868C104.569 41.8391 105.186 42.0073 105.69 41.9232C105.971 41.9232 106.195 41.8391 106.419 41.8111C106.643 41.7831 106.811 41.699 106.952 41.6429C107.26 41.5028 107.428 41.4467 107.428 41.4467C107.428 41.4467 107.288 41.5588 107.008 41.755C106.868 41.8391 106.727 41.9793 106.503 42.0633C106.279 42.1474 106.055 42.3156 105.746 42.3156C105.186 42.4558 104.429 42.4277 103.729 42.1194C103.392 41.9512 103.056 41.727 102.748 41.3626C102.523 41.0823 102.299 40.7179 102.187 40.2975C101.935 39.5127 102.019 38.6718 102.215 37.971C102.467 37.2703 102.888 36.6536 103.392 36.3173C103.588 36.0931 103.897 36.037 104.121 35.9529C104.345 35.8408 104.541 35.8408 104.709 35.8688C105.074 35.8968 105.27 35.8968 105.27 35.8968Z" fill="#FCFCFC"/>
    <path d="M81.7275 141.148C76.4585 143.082 77.1871 151.435 79.7656 154.995C82.6243 158.863 88.0335 160.965 92.9102 160.853C98.1792 160.713 103.588 158.498 107.428 154.658C109.53 152.556 115.584 144.624 113.958 141.849" fill="#F0EFEF"/>
    <path d="M100.73 116.706C107.848 123.321 128.224 141.288 105.494 147.258C92.3216 150.706 81.5874 141.204 73.1233 131.73C60.9036 118.08 67.9103 110.007 81.3912 102.103C93.2185 95.1794 111.464 87.4713 124.16 85.1168C170.404 76.5958 242.153 75.1663 262.612 77.9973C256.727 87.3311 255.157 104.149 259.221 109.559C238.818 110.399 191.368 114.996 188.65 122.116C178.812 137.728 185.931 168.281 177.103 174.055C166.761 180.81 144.535 181.735 132.288 180.501C124.244 179.689 111.156 177.923 105.326 171.588C102.047 168.028 101.935 163.403 102.411 158.442C106.952 155.303 113.426 147.623 113.958 145.212" fill="#7E9597"/>
    <path d="M106.531 217.893C105.83 214.165 104.934 197.263 104.513 183.276C104.401 179.352 104.822 173.662 104.765 172.485L111.043 176.017C111.296 180.081 111.716 205.196 111.94 210.241L106.531 217.893Z" fill="#FCFAFA"/>
    <path d="M108.157 174.055C101.514 171.28 102.327 168.056 103.364 152.051C103.364 152.051 109.754 148.716 109.642 150.734L109.53 152.444C108.689 165.506 108.577 169.346 109.054 170.215C108.549 167.944 108.549 173.971 116.172 178.063L108.157 174.055Z" fill="#FFFDFD"/>
    <path d="M181.026 170.719L171.497 176.493C176.766 172.99 176.514 164.833 176.514 162.198C176.486 145.969 173.683 128.675 184.726 119.369L191.564 117.547C184.277 119.817 181.503 152.135 181.531 162.703C181.531 165.422 181.082 168.953 181.026 170.719Z" fill="#FFFDFD"/>
    <path d="M257.651 84.36C255.634 84.36 245.824 83.9676 239.854 83.7153C235.258 83.5191 206.699 82.5381 199.832 83.9115L199.468 82.0896L201.962 77.6609C203.56 76.9041 208.689 77.2685 235.09 77.9132C240.835 78.0533 261.491 77.9973 262.416 77.9132L259.053 84.3039C258.773 84.36 258.296 84.36 257.651 84.36Z" fill="white"/>
    <path d="M176.542 214.585L175.533 213.072L174.272 211.81L173.011 210.045C173.207 208.811 173.291 196.899 173.319 188.406C173.347 180.782 173.375 177.026 173.543 175.12C173.739 173.27 175.281 174.279 175.953 174.195L178.616 173.746L179.064 173.298C182.203 172.485 179.513 181.679 179.961 187.957C181.727 213.716 179.064 215.482 176.542 214.585Z" fill="white"/>
    <path d="M93.6669 146.67C75.8138 137.28 66.565 127.273 68.1065 117.267C69.676 107.12 87.4169 98.7672 103.841 92.5166C108.998 90.5545 114.883 89.2371 118.639 87.4713L123.067 92.5166C119.087 94.3946 112.389 95.4597 107.12 97.4778C94.4516 102.299 75.982 110.708 74.973 117.267C74.0482 123.265 88.7062 141.176 107.12 146.137L101.626 147.791L93.6669 146.67Z" fill="white"/>
    <path d="M280.577 112.614C280.577 112.614 276.317 113.819 276.626 113.539C276.57 113.343 276.177 112.53 275.953 112.221C275.729 111.913 275.448 111.549 275.084 111.156C273.683 109.615 271.357 107.793 268.89 106.223C267.657 105.438 266.34 104.766 265.079 104.261C263.817 103.7 262.584 103.28 261.519 102.944C259.389 102.271 257.904 102.047 257.904 102.047C257.904 102.047 259.417 102.047 261.631 102.467C262.752 102.663 264.042 102.944 265.415 103.336C266.816 103.7 268.246 104.233 269.647 104.878C272.422 106.167 275.056 107.737 276.906 109.306C277.382 109.699 277.775 110.091 278.139 110.484C278.503 110.904 278.784 111.184 279.036 111.633C279.316 112.081 279.428 112.333 279.484 112.474C279.568 112.642 279.596 112.726 279.596 112.726L280.577 112.614Z" fill="#A7C4C3"/>
    <path d="M282.82 111.605C282.82 111.605 282.119 109.615 281.726 108.774C281.53 108.353 281.306 107.849 281.026 107.372C280.718 106.868 280.465 106.307 280.017 105.69C279.204 104.457 278.139 103.112 276.85 101.766C276.177 101.122 275.477 100.449 274.72 99.8323C273.991 99.2156 273.15 98.7391 272.253 98.1505C271.357 97.7021 270.516 97.2256 269.591 96.8612C268.666 96.4968 267.769 96.1324 266.844 95.8801C265.023 95.2915 263.257 94.9832 261.743 94.787C260.23 94.6188 258.941 94.5908 258.044 94.7029C257.82 94.7029 257.623 94.7309 257.427 94.7309C257.427 94.7589 257.231 94.6749 257.343 94.6188L257.455 94.5627C257.511 94.5347 257.595 94.5067 257.651 94.4786C257.876 94.3946 257.96 94.2824 257.96 94.2824C257.96 94.2824 257.876 94.3946 257.651 94.5067C257.595 94.5347 257.287 94.7309 257.427 94.6468C257.595 94.6188 257.792 94.5908 258.016 94.5627C258.913 94.3946 260.202 94.2824 261.771 94.3105C263.341 94.3665 265.163 94.5067 267.068 94.9271C268.049 95.0953 269.002 95.3756 270.011 95.6839C270.992 95.9642 272.029 96.4127 273.01 96.8051C273.879 97.2816 274.916 97.7301 275.785 98.3187C276.682 98.9073 277.494 99.524 278.279 100.169C279.793 101.486 281.138 102.831 282.119 104.093C282.651 104.681 283.072 105.354 283.464 105.915C283.885 106.475 284.137 106.952 284.361 107.344C284.809 108.129 285.09 108.578 285.09 108.578L282.82 111.605Z" fill="#A7C4C3"/>
    <path d="M286.463 101.57C286.463 101.57 285.706 100.673 285.258 99.9164C285.034 99.524 284.753 99.0755 284.445 98.5429C284.137 97.9823 283.772 97.3937 283.268 96.9172C282.791 96.3847 282.287 95.8241 281.726 95.2074C281.194 94.5627 280.409 94.1143 279.709 93.5256C278.98 92.937 278.251 92.3484 277.354 91.928C276.485 91.4514 275.645 90.9469 274.748 90.4984C273.823 90.1341 272.87 89.7697 271.973 89.4053C271.076 88.9849 270.095 88.8447 269.199 88.5644C268.274 88.3402 267.405 88.0318 266.536 87.9197C265.667 87.7796 264.854 87.6394 264.126 87.5273C262.64 87.247 261.351 87.275 260.454 87.1629C259.557 87.1069 259.053 87.0508 259.053 87.0508C259.053 87.0508 259.557 87.0508 260.454 87.0508C261.351 87.1069 262.64 86.9667 264.154 87.1629C264.91 87.247 265.751 87.3031 266.62 87.3872C267.517 87.4152 268.414 87.6955 269.367 87.8356C270.32 88.0318 271.301 88.144 272.253 88.4803C273.234 88.7886 274.215 89.097 275.196 89.4053C276.149 89.7977 277.074 90.2742 278.027 90.6947C278.98 91.0871 279.821 91.6477 280.633 92.2083C281.418 92.7969 282.287 93.2173 282.96 93.89C283.632 94.5347 284.249 95.1514 284.837 95.74C285.482 96.3006 285.902 96.8892 286.211 97.3937C286.575 97.8983 286.575 97.8702 286.827 98.2346C287.332 98.9634 286.827 98.7391 286.827 98.7391L286.463 101.57Z" fill="#A7C4C3"/>
    <path d="M77.9719 150.79C78.1401 150.79 79.6255 150.762 79.9338 150.734C80.9988 150.762 82.6804 150.426 84.306 149.949C85.9315 149.473 87.5291 148.828 88.6501 148.239C89.7992 147.679 90.3878 147.006 90.3878 147.006C90.3878 147.006 89.9394 147.791 88.9024 148.632C87.9214 149.501 86.464 150.482 84.8945 151.379C83.325 152.248 81.7275 153.004 80.2141 153.341C79.8777 153.453 79.3733 153.453 79.0089 153.481C78.4484 153.285 78.028 150.818 77.9719 150.79Z" fill="#A7C4C3"/>
    <path d="M81.5033 156.284C81.5033 156.284 83.4372 156.228 83.9136 156.172C84.3901 156.088 85.1468 156.06 85.9316 155.919C86.7163 155.779 87.6412 155.639 88.6221 155.331C89.6311 155.107 90.6401 154.714 91.677 154.322C92.2096 154.154 92.658 153.845 93.1344 153.621C93.6109 153.369 94.1154 153.145 94.4797 152.808C94.9001 152.5 95.2925 152.22 95.6849 151.911C95.9932 151.575 96.3015 151.239 96.5817 150.93C97.2263 150.342 97.4225 149.669 97.6748 149.248C97.899 148.8 98.0391 148.548 98.0391 148.548C98.0391 148.548 97.955 148.828 97.7869 149.276C97.6187 149.725 97.4786 150.482 96.9461 151.183C96.7219 151.547 96.4696 151.967 96.1613 152.388C95.825 152.752 95.4326 153.145 95.0683 153.537C94.7039 153.957 94.2275 154.294 93.779 154.63C93.3026 154.966 92.8542 155.387 92.3497 155.667C91.3407 156.284 90.3318 156.872 89.2948 157.321C88.3138 157.826 87.3049 158.162 86.436 158.47C85.5672 158.807 84.9226 158.947 84.4181 159.087C84.0257 159.227 81.5033 156.284 81.5033 156.284Z" fill="#A7C4C3"/>
    <path d="M94.5357 160.404C94.8721 160.208 97.7308 157.91 98.1232 157.489C98.4315 157.181 98.7398 156.872 99.048 156.564C99.6366 155.891 100.197 155.247 100.814 154.462C101.963 152.948 103.056 151.295 103.7 150.033C104.037 149.389 104.261 148.828 104.317 148.408C104.401 147.987 104.205 147.791 104.205 147.791C104.205 147.791 104.457 147.959 104.429 148.408C104.457 148.856 104.317 149.473 104.121 150.201C103.7 151.631 102.972 153.481 102.075 155.275C101.655 156.144 101.094 157.097 100.618 157.938C100.365 158.33 100.113 158.694 99.8889 159.031C99.7767 159.283 99.4404 159.647 99.1321 159.788C98.4034 160.264 97.4785 160.965 97.1983 161.161C97.1422 161.189 97.0862 161.245 97.1422 161.217C97.2263 161.217 93.8911 160.656 94.5357 160.404Z" fill="#A7C4C3"/>
    <path d="M137.501 116.818C136.127 116.818 135.006 118.024 134.978 118.696C134.698 124.274 134.838 131.169 134.754 134.505C134.726 135.43 135.455 136.383 136.828 136.803C146.946 139.718 164.855 138.569 168.554 136.803C169.087 136.915 169.984 135.682 170.348 134.505C170.853 129.74 170.853 123.714 170.628 118.92C170.208 117.631 168.779 117.267 167.63 117.042C159.586 117.855 147.843 117.855 137.501 116.818Z" fill="#C5CCD0"/>
    <path d="M149.216 124.807C146.273 124.807 143.078 124.638 139.547 124.19C138.51 124.05 137.781 123.041 137.893 121.948C138.005 120.826 138.958 120.042 139.967 120.182C146.862 121.051 152.579 120.77 157.26 120.378C158.325 120.294 159.193 121.135 159.278 122.256C159.362 123.377 158.577 124.358 157.568 124.442C155.074 124.638 152.299 124.807 149.216 124.807Z" fill="white"/>
    <path d="M144.451 133.916C142.854 133.832 141.088 133.608 139.21 133.103C138.65 132.963 138.314 131.982 138.426 130.917C138.538 129.852 139.098 129.123 139.659 129.291C143.386 130.3 146.525 130.16 149.104 129.908C149.692 129.852 150.113 130.665 150.113 131.73C150.085 132.795 149.636 133.692 149.048 133.748C147.646 133.888 146.133 134 144.451 133.916Z" fill="white"/>
    <path d="M165.051 125.423C166.553 125.423 167.77 124.244 167.77 122.789C167.77 121.333 166.553 120.154 165.051 120.154C163.55 120.154 162.332 121.333 162.332 122.789C162.332 124.244 163.55 125.423 165.051 125.423Z" fill="white"/>
    <path d="M163.397 134.281C164.435 134.281 165.275 133.465 165.275 132.459C165.275 131.453 164.435 130.637 163.397 130.637C162.36 130.637 161.52 131.453 161.52 132.459C161.52 133.465 162.36 134.281 163.397 134.281Z" fill="white"/>
    <path d="M159.025 132.066C160.062 132.066 160.903 131.251 160.903 130.244C160.903 129.238 160.062 128.422 159.025 128.422C157.988 128.422 157.148 129.238 157.148 130.244C157.148 131.251 157.988 132.066 159.025 132.066Z" fill="white"/>
    <path d="M137.501 116.818C136.127 116.818 135.006 118.024 134.978 118.696C134.698 124.274 134.838 131.169 134.754 134.505C134.726 135.43 135.455 136.383 136.828 136.803C146.946 139.718 164.855 138.569 168.554 136.803C169.087 136.915 169.984 135.682 170.348 134.505C170.853 129.74 170.853 123.714 170.628 118.92C170.208 117.631 168.779 117.267 167.63 117.042C159.586 117.855 147.843 117.855 137.501 116.818Z" stroke="#020202" stroke-width="0.5" stroke-miterlimit="10"/>
    <path d="M127.803 24.8812L120.965 11.6232L123.291 10.0816L132.764 22.1063L127.803 24.8812Z" fill="#020000"/>
    <path d="M122.562 18.2943C117.798 18.2943 113.902 14.4262 113.902 9.63311C113.902 4.84005 117.798 1 122.562 1C127.327 1 131.223 4.86808 131.223 9.66114C131.223 14.4542 127.327 18.2943 122.562 18.2943Z" fill="#020000"/>
    <path d="M127.411 13.8656C127.411 13.8656 127.551 13.5573 127.775 13.0527C127.916 12.8005 128.028 12.4641 128.112 12.0997C128.224 11.7353 128.308 11.3429 128.364 10.8664C128.476 10.4179 128.42 9.91341 128.392 9.40888C128.336 8.90435 128.196 8.37178 128.028 7.83922C127.831 7.30666 127.579 6.83016 127.243 6.35365C126.991 5.87715 126.43 5.45671 126.122 5.14838L125.337 4.64385C125.085 4.53173 124.833 4.47567 124.58 4.36355C124.104 4.16735 123.459 4.11129 122.927 3.99917C122.366 4.0272 121.806 3.88705 121.273 3.97114C120.741 3.99917 120.236 4.05523 119.816 4.19538C119.367 4.30749 118.947 4.41961 118.611 4.58779C118.274 4.72794 117.938 4.86809 117.742 5.06429C117.293 5.40065 117.041 5.59685 117.041 5.59685C117.041 5.59685 117.209 5.31656 117.574 4.84006C117.742 4.55976 118.022 4.36355 118.358 4.11129C118.667 3.83099 119.087 3.57873 119.564 3.41055C120.04 3.18631 120.573 3.04616 121.133 2.90602C121.694 2.73784 122.338 2.73784 122.983 2.70981C123.627 2.7939 124.3 2.76587 125.001 3.01813C125.337 3.13025 125.729 3.24237 126.038 3.41055L126.879 3.91508C127.523 4.5037 128 4.89612 128.364 5.5408C128.784 6.12942 129.009 6.7741 129.205 7.41878C129.513 8.70814 129.429 9.96947 129.121 10.9505C129.009 11.455 128.812 11.8755 128.588 12.2399C128.392 12.6042 128.224 12.9126 128 13.1088C127.635 13.6413 127.411 13.8656 127.411 13.8656Z" fill="#FCFCFC"/>
    <path d="M286.855 97.3937L286.407 95.4036C286.015 94.0863 285.51 92.8249 284.809 91.6197C284.109 90.4424 283.268 89.3493 282.343 88.3122C281.362 87.3311 280.325 86.4342 279.204 85.6493C278.083 84.8926 276.934 84.1357 275.701 83.5752C275.196 83.2949 274.664 83.0706 274.131 82.8744C274.271 82.7343 274.44 82.5941 274.58 82.454C275.28 81.6972 275.869 80.8283 276.233 79.7631C276.598 78.7541 276.682 77.4087 276.065 76.2875C275.448 75.1663 274.411 74.5496 273.459 74.2133C273.094 74.0731 272.982 74.0731 272.702 74.0171C272.422 73.989 272.113 73.933 271.861 73.905C271.357 73.905 270.88 73.933 270.404 73.989C269.451 74.1292 268.554 74.3254 267.657 74.6057C266.76 74.858 265.919 75.1943 265.079 75.6148C264.658 75.811 264.266 76.0352 263.873 76.2875C263.621 76.4556 263.397 76.6519 263.173 76.8761H263.089C259.025 76.4276 243.778 75.7829 235.819 75.6148C232.82 75.5307 232.904 75.5026 229.905 75.5307L229.625 75.3625C229.625 75.3625 229.597 75.4466 229.541 75.5307C226.654 75.5587 219.059 75.6148 216.172 75.6708C204.176 76.0913 187.22 76.792 175.281 77.9132C163.341 78.9222 151.43 80.2957 139.575 81.8934C133.605 82.7343 127.719 83.5191 121.778 84.6963C115.836 85.9296 110.063 87.7516 104.429 89.8538C98.7678 91.928 93.2465 94.3385 87.8373 97.0854C82.4842 99.8323 77.1031 102.635 72.3105 106.615C69.9562 108.634 67.7141 111.016 66.3968 114.099C65.0516 117.183 65.2197 120.855 66.4249 123.826C67.602 126.853 69.4237 129.404 71.4417 131.758C71.778 132.15 72.1704 132.543 72.5067 132.935C72.5067 132.935 73.2914 133.86 73.4035 133.916C74.8049 135.43 76.2342 136.915 77.7477 138.345C78.8127 139.326 80.4383 140.419 80.6344 140.84C80.0179 141.176 80.1019 141.204 79.3732 141.737C77.5515 143.138 76.6266 146.221 76.8228 149.305C76.9349 150.846 77.2152 152.528 78.084 154.154C78.9528 155.863 80.6905 157.433 82.316 158.526C83.9136 159.535 85.5672 160.208 87.4169 160.825C89.2947 161.413 90.8082 161.553 92.9102 161.666C95.0122 161.553 97.1422 161.385 98.9639 160.769C100.001 160.572 100.954 160.208 101.879 159.788L101.851 160.152C101.851 160.152 101.851 160.853 101.823 161.413C101.711 163.459 101.711 165.534 101.935 167.636C101.963 168.421 102.131 169.149 102.243 169.906L102.327 170.467C102.411 170.775 102.495 170.915 102.579 171.168C102.776 171.56 103.028 171.924 103.308 172.261C103.56 172.541 103.869 172.737 104.121 172.961C104.037 173.83 103.869 175.512 103.7 177.923C103.672 179.016 103.588 180.305 103.504 181.679L103.336 181.875C103.336 181.875 103.392 181.931 103.476 181.987C103.28 185.042 103.084 188.658 103.224 192.778C103.252 195.862 103.364 199.197 103.616 202.729C103.953 206.261 104.261 209.933 104.85 213.829C105.382 217.613 106.531 221.817 109.39 224.928C112.277 227.984 116.341 229.721 120.348 230.787C124.3 231.964 128.897 232.104 133.016 231.011C137.164 229.834 140.976 227.255 143.33 223.723C144.283 222.322 144.956 220.836 145.46 219.294C146.049 221.733 147.59 223.611 149.3 225.068C150.141 225.741 151.01 226.302 151.907 226.834C152.019 226.918 152.159 226.975 152.271 227.059C152.523 227.199 152.775 227.339 153.028 227.451C153.56 227.759 154.065 228.068 154.625 228.292C155.13 228.516 155.69 228.628 156.223 228.796C156.223 228.796 156.251 228.796 156.251 228.824C156.279 228.824 156.307 228.852 156.335 228.852C156.811 228.993 157.26 229.161 157.764 229.273C158.493 229.469 159.25 229.637 160.006 229.749C160.651 229.862 161.211 229.918 161.8 229.974C162.473 230.002 163.033 230.002 163.678 230.002C166.088 229.918 168.386 229.385 170.292 228.488C170.712 228.292 171.077 228.04 171.469 227.815C173.711 226.638 175.729 225.04 177.271 223.134C179.849 219.883 181.475 216.043 181.727 211.951C181.671 207.998 181.363 204.691 181.223 201.299C181.138 197.992 181.054 194.853 180.97 191.938C180.718 186.107 181.194 181.258 180.886 177.867C180.774 176.409 181.11 174.755 181.054 173.858L180.718 173.915C181.755 173.326 182.344 172.373 182.736 171.56C183.465 169.878 183.689 168.309 183.913 166.739C184.277 163.628 184.305 160.572 184.333 157.545C184.362 154.854 184.39 152.192 184.446 149.557C184.502 149.445 184.558 149.389 184.558 149.389L184.446 149.333C184.53 146.081 184.698 142.83 185.034 139.634C185.09 139.13 185.174 138.625 185.258 138.121C185.398 138.037 185.483 137.953 185.483 137.953L185.314 137.756C186.015 132.543 187.248 127.357 189.939 123.097L190.023 122.957L190.079 122.789C190.303 122.228 191.004 121.527 191.845 120.967C192.713 120.378 193.722 119.901 194.731 119.425C196.805 118.5 199.019 117.771 201.262 117.127C205.746 115.837 210.398 114.884 215.051 114.099C224.384 112.53 249.748 111.521 259.193 111.044L261.519 110.932C261.631 111.016 261.715 111.1 261.827 111.156C262.893 111.885 264.07 112.642 265.191 113.287C266.34 113.931 267.713 114.464 268.974 114.8C270.264 115.164 271.665 115.417 272.954 115.557C275.645 115.809 278.616 115.529 281.026 113.931C282.231 113.146 283.212 112.109 283.941 110.932C284.697 109.783 285.146 108.493 285.622 107.288C286.043 106.027 286.435 104.737 286.687 103.42C286.911 102.103 286.967 100.757 286.967 99.4119L286.855 97.3937ZM98.7397 158.947C96.7218 159.647 95.8249 159.984 93.2465 160.264C91.5088 160.432 89.2947 160.292 87.5571 159.703C85.7914 159.115 84.1098 158.274 82.8486 157.069C81.6154 155.976 80.4943 154.574 79.9618 153.257C79.3452 151.911 78.9809 150.454 78.8407 149.136C78.6726 147.791 78.7286 146.586 78.8968 145.521C79.0649 144.427 79.5134 143.615 79.9338 142.97C80.3822 142.297 80.8026 141.933 81.195 141.652C81.3071 141.596 81.3351 141.54 81.4192 141.484C84.9506 144.315 88.8743 146.726 93.3306 148.015C96.3575 148.884 99.4965 149.164 102.663 148.716C105.634 148.267 108.717 147.37 111.436 145.857C112.165 145.464 112.865 144.96 113.51 144.399C112.249 146.586 110.819 148.688 109.306 150.706C108.577 151.603 107.792 152.5 106.98 153.369C105.774 154.378 104.569 155.471 103.168 156.452C101.683 157.321 100.758 158.106 98.7397 158.947ZM142.77 217.192C142.349 218.846 141.593 220.388 140.724 221.873C139.21 224.34 137.192 225.853 134.39 227.143C132.344 227.675 129.681 228.572 127.271 228.768C126.682 228.796 126.066 228.852 125.449 228.881C124.805 228.881 124.104 228.965 123.459 228.937C122.198 228.909 120.853 228.852 119.536 228.628C118.499 228.488 117.49 228.236 116.481 227.899C116.116 227.787 115.752 227.675 115.388 227.535C115.023 227.395 114.659 227.199 114.295 227.031C113.958 226.862 113.622 226.694 113.286 226.498C112.781 226.218 112.305 225.909 111.828 225.545C109.586 223.835 107.961 221.116 108.185 218.425C108.437 215.707 110.231 213.576 112.389 212.007C114.603 210.465 117.153 209.484 119.704 208.979C122.282 208.447 124.777 208.279 127.299 208.363C129.625 208.447 131.951 208.839 133.969 209.372C136.015 209.904 137.865 210.605 139.322 211.558C140.78 212.483 141.929 213.576 142.574 214.67C142.798 215.006 142.966 215.342 143.106 215.651C143.022 216.211 142.91 216.8 142.77 217.192ZM105.859 190.648C105.746 188.378 105.662 186.219 105.578 184.313C105.55 183.893 105.55 183.557 105.522 183.164L105.382 179.464L105.298 179.548C105.27 178.988 105.214 178.371 105.186 177.867C104.99 175.849 104.822 174.335 104.681 173.382C105.494 173.999 106.335 174.531 107.232 175.008C110.006 176.409 112.921 177.362 115.836 178.231C118.751 179.072 121.722 179.773 124.693 180.361C127.663 180.922 130.69 181.482 133.745 181.679C136.8 181.903 139.855 181.959 142.91 181.875C143.33 181.875 143.751 181.819 144.171 181.791C144.171 181.819 144.171 181.847 144.171 181.903H144.059C144.059 181.903 143.947 183.36 143.835 185.939C143.835 186.051 143.807 186.135 143.807 186.276C143.611 189.667 143.47 194.516 143.47 200.346C143.47 200.851 143.527 201.412 143.527 201.944C143.527 202.084 143.527 202.196 143.498 202.365C143.302 205.56 143.583 208.923 143.498 212.259C143.498 213.128 143.386 213.885 143.302 214.67C143.302 214.726 143.274 214.754 143.274 214.81C143.218 214.67 143.19 214.529 143.106 214.389C142.518 213.184 141.621 211.754 140.219 210.465C138.818 209.176 137.024 207.886 134.866 206.933C132.68 205.952 130.214 205.364 127.411 205.167C124.805 204.943 121.834 205.139 118.975 205.896C116.116 206.625 113.202 207.886 110.707 209.904C109.502 210.942 108.381 212.175 107.596 213.632C107.204 214.361 106.924 215.146 106.699 215.987C106.671 216.127 106.671 216.239 106.643 216.379C106.503 215.454 106.447 214.529 106.447 213.632C106.279 210.213 106.363 206.821 106.335 203.598L106.279 200.515C106.223 198.132 106.139 195.834 106.027 193.675L105.859 190.648ZM146.946 217.921C147.198 215.398 148.683 213.576 150.561 212.119C152.467 210.717 154.681 209.792 156.951 209.316C159.221 208.811 161.408 208.671 163.65 208.727C165.696 208.811 167.742 209.176 169.535 209.652C173.151 210.549 175.981 212.483 177.075 214.473C177.355 214.922 177.551 215.37 177.663 215.763C176.99 217.641 176.066 219.463 174.832 221.06C172.73 223.835 169.675 225.993 166.228 226.638C162.613 227.339 158.773 227.619 155.27 226.666C151.71 225.769 148.852 223.05 147.478 219.799C147.254 219.294 147.114 218.79 146.974 218.285C146.974 218.145 146.946 218.033 146.946 217.921ZM178.56 201.888C178.532 205.027 178.644 208.531 178.644 211.67C178.532 212.792 178.252 213.941 177.887 215.062C177.803 214.782 177.719 214.501 177.579 214.193C177.103 213.1 176.346 211.782 175.141 210.577C173.936 209.344 172.366 208.139 170.432 207.214C168.498 206.289 166.284 205.7 163.762 205.504C161.436 205.28 158.745 205.476 156.195 206.205C153.616 206.905 151.038 208.111 148.852 210.017C148.039 210.773 147.338 211.642 146.722 212.623C146.722 212.539 146.722 212.427 146.722 212.315C146.75 209.092 146.357 206.205 146.245 203.57C146.245 202.477 146.245 201.355 146.245 200.29C146.189 197.375 146.217 194.712 145.993 192.33C145.825 189.947 145.572 187.873 145.404 186.191C145.152 184.145 144.9 182.632 144.76 181.735C150.225 181.511 155.69 181.034 161.099 180.137C164.098 179.633 167.097 179.016 170.068 178.203C173.039 177.362 175.925 176.409 178.868 174.924L179.681 174.419C179.653 175.008 179.541 175.821 179.513 176.661L178.56 201.888ZM179.289 181.258C179.205 183.136 179.092 185.238 179.008 187.565L179.289 181.258ZM181.138 163.6C181.082 164.525 181.054 165.422 180.998 166.318C180.858 167.748 180.634 169.177 180.157 170.271C179.905 170.831 179.653 171.196 179.345 171.364L177.411 172.513C174.973 173.774 172.114 174.811 169.311 175.652C166.48 176.493 163.566 177.138 160.623 177.698C154.765 178.764 148.796 179.436 142.826 179.689C139.827 179.829 136.856 179.829 133.885 179.633C130.914 179.464 127.972 179.016 125.029 178.511C122.086 177.979 119.143 177.362 116.256 176.577C113.37 175.792 110.511 174.896 107.876 173.634C106.559 172.99 104.765 171.952 104.597 171.672C104.541 171.56 103.588 169.402 103.588 169.402C103.841 170.915 103.336 163.74 103.336 161.862C103.308 160.881 103.336 160.096 103.532 158.947C103.813 158.807 104.121 158.638 104.401 158.498C105.298 158.106 105.943 157.377 106.671 156.844C107.372 156.256 108.129 155.723 108.689 155.051C109.362 154.294 111.996 150.622 111.884 150.538C113.258 148.267 114.126 146.165 114.407 144.539C114.491 144.091 114.519 143.699 114.491 143.334C114.547 143.25 114.631 143.194 114.687 143.138C114.799 143.138 116.425 140.531 116.2 140.447C116.425 139.718 116.565 138.934 116.565 138.177C116.537 134.869 114.939 132.066 113.286 129.572C112.585 128.591 111.828 127.666 111.072 126.741L109.67 124.807C112.837 122.48 121.722 119.285 123.487 118.808C124.384 118.556 126.795 117.939 127.327 117.967C127.86 117.967 129.934 117.575 128.981 117.799C128.981 117.827 128.812 117.631 126.823 117.631C126.262 117.631 124.917 117.771 123.964 117.883C122.086 118.08 120.881 118.388 118.499 119.117C116.088 119.845 112.613 121.359 110.847 122.116C109.978 122.48 109.082 123.125 108.521 123.461C108.185 123.657 108.017 123.125 107.904 123.209C105.634 120.883 103.224 118.724 100.814 116.594L100.589 116.818C102.916 119.061 105.242 121.331 107.4 123.714L107.26 123.77L108.101 124.526C109.67 126.32 111.156 128.142 112.417 130.132C113.958 132.599 115.276 135.374 115.163 138.149C115.107 140.924 113.089 143.138 110.567 144.427C108.017 145.745 105.214 146.53 102.299 146.894C99.5245 147.202 96.5817 146.894 93.8631 146.025C88.3698 144.287 83.6333 140.615 79.4013 136.579C78.8127 135.99 78.2522 135.402 77.6636 134.813C78.056 134.813 78.4484 134.841 78.8688 134.841C79.4853 134.897 80.13 134.841 80.7465 134.785C81.3912 134.729 82.0358 134.701 82.6524 134.589C83.9136 134.337 85.1748 134.169 86.3239 133.776C87.473 133.468 88.51 133.075 89.3788 132.711C90.2756 132.403 90.9483 131.954 91.4247 131.702C91.9012 131.45 92.1815 131.282 92.1815 131.282C92.1815 131.282 91.8732 131.394 91.3687 131.562C90.8362 131.73 90.1355 132.066 89.2106 132.235C88.3138 132.459 87.2488 132.683 86.0997 132.795C84.9786 132.991 83.7174 132.963 82.5122 133.019C81.8956 133.019 81.3071 132.935 80.7185 132.907C80.214 132.935 79.6255 132.879 79.093 132.739C78.5605 132.627 78.028 132.543 77.5235 132.459C77.1031 132.319 76.6827 132.178 76.3183 132.038C75.954 131.898 75.6457 131.87 75.2813 131.618C74.945 131.422 74.6647 131.253 74.4405 131.113C74.2443 131.001 74.1322 130.917 74.0201 130.861C71.8901 128.394 70.0123 125.816 68.8912 122.929C67.9103 120.35 67.8262 117.603 68.9193 115.164C69.4798 113.875 70.2926 112.67 71.2735 111.549C71.806 111.437 72.2825 111.409 72.4787 111.605C72.7869 111.465 73.0952 111.409 73.3755 111.381C73.6838 111.296 74.0762 111.24 74.5246 111.24C76.3463 111.1 78.9248 111.857 81.2791 113.202C83.6333 114.576 85.7633 116.398 87.2488 117.883C88.7342 119.369 89.631 120.462 89.631 120.462C89.631 120.462 88.9023 119.257 87.6131 117.575C86.3519 115.893 84.4461 113.735 82.1479 111.941C79.8777 110.147 77.047 108.802 74.6367 108.634C74.5246 108.634 74.4405 108.634 74.3564 108.634C78.5885 105.13 83.6333 102.355 88.6501 99.7202C88.8463 99.7202 89.0425 99.7202 89.1546 99.7482C89.4629 99.7763 89.7992 99.8043 90.2196 99.8603C90.668 99.8603 90.9763 100.057 91.3687 100.169C91.7611 100.309 92.2095 100.449 92.6859 100.617C93.1624 100.869 93.6389 101.15 94.1714 101.458C94.7039 101.71 95.1803 102.131 95.6848 102.523C96.1613 102.944 96.7498 103.28 97.1422 103.784C98.0671 104.709 98.9639 105.691 99.6366 106.728C100.421 107.709 100.898 108.774 101.43 109.643C101.935 110.512 102.131 111.352 102.383 111.885C102.607 112.446 102.72 112.754 102.72 112.754C102.72 112.754 102.635 112.418 102.495 111.857C102.327 111.296 102.243 110.428 101.851 109.474C101.458 108.521 101.122 107.344 100.449 106.223C99.8888 105.046 99.1041 103.897 98.2633 102.747C97.8989 102.131 97.3384 101.682 96.8619 101.15C96.3855 100.645 95.9371 100.113 95.3485 99.7202C94.816 99.2998 94.2835 98.9073 93.779 98.5149C93.3306 98.2627 92.8821 98.0384 92.4337 97.8422C95.6288 96.2726 98.9079 94.787 102.187 93.4135C102.355 93.4135 102.551 93.4135 102.663 93.4135C103.336 93.4135 104.289 93.5257 104.737 93.5257C105.186 93.5537 105.746 93.4976 106.167 93.6658C106.643 93.7779 107.148 93.89 107.68 94.0302C108.241 94.0862 108.773 94.4226 109.362 94.7029C109.922 95.0112 110.595 95.1794 111.1 95.6839C111.632 96.1044 112.193 96.5529 112.753 96.9733C113.202 97.5059 113.678 98.0384 114.126 98.571C114.631 99.0755 114.911 99.7202 115.247 100.309C115.556 100.925 115.976 101.458 116.116 102.075C116.313 102.663 116.509 103.224 116.677 103.756C117.069 104.794 117.013 105.747 117.153 106.391C117.237 107.036 117.293 107.4 117.293 107.4C117.293 107.4 117.293 107.036 117.293 106.363C117.237 105.719 117.406 104.737 117.153 103.644C117.041 103.084 116.929 102.467 116.817 101.822C116.761 101.15 116.369 100.561 116.144 99.8603C115.864 99.1876 115.64 98.4589 115.191 97.8422C114.771 97.1975 114.351 96.5529 113.902 95.8801C113.342 95.3195 112.781 94.759 112.249 94.1984C111.744 93.5817 111.015 93.2734 110.399 92.8249C109.754 92.4325 109.194 91.956 108.465 91.7598C108.017 91.5916 107.652 91.4515 107.232 91.3113C112.108 89.4053 117.069 87.7235 122.142 86.5463C127.916 85.2289 133.857 84.2479 139.743 83.2668C145.629 82.2858 151.57 81.501 157.512 80.7722C163.454 80.0434 169.395 79.3707 175.337 78.8662C181.307 78.3617 187.276 77.9412 193.246 77.6329C197.534 77.3806 206.839 77.2685 211.127 77.1844C210.903 77.6329 210.623 78.1935 210.314 78.8382C210.09 79.2866 209.866 79.7351 209.614 80.2396C209.333 80.7161 209.193 81.3608 208.997 81.9775C208.633 83.2388 208.268 84.5562 207.932 85.8456C207.82 87.1629 207.708 88.4803 207.596 89.7136C207.428 90.9469 207.568 92.0961 207.568 93.0772C207.624 95.0393 207.68 96.3286 207.68 96.3286C207.68 96.3286 207.82 95.0393 208.044 93.1052C208.184 92.1522 208.212 91.003 208.549 89.8538C208.829 88.7046 209.137 87.4713 209.417 86.2099C209.922 85.0888 210.398 83.9676 210.875 82.9024C211.127 82.3979 211.267 81.8654 211.632 81.4169C211.94 80.9684 212.248 80.5199 212.528 80.1275C213.649 78.5298 214.378 77.4647 214.378 77.4647L213.762 77.1003C214.546 77.1003 215.331 77.0723 216.116 77.0443C218.75 77.0443 226.065 77.0443 228.7 77.1003C228.532 77.4647 228.335 77.8571 228.111 78.2776C227.887 78.726 227.663 79.1745 227.411 79.679C227.13 80.1555 226.99 80.8002 226.794 81.4169C226.43 82.6782 226.065 83.9956 225.729 85.285C225.617 86.6024 225.505 87.9197 225.393 89.153C225.225 90.3863 225.365 91.5356 225.365 92.5166C225.421 94.4787 225.477 95.768 225.477 95.768C225.477 95.768 225.617 94.4787 225.841 92.5446C225.981 91.5916 226.009 90.4424 226.346 89.2932C226.626 88.144 226.934 86.9107 227.214 85.6493C227.719 84.5282 228.195 83.407 228.672 82.3419C228.924 81.8373 229.064 81.3048 229.429 80.8563C229.737 80.4078 230.045 79.9593 230.325 79.5669C231.138 78.4177 231.727 77.5488 232.007 77.1564C234.221 77.2124 231.755 77.2685 233.969 77.3806C235.735 77.4367 242.321 77.6049 244.087 77.745C243.946 77.9973 243.806 78.2215 243.638 78.5298C243.19 79.3707 242.657 80.2957 242.265 81.3889C242.069 81.9494 241.788 82.454 241.676 83.0706C241.536 83.6592 241.396 84.2759 241.256 84.8645C241.032 86.0137 240.835 87.1629 240.667 88.2841C240.443 89.3773 240.471 90.4424 240.415 91.3113C240.443 92.2083 240.527 92.937 240.583 93.4416C240.639 93.9461 240.667 94.2544 240.667 94.2544C240.667 94.2544 240.695 93.9741 240.723 93.4416C240.779 92.937 240.779 92.2083 240.92 91.3394C241.116 90.4985 241.256 89.5174 241.648 88.4803C241.985 87.4713 242.349 86.3221 242.769 85.2569C242.993 84.7524 243.19 84.2479 243.414 83.7433C243.582 83.2388 243.946 82.7903 244.199 82.3419C244.675 81.4449 245.32 80.6881 245.824 80.0434C246.301 79.3988 246.861 78.8382 247.169 78.4457C247.366 78.2495 247.478 78.0814 247.562 77.9973C250.084 78.2215 258.632 78.5298 261.127 78.8382C258.604 83.3509 257.091 88.2841 256.25 93.2734C255.802 96.0483 255.549 98.8793 255.662 101.766C255.718 103.196 255.858 104.653 256.194 106.111C256.362 106.84 256.558 107.568 256.839 108.297C248.01 108.718 223.291 109.587 214.518 110.988C209.782 111.745 205.045 112.67 200.365 113.959C198.011 114.604 195.684 115.361 193.386 116.342C192.237 116.874 191.088 117.435 189.995 118.192C188.902 118.977 187.725 119.901 187.024 121.555L186.884 121.303C186.66 121.695 186.604 122.088 186.379 122.48C186.015 122.929 185.847 123.209 185.763 123.321C185.398 123.742 185.202 124.638 184.698 125.816L184.081 127.946C183.128 130.889 182.54 133.888 182.119 136.915C181.979 137.056 181.755 140.139 181.755 140.139C181.475 143.11 181.335 146.081 181.251 149.052L181.138 163.6ZM110.567 125.507C110.539 125.507 110.511 125.535 110.427 125.535C110.511 125.507 110.567 125.507 110.567 125.507ZM285.987 103.28C285.818 104.541 285.482 105.775 285.034 106.952C284.501 108.157 283.997 109.306 283.156 110.259C282.371 111.212 281.418 111.997 280.325 112.502C278.167 113.511 275.673 113.595 273.206 113.427C270.656 113.315 268.274 112.726 265.947 111.801C264.714 111.296 263.649 110.736 262.444 110.175C261.884 109.923 261.351 109.643 260.79 109.362L260.314 108.718C259.025 106.952 258.548 104.205 258.408 101.626C258.268 98.9914 258.436 96.3006 258.801 93.6378C259.585 88.3402 261.127 83.0426 263.845 78.5018L264.714 77.0443L263.677 76.9321C263.817 76.8761 263.958 76.792 264.098 76.7359C264.49 76.5678 264.91 76.4276 265.331 76.3155C266.172 76.0913 267.04 75.8951 267.909 75.7549C268.778 75.6148 269.647 75.5307 270.488 75.5307C270.908 75.5307 271.329 75.5587 271.721 75.6148L272.197 75.6988C272.338 75.7549 272.702 75.867 272.73 75.8951C273.431 76.2314 273.963 76.6799 274.159 77.1844C274.383 77.6889 274.327 78.2776 274.047 78.9222C273.515 80.2116 272.281 81.4169 270.992 82.0335L268.414 83.2949L271.16 84.332C272.338 84.7804 273.515 85.1728 274.636 85.7334C275.785 86.2099 276.85 86.8546 277.915 87.4993C278.952 88.172 279.933 88.9568 280.83 89.7697C281.698 90.6386 282.539 91.5356 283.268 92.5446C283.941 93.5817 284.585 94.6468 285.062 95.7961C285.286 96.3847 285.454 96.9733 285.65 97.5619L286.015 99.4119C286.183 100.729 286.155 102.019 285.987 103.28Z" fill="#020000"/>
    <path d="M105.074 183.332C105.074 183.332 105.326 183.501 105.802 183.809C106.027 183.949 106.307 184.145 106.615 184.37C106.924 184.51 107.26 184.706 107.624 184.874C108.353 185.295 109.362 185.631 110.399 186.051C110.903 186.248 111.464 186.416 111.996 186.612C112.557 186.752 113.145 186.892 113.734 187.06C114.911 187.341 116.06 187.649 117.153 187.929C117.714 188.097 118.162 188.154 118.695 188.238C119.199 188.322 119.676 188.406 120.124 188.462C121.89 188.742 123.067 188.938 123.067 188.938C123.067 188.938 121.89 188.938 120.096 188.966C119.648 188.966 119.171 188.966 118.667 188.966C118.19 188.994 117.574 188.966 117.013 188.91C115.892 188.826 114.715 188.714 113.538 188.602C112.949 188.546 112.361 188.49 111.772 188.462C111.184 188.35 110.595 188.238 110.006 188.154C108.885 187.901 107.876 187.733 106.924 187.369C105.943 187.088 105.214 186.78 104.765 186.528C104.289 186.304 104.009 186.163 104.009 186.163L105.074 183.332Z" fill="#050505"/>
    <path d="M104.625 194.488C104.625 194.488 104.906 194.656 105.354 194.937C105.578 195.077 105.858 195.245 106.195 195.441C106.503 195.581 106.839 195.75 107.232 195.918C107.961 196.282 108.997 196.59 110.034 196.955C110.567 197.123 111.099 197.263 111.632 197.431C112.221 197.543 112.809 197.656 113.37 197.796C114.547 198.02 115.724 198.272 116.817 198.496C117.882 198.721 118.947 198.861 119.816 199.001C121.582 199.169 122.787 199.225 122.787 199.225C122.787 199.225 121.61 199.365 119.816 199.477C118.919 199.477 117.91 199.534 116.761 199.477C115.64 199.421 114.463 199.393 113.258 199.337C112.669 199.309 112.08 199.281 111.492 199.281C110.875 199.197 110.287 199.113 109.726 199.057C108.577 198.861 107.568 198.721 106.615 198.412C105.634 198.16 104.878 197.88 104.429 197.656C103.925 197.459 103.644 197.319 103.644 197.319L104.625 194.488Z" fill="#050505"/>
    <path d="M179.849 181.342C179.849 181.342 179.597 181.511 179.177 181.819C178.952 181.959 178.7 182.155 178.42 182.379C178.14 182.52 177.803 182.716 177.467 182.884C176.794 183.304 175.841 183.641 174.888 184.061C174.412 184.257 173.908 184.426 173.403 184.622C172.871 184.762 172.31 184.902 171.777 185.07C170.684 185.351 169.591 185.659 168.582 185.939C168.078 186.107 167.63 186.163 167.125 186.247C166.649 186.332 166.2 186.416 165.78 186.472C164.126 186.752 163.033 186.948 163.033 186.948C163.033 186.948 164.154 186.948 165.808 186.976C166.228 186.976 166.677 186.976 167.153 186.976C167.602 187.004 168.162 186.976 168.695 186.92C169.732 186.836 170.853 186.724 171.946 186.612C172.506 186.556 173.067 186.5 173.599 186.472C174.16 186.36 174.72 186.248 175.253 186.163C176.318 185.911 177.243 185.743 178.14 185.379C179.036 185.098 179.737 184.79 180.157 184.538C180.606 184.313 180.858 184.173 180.858 184.173L179.849 181.342Z" fill="#050505"/>
    <path d="M180.242 192.498C180.242 192.498 179.989 192.666 179.569 192.947C179.345 193.087 179.092 193.255 178.784 193.451C178.504 193.591 178.168 193.759 177.831 193.928C177.159 194.292 176.178 194.6 175.197 194.965C174.72 195.133 174.216 195.273 173.683 195.441C173.151 195.553 172.59 195.665 172.058 195.806C170.965 196.03 169.872 196.282 168.835 196.506C167.854 196.731 166.845 196.871 166.032 197.011C164.378 197.179 163.257 197.235 163.257 197.235C163.257 197.235 164.35 197.375 166.032 197.487C166.873 197.487 167.826 197.543 168.891 197.487C169.928 197.431 171.049 197.403 172.142 197.347C172.702 197.319 173.263 197.291 173.795 197.291C174.356 197.207 174.916 197.123 175.449 197.067C176.514 196.871 177.467 196.731 178.364 196.422C179.289 196.17 179.961 195.89 180.41 195.665C180.858 195.469 181.138 195.329 181.138 195.329L180.242 192.498Z" fill="#050505"/>
    <path d="M183.437 131.954C183.437 131.954 183.212 132.122 182.82 132.431C182.624 132.571 182.4 132.767 182.119 132.991C181.867 133.131 181.559 133.328 181.251 133.496C180.634 133.916 179.765 134.253 178.896 134.673C178.448 134.869 177.999 135.037 177.523 135.234C177.047 135.374 176.542 135.514 176.038 135.682C175.057 135.962 174.048 136.271 173.123 136.551C172.646 136.719 172.254 136.775 171.806 136.859C171.385 136.943 170.965 137.028 170.572 137.084C169.059 137.364 168.05 137.56 168.05 137.56C168.05 137.56 169.059 137.56 170.572 137.588C170.965 137.588 171.357 137.588 171.806 137.588C172.226 137.616 172.73 137.588 173.207 137.532C174.16 137.448 175.169 137.336 176.178 137.224C176.682 137.168 177.187 137.112 177.691 137.084C178.196 136.972 178.7 136.859 179.205 136.775C180.157 136.523 181.026 136.355 181.839 135.99C182.68 135.71 183.296 135.402 183.689 135.15C184.109 134.925 184.333 134.785 184.333 134.785L183.437 131.954Z" fill="#050505"/>
    <path d="M182.568 144.708C182.568 144.708 182.344 144.876 181.951 145.156C181.755 145.296 181.503 145.464 181.223 145.661C180.97 145.801 180.662 145.969 180.326 146.137C179.709 146.502 178.812 146.81 177.943 147.174C177.495 147.342 177.047 147.483 176.57 147.651C176.066 147.763 175.589 147.875 175.085 148.015C174.076 148.239 173.095 148.492 172.142 148.716C171.245 148.94 170.32 149.08 169.591 149.22C168.106 149.389 167.069 149.445 167.069 149.445C167.069 149.445 168.078 149.585 169.619 149.697C170.376 149.697 171.245 149.753 172.226 149.697C173.179 149.641 174.188 149.613 175.197 149.557C175.701 149.529 176.206 149.501 176.71 149.501C177.215 149.417 177.719 149.333 178.224 149.276C179.205 149.08 180.073 148.94 180.886 148.632C181.727 148.38 182.344 148.099 182.764 147.875C183.184 147.679 183.437 147.539 183.437 147.539L182.568 144.708Z" fill="#050505"/>
    <path d="M182.147 157.629C182.147 157.629 181.923 157.797 181.531 158.078C181.335 158.218 181.082 158.386 180.802 158.582C180.55 158.722 180.242 158.891 179.905 159.059C179.289 159.423 178.392 159.732 177.523 160.096C177.075 160.264 176.626 160.404 176.15 160.572C175.645 160.685 175.169 160.797 174.664 160.937C173.655 161.161 172.674 161.413 171.721 161.638C170.825 161.862 169.9 162.002 169.171 162.142C167.686 162.31 166.649 162.366 166.649 162.366C166.649 162.366 167.658 162.506 169.199 162.619C169.956 162.619 170.825 162.675 171.806 162.619C172.758 162.563 173.767 162.534 174.776 162.478C175.281 162.45 175.785 162.422 176.29 162.422C176.794 162.338 177.299 162.254 177.803 162.198C178.784 162.002 179.653 161.862 180.466 161.553C181.307 161.301 181.923 161.021 182.344 160.797C182.764 160.6 183.016 160.46 183.016 160.46L182.147 157.629Z" fill="#050505"/>
    <path d="M115.416 136.018C116.144 136.243 116.733 136.327 117.462 136.439C118.134 136.551 118.751 136.663 119.339 136.747C121.666 137.14 123.207 137.392 123.207 137.392C123.207 137.392 121.638 137.392 119.311 137.42C118.723 137.42 118.106 137.42 117.434 137.42C116.817 137.448 116.004 137.42 115.276 137.336C115.36 136.859 115.36 136.018 115.416 136.018Z" fill="#050505"/>
    <path d="M111.884 147.483C112.501 147.595 113.146 147.707 113.762 147.847C115.023 148.071 116.285 148.323 117.462 148.548C118.583 148.772 119.732 148.912 120.685 149.052C122.563 149.22 123.852 149.277 123.852 149.277C123.852 149.277 122.591 149.417 120.657 149.529C119.676 149.529 118.611 149.585 117.378 149.529C116.172 149.473 114.911 149.445 113.622 149.389C112.977 149.361 112.333 149.333 111.716 149.333C111.072 149.22 111.296 147.314 111.884 147.483Z" fill="#050505"/>
    <path d="M103.14 157.433C103.14 157.433 103.448 157.601 103.953 157.882C104.205 158.022 104.541 158.19 104.906 158.386C105.242 158.526 105.634 158.694 106.083 158.863C106.896 159.227 108.073 159.563 109.25 159.928C109.838 160.096 110.455 160.264 111.072 160.404C111.716 160.516 112.389 160.628 113.061 160.769C114.379 161.021 115.724 161.245 116.957 161.469C118.162 161.694 119.367 161.834 120.348 161.974C122.338 162.142 123.684 162.198 123.684 162.198C123.684 162.198 122.366 162.338 120.32 162.45C119.311 162.45 118.162 162.506 116.845 162.422C115.584 162.366 114.239 162.338 112.893 162.282C112.221 162.254 111.548 162.226 110.875 162.226C110.203 162.142 109.53 162.058 108.885 162.002C107.596 161.806 106.447 161.666 105.354 161.357C104.261 161.105 103.42 160.825 102.888 160.6C102.327 160.404 102.019 160.264 102.019 160.264L103.14 157.433Z" fill="#050505"/>
    <path d="M125.113 230.506C135.391 230.506 143.723 224.533 143.723 217.164C143.723 209.796 135.391 203.822 125.113 203.822C114.835 203.822 106.503 209.796 106.503 217.164C106.503 224.533 114.835 230.506 125.113 230.506Z" fill="white"/>
    <path d="M143.863 217.164C143.863 217.164 143.835 217.557 143.807 218.313C143.723 219.042 143.498 220.163 142.994 221.481C142.013 224.087 139.322 227.591 134.782 229.777C132.54 230.871 129.877 231.543 127.019 231.683C126.29 231.683 125.617 231.711 124.833 231.683C124.132 231.599 123.459 231.571 122.703 231.459C121.189 231.235 119.732 230.899 118.274 230.394C115.388 229.385 112.585 227.871 110.203 225.769C108.97 224.732 107.961 223.443 107.176 221.985C106.363 220.528 105.831 218.958 105.746 217.164C105.662 215.679 106.027 213.688 106.699 212.203C107.428 210.633 108.437 209.232 109.67 208.083C112.109 205.756 115.107 204.242 118.106 203.374C121.105 202.505 124.244 202.252 126.991 202.505C129.934 202.757 132.54 203.458 134.81 204.579C139.322 206.821 142.013 210.297 143.022 212.932C143.527 214.249 143.751 215.342 143.807 216.099C143.863 216.772 143.863 217.164 143.863 217.164ZM143.583 217.164C143.583 217.164 143.555 216.772 143.47 216.043C143.386 215.314 143.134 214.277 142.518 213.072C141.929 211.839 140.808 210.605 139.379 209.456C137.921 208.307 136.043 207.382 133.913 206.681C131.811 206.008 129.345 205.476 126.879 205.336C124.216 205.224 121.582 205.42 118.863 206.092C116.172 206.737 113.51 207.97 111.324 209.82C109.138 211.698 107.512 214.137 107.26 217.192C107.204 218.538 107.484 220.107 108.101 221.453C108.745 222.798 109.67 224.031 110.791 225.068C113.033 227.115 115.864 228.348 118.695 228.881C120.096 229.189 121.526 229.301 122.843 229.357C123.487 229.413 124.244 229.329 124.917 229.329C125.505 229.301 126.206 229.245 126.851 229.217C129.429 228.993 131.811 228.432 133.941 227.703C136.071 226.974 137.949 226.05 139.407 224.872C140.836 223.723 141.985 222.49 142.546 221.256C143.162 220.051 143.386 219.014 143.498 218.285C143.555 217.557 143.583 217.164 143.583 217.164Z" fill="#050505"/>
    <path d="M143.751 219.491C144.423 227.927 134.446 234.374 122.955 234.374C111.464 234.374 102.159 227.703 102.159 219.491C102.159 211.278 111.464 204.607 122.955 204.607C134.446 204.607 143.106 211.306 143.751 219.491Z" fill="white"/>
    <path d="M112.445 231.179C112.445 231.179 110.679 228.04 109.978 226.246C109.754 225.797 109.726 225.349 109.558 224.844C109.418 224.34 109.278 223.835 109.138 223.275C108.97 222.742 108.941 222.097 108.829 221.481C108.745 220.864 108.605 220.247 108.577 219.603C108.549 218.958 108.493 218.313 108.465 217.669C108.409 217.024 108.465 216.407 108.465 215.791C108.465 214.557 108.605 213.408 108.661 212.427C108.913 210.465 109.166 209.176 109.166 209.176C109.166 209.176 108.745 210.381 108.241 212.287C108.045 213.268 107.708 214.389 107.568 215.651C107.484 216.267 107.344 216.912 107.316 217.613C107.26 218.285 107.204 218.986 107.176 219.659C107.12 220.36 107.176 221.06 107.176 221.733C107.204 222.434 107.176 223.106 107.26 223.779C107.344 224.452 107.428 225.096 107.512 225.713C107.596 226.302 107.652 226.974 107.792 227.423C108.269 229.357 108.101 229.133 108.101 229.133L112.445 231.179Z" fill="#A7C4C3"/>
    <path d="M122.534 234.767C122.534 234.767 120.517 231.515 119.536 229.077C119.283 228.46 119.171 227.815 118.947 227.143C118.751 226.442 118.555 225.713 118.33 224.956C118.134 224.2 118.022 223.331 117.854 222.518C117.742 221.677 117.49 220.808 117.462 219.939C117.293 218.201 117.125 216.435 117.125 214.782C117.041 213.128 117.181 211.558 117.209 210.241C117.406 207.578 117.658 205.812 117.658 205.812C117.658 205.812 117.209 207.522 116.677 210.157C116.481 211.474 116.144 213.044 116.004 214.726C115.78 216.407 115.724 218.229 115.668 220.079C115.612 221.004 115.724 221.901 115.752 222.826C115.808 223.723 115.808 224.62 115.92 225.489C116.06 226.358 116.172 227.199 116.284 228.012C116.425 228.796 116.481 229.609 116.677 230.254C117.349 232.833 117.518 233.898 117.518 233.898L122.534 234.767Z" fill="#A7C4C3"/>
    <path d="M131.139 233.87C131.139 233.87 130.746 232.889 129.765 230.422C129.513 229.805 129.401 229.161 129.177 228.488C128.981 227.787 128.784 227.059 128.56 226.302C128.364 225.545 128.252 224.676 128.084 223.863C127.972 223.022 127.719 222.153 127.691 221.284C127.523 219.547 127.355 217.781 127.355 216.127C127.271 214.473 127.411 212.904 127.439 211.586C127.635 208.923 127.888 207.158 127.888 207.158C127.888 207.158 127.439 208.867 126.907 211.502C126.71 212.82 126.374 214.389 126.234 216.071C126.01 217.753 125.954 219.575 125.898 221.425C125.842 222.35 125.954 223.247 125.982 224.172C126.038 225.068 126.038 225.965 126.15 226.834C126.29 227.703 126.402 228.544 126.514 229.357C126.654 230.142 126.71 230.955 126.907 231.599C127.579 234.178 127.916 234.514 127.916 234.514L131.139 233.87Z" fill="#A7C4C3"/>
    <path d="M139.883 229.581C139.883 229.581 139.435 229.273 138.706 227.619C138.482 227.199 138.285 226.021 138.117 225.573C137.977 225.125 137.697 223.667 137.529 223.162C137.361 222.658 137.389 221.845 137.277 221.256C137.192 220.668 136.996 220.107 136.968 219.491C136.856 218.285 136.688 217.052 136.716 215.903C136.66 214.726 136.772 213.66 136.8 212.707C136.968 210.829 137.136 209.596 137.136 209.596C137.136 209.596 136.8 210.773 136.38 212.623C136.212 213.548 135.959 214.641 135.875 215.847C135.707 217.052 135.679 218.341 135.623 219.659C135.595 220.303 135.679 220.976 135.707 221.621C135.763 222.266 135.735 222.91 135.847 223.527C135.959 224.144 136.043 224.76 136.155 225.349C136.268 225.909 136.324 226.526 136.464 226.946C136.968 228.74 137.361 230.478 137.361 230.478L139.883 229.581Z" fill="#A7C4C3"/>
    <path d="M143.919 219.491C143.919 219.491 143.919 219.967 143.919 220.808C143.891 221.677 144.648 222.406 144.227 224.031C143.779 225.629 142.686 228.404 141.004 229.974C139.322 231.515 136.66 232.608 134.166 233.898C131.699 235.159 128.7 235.944 125.561 235.972C124.02 235.972 122.338 235.804 120.825 235.496C119.227 235.159 117.602 234.767 116.032 234.178C112.865 233.029 109.726 231.515 106.896 229.301C104.177 227.115 101.514 223.891 101.29 219.743C101.122 217.837 101.514 215.623 102.327 213.801C103.168 211.979 104.345 210.353 105.718 209.036C108.493 206.429 111.828 204.775 115.135 203.794C118.443 202.813 121.862 202.533 124.889 202.813C128.112 203.065 130.999 203.822 133.493 205.055C135.987 206.261 138.061 207.886 139.631 209.54C141.228 211.166 142.237 212.96 142.854 214.473C143.498 215.987 143.723 217.276 143.835 218.145C143.891 219.014 143.919 219.491 143.919 219.491ZM143.583 219.491C143.583 219.491 143.555 219.042 143.47 218.201C143.33 217.36 143.078 216.127 142.321 214.782C140.892 212.007 137.277 209.232 132.54 207.886C130.186 207.186 127.523 206.653 124.805 206.541C121.918 206.457 119.003 206.653 116.032 207.382C113.061 208.083 110.119 209.428 107.652 211.446C105.186 213.492 103.308 216.267 103.112 219.715C102.888 223.106 104.878 226.414 107.54 228.46C110.203 230.59 113.426 231.712 116.537 232.272C118.106 232.58 119.648 232.721 121.133 232.833C122.731 232.889 124.132 232.945 125.533 232.861C128.336 232.749 130.886 232.16 133.241 231.347C135.539 230.562 137.809 229.553 139.491 228.432C141.2 227.283 142.433 225.881 142.966 224.396C143.526 222.938 143.583 222.602 143.639 221.761C143.611 220.892 143.583 219.491 143.583 219.491Z" fill="#020000"/>
    <path d="M164.098 232.384C174.608 232.384 183.128 225.871 183.128 217.837C183.128 209.803 174.608 203.289 164.098 203.289C153.588 203.289 145.068 209.803 145.068 217.837C145.068 225.871 153.588 232.384 164.098 232.384Z" fill="white"/>
    <path d="M149.608 227.843C149.608 227.843 149.664 227.227 150.561 225.489C150.813 225.04 150.898 224.62 151.094 224.115C151.262 223.639 151.458 223.106 151.654 222.574C151.85 222.041 151.935 221.425 152.103 220.808C152.215 220.191 152.439 219.575 152.495 218.93C152.915 216.379 152.887 213.688 152.775 211.698C152.607 209.708 152.383 208.363 152.383 208.363C152.383 208.363 152.803 209.624 153.336 211.586C153.784 213.548 154.289 216.267 154.317 219.098C154.373 219.799 154.261 220.5 154.261 221.2C154.205 221.901 154.233 222.574 154.093 223.247C153.981 223.919 153.868 224.592 153.756 225.209C153.616 225.825 153.56 226.498 153.392 226.946C152.803 228.852 152.383 229.862 152.383 229.862L149.608 227.843Z" fill="#A7C4C3"/>
    <path d="M158.577 231.067C158.577 231.067 159.193 229.525 160.118 227.171C160.511 226.021 160.819 224.704 161.239 223.275C161.436 222.546 161.52 221.761 161.688 220.948C161.8 220.163 162.024 219.35 162.08 218.51C162.501 215.23 162.473 211.867 162.36 209.344C162.192 206.821 161.996 205.139 161.996 205.139C161.996 205.139 162.417 206.765 162.949 209.26C163.397 211.754 163.902 215.146 163.93 218.622C163.986 219.491 163.902 220.359 163.874 221.2C163.818 222.069 163.846 222.91 163.734 223.723C163.51 225.349 163.313 226.974 163.061 228.264C162.473 230.73 162.08 232.356 162.08 232.356L158.577 231.067Z" fill="#A7C4C3"/>
    <path d="M167.77 231.852C167.77 231.852 168.33 230.226 169.171 227.787C169.535 226.582 169.788 225.237 170.18 223.723C170.348 222.966 170.432 222.153 170.544 221.312C170.628 220.472 170.825 219.659 170.853 218.79C171.161 215.37 171.049 211.923 170.853 209.316C170.6 206.709 170.348 204.971 170.348 204.971C170.348 204.971 170.825 206.625 171.413 209.204C171.946 211.782 172.534 215.258 172.702 218.846C172.786 219.743 172.73 220.64 172.73 221.509C172.702 222.406 172.73 223.275 172.674 224.115C172.506 225.825 172.002 229.413 171.806 230.758C171.301 233.309 170.32 231.263 170.32 231.263L167.77 231.852Z" fill="#A7C4C3"/>
    <path d="M175.645 229.553C175.645 229.553 176.262 227.367 176.906 225.573C177.103 225.097 176.878 225.209 177.018 224.704C177.131 224.2 177.383 222.546 177.495 221.985C177.635 221.425 177.663 220.808 177.775 220.191C177.831 219.575 177.971 218.93 177.999 218.285C178.196 215.707 178.055 213.044 177.831 211.054C177.579 209.064 177.327 207.746 177.327 207.746C177.327 207.746 177.747 208.979 178.28 210.914C178.784 212.848 179.317 215.538 179.513 218.341C179.597 219.042 179.541 219.743 179.569 220.444C179.569 221.144 179.625 221.817 179.541 222.49C179.485 223.162 179.429 223.835 179.373 224.452C179.289 225.068 179.289 225.741 179.177 226.19C179.177 227.031 177.887 228.18 177.887 228.18L175.645 229.553Z" fill="#A7C4C3"/>
    <path d="M183.268 217.865C183.268 217.865 183.24 218.285 183.212 219.07C183.156 219.855 182.932 221.004 182.456 222.406C181.923 223.779 181.11 225.433 179.737 227.031C178.364 228.628 176.542 230.226 174.216 231.431C171.89 232.636 169.087 233.421 166.116 233.589C165.359 233.589 164.659 233.618 163.818 233.589C163.089 233.505 162.389 233.477 161.576 233.337C159.978 233.085 158.465 232.721 156.951 232.16C153.952 231.039 151.038 229.357 148.655 227.003C147.45 225.853 146.385 224.48 145.685 222.91C144.9 221.369 144.423 219.659 144.311 217.893C144.115 214.389 145.629 210.689 148.095 208.223C150.505 205.672 153.616 203.962 156.755 202.953C159.894 201.972 163.201 201.664 166.088 201.944C169.199 202.224 171.918 203.037 174.244 204.271C176.57 205.504 178.42 207.102 179.765 208.699C181.138 210.297 181.951 211.951 182.484 213.324C182.96 214.726 183.156 215.875 183.24 216.66C183.24 217.416 183.268 217.865 183.268 217.865ZM182.988 217.837C182.988 217.837 182.96 217.444 182.876 216.66C182.792 215.903 182.568 214.782 181.951 213.492C181.363 212.203 180.27 210.829 178.812 209.54C177.355 208.251 175.421 207.186 173.235 206.373C171.049 205.588 168.498 204.971 165.92 204.803C163.145 204.663 160.371 204.915 157.54 205.672C154.737 206.429 151.991 207.83 149.804 209.904C147.562 211.951 146.077 214.698 145.797 217.837C145.629 220.948 146.946 224.115 149.244 226.33C151.458 228.6 154.429 230.03 157.344 230.646C158.801 230.983 160.287 231.179 161.688 231.207C162.36 231.263 163.145 231.207 163.874 231.207C164.491 231.179 165.247 231.123 165.892 231.067C168.582 230.815 171.049 230.17 173.263 229.329C175.449 228.488 177.383 227.395 178.84 226.106C180.298 224.816 181.391 223.443 181.979 222.153C182.568 220.864 182.792 219.771 182.876 218.986C182.932 218.257 182.988 217.837 182.988 217.837Z" fill="#020000"/>
    <path d="M157.932 108.55C183.89 108.55 204.933 87.5044 204.933 61.5439C204.933 35.5834 183.89 14.5383 157.932 14.5383C131.974 14.5383 110.931 35.5834 110.931 61.5439C110.931 87.5044 131.974 108.55 157.932 108.55Z" fill="#7E9597"/>
    <path d="M204.933 58.3205C204.26 64.431 202.383 67.346 200.505 69.5043C194.059 76.9602 183.296 83.3509 170.292 86.5463C146.75 92.3764 124.805 85.5653 121.301 71.3543C117.798 57.1433 134.025 40.9141 157.568 35.084C172.338 31.4401 186.463 32.7575 195.824 37.7468C197.394 38.5877 200.141 39.6248 201.85 44.7262" fill="#F0EFEF"/>
    <path d="M170.32 86.5743C144.844 92.3484 124.833 85.5933 121.329 71.3823C117.826 57.1713 133.969 40.6058 157.596 35.112C161.38 34.2431 178.308 42.2315 182.512 54.2562C189.266 73.7087 183.184 81.7812 179.457 83.4911C175.785 85.1728 174.216 85.6774 170.32 86.5743Z" fill="#C6CCD0"/>
    <path d="M202.243 67.29C202.074 68.0748 196.777 72.6997 196.469 73.8209C186.884 103.168 161.912 106.251 161.043 106.363C159.306 106.587 158.297 106.7 158.297 106.7C158.297 106.7 159.306 106.615 161.043 106.475C161.912 106.391 162.977 106.335 164.21 106.195C165.415 105.971 166.789 105.719 168.274 105.438C169.788 105.214 171.329 104.597 173.011 104.149C174.72 103.728 176.374 102.831 178.168 102.131C179.877 101.29 181.643 100.337 183.353 99.2717C185.034 98.1225 186.744 96.9733 188.257 95.5998C189.883 94.3385 191.228 92.7688 192.657 91.3393C193.919 89.7697 195.236 88.2841 196.273 86.6584C197.422 85.1168 198.263 83.463 199.16 81.9494C199.888 80.3798 200.673 78.9222 201.206 77.4927C201.794 76.0913 202.215 74.7739 202.551 73.5686C202.943 72.3913 203.616 69.7285 203.84 68.8596C204.821 65.6923 205.241 60.3106 205.241 60.3106C205.241 60.3106 204.036 63.7302 202.243 67.29Z" fill="#FCFCFC"/>
    <path d="M186.632 34.5794C186.071 33.8787 174.16 13.8936 141.705 20.7609C139.967 21.4896 135.567 22.6388 135.567 22.6388C135.567 22.6388 136.52 22.1904 138.229 21.3775C139.07 20.9851 140.107 20.4806 141.284 19.948C142.518 19.5276 143.919 19.051 145.432 18.5185C146.946 17.9299 148.683 17.7337 150.477 17.2572C152.271 16.7807 154.233 16.7807 156.251 16.5004C158.269 16.4443 160.371 16.4163 162.501 16.5844C164.631 16.8087 166.789 17.0609 168.891 17.6215C171.049 18.014 173.067 18.8548 175.085 19.5276C177.047 20.3965 179.008 21.1813 180.774 22.2464C182.596 23.1714 184.193 24.3486 185.791 25.3857C187.248 26.563 188.706 27.6001 189.911 28.7493C191.172 29.8144 192.209 30.9356 193.106 31.9166C194.031 32.8696 194.759 33.9067 195.376 34.6355C196.497 36.1771 198.319 38.6437 198.319 38.6437C198.319 38.6437 190.611 36.2052 186.632 34.5794Z" fill="#FCFCFC"/>
    <path d="M205.045 58.3205H204.961C204.961 58.2925 204.961 58.2644 204.961 58.2084C204.961 57.4235 204.849 56.4705 204.737 55.4615V55.4895C205.045 57.0872 205.101 57.9281 205.101 57.9281L205.326 57.9C205.326 57.9 205.298 57.0311 205.017 55.4054C204.821 54.2001 204.457 52.6025 203.924 50.6404C203.784 50.0518 203.672 49.4912 203.504 48.8745C202.887 46.7162 202.13 44.2777 201.065 41.6989C200.981 41.4747 200.897 41.2785 200.841 41.0262C200.645 40.6899 200.589 40.1573 200.225 39.7649C199.552 38.3074 198.795 36.8498 197.842 35.3362C194.844 30.5151 190.611 25.4138 184.782 21.3214C178.924 17.2572 171.693 14.1739 163.369 13.2209C155.41 12.3239 146.385 13.361 138.257 17.0609C134.166 18.8829 130.354 21.4336 126.795 24.3206C123.319 27.3198 120.236 30.8515 117.658 34.7476C115.135 38.6998 113.23 43.0163 111.856 47.5291C110.595 52.0699 110.091 56.863 110.091 61.4878C110.287 66.1968 110.987 70.8497 112.417 75.2784C113.874 79.7071 115.836 83.9115 118.387 87.7516C120.993 91.5075 123.964 95.0112 127.383 97.9543C130.886 100.785 134.558 103.364 138.566 105.214C142.574 107.008 146.694 108.465 150.982 109.082C153.14 109.559 155.158 109.587 157.204 109.755C159.39 109.783 161.38 109.671 163.426 109.503C171.553 108.662 178.896 105.606 184.754 101.598C190.611 97.5339 194.844 92.4325 197.842 87.6114C200.925 82.7903 202.411 77.9973 203.532 74.1011C204.064 72.1391 204.457 70.3732 204.597 68.7755C204.849 67.2059 205.017 65.8885 205.017 64.7953C205.101 62.6371 205.157 61.4878 205.157 61.4878C205.157 61.4878 205.129 60.9272 205.101 59.9742C205.157 58.9371 205.045 58.3205 205.045 58.3205ZM198.963 39.821C200.841 43.1004 202.102 46.2958 202.915 49.1268C203.476 51.0608 203.896 52.7987 204.092 54.3403C204.373 55.8819 204.569 57.1993 204.597 58.2644C204.653 58.9932 204.681 59.5538 204.709 60.0303C204.653 60.2545 204.625 60.5068 204.569 60.7871C204.204 62.3287 203.364 64.5991 201.766 67.1218C201.009 68.4392 199.916 69.5604 198.543 70.8497C197.282 72.1951 195.74 73.3443 194.115 74.6337C190.752 77.1283 186.66 79.4828 181.979 81.557C177.271 83.6032 171.946 85.285 166.172 86.4902C160.399 87.6114 154.177 88.3121 147.731 87.8356C141.368 87.3031 134.586 85.6493 129.121 81.6411C126.402 79.679 124.076 77.0443 122.815 73.961C121.497 70.8777 121.245 67.4021 122.002 64.1787C123.487 57.5917 128.224 52.2381 133.353 48.0617C138.566 43.8853 144.535 40.8581 150.505 38.6157C156.531 36.3733 162.585 35.084 168.442 34.6916C174.3 34.2711 179.905 34.6355 184.978 35.4484C190.051 36.2332 194.619 37.6347 198.347 39.5126C198.515 39.5687 198.739 39.6808 198.963 39.821ZM204.569 64.8514C204.541 65.9445 204.345 67.2619 204.064 68.7755C203.868 70.3172 203.448 72.055 202.887 73.989C201.794 77.8291 199.86 82.3979 196.637 86.9107C193.47 91.4515 188.986 95.9642 183.325 99.6081C177.635 103.252 170.684 105.859 163.061 106.896C161.155 107.092 159.137 107.204 157.26 107.232C155.242 107.148 153.112 107.204 151.178 106.868C147.198 106.503 143.106 105.27 139.182 103.728C135.231 102.131 131.503 99.8603 128.056 97.1134C124.664 94.3105 121.638 90.975 119.115 87.2751C116.649 83.4911 114.799 79.3427 113.454 74.9981C112.221 70.6255 111.744 66.0567 111.716 61.5439C111.94 56.947 112.613 52.5184 114.014 48.2579C115.444 44.0254 117.378 39.9611 119.872 36.3173C122.422 32.7295 125.337 29.422 128.672 26.6751C132.064 24.0123 135.651 21.6858 139.519 20.0601C147.226 16.7526 155.354 15.5754 163.117 16.4443C170.572 17.3693 177.635 19.948 183.296 23.5358C188.986 27.1516 193.442 31.6644 196.609 36.1771C197.142 36.9339 197.59 37.6907 198.067 38.4475C194.479 36.3733 190.079 34.8597 185.174 33.8226C180.017 32.7015 174.272 32.253 168.218 32.4772C162.136 32.6454 155.774 34.0188 149.58 36.2612C143.358 38.4755 137.22 41.755 131.839 46.2397C126.542 50.6684 121.722 56.5827 120.404 63.7863C119.76 67.346 120.18 71.13 121.722 74.3534C123.263 77.6048 125.786 80.2116 128.588 82.2297C134.334 86.2099 141.06 88.0319 147.534 88.8727C154.065 89.6856 160.511 89.4894 166.452 88.3962C172.422 87.3591 177.887 85.5092 182.652 83.2668C187.444 81.0525 191.592 78.4738 194.872 75.7269C198.123 72.8678 200.785 70.2891 202.327 67.5142C203.644 65.1597 204.345 63.1136 204.681 61.5439V61.5719C204.793 61.5439 204.709 62.6931 204.569 64.8514Z" fill="#020000"/>
  </g>
  <defs>
    <clipPath id="clip0">
      <rect width="287" height="235" fill="white" transform="translate(0.5 0.5)"/>
    </clipPath>
  </defs>
</svg>
