<svg width="206" height="235" viewBox="0 0 206 235" fill="none" xmlns="http://www.w3.org/2000/svg">
<g clip-path="url(#clip0)">
<path d="M204.481 151.328C204.481 154.383 201.997 156.578 198.97 156.2L6.74738 132.467C3.71405 132.1 1.23071 129.294 1.23071 126.239V28.6167C1.23071 25.5611 3.71405 22.7945 6.75293 22.4722L198.958 1.90557C201.997 1.57779 204.481 3.81668 204.481 6.87224V151.328Z" fill="#7E9597"/>
<path d="M204.564 151.333C204.564 151.333 204.558 151.494 204.542 151.817C204.508 152.139 204.453 152.628 204.22 153.228C203.992 153.822 203.592 154.539 202.881 155.161C202.525 155.472 202.086 155.744 201.586 155.961C201.081 156.172 200.503 156.3 199.886 156.333C199.264 156.372 198.62 156.256 197.947 156.183C197.275 156.1 196.564 156.017 195.825 155.928C194.342 155.75 192.725 155.556 190.975 155.339C187.475 154.917 183.453 154.428 178.947 153.883C169.936 152.772 158.986 151.544 146.425 150.072C133.87 148.611 119.697 146.961 104.242 145.156C96.5196 144.228 88.4696 143.261 80.1418 142.261C71.814 141.267 63.214 140.156 54.364 139.056C49.9418 138.5 45.4585 137.939 40.9196 137.372C36.3807 136.789 31.7918 136.194 27.1474 135.594C22.5029 134.994 17.814 134.389 13.0751 133.778C11.8918 133.622 10.7029 133.472 9.51403 133.317L7.72514 133.083L6.83069 132.967C6.47514 132.911 6.2418 132.883 5.89736 132.789C3.33625 132.1 1.34736 129.917 0.886248 127.333L0.814026 126.85L0.791804 126.361C0.780692 126.039 0.791804 125.75 0.791804 125.439L0.802915 123.611C0.80847 122.389 0.819581 121.167 0.825137 119.944C0.841804 117.494 0.852915 115.033 0.869581 112.561C0.886248 107.622 0.902915 102.65 0.919581 97.6445C0.936248 87.6333 0.952915 77.5056 0.969581 67.2945C0.952915 57.0833 0.936248 46.7889 0.914026 36.4556C0.902915 33.8722 0.891804 31.2889 0.880692 28.7C0.830692 25.9389 2.71958 23.3167 5.32514 22.4C5.96403 22.1611 6.68625 22.0667 7.31403 22.0056L9.24736 21.7889L13.114 21.3556L20.8474 20.4889C41.4696 18.1889 62.0862 15.8945 82.3862 13.6278C102.686 11.4111 122.67 9.22779 142.003 7.11668C161.342 5.05001 180.042 3.05557 197.77 1.16112L198.597 1.07223L198.803 1.05001C198.864 1.04446 199.025 1.03335 199.053 1.03335L199.47 1.01112C200.175 1.01668 200.797 1.11668 201.42 1.31668C202.647 1.73335 203.742 2.56668 204.42 3.67223C204.758 4.22223 205.025 4.81668 205.158 5.4389C205.231 5.75001 205.281 6.06668 205.303 6.37779L205.325 6.85001V7.26112C205.325 8.35001 205.325 9.4389 205.325 10.5222C205.314 14.8556 205.303 19.1167 205.297 23.3111C205.258 31.7 205.22 39.8056 205.181 47.5833C205.064 63.1445 204.958 77.4056 204.864 90.05C204.786 102.694 204.658 113.717 204.653 122.794C204.592 140.956 204.564 151.328 204.564 151.333ZM204.397 151.328C204.397 151.328 204.364 140.956 204.314 122.8C204.308 113.722 204.186 102.7 204.103 90.0556C204.008 77.4111 203.903 63.15 203.786 47.5889C203.747 39.8111 203.708 31.7056 203.67 23.3167C203.658 19.1222 203.653 14.8556 203.642 10.5278C203.642 9.44446 203.642 8.35557 203.642 7.26668V6.85557L203.625 6.51112C203.608 6.28335 203.57 6.05557 203.52 5.83335C203.425 5.38335 203.231 4.96668 202.997 4.57779C202.525 3.80001 201.758 3.22779 200.892 2.92779C200.458 2.7889 199.975 2.72223 199.57 2.71112L199.153 2.73335C199.047 2.7389 199.07 2.73335 198.986 2.74446L198.781 2.77779L197.953 2.86668C180.225 4.76668 161.531 6.77224 142.192 8.84446C122.847 10.8722 102.858 12.9667 82.5473 15.0945C62.2307 17.1778 41.5918 19.2945 20.9529 21.4111L13.214 22.2L9.34736 22.5945L7.41403 22.7945C6.74736 22.8556 6.17514 22.9278 5.59736 23.1333C3.2918 23.9167 1.55847 26.2556 1.5918 28.7111C1.58069 31.3 1.56958 33.8833 1.55847 36.4667C1.5418 46.8 1.52514 57.0945 1.50291 67.3056C1.51958 77.5167 1.53625 87.65 1.55291 97.6556C1.56958 102.661 1.58625 107.633 1.60291 112.572C1.61958 115.039 1.63069 117.5 1.64736 119.956C1.65291 121.183 1.66403 122.406 1.66958 123.622L1.68069 125.45C1.68625 125.75 1.68069 126.067 1.6918 126.356L1.71403 126.778L1.78069 127.194C2.18069 129.411 4.01403 131.322 6.12514 131.856C6.35847 131.928 6.72514 131.972 6.96403 132.006L7.85847 132.111L9.64736 132.322C10.8362 132.461 12.0251 132.6 13.214 132.744C17.9585 133.306 22.6585 133.856 27.3029 134.406C31.9529 134.956 36.5474 135.494 41.0918 136.033C45.6307 136.583 50.1196 137.133 54.5418 137.667C63.3918 138.756 72.0029 139.767 80.3251 140.828C88.6474 141.883 96.6862 142.906 104.403 143.883C119.831 145.894 133.975 147.739 146.514 149.378C159.053 151.006 169.975 152.478 178.986 153.589C183.492 154.156 187.508 154.661 191.008 155.106C192.758 155.328 194.375 155.528 195.858 155.717C196.597 155.811 197.308 155.9 197.981 155.983C198.658 156.061 199.292 156.178 199.881 156.144C201.081 156.1 202.075 155.617 202.764 155.028C203.453 154.428 203.842 153.744 204.064 153.172C204.292 152.594 204.347 152.128 204.381 151.817C204.386 151.489 204.397 151.328 204.397 151.328Z" fill="#020202"/>
<path d="M191.97 138.783C191.953 141.839 189.448 144.1 186.403 143.811L13.2475 127.222C10.2086 126.933 7.71973 124.194 7.71973 121.139V34.0389C7.71973 30.9833 10.2086 28.2556 13.2531 27.9722L187.242 11.8611C190.286 11.5778 192.759 13.85 192.736 16.9056L191.97 138.783Z" fill="#C6CCD0"/>
<path d="M192.025 138.789C192.025 138.789 192.02 138.933 192.003 139.217C191.981 139.5 191.92 139.933 191.747 140.472C191.57 141.006 191.253 141.656 190.686 142.278C190.12 142.889 189.292 143.478 188.22 143.739C187.686 143.867 187.103 143.939 186.492 143.883C185.886 143.828 185.253 143.772 184.592 143.711C183.264 143.589 181.814 143.45 180.247 143.306C177.114 143.011 173.514 142.672 169.481 142.294C161.42 141.522 151.62 140.667 140.381 139.644C129.142 138.628 116.464 137.478 102.636 136.222C95.7251 135.578 88.5196 134.906 81.0696 134.211C73.6196 133.494 65.914 132.75 57.9974 131.989C50.0807 131.211 41.9474 130.406 33.6307 129.589C29.4751 129.172 25.2751 128.75 21.0307 128.328C18.9085 128.117 16.7807 127.9 14.6362 127.689C14.0918 127.628 13.5807 127.594 13.014 127.517C12.8807 127.494 12.7474 127.478 12.614 127.45L12.1862 127.344C11.9085 127.267 11.6418 127.167 11.3807 127.056C10.3362 126.6 9.43069 125.861 8.7418 124.961C8.40846 124.5 8.11957 124.006 7.90291 123.483C7.69735 122.95 7.5418 122.4 7.48069 121.828C7.42513 121.25 7.4418 120.706 7.4418 120.161L7.44735 118.522C7.45846 116.333 7.46402 114.139 7.47513 111.933C7.48624 107.528 7.49735 103.089 7.50846 98.6222C7.51957 89.6889 7.53069 80.65 7.5418 71.5333C7.51957 62.4222 7.49735 53.2333 7.48069 44.0111C7.47513 41.7056 7.46957 39.4 7.46402 37.0889C7.46957 35.9278 7.43624 34.7944 7.47513 33.6111C7.55846 32.3889 8.02513 31.2333 8.7418 30.2667C9.10846 29.7889 9.53069 29.3556 10.0085 28.9833C10.4918 28.6167 11.0196 28.3167 11.5807 28.0889C12.1418 27.8611 12.7474 27.7444 13.3418 27.6778L15.0696 27.5111L21.9807 26.8556C40.414 25.0889 58.8418 23.3222 76.9862 21.5778C95.1307 19.8667 112.992 18.1833 130.275 16.5556C147.558 14.9556 164.27 13.4167 180.114 11.95C182.097 11.7667 184.064 11.5889 186.014 11.4056C186.514 11.3667 186.958 11.3056 187.508 11.2833C187.736 11.2611 188.031 11.2833 188.314 11.3C188.592 11.3278 188.853 11.3722 189.12 11.4389C189.647 11.5611 190.147 11.7833 190.62 12.0444C191.081 12.3278 191.508 12.6667 191.87 13.0667C192.586 13.8667 193.07 14.8778 193.225 15.9278C193.32 16.45 193.297 16.9944 193.303 17.45C193.297 17.9278 193.297 18.4056 193.292 18.8778C193.275 20.7778 193.258 22.6667 193.242 24.5389C193.17 32.0222 193.097 39.2556 193.031 46.2C192.864 60.0889 192.714 72.8167 192.581 84.1C192.458 95.3833 192.347 105.217 192.258 113.317L192.025 138.789ZM191.914 138.783C191.914 138.783 191.953 129.528 192.02 113.328C192.031 105.228 192.047 95.3889 192.064 84.1055C192.07 72.8222 192.081 60.0944 192.092 46.2055C192.108 39.2611 192.131 32.0278 192.153 24.5444C192.158 22.6722 192.164 20.7833 192.175 18.8833C192.175 18.4056 192.181 17.9333 192.181 17.4556C192.181 16.9611 192.197 16.5333 192.12 16.1167C191.997 15.2667 191.608 14.4722 191.042 13.8333C190.753 13.5167 190.414 13.25 190.053 13.0222C189.675 12.8167 189.281 12.6389 188.858 12.5444C188.653 12.4944 188.431 12.4611 188.225 12.4389C188.02 12.4278 187.825 12.4 187.57 12.4222C187.136 12.4333 186.608 12.5056 186.136 12.5444C184.181 12.7278 182.214 12.9111 180.236 13.0944C164.392 14.5667 147.681 16.1167 130.397 17.7167C113.108 19.2889 95.2474 20.9111 77.0918 22.5611C58.9362 24.1833 40.4918 25.8278 22.0529 27.4722L15.1196 28.0833L13.3918 28.2389C12.8362 28.3 12.2974 28.4 11.7807 28.6056C11.2696 28.8111 10.7862 29.0833 10.3418 29.4167C9.90846 29.7556 9.51402 30.1556 9.17513 30.5889C8.51402 31.4722 8.08069 32.5444 8.00291 33.6333C7.95846 34.7611 7.98624 35.9389 7.97513 37.0833C7.96957 39.3944 7.96402 41.7 7.95846 44.0056C7.93624 53.2278 7.91402 62.4111 7.89735 71.5278C7.90846 80.6389 7.91957 89.6833 7.93069 98.6166C7.9418 103.083 7.95291 107.522 7.96402 111.928C7.97513 114.133 7.98069 116.328 7.9918 118.517L7.99735 120.156C8.00291 120.706 7.9918 121.256 8.0418 121.756C8.10291 122.272 8.24735 122.772 8.43624 123.25C8.6418 123.728 8.90291 124.172 9.21402 124.589C9.84735 125.406 10.6807 126.067 11.6251 126.472C12.5529 126.9 13.614 126.922 14.6918 127.028C16.8362 127.222 18.9696 127.417 21.0918 127.611C25.3362 128 29.5418 128.383 33.7029 128.767C42.0196 129.539 50.1585 130.3 58.0807 131.033C66.0029 131.789 73.7029 132.522 81.1585 133.228C88.6085 133.961 95.8085 134.667 102.72 135.35C116.536 136.744 129.203 138.022 140.431 139.156C151.658 140.283 161.442 141.306 169.503 142.078C173.536 142.472 177.131 142.822 180.264 143.128C181.831 143.283 183.281 143.422 184.603 143.55C185.931 143.661 187.142 143.9 188.186 143.594C189.231 143.339 190.036 142.772 190.592 142.178C191.147 141.578 191.458 140.944 191.636 140.422C191.803 139.894 191.87 139.478 191.892 139.194C191.903 138.928 191.914 138.783 191.914 138.783Z" fill="#020202"/>
<path d="M204.481 151.328C204.481 154.383 201.997 156.578 198.97 156.2L6.74738 132.467C3.71405 132.1 1.23071 129.294 1.23071 126.239V28.6167C1.23071 25.5611 3.71405 22.7945 6.75294 22.4722L198.959 1.90557C201.997 1.57779 204.481 3.81668 204.481 6.87224V151.328Z" stroke="#020202" stroke-width="2" stroke-miterlimit="10"/>
<path d="M29.5754 213.7C24.781 201.411 54.8032 196.328 61.3143 208.261C69.2643 222.828 41.4254 228.672 32.9087 219C31.6976 217.622 30.7087 216.522 30.0087 214.617" fill="#F0EFEF"/>
<path d="M27.6808 213.9C27.6808 213.9 27.6364 213.811 27.553 213.644C27.5142 213.561 27.4586 213.456 27.3975 213.333C27.3419 213.2 27.2808 213.044 27.2086 212.867C26.953 212.167 26.6808 211.039 26.9086 209.678C27.1197 208.322 28.1642 207.156 29.3919 205.922C30.603 204.667 32.3197 204.006 34.2308 203.167C36.1364 202.378 38.4308 201.778 41.103 201.489C43.5197 201.211 45.6642 200.961 48.3642 201.428C51.2808 201.933 53.9808 202.428 56.3364 203.617C57.0086 203.961 57.6642 204.361 58.2975 204.817C58.9364 205.261 59.5475 205.783 60.103 206.378C60.6697 206.972 61.1642 207.6 61.603 208.361L62.1753 209.367C62.353 209.722 62.5086 210.139 62.6753 210.528C63.0586 211.244 63.4808 213.811 63.1808 215.4C62.8753 216.983 61.7919 218.511 60.853 219.606C58.7086 221.411 57.8753 221.65 54.6086 222.867C48.1919 224.578 46.9364 224.272 44.4586 224.361C41.9808 224.45 41.3475 224.394 39.1419 223.889C36.9419 223.356 35.5086 223.283 33.8586 222.2C33.453 221.911 33.053 221.656 32.6919 221.361C32.3419 221.044 31.9919 220.767 31.6808 220.456C31.3864 220.133 31.0975 219.822 30.8364 219.528C30.603 219.239 30.3864 218.956 30.1697 218.678C29.3086 217.589 27.4586 214.378 27.1919 213.694C26.353 211.706 27.7364 213.55 28.2253 215.1C28.1697 214.922 28.1419 214.828 28.1419 214.828L27.5975 213.494C27.5975 213.494 28.4308 214.844 28.5197 215.006C28.6086 215.167 28.7308 215.411 28.9308 215.7C29.3086 216.3 29.9308 217.089 30.8864 217.994C31.1308 218.222 31.3808 218.467 31.653 218.717C31.9142 218.939 32.1919 219.167 32.4753 219.411C32.7697 219.639 33.103 219.833 33.4253 220.056C33.7586 220.267 34.1308 220.444 34.4975 220.65C36.0142 221.394 37.8364 221.933 39.8419 222.217C41.8419 222.528 44.0253 222.578 46.2864 222.411C48.5475 222.244 50.8808 221.817 53.1808 221.122C55.453 220.389 57.7142 219.328 59.4142 217.639C60.2419 216.789 60.9253 215.794 61.2808 214.639C61.6586 213.5 61.6642 212.161 61.3308 210.839C61.2308 210.517 61.0753 209.833 60.9475 209.489L60.3753 208.244C60.1197 207.694 58.8975 205.861 56.0642 204.344C53.5308 203 50.7753 202.55 48.2308 202.489C45.6697 202.433 43.2586 202.756 41.0253 203.117C38.7975 203.517 36.7086 203.967 34.9086 204.65C33.0864 205.294 31.5419 206.128 30.3475 207.056C29.6919 207.583 29.8475 207.283 28.8586 208.556C28.4642 209.072 28.1753 209.594 27.9808 210.111C27.603 211.156 27.6253 212.139 27.7142 212.794C27.7364 212.961 27.7586 213.106 27.7808 213.233C27.8142 213.367 28.5475 214.978 28.5697 215.067C28.6142 215.244 28.5364 214.917 28.5364 214.917L27.6808 213.9Z" fill="#020202"/>
<path d="M63.1698 212.261C62.9031 212.1 63.2031 212.044 62.9198 211.889C62.6253 211.733 62.5976 211.233 62.3087 211.106C61.7309 210.839 61.1476 210.611 60.5809 210.45C60.292 210.361 60.0087 210.283 59.7309 210.228C59.4476 210.156 59.1698 210.106 58.8976 210.067C58.3476 209.972 57.8087 209.928 57.292 209.917C56.7698 209.894 56.2587 209.911 55.7698 209.956C55.2753 209.994 54.792 210.056 54.3309 210.15C53.8642 210.233 53.4087 210.344 52.9698 210.472C52.5253 210.594 52.1031 210.744 51.6865 210.906C50.0253 211.556 48.5587 212.461 47.3087 213.578C46.6865 214.139 46.1198 214.756 45.6365 215.444C45.1531 216.128 44.7476 216.878 44.4809 217.717L44.4753 217.744L44.5031 217.767C44.6365 217.889 44.7642 218.017 44.9198 218.122C44.9587 218.15 44.9976 218.172 45.042 218.189C45.0809 218.206 45.142 218.211 45.1642 218.178C45.1976 218.156 45.192 218.117 45.2031 218.083C45.2031 218.05 45.2087 218.017 45.2087 217.978C45.2087 217.839 45.192 217.694 45.2087 217.567C45.2253 217.439 45.2753 217.322 45.3976 217.272C45.342 217.294 45.2865 217.328 45.2531 217.383C45.2198 217.433 45.1976 217.494 45.1865 217.556C45.1642 217.683 45.1698 217.828 45.1642 217.961C45.1587 218.028 45.1587 218.1 45.1198 218.128C45.1031 218.15 45.0753 218.144 45.042 218.128C45.0087 218.111 44.9753 218.094 44.942 218.067C44.8031 217.967 44.6809 217.833 44.5531 217.711L44.5698 217.761C44.8865 216.967 45.3365 216.261 45.8587 215.622C46.3809 214.983 46.9809 214.417 47.6365 213.906C48.9476 212.889 50.4642 212.094 52.142 211.561C52.5642 211.428 52.992 211.306 53.4309 211.211C53.8698 211.111 54.3198 211.028 54.7809 210.972C55.2365 210.911 55.7087 210.872 56.1865 210.861C56.6642 210.844 57.1476 210.856 57.642 210.9C58.1365 210.939 58.6364 211.006 59.142 211.111C59.392 211.156 59.6476 211.217 59.9031 211.289C60.1587 211.35 60.4087 211.433 60.6642 211.522C61.1698 211.689 61.6753 211.911 62.1642 212.156C62.4142 212.272 62.6309 212.417 62.8698 212.544C63.1142 212.689 63.3809 212.878 63.6364 213.039L63.1698 212.261Z" fill="#A7C4C3"/>
<path d="M64.2474 208.828C64.003 208.617 64.3807 208.606 64.1196 208.394C63.8363 208.189 64.0363 207.65 63.7474 207.478C63.1807 207.111 62.5974 206.778 61.9974 206.517C61.6974 206.378 61.3974 206.25 61.0918 206.15C60.7918 206.033 60.4863 205.933 60.1807 205.85C59.5696 205.667 58.9585 205.539 58.3474 205.439C57.7363 205.339 57.1307 205.272 56.5307 205.244C55.9307 205.206 55.3307 205.2 54.7418 205.222C54.153 205.239 53.5641 205.283 52.9863 205.35C52.4085 205.411 51.8363 205.506 51.2752 205.611C49.0196 206.039 46.8752 206.761 44.8974 207.75C43.9085 208.244 42.9641 208.811 42.0807 209.456C41.203 210.1 40.3807 210.828 39.6863 211.667L39.6641 211.694L39.6863 211.722C39.7863 211.872 39.8807 212.028 40.0196 212.167C40.0474 212.2 40.0918 212.233 40.1363 212.256C40.1752 212.278 40.2474 212.294 40.2807 212.261C40.3307 212.244 40.3418 212.2 40.3696 212.167C40.3863 212.128 40.4085 212.094 40.4196 212.056C40.4807 211.906 40.5307 211.756 40.6085 211.622C40.6863 211.489 40.7974 211.372 40.9641 211.339C40.8863 211.356 40.8085 211.383 40.7474 211.433C40.6863 211.483 40.6307 211.539 40.5918 211.606C40.503 211.739 40.4474 211.889 40.3807 212.028C40.3474 212.094 40.3085 212.172 40.253 212.2C40.2252 212.217 40.1918 212.211 40.1641 212.189C40.1307 212.167 40.103 212.144 40.0752 212.111C39.9585 211.983 39.8696 211.828 39.7807 211.678V211.733C40.5141 210.944 41.3641 210.267 42.2696 209.678C43.1752 209.089 44.1418 208.583 45.1474 208.15C47.153 207.283 49.303 206.678 51.5307 206.378C52.0863 206.306 52.6474 206.239 53.2141 206.211C53.7752 206.172 54.3474 206.156 54.9141 206.172C55.4807 206.178 56.053 206.211 56.6252 206.272C57.1974 206.328 57.7641 206.417 58.3307 206.539C58.8974 206.656 59.4585 206.8 60.0085 206.994C60.2863 207.083 60.5585 207.183 60.8252 207.3C61.0974 207.406 61.3585 207.528 61.6196 207.661C62.1418 207.917 62.6363 208.228 63.1085 208.561C63.353 208.722 63.5418 208.911 63.7641 209.078C63.9863 209.272 64.2196 209.506 64.4418 209.722L64.2474 208.828Z" fill="#A7C4C3"/>
<path d="M59.4141 203.583C59.1697 203.372 59.5475 203.361 59.2864 203.15C59.003 202.944 59.203 202.406 58.9141 202.233C58.3475 201.867 57.7641 201.533 57.1641 201.272C56.8641 201.133 56.5641 201.006 56.2586 200.906C55.9586 200.789 55.653 200.689 55.3475 200.606C54.7364 200.422 54.1253 200.294 53.5141 200.194C52.903 200.094 52.2975 200.028 51.6975 200C51.0975 199.961 50.4975 199.956 49.9086 199.978C49.3197 199.994 48.7308 200.039 48.153 200.106C47.5753 200.167 47.003 200.261 46.4419 200.367C44.1864 200.794 42.0419 201.517 40.0641 202.506C39.0753 203 38.1308 203.567 37.2475 204.211C36.3697 204.856 35.5475 205.583 34.853 206.422L34.8308 206.45L34.853 206.478C34.953 206.628 35.0475 206.783 35.1864 206.922C35.2141 206.956 35.2586 206.989 35.303 207.011C35.3419 207.033 35.4141 207.05 35.4475 207.017C35.4975 207 35.5086 206.956 35.5364 206.922C35.553 206.883 35.5753 206.85 35.5864 206.811C35.6475 206.661 35.6975 206.511 35.7753 206.378C35.853 206.244 35.9641 206.128 36.1308 206.094C36.053 206.111 35.9753 206.139 35.9141 206.189C35.853 206.239 35.7975 206.294 35.7586 206.361C35.6697 206.494 35.6141 206.644 35.5475 206.783C35.5141 206.85 35.4753 206.928 35.4197 206.956C35.3919 206.972 35.3586 206.967 35.3308 206.944C35.2975 206.922 35.2697 206.9 35.2419 206.867C35.1253 206.739 35.0364 206.583 34.9475 206.433V206.489C35.6808 205.7 36.5308 205.022 37.4364 204.433C38.3419 203.844 39.3086 203.339 40.3141 202.906C42.3197 202.039 44.4697 201.433 46.6975 201.133C47.253 201.061 47.8141 200.994 48.3808 200.967C48.9419 200.928 49.5141 200.911 50.0808 200.928C50.6475 200.933 51.2197 200.967 51.7919 201.028C52.3641 201.083 52.9308 201.172 53.4975 201.294C54.0641 201.411 54.6253 201.556 55.1753 201.75C55.453 201.839 55.7253 201.939 55.9919 202.056C56.2641 202.161 56.5253 202.283 56.7864 202.417C57.3086 202.672 57.803 202.983 58.2753 203.317C58.5197 203.478 58.7086 203.667 58.9308 203.833C59.153 204.028 59.3864 204.261 59.6086 204.478L59.4141 203.583Z" fill="#A7C4C3"/>
<path d="M56.6697 145.983C56.292 158.733 58.0308 192.239 55.3531 209.867C55.0308 211.978 50.0475 214.906 45.3253 215.878C34.1475 218.178 27.9364 211.222 27.8586 196.578C27.7864 182.694 27.392 179.417 27.8808 163.094C28.292 149.317 30.5864 139.978 38.9364 136.517C46.6753 133.311 54.0753 133.85 56.6475 146.8L56.6697 145.983Z" fill="#FDFFFF"/>
<path d="M51.4476 148.85C51.0587 161.989 52.342 189.75 50.4754 207.728C49.7754 214.494 44.9031 215.389 40.9642 215.744C32.1865 216.539 27.5976 211.211 27.6365 196.567C27.6754 182.683 27.3976 179.411 27.8809 163.089C28.292 149.311 30.1254 139.961 36.5809 136.444C42.5642 133.183 49.9531 135.9 51.8476 148.828L51.4476 148.85Z" fill="#7E9597"/>
<path d="M56.7808 145.983L56.9808 152.15L57.2364 158.311C57.4086 162.422 57.553 166.528 57.6697 170.644L57.8197 176.817L57.8919 182.989C57.9364 187.106 57.8975 191.228 57.7364 195.35C57.5753 199.472 57.2864 203.594 56.8142 207.706L56.7308 208.478L56.7086 208.672L56.6753 208.883C56.653 209.011 56.6419 209.128 56.6086 209.272C56.503 209.844 56.3419 210.361 56.1197 210.878C55.6808 211.906 54.9864 212.822 54.1419 213.522C52.4253 214.917 50.3308 215.567 48.2808 215.911C47.2475 216.083 46.2142 216.194 45.1697 216.244C44.153 216.3 43.0919 216.3 42.0586 216.267C39.9808 216.206 37.8975 215.906 35.8919 215.283C33.8919 214.656 31.9642 213.65 30.4086 212.156C28.853 210.672 27.7697 208.683 27.2975 206.572C27.0475 205.522 26.9753 204.417 26.9197 203.411L26.7197 200.333C26.5808 198.283 26.5142 196.211 26.4364 194.15C26.3308 190.028 26.2586 185.9 26.3253 181.783C26.3642 177.661 26.453 173.55 26.5419 169.433L26.6919 163.267C26.7475 161.211 26.853 159.111 27.0253 157.039C27.2142 154.961 27.4864 152.883 27.9142 150.811C28.3308 148.744 28.903 146.683 29.7419 144.7C30.5975 142.728 31.7419 140.822 33.2697 139.228C34.7864 137.622 36.6975 136.417 38.7308 135.639C40.6864 134.883 42.7753 134.283 44.9475 134.167C47.103 134.028 49.403 134.489 51.2364 135.744C52.1475 136.367 52.9253 137.144 53.5753 138C54.2197 138.861 54.7253 139.8 55.1475 140.767C55.9808 142.7 56.4753 144.733 56.7919 146.772L56.4975 146.794L56.5586 145.978L56.7808 145.983ZM56.7808 145.983L56.7919 146.8L56.8142 148.039L56.503 146.822C55.9919 144.839 55.3864 142.878 54.4419 141.094C53.503 139.322 52.2475 137.722 50.603 136.722C48.9586 135.728 46.9919 135.433 45.0697 135.661C43.1364 135.878 41.2419 136.5 39.3975 137.294C37.6197 138.056 36.0253 139.178 34.7475 140.594C33.4642 142.011 32.4975 143.711 31.7697 145.528C30.3253 149.183 29.7419 153.211 29.403 157.233C29.2253 159.261 29.1253 161.272 29.0642 163.322L28.8419 169.489C28.6864 173.594 28.5197 177.706 28.4086 181.806C28.2919 185.911 28.2197 190.006 28.1975 194.111L28.2419 200.261L28.2975 203.344C28.3142 204.394 28.3253 205.35 28.503 206.317C28.8475 208.233 29.7253 210.056 31.0864 211.478C32.4364 212.917 34.2253 213.922 36.1253 214.567C39.953 215.822 44.1919 215.833 48.153 215.167C49.1419 214.967 50.1142 214.7 51.0308 214.317C51.9475 213.939 52.8086 213.439 53.5086 212.778C54.2142 212.128 54.753 211.328 55.0753 210.444C55.2364 210.011 55.3586 209.528 55.4142 209.089C55.4308 208.978 55.4419 208.839 55.4586 208.711C55.4642 208.656 55.4753 208.567 55.4753 208.539L55.4864 208.35L55.5308 207.583C55.8086 203.506 55.8419 199.4 55.8697 195.3L55.9419 182.989L55.9642 170.661C55.9753 166.55 55.9975 162.439 56.0697 158.322C56.0919 156.267 56.1642 154.206 56.2364 152.15L56.3642 149.061C56.4086 148.033 56.4975 147.006 56.5642 145.978L56.7808 145.983Z" fill="#020202"/>
<path d="M59.4528 219.367C53.7473 202.517 99.0695 198.628 107.381 215.167C117.531 235.356 75.364 240.472 63.8028 226.756C62.1584 224.806 60.814 223.244 59.9917 220.633" fill="#F0EFEF"/>
<path d="M107.514 226.511C107.275 226.261 107.742 226.311 107.475 226.05C107.186 225.794 107.575 225.283 107.275 225.061C106.681 224.594 106.047 224.167 105.381 223.806C105.047 223.617 104.714 223.439 104.364 223.289C104.025 223.122 103.675 222.972 103.32 222.839C102.614 222.556 101.892 222.328 101.164 222.128C100.436 221.928 99.7029 221.767 98.9695 221.639C98.2362 221.506 97.4973 221.4 96.7584 221.333C96.0195 221.256 95.2862 221.206 94.5529 221.183C93.8195 221.156 93.0862 221.156 92.3584 221.172C89.4473 221.244 86.5918 221.633 83.864 222.317C82.5029 222.661 81.1751 223.078 79.9029 223.594C78.6306 224.106 77.4195 224.717 76.3251 225.45L76.2917 225.472L76.3084 225.506C76.3917 225.678 76.464 225.844 76.5917 226.006C76.6195 226.044 76.6584 226.083 76.7084 226.117C76.7529 226.144 76.8362 226.172 76.8862 226.15C76.9529 226.139 76.9806 226.1 77.0195 226.072C77.0529 226.039 77.0862 226.006 77.114 225.972C77.2306 225.833 77.3306 225.689 77.4695 225.561C77.6029 225.439 77.7751 225.339 77.9862 225.333C77.8806 225.339 77.7806 225.356 77.6918 225.394C77.6029 225.433 77.5195 225.483 77.4473 225.544C77.3029 225.661 77.1917 225.806 77.0695 225.939C77.0084 226 76.9417 226.072 76.864 226.089C76.8251 226.106 76.7862 226.089 76.7529 226.067C76.7195 226.039 76.6862 226.011 76.664 225.972C76.5529 225.828 76.4862 225.65 76.4195 225.483L76.4029 225.539C77.5306 224.856 78.7695 224.311 80.0584 223.856C81.3473 223.406 82.6806 223.044 84.0473 222.767C86.7751 222.206 89.6029 221.944 92.4417 221.994C93.1529 222.006 93.864 222.033 94.5695 222.094C95.2751 222.144 95.9862 222.222 96.6862 222.328C97.3862 222.422 98.0862 222.55 98.7751 222.706C99.464 222.856 100.147 223.033 100.814 223.25C101.481 223.461 102.136 223.7 102.764 223.978C103.081 224.111 103.392 224.256 103.686 224.417C103.992 224.567 104.281 224.733 104.564 224.911C105.142 225.256 105.664 225.644 106.153 226.061C106.408 226.267 106.592 226.483 106.82 226.689C107.042 226.917 107.264 227.194 107.481 227.45L107.514 226.511Z" fill="#A7C4C3"/>
<path d="M109.409 219.95C109.186 219.694 109.609 219.756 109.364 219.494C109.097 219.233 109.431 218.733 109.153 218.506C108.603 218.028 108.025 217.589 107.414 217.217C107.109 217.022 106.803 216.839 106.486 216.678C106.175 216.506 105.859 216.35 105.531 216.206C104.892 215.911 104.236 215.661 103.575 215.45C102.92 215.233 102.253 215.056 101.592 214.911C100.931 214.761 100.264 214.644 99.5974 214.556C98.9363 214.461 98.2696 214.394 97.6141 214.356C96.953 214.306 96.2974 214.294 95.6474 214.294C93.0363 214.294 90.4863 214.617 88.0585 215.233C86.8474 215.544 85.6641 215.928 84.5363 216.406C83.4141 216.883 82.3363 217.461 81.3752 218.167L81.3474 218.189L81.3641 218.222C81.4419 218.394 81.5141 218.567 81.6363 218.728C81.6641 218.767 81.6974 218.806 81.7474 218.839C81.7863 218.872 81.8641 218.894 81.9085 218.872C81.9641 218.861 81.9918 218.822 82.0252 218.794C82.053 218.761 82.0863 218.728 82.1085 218.694C82.2085 218.556 82.2974 218.417 82.4141 218.294C82.5307 218.178 82.6807 218.083 82.8696 218.078C82.7752 218.078 82.6863 218.094 82.6085 218.128C82.5307 218.167 82.4585 218.211 82.3974 218.272C82.2696 218.389 82.1752 218.528 82.0696 218.656C82.0196 218.717 81.9585 218.783 81.8863 218.8C81.853 218.811 81.8196 218.794 81.7863 218.772C81.753 218.744 81.7252 218.717 81.703 218.678C81.603 218.528 81.5363 218.356 81.4696 218.189L81.453 218.244C82.4474 217.594 83.5419 217.078 84.6863 216.661C85.8307 216.244 87.0196 215.917 88.2307 215.672C90.6641 215.183 93.1974 214.983 95.7474 215.1C96.3863 215.128 97.0252 215.172 97.6585 215.25C98.2974 215.317 98.9307 215.406 99.5641 215.528C100.197 215.639 100.831 215.783 101.453 215.95C102.075 216.117 102.697 216.311 103.297 216.539C103.903 216.761 104.497 217.017 105.07 217.311C105.359 217.45 105.642 217.606 105.914 217.772C106.192 217.928 106.459 218.1 106.72 218.283C107.247 218.639 107.731 219.039 108.181 219.467C108.414 219.678 108.592 219.894 108.797 220.106C109.003 220.339 109.209 220.622 109.414 220.872L109.409 219.95Z" fill="#A7C4C3"/>
<path d="M105.175 213.8C104.953 213.544 105.375 213.606 105.131 213.344C104.864 213.083 105.197 212.583 104.92 212.356C104.37 211.878 103.792 211.439 103.181 211.067C102.875 210.872 102.57 210.689 102.253 210.528C101.942 210.356 101.625 210.2 101.297 210.056C100.658 209.761 100.003 209.511 99.3418 209.3C98.6862 209.083 98.0196 208.906 97.3585 208.761C96.6974 208.611 96.0307 208.494 95.364 208.406C94.7029 208.311 94.0362 208.244 93.3807 208.206C92.7196 208.156 92.064 208.144 91.414 208.144C88.8029 208.144 86.2529 208.467 83.8251 209.083C82.614 209.394 81.4307 209.778 80.3029 210.256C79.1807 210.733 78.1029 211.311 77.1418 212.017L77.114 212.039L77.1307 212.072C77.2085 212.244 77.2807 212.417 77.4029 212.578C77.4307 212.617 77.464 212.656 77.514 212.689C77.5529 212.722 77.6307 212.744 77.6751 212.722C77.7307 212.711 77.7585 212.672 77.7918 212.644C77.8196 212.611 77.8529 212.578 77.8751 212.544C77.9751 212.406 78.064 212.267 78.1807 212.144C78.2973 212.028 78.4474 211.933 78.6362 211.928C78.5418 211.928 78.4529 211.944 78.3751 211.978C78.2973 212.017 78.2251 212.061 78.164 212.122C78.0362 212.239 77.9418 212.378 77.8362 212.506C77.7862 212.567 77.7251 212.633 77.6529 212.65C77.6196 212.661 77.5862 212.644 77.5529 212.622C77.5196 212.594 77.4918 212.567 77.4696 212.528C77.3696 212.378 77.3029 212.206 77.2362 212.039L77.2196 212.094C78.214 211.444 79.3085 210.928 80.4529 210.511C81.5974 210.094 82.7862 209.767 83.9973 209.522C86.4307 209.033 88.964 208.833 91.514 208.95C92.1529 208.978 92.7918 209.022 93.4251 209.1C94.064 209.167 94.6974 209.256 95.3307 209.378C95.964 209.489 96.5974 209.633 97.2196 209.8C97.8418 209.967 98.464 210.161 99.064 210.389C99.6696 210.611 100.264 210.867 100.836 211.161C101.125 211.3 101.408 211.456 101.681 211.622C101.958 211.778 102.225 211.95 102.486 212.133C103.014 212.489 103.497 212.889 103.947 213.317C104.181 213.528 104.358 213.744 104.564 213.956C104.77 214.189 104.975 214.472 105.181 214.722L105.175 213.8Z" fill="#A7C4C3"/>
<path d="M58.9029 219.522C58.9029 219.522 58.8529 219.4 58.7529 219.172C58.7029 219.056 58.6418 218.911 58.5696 218.739C58.5084 218.556 58.4362 218.339 58.3584 218.1C58.0751 217.144 57.814 215.611 58.2918 213.817C58.7473 212.028 60.3751 210.572 62.264 209.044C64.1362 207.483 66.6529 206.767 69.4751 205.822C72.2862 204.95 75.6196 204.367 79.464 204.233C82.9418 204.094 86.0251 203.961 89.8196 204.833C93.9251 205.783 97.714 206.7 100.931 208.5C101.847 209.022 102.736 209.622 103.586 210.289C104.447 210.944 105.258 211.694 105.981 212.539C106.72 213.383 107.358 214.267 107.892 215.322L108.586 216.717C108.803 217.206 108.975 217.778 109.164 218.311C109.631 219.3 109.942 222.767 109.331 224.856C108.72 226.939 106.992 228.872 105.531 230.244C102.27 232.45 101.053 232.694 96.2584 234.006C86.914 235.678 85.164 235.156 81.6251 235.039C78.0807 234.928 77.1862 234.794 74.1029 233.906C71.0251 232.989 68.9973 232.761 66.764 231.161C66.2196 230.739 65.6751 230.361 65.1918 229.933C64.7251 229.478 64.2584 229.072 63.8584 228.628C63.4751 228.167 63.0973 227.728 62.764 227.311C62.464 226.906 62.1862 226.506 61.914 226.117C60.814 224.583 58.5418 220.133 58.2418 219.189C57.2751 216.456 59.0307 219.044 59.5529 221.156C59.4918 220.911 59.464 220.783 59.464 220.783L58.8362 218.95C58.8362 218.95 59.8696 220.828 59.9751 221.05C60.0862 221.272 60.2307 221.606 60.4807 222.017C60.9473 222.85 61.7473 223.967 63.0084 225.261C63.3251 225.589 63.664 225.933 64.014 226.3C64.364 226.617 64.7307 226.956 65.1084 227.3C65.4973 227.633 65.9529 227.922 66.3918 228.25C66.8473 228.561 67.3584 228.833 67.8529 229.144C69.9251 230.278 72.4696 231.167 75.2862 231.739C78.1029 232.339 81.2084 232.617 84.4529 232.606C87.6973 232.594 91.0695 232.244 94.4307 231.539C97.7529 230.778 101.097 229.572 103.714 227.483C104.992 226.428 106.081 225.167 106.72 223.661C107.392 222.178 107.553 220.389 107.225 218.6C107.114 218.161 106.975 217.233 106.831 216.767L106.158 215.056C105.858 214.3 104.32 211.733 100.464 209.45C97.0029 207.422 93.1251 206.556 89.5084 206.233C85.8584 205.917 82.3918 206.122 79.164 206.394C75.9418 206.717 72.914 207.117 70.264 207.867C67.5973 208.556 65.2973 209.517 63.4862 210.644C62.4862 211.289 62.7473 210.9 61.1973 212.5C60.5751 213.15 60.1084 213.817 59.7696 214.489C59.1084 215.844 59.0307 217.156 59.0862 218.044C59.1029 218.267 59.114 218.467 59.1307 218.633C59.1584 218.811 60.0251 221.028 60.0473 221.15C60.0862 221.394 60.014 220.944 60.014 220.944L58.9029 219.522Z" fill="#020202"/>
<path d="M88.8253 154.128C88.792 172.311 97.9198 221.383 78.4142 223.022C65.7864 224.083 58.9475 219 58.4031 204.639C57.8864 191.028 57.3475 187.822 57.3753 171.806C57.3975 158.283 59.6586 149.056 68.8253 145.4C77.3253 142.011 85.5586 142.317 88.8253 154.928V154.128Z" fill="#FDFFFF"/>
<path d="M81.6087 154.144C81.5865 165.433 85.442 196.456 84.292 212.839C83.8476 219.228 79.2531 222.411 73.5587 223.028C63.8309 224.083 58.5698 219 58.1531 204.639C57.7587 191.028 57.3476 187.822 57.3754 171.806C57.3976 158.283 59.142 149.056 66.2087 145.406C72.7587 142.022 79.0976 142.328 81.6087 154.944V154.144Z" fill="#7E9597"/>
<path d="M88.9364 154.128C89.0531 156.189 89.1864 158.239 89.3476 160.283L89.8864 166.428L90.9864 178.728C91.3142 182.833 91.6475 186.944 91.8531 191.067C92.0809 195.189 92.2309 199.317 92.192 203.461L92.1198 206.567L91.9475 209.672C91.9142 210 91.9031 210.183 91.8476 210.489C91.7976 210.783 91.7475 211.072 91.6698 211.339C91.542 211.883 91.3476 212.406 91.1364 212.917C90.6976 213.928 90.1309 214.867 89.4864 215.733C88.1809 217.45 86.5753 218.883 84.8087 220.044C83.0364 221.2 81.0976 222.106 79.0198 222.578C78.5031 222.694 77.9698 222.767 77.4309 222.811L75.8809 222.894C74.8475 222.944 73.8087 222.972 72.7698 222.95C70.6976 222.9 68.5975 222.75 66.5698 222.178C65.5587 221.9 64.5587 221.533 63.6198 221.028C62.6864 220.517 61.8031 219.894 61.0309 219.15C60.2587 218.4 59.592 217.544 59.0531 216.622C58.7864 216.156 58.5364 215.683 58.3198 215.194L58.1587 214.828L58.1198 214.733L58.0753 214.617L58.0087 214.433C57.9198 214.211 57.8475 213.894 57.7753 213.622C57.5531 212.533 57.5142 211.456 57.5309 210.411C57.542 209.361 57.5976 208.333 57.6253 207.311C57.6531 206.289 57.6475 205.3 57.5753 204.294L57.3753 201.211C57.142 197.1 56.842 192.994 56.6253 188.883L56.3698 182.694C56.292 180.628 56.2864 178.567 56.242 176.506C56.2198 174.439 56.142 172.383 56.1809 170.311C56.2142 168.217 56.292 166.139 56.492 164.044C56.6975 161.956 57.0253 159.861 57.5476 157.794C58.0698 155.728 58.8031 153.678 59.8975 151.783C60.9809 149.889 62.442 148.167 64.2031 146.85C65.0809 146.189 66.0253 145.622 67.0087 145.156C67.5031 144.917 67.992 144.722 68.5087 144.517C68.9864 144.339 69.4809 144.167 69.992 143.994C72.0031 143.339 74.1087 142.867 76.2753 142.822C78.4253 142.767 80.6698 143.194 82.5531 144.322C83.4976 144.878 84.3364 145.578 85.0587 146.378C85.7753 147.183 86.3698 148.072 86.8698 149C87.8642 150.861 88.5031 152.867 88.9364 154.889L88.6476 154.928L88.6864 154.128H88.9364ZM88.9364 154.128L88.9698 154.928L89.0198 156.022L88.6809 154.961C88.0587 153.011 87.3142 151.094 86.2309 149.394C85.1476 147.706 83.7364 146.244 82.0142 145.356C80.2976 144.45 78.3198 144.178 76.3698 144.333C74.4198 144.489 72.4809 145.011 70.6087 145.689C70.1531 145.856 69.6809 146.044 69.1975 146.244C68.7642 146.439 68.3087 146.639 67.8864 146.867C67.0253 147.322 66.2142 147.844 65.4642 148.444C63.9587 149.639 62.742 151.15 61.8309 152.856C59.9864 156.272 59.2531 160.278 58.8864 164.278C58.692 166.283 58.6087 168.317 58.5698 170.344C58.542 172.383 58.5698 174.444 58.5531 176.5C58.5587 178.55 58.5253 180.611 58.5642 182.661L58.7031 188.811C58.8698 192.922 58.9864 197.039 59.1031 201.156L59.1809 204.244C59.2087 205.294 59.1698 206.367 59.092 207.4C58.9587 209.467 58.6531 211.517 58.9531 213.411C59.1142 214.306 59.5309 215.25 59.9753 216.128C60.4364 217 61.0087 217.811 61.6809 218.533C63.0253 219.989 64.8476 220.95 66.7698 221.517C68.7087 222.067 70.7476 222.278 72.7864 222.289C73.8031 222.294 74.8253 222.261 75.8475 222.194C76.3531 222.167 76.8642 222.111 77.3809 222.061C77.8698 222.006 78.3587 221.928 78.842 221.8C80.7753 221.311 82.5753 220.339 84.192 219.161C85.8031 217.978 87.2364 216.544 88.342 214.922C89.442 213.306 90.1864 211.456 90.2253 209.6L90.2753 206.539L90.2698 203.472C90.2309 199.378 90.0975 195.278 89.9364 191.178C89.7531 187.078 89.5476 182.967 89.3253 178.861C89.1253 174.75 88.9031 170.639 88.7642 166.517C88.6809 164.456 88.6587 162.394 88.6364 160.333C88.6198 159.306 88.6364 158.267 88.6364 157.233C88.642 156.2 88.7031 155.172 88.7309 154.144L88.9364 154.128Z" fill="#020202"/>
<path d="M26.5863 121.356C26.3475 121.261 26.3752 120.389 26.1808 120.911C26.853 127.461 26.8975 134.089 26.5863 140.806C26.3197 146.644 24.9919 153.833 29.0475 158.167C38.5419 168.294 59.8419 168.406 72.6475 168.994C77.9697 169.239 88.0808 169.361 91.9919 165.344C96.3419 160.878 94.7364 149.483 94.4641 143.989C94.0308 135.417 93.7308 127.033 92.8863 118.589C92.6197 115.922 93.1919 110.839 91.7197 108.633C89.9919 106.05 86.6975 106.2 83.7586 105.878C72.2141 104.594 59.6252 104.617 48.3363 105.083C41.7752 105.356 34.803 104.706 29.3475 108.967C25.5586 111.922 23.103 119.717 26.9863 123.744" fill="white"/>
<path d="M26.4364 121.356C26.2197 121.261 26.2475 120.389 26.0697 120.911C26.6753 127.461 26.7142 134.089 26.4364 140.806C26.1919 146.644 24.9919 153.833 28.6586 158.167C37.2364 168.294 56.4808 168.406 68.0531 168.994C72.8642 169.239 81.5586 169.117 85.0919 165.1C89.0197 160.633 88.0086 149.478 87.7586 143.983C87.3697 135.411 87.0975 127.028 86.3308 118.583C86.0919 115.917 86.6086 110.833 85.2753 108.628C83.7142 106.044 80.7364 106.194 78.0808 105.872C67.6475 104.589 56.2753 104.611 46.0753 105.078C40.1475 105.35 33.8475 104.7 28.9197 108.961C25.4919 111.917 23.2808 119.711 26.7864 123.739" fill="#7E9597"/>
<path d="M26.553 121.433C26.5419 121.428 26.5085 121.411 26.4863 121.389C26.4641 121.372 26.4474 121.35 26.4363 121.333C26.4085 121.294 26.3919 121.256 26.3752 121.217C26.3419 121.139 26.3197 121.067 26.2974 120.994L26.2641 120.889C26.2585 120.861 26.2308 120.817 26.2419 120.833C26.2419 120.839 26.2752 120.861 26.3085 120.85C26.3363 120.844 26.3419 120.839 26.3419 120.833L26.3308 120.856C26.3197 120.883 26.3085 120.917 26.2974 120.944L26.303 120.894C26.9474 125.917 27.2363 130.989 27.203 136.061C27.1919 137.328 27.1808 138.594 27.1419 139.861C27.1252 141.122 27.0474 142.411 26.9641 143.672C26.803 146.194 26.6085 148.7 26.8197 151.144C26.9363 152.361 27.153 153.561 27.5752 154.661C27.9974 155.761 28.6197 156.761 29.453 157.556C31.2197 159.228 33.303 160.6 35.4919 161.744C37.6863 162.889 40.003 163.822 42.3697 164.606C44.7363 165.406 47.1585 166.044 49.5974 166.622C52.0419 167.189 54.5141 167.656 57.003 168.056C59.4808 168.428 61.9919 168.683 64.503 168.889C69.5252 169.283 74.5808 169.428 79.5974 168.994C82.0974 168.761 84.603 168.394 86.9974 167.667C88.1863 167.289 89.353 166.828 90.4085 166.183C91.453 165.544 92.3974 164.706 92.9474 163.639C93.2363 163.106 93.3641 162.539 93.503 161.906C93.6419 161.289 93.803 160.678 93.9197 160.061L94.2641 158.211C94.3697 157.594 94.4363 156.967 94.5252 156.344C94.8363 153.85 95.0474 151.339 95.0808 148.828C95.1363 146.317 94.9641 143.817 94.8419 141.283C94.7808 140.022 94.7585 138.744 94.7252 137.478L94.6863 133.683C94.6419 128.628 94.6197 123.589 94.1474 118.606C94.1085 117.967 94.0197 117.389 93.903 116.8C93.7863 116.206 93.6419 115.606 93.4808 115.017C93.153 113.833 92.753 112.661 92.2808 111.533C92.0419 110.972 91.7863 110.422 91.503 109.9C91.2252 109.383 90.8974 108.872 90.5585 108.539C89.8363 107.794 88.7974 107.389 87.6419 107.178C86.4863 106.961 85.2419 106.917 83.953 106.783L80.1808 106.422C78.9197 106.289 77.6752 106.239 76.4252 106.139C75.1752 106.039 73.9197 105.989 72.6641 105.928C67.6363 105.667 62.5974 105.6 57.5585 105.622C55.0363 105.644 52.5141 105.672 49.9919 105.744C48.7363 105.772 47.4585 105.817 46.1919 105.828C44.9252 105.844 43.6641 105.844 42.4085 105.878C39.9085 105.95 37.4141 106.111 35.0308 106.739C33.8419 107.056 32.6919 107.483 31.6085 108.05C31.0641 108.333 30.5474 108.656 30.0419 109.006C29.7863 109.189 29.5585 109.356 29.3085 109.561C29.0863 109.75 28.8752 109.95 28.6585 110.172C27.003 111.944 25.8752 114.267 25.4363 116.694C25.2197 117.911 25.1919 119.167 25.4363 120.378C25.6808 121.589 26.2141 122.75 27.0585 123.678L26.9363 123.794C26.0197 122.894 25.3863 121.717 25.0752 120.461C24.7641 119.206 24.7308 117.889 24.903 116.611C25.2585 114.056 26.2974 111.578 28.0419 109.6C28.2585 109.361 28.503 109.117 28.753 108.889C28.9863 108.683 29.2585 108.467 29.5141 108.278C30.0363 107.889 30.5808 107.528 31.1474 107.206C32.2808 106.561 33.4974 106.067 34.7419 105.689C37.2363 104.95 39.8252 104.689 42.3641 104.572C43.6363 104.511 44.903 104.483 46.1641 104.444C47.4252 104.411 48.6697 104.339 49.9419 104.283C52.4697 104.156 55.003 104.078 57.5363 104.006C62.603 103.867 67.6752 103.939 72.7474 104.139C74.0141 104.183 75.2808 104.25 76.553 104.35C77.8197 104.45 79.103 104.506 80.353 104.639L84.1308 105.006C85.353 105.128 86.6419 105.194 87.9752 105.456C89.2863 105.706 90.7308 106.239 91.7752 107.339C92.3197 107.911 92.653 108.494 92.9752 109.089C93.2863 109.683 93.5585 110.278 93.8085 110.883C94.2974 112.094 94.703 113.322 95.0363 114.578C95.203 115.206 95.353 115.839 95.4697 116.483C95.5919 117.139 95.6808 117.811 95.7141 118.439C96.153 123.533 96.0752 128.617 96.0196 133.667C95.9919 136.194 95.9697 138.706 96.003 141.228C96.0585 143.744 96.1363 146.3 95.9974 148.844C95.8863 151.389 95.5974 153.917 95.2085 156.428C95.0141 157.683 94.7697 158.933 94.5141 160.183C94.3919 160.806 94.2197 161.411 94.0752 162.028C93.9308 162.628 93.7752 163.3 93.453 163.883C92.8308 165.072 91.7919 165.961 90.6919 166.622C89.5808 167.294 88.3752 167.756 87.153 168.133C84.703 168.872 82.1808 169.267 79.6585 169.511C74.603 169.989 69.5197 169.939 64.4585 169.689C61.9252 169.55 59.403 169.356 56.8697 169.044C54.353 168.728 51.8419 168.35 49.3419 167.861C44.353 166.883 39.3863 165.444 34.8085 163.05C32.5308 161.839 30.3585 160.389 28.4697 158.561C27.4697 157.606 26.7585 156.389 26.2974 155.122C25.8308 153.856 25.6197 152.533 25.5197 151.239C25.3308 148.633 25.603 146.083 25.8474 143.572C25.9697 142.311 26.0808 141.078 26.1363 139.811C26.2141 138.55 26.2585 137.294 26.3085 136.033C26.3808 133.517 26.4252 130.994 26.403 128.472C26.3697 125.95 26.2474 123.428 26.0863 120.911V120.883L26.0974 120.861C26.1141 120.822 26.1308 120.789 26.153 120.744C26.1641 120.722 26.1752 120.7 26.203 120.672C26.2197 120.656 26.2363 120.639 26.2863 120.628C26.3363 120.617 26.3863 120.65 26.403 120.667C26.4641 120.739 26.4585 120.772 26.4752 120.811L26.503 120.922C26.5197 120.994 26.5363 121.067 26.5585 121.128C26.5697 121.161 26.5808 121.189 26.5974 121.211C26.603 121.222 26.6141 121.233 26.6197 121.239C26.6252 121.244 26.6197 121.244 26.6474 121.256L26.553 121.433Z" fill="#050505"/>
<path d="M78.8698 98.05C101.48 98.05 119.809 79.7211 119.809 57.1111C119.809 34.5012 101.48 16.1722 78.8698 16.1722C56.2599 16.1722 37.9309 34.5012 37.9309 57.1111C37.9309 79.7211 56.2599 98.05 78.8698 98.05Z" fill="#FDFFFF"/>
<path d="M82.5031 98.0488C102.763 94.4073 116.017 73.8199 112.106 52.0654C108.196 30.311 88.6029 15.6276 68.3432 19.269C48.0836 22.9105 34.8297 43.4979 38.7398 65.2523C42.65 87.0068 62.2435 101.69 82.5031 98.0488Z" fill="#7E9597"/>
<path d="M112.581 80.55C112.581 80.55 112.431 80.7556 112.147 81.15C111.853 81.5389 111.459 82.15 110.853 82.8722C109.686 84.3556 107.859 86.4611 105.181 88.7722C102.492 91.05 98.9696 93.6222 94.3919 95.5834C89.8474 97.55 84.2919 99.0334 78.0974 99.0722C75.0085 99.0889 71.7752 98.7334 68.5196 97.9556C65.2585 97.1945 62.0085 95.9222 58.8585 94.2667C52.5696 90.95 46.7863 85.7111 42.8085 79.0222C38.8141 72.3611 36.6085 64.3278 36.8752 56.2C37.0141 52.1389 37.7474 48.0778 39.0585 44.2C39.7196 42.2611 40.5641 40.3889 41.4919 38.5667C42.4363 36.7611 43.5641 34.9889 44.7085 33.3667C49.5085 26.7 56.2363 21.6278 63.6641 18.7C71.0974 15.7667 79.1974 14.9889 86.7474 16.2611C87.2196 16.3333 87.6919 16.4167 88.1585 16.5278L89.553 16.8333C90.4696 17.0833 91.3919 17.3 92.2863 17.6056C94.0919 18.1556 95.8252 18.8778 97.5085 19.65C98.3363 20.0667 99.1696 20.45 99.9752 20.9278C100.375 21.1556 100.792 21.3778 101.175 21.6111L102.303 22.3222C103.092 22.8111 103.792 23.3667 104.531 23.8778C105.231 24.4389 105.947 24.9722 106.609 25.5556C107.275 26.1389 107.936 26.7222 108.547 27.35C109.181 27.9556 109.764 28.5945 110.342 29.2389C110.936 29.8667 111.447 30.55 111.997 31.2C112.509 31.8778 113.014 32.55 113.475 33.2445C115.347 36.0056 116.82 38.8945 117.892 41.7945C120.036 47.6 120.586 53.3222 120.331 58.2611C120.092 63.2333 118.909 67.4278 117.714 70.7389C116.481 74.0556 115.153 76.5 114.17 78.1167C113.703 78.9389 113.27 79.5222 113.009 79.9333C112.72 80.3389 112.581 80.55 112.581 80.55ZM112.381 80.4111C112.381 80.4111 112.52 80.2 112.786 79.7945C113.042 79.3834 113.47 78.7945 113.925 77.9722C114.881 76.3667 116.209 73.9222 117.297 70.5945C117.881 68.9445 118.336 67.0556 118.697 64.9889C119.064 62.9167 119.264 60.65 119.259 58.2333C119.264 53.4 118.331 47.9445 116.075 42.5C114.931 39.7889 113.486 37.0778 111.681 34.4778C109.875 31.8778 107.697 29.4167 105.192 27.1722C104.575 26.6 103.909 26.0778 103.253 25.5278C102.57 25.0278 101.892 24.4667 101.186 24.0111L100.086 23.2556C99.7196 23.0111 99.353 22.8 98.9863 22.5667C98.2641 22.0945 97.4752 21.6889 96.703 21.2556C95.1252 20.45 93.4974 19.6833 91.7808 19.0833C90.9363 18.75 90.053 18.5056 89.1808 18.2222L87.8474 17.8722C87.403 17.75 86.953 17.6445 86.4974 17.5556C82.8752 16.7667 79.0641 16.4722 75.2363 16.7778C71.4085 17.0667 67.5808 17.9611 63.9308 19.4C62.1085 20.1222 60.3419 21 58.6308 21.9778C56.9252 22.9722 55.3141 24.1222 53.7641 25.35C52.2252 26.6 50.8085 27.9889 49.4641 29.4445C48.1363 30.9056 46.9252 32.5056 45.8196 34.1056C44.7141 35.8167 43.753 37.4833 42.903 39.2722C42.0808 41.0611 41.353 42.8889 40.7919 44.7667C39.6363 48.5056 39.0474 52.3945 39.0196 56.2445C38.9252 63.9556 41.1085 71.5111 44.9696 77.7056C45.203 78.1 45.4474 78.4833 45.7085 78.8556L46.4752 79.9778C47.0252 80.6945 47.5419 81.4333 48.1252 82.1167C49.2419 83.5167 50.4863 84.7945 51.753 86.0056C52.4085 86.5889 53.0419 87.1889 53.7308 87.7222C54.0696 87.9945 54.3974 88.2778 54.7419 88.5334L55.7808 89.3L56.2696 89.6667L56.8196 90.0333L57.9141 90.7667C58.6419 91.1945 59.3252 91.6389 60.0696 92.0278C63.0085 93.6278 66.0585 94.8334 69.1085 95.6389C72.1585 96.4445 75.1974 96.8778 78.1307 97.0111C84.0085 97.2556 89.453 96.2389 93.9752 94.5556C96.2419 93.7167 98.2974 92.7389 100.114 91.6778C101.931 90.6222 103.542 89.5389 104.881 88.4167C107.625 86.2389 109.453 84.15 110.631 82.6945C111.242 81.9834 111.642 81.3833 111.942 81C112.231 80.6111 112.381 80.4111 112.381 80.4111Z" fill="#020000"/>
<path d="M66.1753 20.7889L61.8753 13.6C64.703 11.4945 65.753 7.62223 64.1864 4.31667C62.403 0.550006 57.8975 -1.05555 54.1308 0.727784C50.3642 2.51112 48.7586 7.01667 50.5419 10.7833C52.1308 14.1389 55.8753 15.7722 59.3364 14.8333L61.7642 22.7889C61.7253 22.8333 61.6864 22.8778 61.6586 22.9167C61.703 22.8889 61.7364 22.8556 61.7753 22.8222L61.8697 23.1333L61.9586 23.0944L61.9197 23.2556C62.1753 24.2833 66.6419 23.6667 66.5642 21.6389C66.5475 21.2056 66.403 20.9389 66.1753 20.7889Z" fill="#020202"/>
<path d="M54.3308 2.36111C54.3308 2.36111 54.6641 2.30556 55.2364 2.18333C55.5253 2.15 55.8697 2.1 56.2586 2.07222C56.453 2.06667 56.6641 2.06111 56.8864 2.05556C57.103 2.07222 57.3308 2.08889 57.5641 2.10556C57.7975 2.13333 58.0364 2.19445 58.2808 2.23889C58.5141 2.33333 58.7697 2.37222 58.9975 2.49444C59.4808 2.68889 59.9141 3.02222 60.3197 3.39445C60.7308 3.77222 61.0308 4.27222 61.2975 4.79445C61.5586 5.32222 61.7308 5.91111 61.8086 6.51111C61.8975 7.10556 61.9197 7.72222 61.8308 8.31667C61.7364 8.90556 61.603 9.47778 61.3697 9.99444C61.1252 10.5 60.8308 10.9667 60.4808 11.35C60.1141 11.7111 59.7308 12.0444 59.3141 12.25C59.1141 12.3722 58.9086 12.4556 58.703 12.5333C58.5086 12.6278 58.3086 12.6833 58.1197 12.7278C57.7419 12.8444 57.3975 12.8722 57.1141 12.9278C56.5419 12.9778 56.203 12.9944 56.203 12.9944C56.203 12.9944 56.2864 13.0111 56.4364 13.0444C56.5919 13.0722 56.8197 13.1389 57.1141 13.1722C57.4086 13.1833 57.7753 13.2444 58.1975 13.1889C58.4086 13.1778 58.6364 13.1556 58.8697 13.1C59.1086 13.0556 59.353 12.9944 59.603 12.8889C60.1141 12.7222 60.6252 12.4056 61.1086 12.0111C61.5808 11.5944 62.003 11.0778 62.3308 10.4722C62.6419 9.86667 62.8864 9.19445 62.9975 8.48889C63.1197 7.78333 63.1086 7.05 63.0141 6.33333C62.9086 5.61667 62.6864 4.91111 62.353 4.27222C62.0197 3.63333 61.5808 3.05 61.0419 2.60556C60.5086 2.16111 59.9141 1.82222 59.3086 1.65C59.0141 1.53889 58.7086 1.50556 58.4252 1.44444C58.1364 1.43333 57.8586 1.40556 57.5919 1.41111C57.3253 1.43333 57.0753 1.44445 56.8419 1.47222C56.6086 1.52222 56.3919 1.56667 56.1864 1.61111C55.7808 1.71667 55.4364 1.85556 55.1586 1.95556C54.6308 2.21111 54.3308 2.36111 54.3308 2.36111Z" fill="#FCFCFC"/>
<path d="M65.6252 21.6722L60.4419 13.3L64.8752 22.9111L65.6252 21.6722Z" fill="#FCFCFC"/>
<path d="M119.586 49.0333C114.964 39.5333 95.6364 36.9333 88.7364 50.85C81.7641 64.9056 100.364 83.2333 111.347 82.3333C119.42 72.2944 120.714 61.3944 119.586 49.0333Z" fill="#FDFFFF" stroke="#020202" stroke-width="2" stroke-miterlimit="10"/>
<path d="M112.864 49.7056C109.131 41.5111 93.8975 39.0945 88.6086 50.9611C83.2586 62.95 98.0753 78.85 106.709 78.1833C112.959 69.6556 113.87 60.3222 112.864 49.7056Z" fill="#C6CCD0"/>
<path d="M119.586 49.0333C114.964 39.5333 95.6364 36.9333 88.7364 50.85C81.7641 64.9056 100.364 83.2333 111.347 82.3333C119.42 72.2944 120.714 61.3944 119.586 49.0333Z" stroke="#020202" stroke-width="2" stroke-miterlimit="10"/>
<path d="M47.3921 102.939C45.9754 104.111 41.9254 107.039 38.4587 111.678C33.5865 110.567 30.8476 109.672 35.0032 110.944C42.3754 113.2 50.4921 117.333 55.1698 123.028C58.4198 126.983 58.9865 134.228 56.4254 138.694C53.2976 144.139 46.081 142.478 41.3476 140.017C35.5087 136.983 21.3587 131.633 14.7532 131.006C1.17539 129.717 1.97539 116.933 4.69206 110.317C7.39206 103.739 10.6032 99.7 17.6032 93.3555C24.6698 86.9555 31.2976 79.5889 42.1365 79.65C47.0421 79.6778 57.131 83.9722 54.2754 93.8778" fill="#FDFFFF"/>
<path d="M46.1198 103.672C44.7586 104.894 40.6198 107.367 37.2531 112.167C32.6586 111.117 29.7586 109.839 25.6364 110.444L25.9753 110.211C28.7531 110.172 32.4531 110.794 36.3698 112.017C43.3086 114.189 50.9253 118.267 55.2531 124C58.2586 127.983 59.2253 132.717 56.7142 137.328C53.6531 142.95 44.6142 139.078 40.1753 136.65C34.6975 133.65 24.3031 127.8 18.0586 127.278C5.2142 126.211 5.86976 117.7 8.5642 110.889C11.2364 104.117 14.592 101.539 21.3364 94.9333C24.9642 91.3778 37.3253 83.3667 43.5198 83.2889C48.1698 83.2278 55.4586 90.3389 54.9253 94.2444" fill="#7E9597"/>
<path d="M47.3142 102.844C46.4753 103.461 45.6142 104.061 44.7808 104.706C43.9531 105.35 43.142 106.022 42.3531 106.728C41.5642 107.428 40.8031 108.161 40.0642 108.922C39.7031 109.311 39.3364 109.694 38.9864 110.094C38.6253 110.483 37.8197 111.172 37.8197 111.172C26.1753 122.228 38.9086 113.078 37.9253 112.778C39.9031 113.472 41.6086 114.372 43.5364 115.172C47.3697 116.806 51.1531 118.633 54.3975 121.133C55.2031 121.761 57.2808 123.933 57.5086 124.306C57.7531 124.706 57.9531 125.139 58.1086 125.594C58.7475 127.422 58.7308 129.522 58.4086 131.539C58.0753 133.567 57.4475 135.567 56.5531 137.439C56.3253 137.9 56.092 138.378 55.8197 138.8C55.5475 139.233 55.2642 139.611 54.9086 139.972C54.2197 140.694 53.3475 141.217 52.3919 141.533C50.4697 142.161 48.3253 142.022 46.3197 141.528C44.2864 141.033 42.3975 140.183 40.5308 139.167C36.692 137.278 11.4364 129.378 10.5308 129.022C8.71973 128.278 7.16973 127.078 6.10862 125.511C5.04195 123.95 4.47529 122.044 4.30307 120.083C4.12529 118.122 4.32529 116.1 4.76973 114.144C4.99195 113.167 5.2864 112.206 5.64751 111.278C5.81973 110.828 6.0364 110.339 6.24196 109.85L6.86973 108.422C7.74195 106.533 8.64751 104.689 9.74195 102.961C11.9086 99.5 14.7475 96.4889 17.8197 93.6555C20.9475 90.7944 24.0142 87.9389 27.4142 85.5944C30.8031 83.2611 34.5586 81.4611 38.5975 80.8167C39.6031 80.6389 40.6197 80.5389 41.6475 80.5C42.1642 80.4666 42.6642 80.4778 43.1364 80.5166C43.6308 80.5555 44.1253 80.6389 44.6197 80.7333C46.5975 81.1444 48.5197 81.9389 50.1864 83.0944C51.8308 84.2555 53.2531 85.8166 53.9475 87.7389C54.6586 89.6555 54.6253 91.8111 54.142 93.85L54.3753 93.9166C54.7086 92.9 54.9475 91.8444 55.0086 90.7555C55.0697 89.6722 54.9586 88.5666 54.6531 87.5055C54.0475 85.3722 52.6253 83.5111 50.8864 82.1555C49.1308 80.8 47.1086 79.8389 44.9642 79.2722C44.4253 79.1389 43.8808 79.0167 43.3197 78.9444C42.7364 78.8667 42.1753 78.8278 41.6308 78.8333C40.5364 78.8222 39.4364 78.8722 38.3475 79.0055C33.9642 79.5389 29.792 81.3222 26.1697 83.7111C22.5086 86.0778 19.2864 88.9555 16.1308 91.7778C14.5308 93.2055 12.9586 94.7111 11.4975 96.3278C10.042 97.95 8.70862 99.7111 7.54195 101.572C6.36973 103.433 5.39751 105.4 4.54195 107.378L3.91418 108.867C3.71973 109.356 3.51418 109.844 3.31418 110.383C2.92529 111.439 2.61973 112.517 2.3864 113.606C1.93084 115.789 1.74751 118.039 1.9864 120.3C2.22529 122.55 2.92529 124.833 4.29196 126.761C5.64196 128.694 7.65307 130.106 9.7864 130.906C10.8642 131.294 36.3642 138.089 40.1697 139.889C41.1197 140.344 42.0697 140.844 43.0753 141.25C44.0753 141.656 45.0975 141.994 46.1531 142.244C48.242 142.728 50.4975 142.956 52.642 142.272C53.6975 141.928 54.7086 141.361 55.5142 140.572C55.9197 140.194 56.2864 139.728 56.592 139.272C56.9031 138.811 57.1475 138.339 57.4031 137.856C58.3975 135.933 59.1753 133.894 59.6308 131.756C60.0697 129.628 60.2364 127.35 59.5864 125.111C59.4253 124.556 59.2031 124.011 58.9197 123.489C58.6197 122.944 58.2753 122.478 57.9142 122.056C57.1975 121.2 56.4031 120.422 55.5697 119.7C53.9031 118.267 50.8197 116.678 48.9308 115.622C47.0475 114.55 45.1086 113.8 43.1308 112.967C41.1531 112.122 39.3531 111.361 39.3531 111.361C39.9531 110.528 40.1531 110.389 40.8142 109.594C41.4753 108.8 42.1697 108.033 42.8864 107.289C44.3253 105.794 45.892 104.428 47.4642 103.039L47.3142 102.844Z" fill="#020202"/>
<path d="M4.39748 114.7C4.39748 114.7 4.43637 114.767 4.51414 114.883C4.55303 114.944 4.60303 115.017 4.65859 115.106C4.71414 115.183 4.75303 115.228 4.80859 115.306C4.85303 115.378 4.92526 115.461 5.01414 115.561C5.09748 115.661 5.18637 115.767 5.29748 115.872C5.50303 116.089 5.7697 116.317 6.07526 116.55C6.68081 117.022 7.48081 117.461 8.36414 117.844C9.25303 118.222 10.2253 118.533 11.1975 118.778C13.153 119.272 15.1141 119.511 16.5753 119.667C18.0364 119.8 19.0086 119.889 19.0086 119.889C19.0086 119.889 18.0641 119.933 16.6475 120C15.2253 120.05 13.3086 120.072 11.3141 119.833C10.3197 119.717 9.29748 119.517 8.3197 119.228C7.34192 118.928 6.40303 118.539 5.59192 118.033C5.18637 117.783 4.81414 117.522 4.49748 117.244C4.33637 117.117 4.18637 116.972 4.05303 116.839C3.9197 116.717 3.79192 116.583 3.67526 116.444C3.56414 116.317 3.44748 116.183 3.37526 116.094C3.31414 116.011 3.25859 115.944 3.21414 115.883C3.12526 115.772 3.08081 115.711 3.08081 115.711L4.39748 114.7Z" fill="#020202"/>
<path d="M23.6086 87.8C23.6086 87.8 23.8698 87.8389 24.3198 87.9C24.5753 87.9222 24.7586 88 25.0086 88.0722C25.1364 88.1167 25.2642 88.1333 25.4142 88.2C25.5642 88.2667 25.7198 88.3333 25.8809 88.4056C26.2142 88.5278 26.5475 88.7556 26.9198 88.9556C27.2809 89.1778 27.6475 89.4389 28.0253 89.7222C28.392 90.0222 28.7809 90.3167 29.142 90.6667C29.5198 90.9944 29.8753 91.3667 30.2364 91.7278C31.6698 93.2056 32.9364 94.8667 33.8642 96.1278C34.7753 97.4056 35.3809 98.2556 35.3809 98.2556C35.3809 98.2556 34.8698 97.3444 34.1031 95.9722C33.3142 94.6111 32.2309 92.8111 30.9309 91.1278C30.6031 90.7111 30.2698 90.2889 29.9142 89.9C29.5753 89.4944 29.1975 89.1333 28.842 88.7722C28.4698 88.4222 28.0975 88.0944 27.7253 87.8C27.3364 87.5222 26.9864 87.2333 26.6086 87.0389C26.242 86.8222 25.9031 86.6278 25.5364 86.4944C25.192 86.3556 24.8642 86.2167 24.6586 86.1778C24.2142 86.0611 23.9642 86 23.9642 86L23.6086 87.8Z" fill="#020202"/>
<path d="M12.692 98.2222C12.692 98.2222 12.9142 98.2111 13.3031 98.1944C13.5254 98.1667 13.6642 98.2222 13.8809 98.2389C14.0809 98.2389 14.3531 98.3333 14.642 98.4111C14.9365 98.4778 15.2365 98.6389 15.5698 98.7611C15.8865 98.9333 16.2365 99.0889 16.5754 99.3055C16.7476 99.4111 16.9198 99.5222 17.092 99.6333C17.2642 99.7555 17.4309 99.8778 17.6087 100C17.9587 100.239 18.292 100.533 18.6309 100.8C19.9698 101.933 21.192 103.228 22.0865 104.217C22.9698 105.217 23.5587 105.883 23.5587 105.883C23.5587 105.883 23.0476 105.156 22.2754 104.067C21.492 102.983 20.4142 101.556 19.1642 100.239C18.842 99.9222 18.5365 99.5833 18.192 99.2889C18.0254 99.1389 17.8587 98.9889 17.692 98.8389C17.5198 98.7 17.342 98.5611 17.1754 98.4278C16.842 98.15 16.4698 97.9333 16.1309 97.7055C15.7642 97.5222 15.442 97.3 15.0865 97.1778C14.742 97.0444 14.442 96.9055 14.0976 96.8444C13.7809 96.7778 13.4587 96.6944 13.292 96.7C12.9031 96.6722 12.6809 96.6611 12.6809 96.6611L12.692 98.2222Z" fill="#020202"/>
<path d="M32.1031 135.517C32.1031 135.517 32.0864 135.467 32.0531 135.367C32.0364 135.317 32.0142 135.256 31.992 135.189C31.9698 135.122 31.9642 135.078 31.9475 135.011C31.9309 134.956 31.9086 134.878 31.8975 134.778C31.8809 134.683 31.8642 134.583 31.8586 134.472C31.8309 134.25 31.8309 133.989 31.8531 133.694C31.8864 133.111 32.042 132.406 32.2864 131.667C32.5364 130.928 32.8698 130.161 33.2475 129.411C34.0086 127.917 34.9309 126.511 35.6364 125.478C36.3531 124.45 36.8309 123.761 36.8309 123.761C36.8309 123.761 36.2864 124.378 35.4642 125.3C34.6531 126.233 33.5864 127.506 32.642 128.933C32.1698 129.644 31.7364 130.4 31.3809 131.167C31.0364 131.933 30.7642 132.711 30.642 133.45C30.5809 133.817 30.542 134.167 30.542 134.483C30.5364 134.644 30.542 134.794 30.5531 134.933C30.5586 135.072 30.5753 135.206 30.5975 135.339C30.6198 135.461 30.6364 135.594 30.6586 135.672C30.6753 135.744 30.692 135.811 30.7031 135.861C30.7253 135.961 30.742 136.017 30.742 136.017L32.1031 135.517Z" fill="#020202"/>
<path d="M70.4585 96.1833C83.7085 89.8722 86.314 93.4722 99.9252 93.5167C103.153 93.5278 108.631 94.6444 111.747 93.95C116.264 92.9389 119.32 85.0056 120.508 80.6389C122.242 74.2722 129.875 78.5945 136.458 79.9C149.403 82.4722 140.992 103.056 136.981 111.894C129.653 128.033 118.253 125.678 98.7696 121.772" fill="#FFFDFD"/>
<path d="M92.7252 122.194C93.4363 121.011 55.2974 86.1778 100.831 93.8222C104.014 94.3556 107.775 94.6778 110.964 94.5C115.586 94.2389 120.564 83.0778 122.447 78.9667C125.186 72.9667 124.414 77.2167 137.975 81.8333C145.414 84.3667 135.609 106.017 130.214 114.089C120.37 128.828 103.764 121.661 90.6974 121.856" fill="#7E9597"/>
<path d="M94.9752 121.872C94.9752 121.872 94.9252 121.722 94.8307 121.422C94.7307 121.128 94.603 120.689 94.4363 120.106C94.1196 118.944 93.703 117.233 93.3363 115.017C93.1752 113.906 92.9918 112.678 92.8974 111.322C92.7863 109.972 92.703 108.5 92.7974 106.928C93.0085 103.778 93.7196 100.256 94.9474 96.5889C95.2807 95.6778 95.6696 94.7556 96.1641 93.8556C96.2252 93.7389 96.2918 93.6333 96.3585 93.5222L96.4585 93.3556L96.5085 93.2722C96.4974 93.2833 96.553 93.2111 96.5585 93.2056C96.5641 93.2 96.5752 93.1833 96.6196 93.1389C96.8752 92.9167 97.0418 92.9056 97.2085 92.8556C97.3696 92.8222 97.5196 92.8111 97.6585 92.8C98.2252 92.7778 98.7363 92.8333 99.2585 92.8889C101.331 93.1389 103.403 93.5167 105.559 93.7889C106.097 93.8556 106.636 93.9222 107.181 93.9833L108.003 94.0667C108.231 94.0778 108.559 94.1111 108.803 94.1111C109.809 94.1167 110.875 93.9278 111.82 93.4778C113.747 92.5889 115.209 90.7778 116.325 88.7778C116.892 87.7722 117.381 86.7 117.847 85.6C118.32 84.4889 118.725 83.3889 119.259 82.1944C119.403 81.9111 119.503 81.6556 119.681 81.3556C119.853 81.0611 120.014 80.7611 120.214 80.4944C120.575 79.9389 121.042 79.4389 121.525 78.9722C122.531 78.0667 123.775 77.3833 125.092 77.05C127.747 76.3556 130.492 76.7722 132.975 77.6C135.475 78.4444 137.809 79.7167 139.892 81.3444L140.086 81.4944L140.286 81.6611L140.653 81.9722C140.914 82.2056 141.17 82.4389 141.403 82.6778C141.881 83.1556 142.325 83.6722 142.731 84.2222C143.536 85.3222 144.175 86.5556 144.597 87.8556C145.453 90.4611 145.431 93.2222 145.003 95.7833C144.564 98.3556 143.747 100.789 142.786 103.1C141.82 105.411 140.703 107.6 139.531 109.706C138.359 111.811 137.125 113.822 135.886 115.767C135.259 116.744 134.653 117.678 134.014 118.644C133.853 118.878 133.714 119.106 133.542 119.344C133.364 119.583 133.197 119.833 133.014 120.061C132.659 120.522 132.292 120.972 131.903 121.4C130.364 123.133 128.453 124.506 126.409 125.394C124.359 126.278 122.209 126.611 120.209 126.672C118.197 126.728 116.314 126.478 114.564 126.172C112.814 125.867 111.197 125.444 109.692 125.056C106.686 124.244 104.125 123.456 101.975 122.956C99.8363 122.428 98.1307 122.117 96.9585 121.983C95.7863 121.839 95.153 121.811 95.153 121.811L95.1474 121.589C95.1474 121.589 95.3085 121.578 95.6141 121.556C95.9252 121.533 96.3807 121.506 96.9863 121.5C98.1863 121.506 99.9585 121.572 102.181 121.9C104.397 122.228 107.064 122.761 110.086 123.361C113.097 123.933 116.509 124.606 120.12 124.428C121.914 124.339 123.742 123.972 125.464 123.217C126.331 122.85 127.159 122.367 127.953 121.8C128.742 121.228 129.486 120.556 130.203 119.822C130.559 119.456 130.897 119.061 131.231 118.656C131.397 118.456 131.547 118.25 131.709 118.044C131.864 117.839 132.031 117.594 132.192 117.372C132.797 116.483 133.436 115.522 134.053 114.572C135.292 112.667 136.52 110.694 137.686 108.65C138.847 106.606 139.947 104.489 140.892 102.283C141.831 100.083 142.614 97.7889 143.036 95.4333C143.453 93.0889 143.481 90.6611 142.781 88.4278C142.431 87.3167 141.909 86.2667 141.225 85.3111C140.881 84.8333 140.503 84.3889 140.092 83.9611C139.886 83.7444 139.675 83.5444 139.47 83.35L139.114 83.0389L139.025 82.9611L138.947 82.9L138.77 82.7556C136.881 81.2333 134.709 80.0056 132.431 79.1944C130.159 78.4 127.709 78 125.481 78.5444C124.37 78.8056 123.359 79.3389 122.509 80.0667C122.103 80.45 121.703 80.85 121.386 81.3222C121.209 81.55 121.075 81.7833 120.931 82.0167C120.786 82.2389 120.653 82.55 120.514 82.8111C120.036 83.85 119.575 85.0222 119.092 86.1333C118.603 87.2555 118.075 88.3611 117.464 89.4222C116.853 90.4833 116.153 91.5 115.309 92.4C114.47 93.3 113.47 94.0778 112.331 94.5833C111.192 95.1 109.981 95.3167 108.747 95.2889C108.436 95.2778 108.209 95.2556 107.881 95.2278L107.047 95.1278C106.497 95.05 105.947 94.9778 105.403 94.9C103.236 94.5833 101.136 94.1667 99.1363 93.8889C98.6418 93.8278 98.1418 93.7667 97.6974 93.7778C97.5863 93.7833 97.4807 93.7889 97.3974 93.8056C97.3196 93.8111 97.2363 93.8667 97.303 93.8167C97.3196 93.7944 97.3141 93.8 97.2974 93.8167C97.2807 93.8333 97.3196 93.7889 97.2918 93.8222L97.2363 93.8944L97.1252 94.0333C97.053 94.1278 96.9752 94.2167 96.9085 94.3167C96.353 95.0944 95.9196 95.9444 95.5863 96.8167C94.9252 98.5667 94.6307 100.367 94.5974 102.078C94.5196 103.789 94.6141 105.411 94.6752 106.933C94.7474 108.456 94.7696 109.878 94.8141 111.2C94.8807 112.522 94.903 113.739 94.9696 114.839C95.0585 117.044 95.1363 118.789 95.1641 119.983C95.1863 121.178 95.1807 121.828 95.1807 121.828L94.9752 121.872Z" fill="#020202"/>
<path d="M116.386 89.5889C116.386 89.5889 116.37 89.5278 116.336 89.4111C116.336 89.4111 116.297 89.2556 116.286 89.1611C116.275 89.0445 116.247 88.9611 116.303 88.7111C116.331 88.6 116.359 88.5056 116.425 88.3945C116.509 88.2667 116.631 88.1389 116.764 88.05C116.897 87.9611 116.975 87.95 117.103 87.9167C117.159 87.9056 117.22 87.8945 117.275 87.8833H117.375C117.442 87.8833 117.514 87.8889 117.586 87.9C117.647 87.9111 117.686 87.9222 117.736 87.9333C117.842 87.9556 117.925 87.9833 118.009 88.0111C118.181 88.0722 118.331 88.1389 118.481 88.2056C118.792 88.35 119.103 88.5111 119.442 88.6833C119.609 88.7667 119.781 88.85 119.953 88.9278C120.175 89.0222 120.342 89.1111 120.553 89.2056C120.947 89.3889 121.375 89.5889 121.82 89.8556C122.042 89.9778 122.264 90.1056 122.492 90.2333C122.703 90.3722 122.92 90.5167 123.142 90.6611C123.581 90.9333 124.003 91.2667 124.42 91.6056C124.531 91.7 124.609 91.75 124.753 91.8778L125.014 92.1556C125.186 92.35 125.37 92.5056 125.531 92.7333C125.692 92.95 125.847 93.1611 126.003 93.3722C126.153 93.5833 126.275 93.8 126.409 94.0056C126.675 94.4167 126.892 94.8333 127.114 95.2167C127.325 95.6056 127.525 95.9722 127.714 96.3056C128.081 96.9778 128.42 97.5222 128.681 97.8833C128.964 98.2278 129.131 98.4278 129.131 98.4278C129.131 98.4278 128.947 98.25 128.62 97.9333C128.32 97.5944 127.92 97.0889 127.475 96.4556C127.253 96.1389 127.014 95.8 126.759 95.4389C126.497 95.0833 126.242 94.7 125.936 94.3333C125.786 94.15 125.642 93.95 125.486 93.7778C125.331 93.6056 125.17 93.4333 125.009 93.2611C124.864 93.0833 124.636 92.9278 124.453 92.7611L124.159 92.5111L123.87 92.3333C123.453 92.0667 123.042 91.8056 122.592 91.5944C122.375 91.4833 122.159 91.3722 121.947 91.2667C121.731 91.1722 121.514 91.0833 121.303 90.9944C121.092 90.9056 120.892 90.8111 120.681 90.7333C120.464 90.6556 120.247 90.5833 120.036 90.5111C119.836 90.4445 119.609 90.3611 119.442 90.3111C119.225 90.2445 119.031 90.1722 118.842 90.1056C118.47 89.9667 118.142 89.8445 117.87 89.7556C117.736 89.7111 117.609 89.6722 117.52 89.6556C117.47 89.6445 117.431 89.6333 117.414 89.6389C117.403 89.6389 117.386 89.6389 117.386 89.6389C117.397 89.6445 117.409 89.6445 117.425 89.6445H117.442C117.475 89.6445 117.503 89.6389 117.536 89.6333C117.614 89.6167 117.631 89.6 117.731 89.55C117.831 89.4945 117.92 89.4 117.97 89.3056C118.014 89.2333 118.042 89.1833 118.059 89.1167C118.081 88.9556 118.075 88.95 118.075 88.9056C118.081 88.8833 118.042 88.7945 118.064 88.8556C118.109 88.9667 118.131 89.0278 118.131 89.0278L116.386 89.5889Z" fill="#020202"/>
<path d="M110.714 94.5056C110.714 94.5056 110.731 94.4444 110.764 94.3278C110.764 94.3278 110.809 94.1778 110.853 94.0889C110.909 93.9833 110.925 93.8944 111.097 93.7111C111.175 93.6333 111.253 93.5611 111.364 93.5C111.497 93.4333 111.67 93.3833 111.836 93.3778C111.997 93.3722 112.07 93.4 112.197 93.4333C112.253 93.45 112.309 93.4722 112.364 93.4944L112.453 93.5444C112.509 93.5833 112.57 93.6222 112.625 93.6611C112.67 93.7 112.697 93.7278 112.736 93.7667C112.814 93.8389 112.875 93.9055 112.925 93.9722C113.042 94.1111 113.136 94.2444 113.231 94.3833C113.42 94.6667 113.609 94.9667 113.809 95.2833C113.909 95.4389 114.014 95.6 114.125 95.7556C114.27 95.95 114.37 96.1111 114.497 96.3C114.742 96.6611 115.003 97.05 115.247 97.5056C115.37 97.7222 115.497 97.95 115.625 98.1722C115.736 98.4056 115.847 98.6389 115.964 98.8722C116.203 99.3333 116.392 99.8333 116.575 100.339C116.625 100.478 116.664 100.556 116.72 100.744L116.803 101.122C116.847 101.378 116.931 101.606 116.947 101.883C116.975 102.15 116.997 102.417 117.025 102.678C117.047 102.933 117.036 103.183 117.047 103.428C117.064 103.917 117.036 104.383 117.031 104.828C117.014 105.267 116.997 105.689 116.981 106.072C116.953 106.839 116.964 107.478 116.997 107.922C117.064 108.367 117.103 108.617 117.103 108.617C117.103 108.617 117.036 108.367 116.92 107.933C116.836 107.489 116.753 106.85 116.697 106.078C116.67 105.694 116.636 105.278 116.609 104.839C116.57 104.4 116.542 103.939 116.475 103.472C116.442 103.239 116.42 102.994 116.375 102.761C116.325 102.533 116.281 102.3 116.231 102.072C116.197 101.844 116.081 101.594 116.009 101.356L115.886 100.989L115.731 100.689C115.514 100.244 115.292 99.8111 115.014 99.4C114.886 99.1944 114.753 98.9889 114.631 98.7833C114.492 98.5944 114.353 98.4056 114.22 98.2167C114.081 98.0333 113.964 97.85 113.82 97.6722C113.67 97.4944 113.525 97.3222 113.381 97.15C113.242 96.9889 113.092 96.8 112.975 96.6722C112.825 96.5055 112.692 96.3389 112.57 96.1889C112.32 95.8833 112.103 95.6055 111.92 95.3889C111.825 95.2778 111.742 95.1833 111.67 95.1222C111.636 95.0889 111.603 95.0611 111.586 95.0556C111.581 95.05 111.564 95.0389 111.564 95.0389C111.57 95.05 111.581 95.0555 111.592 95.0667L111.609 95.0722C111.636 95.0889 111.664 95.1 111.697 95.1111C111.77 95.1333 111.797 95.1333 111.909 95.1389C112.025 95.1444 112.147 95.1055 112.236 95.05C112.309 95.0111 112.359 94.9833 112.409 94.9333C112.514 94.8056 112.509 94.8 112.531 94.7611C112.547 94.7444 112.559 94.65 112.547 94.7111C112.531 94.8278 112.52 94.8944 112.52 94.8944L110.714 94.5056Z" fill="#020202"/>
<path d="M121.57 79.25C127.909 74.5556 142.936 83.9667 145.792 89.9056C147.875 87.1 153.22 82.0444 153.181 77.9778C153.12 71.6222 147.52 67.7833 143.386 66.5667C138.875 65.2444 136.453 65.5667 132.225 66.5667C125.248 68.2167 124.281 75.5611 121.448 78.8667" fill="#FDFFFF"/>
<path d="M152.564 78.7C152.564 78.7 152.52 78.6555 152.436 78.5722C152.359 78.4944 152.214 78.3444 152.125 78.2889C152.036 78.2055 151.853 78.0944 151.642 77.9833C151.425 77.8833 151.17 77.7778 150.859 77.7167C150.553 77.6389 150.198 77.6111 149.82 77.6C149.436 77.6 149.02 77.6278 148.592 77.6944C147.731 77.8278 146.809 78.0944 145.914 78.4611C144.125 79.1778 142.448 80.25 141.364 81.2389C140.82 81.7333 140.42 82.2 140.198 82.5667C140.092 82.75 140.003 82.9 139.97 83.0111C139.925 83.1167 139.903 83.1778 139.903 83.1778C139.903 83.1778 139.92 83.1167 139.948 83.0056C139.97 82.8889 140.036 82.7333 140.125 82.5333C140.309 82.1333 140.659 81.6055 141.159 81.0389C142.148 79.9 143.725 78.6111 145.52 77.6333C146.414 77.1444 147.364 76.7333 148.32 76.4722C148.798 76.3389 149.275 76.2444 149.736 76.1944C150.203 76.15 150.659 76.1333 151.086 76.1833C151.514 76.2222 151.914 76.3222 152.259 76.4389C152.603 76.5667 152.892 76.6944 153.153 76.8722C153.431 77.0444 153.531 77.1389 153.631 77.2111C153.72 77.2833 153.77 77.3222 153.77 77.3222L152.564 78.7Z" fill="#A7C4C3"/>
<path d="M140.553 67.0333C140.553 67.0333 140.27 67.0444 139.77 67.0611C139.52 67.0722 139.22 67.0833 138.87 67.0944C138.564 67.15 138.22 67.2111 137.842 67.2722C137.459 67.3056 137.047 67.4778 136.609 67.6C136.159 67.7111 135.725 67.9389 135.264 68.1444L134.914 68.3L134.581 68.5C134.359 68.6333 134.131 68.7722 133.897 68.9111C133.453 69.2111 133.014 69.5444 132.592 69.9C132.186 70.2778 131.759 70.6333 131.403 71.05C131.02 71.4444 130.681 71.8667 130.353 72.2778C130.025 72.6889 129.742 73.1111 129.464 73.5111C129.203 73.9222 128.947 74.3056 128.742 74.6778C128.309 75.4111 127.992 76.05 127.764 76.4889C127.542 76.9389 127.397 77.1833 127.397 77.1833C127.397 77.1833 127.52 76.9278 127.692 76.4556C127.875 75.9889 128.125 75.3222 128.486 74.5444C128.659 74.15 128.875 73.7389 129.097 73.2944C129.336 72.8611 129.586 72.4 129.875 71.9444C130.17 71.4889 130.475 71.0167 130.831 70.5667C131.164 70.0944 131.57 69.6778 131.959 69.2333C132.37 68.8167 132.803 68.4111 133.247 68.0333C133.481 67.8556 133.714 67.6833 133.942 67.5111L134.286 67.2556C134.409 67.1833 134.531 67.1111 134.653 67.0389C135.142 66.7611 135.603 66.4611 136.092 66.2833C136.575 66.0889 137.009 65.8611 137.475 65.7611C137.931 65.6389 138.347 65.5278 138.72 65.4278C139.064 65.3778 139.364 65.3389 139.609 65.3056C140.103 65.2389 140.386 65.1944 140.386 65.1944L140.553 67.0333Z" fill="#A7C4C3"/>
<path d="M148.198 69.6389C148.198 69.6389 147.892 69.6222 147.359 69.5944C147.214 69.5778 147.103 69.6 146.97 69.6167C146.836 69.6333 146.698 69.6444 146.542 69.6611C146.464 69.6667 146.386 69.6778 146.303 69.6833C146.214 69.7056 146.125 69.7278 146.031 69.75C145.842 69.7944 145.642 69.8389 145.436 69.8889C145.02 69.9944 144.581 70.1667 144.103 70.3278C143.648 70.5389 143.142 70.7167 142.653 70.9833C142.159 71.2333 141.642 71.5056 141.148 71.8167C140.631 72.1056 140.148 72.4556 139.648 72.7944C139.159 73.1444 138.675 73.5056 138.214 73.8778C137.764 74.2611 137.303 74.6278 136.903 75.0278C136.481 75.4111 136.103 75.8056 135.753 76.1889C135.381 76.5611 135.103 76.9611 134.809 77.3111C134.542 77.6778 134.309 78.0222 134.109 78.3333C133.936 78.6611 133.781 78.9444 133.664 79.1833C133.486 79.6889 133.386 79.9722 133.386 79.9722C133.386 79.9722 133.459 79.6722 133.592 79.15C133.686 78.9 133.82 78.6 133.959 78.25C134.131 77.9167 134.336 77.5444 134.57 77.1444C134.836 76.7667 135.086 76.3222 135.425 75.9167C135.748 75.4944 136.098 75.05 136.486 74.6222C136.859 74.1778 137.292 73.7611 137.72 73.3222C138.159 72.8944 138.62 72.4778 139.086 72.0667C139.57 71.6722 140.042 71.2611 140.548 70.9111C141.036 70.5333 141.548 70.2056 142.048 69.8889C142.536 69.5611 143.064 69.3111 143.536 69.0389C144.042 68.8167 144.509 68.5778 144.97 68.4167C145.203 68.3389 145.425 68.2611 145.642 68.1944C145.748 68.1611 145.853 68.1222 145.953 68.0889C146.064 68.0667 146.175 68.0444 146.281 68.0222C146.698 67.95 147.12 67.8444 147.381 67.8444C147.914 67.8222 148.22 67.8111 148.22 67.8111L148.198 69.6389Z" fill="#A7C4C3"/>
<path d="M121.303 80.1611C121.492 79.6167 121.831 79.05 122.309 78.65C122.781 78.2278 123.37 77.9389 123.986 77.75C124.603 77.5556 125.253 77.4778 125.892 77.4556C126.536 77.4333 127.181 77.4667 127.814 77.5556C129.086 77.7222 130.325 78.0389 131.525 78.4556C132.731 78.8611 133.897 79.3611 135.031 79.9333C135.597 80.2167 136.159 80.5111 136.709 80.8222C137.253 81.1444 137.792 81.4778 138.325 81.8278C138.859 82.1722 139.364 82.5556 139.87 82.9389C140.375 83.3222 140.859 83.7389 141.331 84.1611C142.275 85.0056 143.159 85.9333 143.959 86.9222C144.753 87.9167 145.475 88.9833 145.931 90.2L145.175 90.0778C145.953 89.0722 146.753 88.1278 147.553 87.1778C148.342 86.2222 149.114 85.2556 149.82 84.25C150.525 83.2444 151.164 82.1944 151.636 81.0889C152.109 79.9944 152.459 78.8167 152.425 77.7C152.414 77.0389 152.353 76.5111 152.242 75.9111C152.131 75.3278 151.947 74.7611 151.725 74.2167C151.292 73.1167 150.614 72.1222 149.797 71.2389C148.153 69.4833 145.931 68.1944 143.603 67.45C143.325 67.3611 142.997 67.2667 142.753 67.2056C142.442 67.1389 142.092 67.05 141.809 67.0056C141.242 66.8944 140.636 66.8333 140.059 66.7889C139.481 66.7556 133.681 65.8389 129.609 68.4111C128.564 68.9389 127.57 70.05 126.736 70.8667C125.886 71.6667 125.214 73.0889 124.57 74.1056C123.92 75.1222 123.353 76.2222 122.731 77.3111C122.114 78.3944 121.47 79.5056 120.586 80.4167L120.397 80.2722C121.053 79.2278 121.514 78.0944 121.953 76.9333C122.381 75.7667 122.825 74.5889 123.37 73.4333C123.925 72.2833 124.597 71.1556 125.459 70.15C126.32 69.15 127.325 68.1556 128.47 67.4556C132.242 64.8222 138.397 65.0778 139.842 65.1833C144.631 65.3611 148.631 67.4056 150.731 70.0333C151.67 71.1278 152.647 72.6056 153.186 73.9222C153.392 74.5944 153.547 75 153.781 75.7944C153.786 76.0167 153.847 77.3944 153.797 77.8056C153.681 79.2278 153.181 80.45 152.57 81.5722C151.942 82.6889 151.214 83.7222 150.453 84.7167C149.692 85.7111 148.897 86.6722 148.109 87.6333C147.336 88.6056 146.536 89.5556 145.881 90.5778L145.47 91.2222L145.125 90.4611C144.664 89.4389 143.87 88.5389 143.014 87.7222C142.153 86.9056 141.203 86.1722 140.236 85.4722C139.753 85.1222 139.253 84.7944 138.759 84.4556C138.264 84.1222 137.753 83.8111 137.247 83.4889C136.236 82.8556 135.203 82.2556 134.153 81.6833C133.103 81.1222 132.025 80.6111 130.936 80.1444C129.842 79.7 128.731 79.3 127.609 79.0222C127.047 78.8889 126.481 78.7833 125.92 78.7167C125.353 78.65 124.797 78.6556 124.253 78.7167C123.709 78.7778 123.186 78.9333 122.714 79.1833C122.236 79.4444 121.842 79.8 121.503 80.2833L121.303 80.1611Z" fill="#020202"/>
<path d="M18.0807 68.6722C15.7807 68.7389 13.9641 71.1167 14.0252 73.9833L15.2252 139.772C15.2918 142.633 17.2141 144.911 19.5141 144.85L89.9418 152.811L97.703 148.178C100.62 146.544 101.82 145.733 101.759 142.867L100.047 67.1056C99.9807 64.2445 98.4252 62.8333 95.7585 62.0278L85.6807 59.9667L18.0807 68.6722Z" fill="#FDFFFF"/>
<path d="M13.3363 140.511C13.3919 143.567 15.9308 146.322 18.9697 146.633L80.103 152.911C83.1419 153.222 87.8196 152.267 90.4919 150.789L93.1308 149.328C95.803 147.85 97.9363 144.139 97.8697 141.083L96.2308 67.9333C96.1641 64.8778 93.6252 62.0722 90.5919 61.6945L87.5363 61.3167C84.503 60.9389 79.5419 60.9333 76.5085 61.3L17.4919 68.4778C14.4585 68.8445 12.0252 71.65 12.0808 74.7056L13.3363 140.511Z" fill="#C6CCD0"/>
<path d="M16.0362 137.206C16.0918 140.261 18.6307 142.989 21.6751 143.272L82.5807 148.922C85.6251 149.206 88.0529 146.939 87.9807 143.883L86.1751 67.5667C86.1029 64.5111 83.5585 62.3111 80.5251 62.6722L20.3029 69.8556C17.2696 70.2167 14.8362 73.0111 14.8918 76.0667L16.0362 137.206Z" fill="#7E9597"/>
<path d="M13.7585 139.811L12.5585 74.0222C12.4696 70.15 14.9196 66.9278 18.0252 66.8389L85.5085 58.1167L95.4196 60.1944C98.9641 60.95 101.114 63.1889 101.203 67.0611L102.914 142.822C103.003 146.694 101.37 147.667 97.4474 150.006L88.9085 154.939L19.5418 146.678C16.4418 146.767 13.8474 143.683 13.7585 139.811ZM18.0807 68.6722C15.7807 68.7389 13.9641 71.1167 14.0252 73.9833L15.2252 139.772C15.2918 142.633 17.2141 144.911 19.5141 144.85L88.1363 152.344L97.7029 148.172C100.62 146.539 101.82 145.728 101.759 142.861L100.047 67.1C99.9807 64.2389 98.4252 62.8278 95.7585 62.0222L85.6807 59.9611L18.0807 68.6722Z" fill="#020202"/>
<path d="M79.1697 30.1111C79.0808 28.3444 80.2697 26.8333 81.8142 26.7389C83.3642 26.6444 84.6919 27.9944 84.7753 29.7611C84.853 31.3778 83.8642 32.7667 82.5086 33.0667L84.053 59.2333L81.5697 59.3167L81.8364 33.1222C80.4253 33.0389 79.253 31.7611 79.1697 30.1111Z" fill="#020202" stroke="#020202" stroke-miterlimit="10"/>
<path d="M73.9585 41.5833C73.8974 40.4278 74.7141 39.4389 75.7808 39.3778C76.8474 39.3167 77.7585 40.1944 77.8141 41.35C77.8696 42.4056 77.1863 43.3167 76.253 43.5111L77.2974 60.6222L75.5863 60.6778L75.7919 43.5444C74.8197 43.4944 74.0141 42.6611 73.9585 41.5833Z" fill="#020202" stroke="#020202" stroke-miterlimit="10"/>
<path d="M82.1197 27.0945C82.1197 27.0945 82.2309 27.1611 82.4309 27.2778C82.5309 27.3278 82.6586 27.3945 82.7586 27.5111C82.8642 27.6222 82.9975 27.7056 83.0975 27.8722C83.1475 27.95 83.2031 28.0278 83.2642 28.1056C83.3031 28.2 83.342 28.2945 83.3864 28.3945C83.4364 28.4889 83.4642 28.5944 83.4864 28.7056C83.5031 28.8167 83.5475 28.9222 83.5586 29.0444C83.5642 29.1611 83.5753 29.2833 83.5809 29.4056C83.5864 29.5278 83.5642 29.65 83.5586 29.7778C83.5586 29.9056 83.5364 30.0278 83.5031 30.15C83.4697 30.2722 83.4642 30.4 83.4086 30.5111L83.2864 30.8611L83.1142 31.1778C83.0642 31.2889 82.9753 31.3611 82.9142 31.4556C82.8475 31.55 82.7753 31.6389 82.6864 31.6944C82.6031 31.7556 82.5253 31.8333 82.442 31.8889C82.3531 31.9333 82.2642 31.9778 82.1753 32.0222C82.0031 32.1111 81.8142 32.1056 81.6475 32.1611C81.4697 32.1556 81.3086 32.15 81.1642 32.1444C81.0142 32.1389 80.892 32.0833 80.7864 32.0667C80.5697 32.0167 80.4475 31.9889 80.4475 31.9889C80.4475 31.9889 80.5531 32.0667 80.7475 32.1944C80.8475 32.25 80.9586 32.3556 81.1142 32.4056C81.2642 32.4556 81.442 32.5222 81.642 32.5611C81.842 32.55 82.0753 32.6 82.3031 32.5278C82.4197 32.4889 82.542 32.4556 82.6642 32.4167C82.7809 32.3667 82.8864 32.2778 83.0031 32.2056C83.1253 32.1333 83.2253 32.0389 83.3197 31.9278C83.4142 31.8167 83.5309 31.7222 83.5975 31.5833L83.8253 31.1889L83.992 30.7556C84.0531 30.6111 84.0642 30.45 84.0975 30.3C84.1309 30.15 84.1531 29.9944 84.1531 29.8389C84.1864 29.5278 84.1364 29.2222 84.0864 28.9333C84.0642 28.7889 84.0031 28.6556 83.9586 28.5222C83.9197 28.3889 83.8642 28.2611 83.7864 28.1556C83.7197 28.0445 83.6531 27.9333 83.5864 27.8333C83.5031 27.75 83.4197 27.6722 83.342 27.5945C83.1975 27.4278 83.0031 27.3556 82.8586 27.2778C82.7086 27.1833 82.5809 27.1722 82.4697 27.1556C82.242 27.1111 82.1197 27.0945 82.1197 27.0945Z" fill="#FDFEFF"/>
<path d="M75.9863 39.55C75.9863 39.55 76.0697 39.5944 76.2141 39.6667C76.2863 39.7 76.3808 39.7444 76.4586 39.8167C76.5363 39.8889 76.6363 39.9444 76.7086 40.0556C76.7474 40.1056 76.7863 40.1556 76.8308 40.2111C76.8586 40.2722 76.8919 40.3389 76.9197 40.4C76.9586 40.4611 76.9808 40.5333 76.9919 40.6056C77.003 40.6833 77.0363 40.75 77.0419 40.8278C77.0475 40.9056 77.053 40.9833 77.0586 41.0667C77.0641 41.1444 77.0419 41.2278 77.0419 41.3111C77.0419 41.3944 77.0252 41.4778 77.003 41.5556C76.9808 41.6333 76.9752 41.7222 76.9308 41.7944L76.8363 42.0278L76.7086 42.2389C76.6697 42.3167 76.603 42.3611 76.5586 42.4222C76.5086 42.4833 76.4586 42.5444 76.3919 42.5833C76.3308 42.6278 76.2697 42.6778 76.2086 42.7111C76.1419 42.7389 76.0752 42.7722 76.0086 42.8C75.8808 42.8611 75.7363 42.8556 75.6141 42.8944C75.4808 42.8889 75.3641 42.8889 75.253 42.8833C75.1419 42.8833 75.053 42.8444 74.9697 42.8333C74.8086 42.8 74.7141 42.7833 74.7141 42.7833C74.7141 42.7833 74.7919 42.8333 74.9363 42.9222C75.0086 42.9611 75.0919 43.0278 75.2086 43.0611C75.3197 43.0944 75.453 43.1389 75.603 43.1667C75.753 43.1611 75.9252 43.1944 76.0974 43.1389C76.1863 43.1167 76.2752 43.0889 76.3641 43.0611C76.453 43.0278 76.5308 42.9667 76.6197 42.9167C76.7086 42.8722 76.7863 42.8056 76.8586 42.7333C76.9308 42.6611 77.0141 42.5944 77.0641 42.5056L77.2363 42.2444L77.3586 41.9556C77.403 41.8611 77.4141 41.7556 77.4363 41.6556C77.4586 41.5556 77.4808 41.45 77.4808 41.35C77.503 41.1444 77.4697 40.9444 77.4363 40.75C77.4197 40.6556 77.3752 40.5667 77.3419 40.4778C77.3086 40.3889 77.2697 40.3056 77.2141 40.2333C77.1641 40.1611 77.1141 40.0889 77.0641 40.0222C77.003 39.9667 76.9419 39.9167 76.8808 39.8667C76.7752 39.7556 76.6308 39.7111 76.5197 39.6556C76.4086 39.5944 76.3141 39.5889 76.2308 39.5778C76.0752 39.5611 75.9863 39.55 75.9863 39.55Z" fill="#FDFEFF"/>
<path d="M82.9974 58.4611L83.6918 58.3556L82.2752 33.3167L82.1196 33.3222L82.9974 58.4611Z" fill="#FDFEFF"/>
<path d="M76.4585 59.55L76.914 59.4889L76.1696 43.6H76.0696L76.4585 59.55Z" fill="#FDFEFF"/>
<path d="M67.2421 100.244C67.2754 101.772 66.0532 103.022 64.5254 103.028L35.2421 103.083C33.7143 103.089 32.4199 101.839 32.3643 100.311L31.7865 84.4167C31.731 82.8889 32.931 81.5333 34.4532 81.4L64.0032 78.8C65.5254 78.6667 66.7976 79.8055 66.831 81.3333L67.2421 100.244Z" fill="#C6CCD0"/>
<path d="M67.2421 100.244C67.2754 101.772 66.0532 103.022 64.5254 103.028L35.2421 103.083C33.7143 103.089 32.4199 101.839 32.3643 100.311L31.7865 84.4167C31.731 82.8889 32.931 81.5333 34.4532 81.4L64.0032 78.8C65.5254 78.6667 66.7976 79.8055 66.831 81.3333L67.2421 100.244Z" stroke="#020202" stroke-width="2" stroke-miterlimit="10"/>
<path d="M54.0531 86.2556C54.1309 87.25 53.5476 88.1056 52.7531 88.1667L36.4309 89.4278C35.6365 89.4889 34.9309 88.7333 34.8531 87.7389C34.7754 86.7445 35.3587 85.8889 36.1531 85.8278L52.4754 84.5667C53.2698 84.5056 53.9754 85.2611 54.0531 86.2556Z" fill="#FDFEFF"/>
<path d="M51.7754 95.5444C51.7921 96.5389 51.2532 97.3611 50.5643 97.3722L36.4921 97.6222C35.8087 97.6333 35.2365 96.8389 35.2199 95.8389C35.2032 94.8444 35.7421 94.0222 36.431 94.0111L50.5032 93.7611C51.1865 93.75 51.7587 94.5444 51.7754 95.5444Z" fill="#FDFEFF"/>
<path d="M60.1264 88.068C61.4056 88.0401 62.4191 86.9407 62.3902 85.6125C62.3612 84.2842 61.3007 83.23 60.0215 83.2579C58.7423 83.2858 57.7288 84.3852 57.7578 85.7135C57.7867 87.0418 58.8472 88.0959 60.1264 88.068Z" fill="#FDFEFF"/>
<path d="M55.2531 91.9944L55.8587 90.4222L56.5976 91.8778L58.4309 91.7833L57.1642 93.1333L57.5253 94.7722L55.9642 93.9889L54.3976 94.8667L54.8309 93.2556L53.4753 91.9889L55.2531 91.9944Z" fill="#FDFEFF"/>
<path d="M60.2366 94.6444L60.7866 93.0556L61.5755 94.4778L63.4033 94.3111L62.1921 95.7111L62.6088 97.3389L61.0199 96.6111L59.4921 97.5445L59.8644 95.9222L58.4644 94.7056L60.2366 94.6444Z" fill="#FDFEFF"/>
</g>
<defs>
<clipPath id="clip0">
<rect width="204.444" height="235" fill="white" transform="translate(0.777832)"/>
</clipPath>
</defs>
</svg>
