<svg width="337" height="161" viewBox="0 0 337 161" fill="none" xmlns="http://www.w3.org/2000/svg">
<g clip-path="url(#clip0)">
<path d="M225.048 75.9323C225.048 75.9323 312.949 72.2887 314.123 72.175C319.562 71.6372 334.462 75.6596 335.03 89.8855C335.606 104.104 328.44 109.74 318.13 111.353C307.82 112.967 231.631 115.376 228.479 116.186C225.336 116.989 225.048 75.9323 225.048 75.9323Z" fill="#FDFFFF"/>
<path d="M225.048 81.5075C225.048 81.5075 311.418 78.3714 312.57 78.273C317.918 77.8109 332.553 81.2802 333.113 93.5291C333.674 105.778 326.637 110.634 316.509 112.02C306.381 113.406 231.517 115.489 228.419 116.178C225.328 116.875 225.048 81.5075 225.048 81.5075Z" fill="#7E9597"/>
<path d="M225.04 75.8186C225.04 75.8186 226.131 75.7353 228.184 75.5687C230.236 75.4247 233.244 75.2126 237.069 74.9475C240.895 74.6748 245.553 74.4248 250.886 74.0991C256.219 73.7658 262.249 73.4552 268.816 73.1219C275.391 72.8114 282.512 72.4629 290.049 72.1978C297.586 71.9251 305.548 71.7887 313.782 71.5842C314.327 71.5766 314.812 71.5463 315.35 71.5615C315.887 71.6069 316.456 71.6069 316.978 71.7054C318.039 71.8417 319.077 72.069 320.107 72.3568C322.16 72.925 324.159 73.7355 326.015 74.8339C326.493 75.0839 326.939 75.3869 327.379 75.705C327.818 76.0156 328.28 76.3034 328.682 76.667C329.091 77.0231 329.523 77.3564 329.924 77.72L331.053 78.9017C332.469 80.5606 333.643 82.4544 334.363 84.5451L334.514 84.9314L334.613 85.3329L334.817 86.1358C334.939 86.6737 335.128 87.2039 335.158 87.7569C335.28 88.8401 335.439 89.9764 335.408 91.052C335.484 93.2185 335.272 95.4759 334.833 97.6423C334.416 99.8239 333.613 101.975 332.393 103.884C331.181 105.801 329.53 107.444 327.621 108.679C325.72 109.929 323.599 110.8 321.44 111.406C320.349 111.724 319.281 111.936 318.137 112.149C317.046 112.285 315.978 112.459 314.872 112.565L311.577 112.868C310.486 112.951 309.396 113.035 308.312 113.118C306.138 113.292 303.972 113.429 301.813 113.58C293.185 114.133 284.686 114.557 276.467 114.982C272.361 115.201 268.316 115.375 264.362 115.55C260.408 115.732 256.537 115.883 252.765 116.027C249 116.171 245.334 116.315 241.788 116.451C238.251 116.58 234.819 116.701 231.555 116.883C230.744 116.928 229.896 116.966 229.221 117.05L228.956 117.072L228.82 117.087L228.752 117.095C228.646 117.11 228.896 117.072 228.494 117.133C228.434 117.133 228.426 117.14 228.312 117.133C228.1 117.125 227.828 117.034 227.669 116.944C227.57 116.875 227.472 116.8 227.381 116.716C227.297 116.641 227.26 116.58 227.199 116.504C226.805 115.959 226.707 115.55 226.563 115.126C226.085 113.474 225.911 111.944 225.722 110.421C225.373 107.407 225.237 104.551 225.108 101.869C224.889 96.5061 224.798 91.8398 224.79 87.9993L224.904 75.8186H225.04ZM225.169 76.0459C225.184 76.3716 225.229 77.4094 225.305 79.0835C225.396 81.1363 225.525 84.1512 225.737 87.9841C225.957 91.8171 226.176 96.4682 226.623 101.786C226.843 104.445 227.123 107.27 227.509 110.209C227.722 111.664 227.949 113.201 228.381 114.565C228.479 114.883 228.638 115.247 228.729 115.338C228.737 115.338 228.744 115.36 228.737 115.353C228.722 115.33 228.706 115.322 228.684 115.315C228.615 115.262 228.441 115.209 228.32 115.232C228.305 115.239 228.403 115.232 228.434 115.224C228.078 115.277 228.381 115.232 228.32 115.239L228.403 115.224L228.57 115.201L228.903 115.156C229.827 115.012 230.608 114.974 231.441 114.906C238.039 114.398 245.152 114.02 252.689 113.656C256.454 113.459 260.325 113.285 264.279 113.126C268.233 112.967 272.278 112.8 276.384 112.633C284.603 112.323 293.094 111.982 301.722 111.58C303.873 111.482 306.04 111.399 308.206 111.27C309.29 111.209 310.373 111.149 311.464 111.096L314.691 110.868C315.766 110.808 316.865 110.664 317.955 110.565C318.971 110.406 320.061 110.232 321.084 109.974C323.152 109.467 325.167 108.725 326.977 107.619C328.78 106.52 330.356 105.051 331.545 103.301C332.734 101.551 333.568 99.5437 334.022 97.4529C334.469 95.3395 334.696 93.2337 334.651 91.052C334.696 89.9537 334.545 88.931 334.446 87.8554C334.431 87.3175 334.242 86.8176 334.136 86.2949L333.954 85.5223L333.863 85.1359L333.719 84.7648L333.143 83.2876C332.946 82.7952 332.636 82.3635 332.386 81.9014L331.992 81.2196L331.515 80.5909C331.181 80.1819 330.909 79.7274 330.53 79.3638C329.151 77.7806 327.424 76.5383 325.621 75.5232C323.811 74.5082 321.857 73.7582 319.864 73.2961C318.872 73.0613 317.865 72.8871 316.865 72.7886C316.357 72.7129 315.887 72.7432 315.395 72.7129C314.903 72.7204 314.357 72.7659 313.872 72.7886C305.661 73.2734 297.73 73.8113 290.193 74.1749C282.663 74.546 275.535 74.796 268.953 75.0384C262.37 75.2581 256.34 75.4626 250.992 75.5762C245.644 75.6974 240.978 75.8489 237.137 75.8944C233.297 75.9474 230.274 75.9929 228.214 76.0232C226.525 76.0383 225.487 76.0459 225.169 76.0459Z" fill="#050505"/>
<path d="M299.995 71.2357C297.094 73.3946 295.352 86.3479 295.556 91.5293C295.867 99.4982 299.018 107.952 304.086 113.853C310.479 114.383 319.486 114.61 325.228 110.959C330.811 107.407 335.295 103.392 335.848 95.4228C337.446 72.1978 315.342 68.2815 299.995 71.2357C299.639 71.3721 299.541 70.9857 299.995 71.2357Z" fill="#FDFFFF"/>
<path d="M336.598 88.9234C336.598 88.9234 336.568 88.9007 336.507 88.8553C336.454 88.8098 336.363 88.7416 336.166 88.6129C335.81 88.378 335.394 88.1508 334.826 87.9084C333.712 87.4236 332.159 86.916 330.273 86.4237C328.394 85.9313 326.19 85.4616 323.811 85.0602C322.622 84.8632 321.387 84.6814 320.107 84.5602C318.804 84.4769 317.577 84.4011 316.289 84.3633C315.002 84.3633 313.714 84.3026 312.456 84.3557C311.199 84.386 309.964 84.4087 308.767 84.4996C308.169 84.5375 307.586 84.5678 307.01 84.6057C306.434 84.6587 305.874 84.7117 305.328 84.7572C304.238 84.8481 303.207 84.9693 302.26 85.098C301.314 85.2041 300.442 85.3404 299.677 85.4768C298.912 85.6056 298.246 85.704 297.7 85.8328C296.609 86.0676 295.988 86.204 295.988 86.204C295.988 86.204 296.617 86.1055 297.715 85.9389C298.261 85.8404 298.935 85.7874 299.708 85.704C300.473 85.6131 301.344 85.5374 302.298 85.4844C303.245 85.4162 304.275 85.3556 305.366 85.3404C305.912 85.3253 306.472 85.3101 307.04 85.295C307.608 85.295 308.199 85.295 308.79 85.3026C309.979 85.2874 311.207 85.3404 312.449 85.3859C313.699 85.4086 314.941 85.545 316.199 85.6283C317.441 85.7419 318.751 85.9086 319.941 86.0601C321.145 86.2494 322.342 86.4994 323.486 86.7645C325.781 87.2948 327.91 87.8932 329.69 88.4765C331.47 89.0598 332.917 89.6355 333.818 90.1051C334.265 90.3324 334.606 90.5521 334.735 90.6581C334.788 90.6884 334.879 90.7717 334.939 90.8248C335 90.8778 335.03 90.9005 335.03 90.9005L336.598 88.9234Z" fill="#7E9597"/>
<path d="M331.341 79.3183C331.341 79.3183 329 78.4093 330.924 78.1972C330.894 78.182 330.651 77.9699 330.606 77.9396C330.538 77.9093 328.674 77.7881 330.606 77.9396C330.257 77.773 331.091 77.8033 330.576 77.6518C329.545 77.3488 328.553 77.0685 326.856 76.8185C325.159 76.5686 323.182 76.3565 321.061 76.2125C320.001 76.1444 318.902 76.0913 317.766 76.0913C316.622 76.1292 315.532 76.1368 314.395 76.205C313.259 76.2883 312.123 76.3337 311.024 76.4625C309.918 76.5686 308.828 76.6746 307.782 76.8261C306.729 76.9549 305.722 77.0988 304.767 77.2655C303.813 77.4094 302.912 77.576 302.078 77.7351C301.245 77.8866 300.488 78.0457 299.821 78.2048C299.154 78.3563 298.571 78.4775 298.094 78.6214C297.147 78.8789 296.602 79.0229 296.602 79.0229C296.602 79.0229 297.155 78.9168 298.117 78.7274C298.594 78.6214 299.185 78.5381 299.859 78.4396C300.533 78.326 301.298 78.2199 302.131 78.129C302.965 78.023 303.866 77.9245 304.828 77.8487C305.782 77.7503 306.798 77.6745 307.843 77.6215C308.888 77.5457 309.971 77.5154 311.07 77.4851C312.168 77.4321 313.282 77.47 314.388 77.4624C315.494 77.47 316.645 77.5382 317.713 77.5836C318.789 77.6594 319.857 77.7881 320.887 77.9245C322.948 78.2123 324.864 78.5532 326.485 78.9092C328.099 79.2653 329.417 79.6289 330.257 79.947C330.666 80.0985 330.992 80.2576 331.113 80.3258C331.144 80.3409 331.166 80.3561 331.189 80.3712C331.235 80.4015 331.265 80.4242 331.295 80.4394C331.348 80.4773 331.379 80.5 331.379 80.5L331.341 79.3183Z" fill="#7E9597"/>
<path d="M335.583 98.5362C335.583 98.5362 335.552 98.5134 335.492 98.468C335.439 98.4225 335.355 98.3544 335.166 98.2256C334.818 97.9832 334.408 97.7635 333.863 97.5135C332.787 97.0212 331.272 96.5136 329.439 96.0213C327.614 95.5289 325.47 95.0517 323.16 94.6426C322.001 94.4456 320.804 94.2563 319.561 94.1351C318.296 94.0442 317.1 93.9684 315.842 93.923C314.592 93.923 313.335 93.8548 312.108 93.9078C310.88 93.9381 309.676 93.9533 308.517 94.0442C307.35 94.1048 306.229 94.1805 305.169 94.2941C304.108 94.3775 303.101 94.4987 302.184 94.6275C301.26 94.7335 300.419 94.8623 299.677 94.9986C298.935 95.1274 298.283 95.2259 297.753 95.3547C296.692 95.5895 296.086 95.7183 296.086 95.7183C296.086 95.7183 296.7 95.6274 297.768 95.4607C298.298 95.3622 298.957 95.3092 299.707 95.2335C300.457 95.1426 301.298 95.0668 302.222 95.0214C303.146 94.9532 304.146 94.9001 305.207 94.8774C306.267 94.832 307.381 94.8244 308.54 94.8396C309.691 94.8244 310.888 94.885 312.1 94.9305C313.312 94.9532 314.524 95.0971 315.744 95.1804C316.956 95.3016 318.228 95.4683 319.38 95.6198C320.554 95.8092 321.713 96.0667 322.826 96.3318C325.053 96.8697 327.121 97.4681 328.841 98.0589C330.568 98.6422 331.962 99.2179 332.833 99.6876C333.265 99.9148 333.59 100.135 333.712 100.233C333.765 100.263 333.848 100.347 333.909 100.4C333.962 100.453 333.992 100.475 333.992 100.475L335.583 98.5362Z" fill="#7E9597"/>
<path d="M329.924 107.331C329.924 107.331 329.902 107.308 329.856 107.27C329.811 107.232 329.758 107.172 329.599 107.043C329.303 106.801 328.978 106.596 328.531 106.346C327.652 105.869 326.41 105.354 324.917 104.861C323.418 104.361 321.668 103.869 319.766 103.437C318.812 103.225 317.827 103.021 316.797 102.869C315.729 102.74 314.759 102.657 313.721 102.574C312.684 102.536 311.638 102.445 310.623 102.46C309.608 102.46 308.608 102.437 307.646 102.49C306.684 102.513 305.753 102.559 304.866 102.634C303.988 102.687 303.154 102.771 302.389 102.862C301.624 102.937 300.92 103.036 300.306 103.142C299.685 103.24 299.147 103.308 298.708 103.414C297.829 103.604 297.329 103.71 297.329 103.71C297.329 103.71 297.837 103.642 298.723 103.528C299.162 103.46 299.708 103.43 300.329 103.377C300.95 103.316 301.647 103.278 302.412 103.263C303.177 103.225 304.003 103.21 304.881 103.225C305.76 103.218 306.684 103.248 307.631 103.293C308.586 103.316 309.57 103.415 310.563 103.49C311.563 103.558 312.555 103.725 313.555 103.831C314.547 103.99 315.608 104.172 316.532 104.354C317.486 104.566 318.426 104.839 319.327 105.111C321.137 105.672 322.796 106.278 324.183 106.861C325.569 107.437 326.667 108.005 327.334 108.437C327.66 108.641 327.917 108.853 327.985 108.922C328.016 108.944 328.091 109.02 328.129 109.065C328.175 109.111 328.197 109.134 328.197 109.134L329.924 107.331Z" fill="#7E9597"/>
<path d="M299.366 72.3568C296.465 74.5157 295.39 86.6358 295.594 91.8171C295.905 99.786 298.223 107.202 303.29 113.111C309.684 113.641 319.486 114.61 325.228 110.959C330.81 107.407 335.295 103.392 335.848 95.4228C337.446 72.2053 314.676 69.1223 299.329 72.0765C298.973 72.2129 299.192 72.0841 299.647 72.3341" stroke="#020202" stroke-width="2" stroke-miterlimit="10"/>
<path d="M288.011 73.1143C288.011 73.1143 287.799 73.3643 287.428 73.7961C287.238 74.0158 287.125 74.243 286.92 74.5233C286.723 74.7884 286.534 75.1975 286.307 75.5838C286.095 75.9929 285.89 76.4549 285.67 76.9473C285.481 77.4548 285.246 77.9775 285.08 78.5456C284.883 79.1062 284.708 79.697 284.549 80.3106C284.368 80.9166 284.261 81.5454 284.118 82.1741C284.019 82.8104 283.875 83.4391 283.815 84.0678C283.731 84.6966 283.663 85.3177 283.633 85.9237C283.572 86.5297 283.595 87.113 283.58 87.666C283.595 88.219 283.618 88.7492 283.656 89.2264C283.724 89.7037 283.746 90.1582 283.845 90.5369C283.936 90.9157 283.989 91.2641 284.08 91.5368C284.269 92.0747 284.375 92.3852 284.375 92.3852C284.375 92.3852 284.231 92.0898 283.981 91.5747C283.852 91.3172 283.762 90.9763 283.625 90.5975C283.481 90.2188 283.413 89.7718 283.284 89.287C283.186 88.8022 283.103 88.272 283.019 87.7039C282.974 87.1357 282.883 86.5373 282.868 85.9162C282.83 85.295 282.822 84.6511 282.837 83.9921C282.83 83.3331 282.898 82.674 282.928 82.0074C283.004 81.3484 283.042 80.6742 283.156 80.0228C283.246 79.3713 283.36 78.7274 283.496 78.1063C283.61 77.4851 283.792 76.8943 283.936 76.3262C284.11 75.7656 284.277 75.2353 284.458 74.7505C284.671 74.2657 284.814 73.834 285.042 73.4173C285.254 73.0234 285.451 72.622 285.61 72.3871C285.928 71.9099 286.11 71.6372 286.11 71.6372L288.011 73.1143Z" fill="#050505"/>
<path d="M271.468 74.6521C271.468 74.6521 271.256 74.902 270.884 75.3338C270.695 75.5535 270.581 75.7808 270.377 76.061C270.18 76.3262 269.991 76.7352 269.763 77.1215C269.551 77.5306 269.347 77.9927 269.127 78.485C268.938 78.9926 268.703 79.5152 268.536 80.0834C268.339 80.6439 268.165 81.2348 268.006 81.8484C267.824 82.4544 267.718 83.0831 267.574 83.7118C267.476 84.3481 267.332 84.9768 267.271 85.6056C267.188 86.2343 267.12 86.8555 267.089 87.4615C267.029 88.0675 267.051 88.6507 267.036 89.2037C267.051 89.7567 267.074 90.2869 267.112 90.7642C267.18 91.2414 267.203 91.6959 267.301 92.0747C267.392 92.4534 267.445 92.8019 267.536 93.0746C267.726 93.6124 267.832 93.923 267.832 93.923C267.832 93.923 267.688 93.6275 267.438 93.1124C267.309 92.8549 267.218 92.514 267.082 92.1353C266.938 91.7565 266.87 91.3096 266.741 90.8248C266.642 90.34 266.559 89.8097 266.476 89.2416C266.43 88.6735 266.339 88.075 266.324 87.4539C266.286 86.8327 266.279 86.1889 266.294 85.5298C266.286 84.8708 266.355 84.2118 266.385 83.5452C266.461 82.8861 266.498 82.212 266.612 81.5605C266.703 80.9091 266.817 80.2652 266.953 79.644C267.067 79.0229 267.248 78.432 267.392 77.8639C267.567 77.3033 267.733 76.7731 267.915 76.2883C268.127 75.8035 268.271 75.3717 268.498 74.9551C268.71 74.5612 268.907 74.1597 269.066 73.9249C269.385 73.4476 269.566 73.1749 269.566 73.1749L271.468 74.6521Z" fill="#050505"/>
<path d="M49.4353 110.073C42.8601 108.778 37.6485 119.663 35.7093 125.344C33.0808 133.048 32.8914 141.108 34.8609 148.91C36.9365 157.106 42.845 161.651 49.8898 159.22C56.5104 156.94 58.5253 149.486 60.1085 142.434C62.631 131.245 60.6842 112.292 48.6929 109.899" fill="#FDFFFF"/>
<path d="M41.7618 158.879C41.6936 158.879 41.9057 158.659 41.8299 158.682C41.8072 158.69 42.4738 158.25 42.4511 158.265C42.4132 158.288 42.4284 158.281 42.4208 158.288C42.4662 158.273 42.7995 158.038 43.0419 157.887C43.3298 157.667 43.7313 157.402 44.0949 157.084C44.2691 156.932 44.4585 156.773 44.6554 156.606C44.86 156.402 45.1024 156.175 45.3069 155.955C45.6781 155.531 46.1023 154.993 46.534 154.364C46.9355 153.789 47.4052 153.054 47.8369 152.364C48.2384 151.652 48.6702 150.925 49.0641 150.122C49.4732 149.342 49.8746 148.516 50.2761 147.706C50.6549 146.895 51.0791 146.062 51.4124 145.244C51.5866 144.835 51.7684 144.433 51.9275 144.024C52.0865 143.615 52.238 143.206 52.3895 142.805C52.6925 142.009 52.9274 141.191 53.1698 140.456C53.3743 139.676 53.5107 138.957 53.6091 138.26C53.7152 137.57 53.7758 136.926 53.844 136.358C53.9046 135.79 53.9727 135.29 54.0333 134.889C54.1015 134.48 54.1545 134.162 54.2151 133.949C54.2682 133.737 54.2985 133.624 54.2985 133.624C54.2985 133.624 54.2757 133.737 54.2379 133.957C54.1924 134.169 54.1545 134.495 54.1167 134.896C54.0788 135.305 54.0485 135.805 54.0182 136.373C53.9803 136.949 53.9576 137.593 53.897 138.298C53.8515 139.002 53.7455 139.797 53.5864 140.57C53.3819 141.373 53.1925 142.191 52.9349 143.032C52.8062 143.449 52.6698 143.88 52.541 144.312C52.3971 144.744 52.238 145.168 52.0865 145.6C51.7835 146.486 51.4275 147.304 51.0866 148.183C50.7306 149.031 50.3822 149.887 50.011 150.721C49.6625 151.554 49.2459 152.372 48.8596 153.167C48.443 153.94 48.0793 154.614 47.64 155.334C47.2385 156 46.8143 156.637 46.3522 157.235C46.1326 157.508 45.928 157.728 45.7235 157.955C45.4508 158.235 45.269 158.409 45.0569 158.621C44.6479 159.03 44.307 159.28 44.0191 159.538C43.6555 159.811 43.5873 159.697 43.504 159.727C43.2389 159.523 42.6783 159.356 42.5723 159.25C42.3753 159.068 41.7921 159 41.7996 158.955C41.8299 158.826 41.8451 158.758 41.8451 158.758" fill="#7E9597"/>
<path d="M51.8213 157.712C51.7607 157.728 51.8895 157.485 51.8364 157.523C51.8213 157.538 52.2758 156.978 52.2606 156.985C52.2303 157.015 52.2455 157 52.2379 157.008C52.2758 156.978 52.4955 156.69 52.6621 156.485C52.8515 156.213 53.1318 155.872 53.359 155.5C53.4727 155.319 53.5939 155.129 53.7151 154.932C53.8363 154.698 53.9878 154.44 54.109 154.19C54.3211 153.72 54.5559 153.145 54.7756 152.486C54.9801 151.88 55.2073 151.13 55.4043 150.418C55.5785 149.698 55.7679 148.956 55.9194 148.16C56.086 147.38 56.23 146.57 56.3815 145.759C56.5102 144.964 56.6769 144.13 56.7678 143.343C56.8208 142.941 56.8814 142.547 56.9193 142.161C56.9572 141.767 56.995 141.373 57.0253 140.994C57.1011 140.229 57.1087 139.472 57.139 138.782C57.1314 138.055 57.0859 137.411 57.0026 136.798C56.9269 136.184 56.836 135.616 56.7602 135.116C56.6845 134.616 56.6239 134.177 56.5784 133.813C56.5405 133.45 56.5102 133.162 56.5178 132.965C56.5102 132.768 56.5102 132.669 56.5102 132.669C56.5102 132.669 56.5178 132.775 56.533 132.965C56.5405 133.162 56.586 133.442 56.6466 133.798C56.7072 134.154 56.7981 134.586 56.9041 135.078C57.0102 135.571 57.1314 136.131 57.245 136.745C57.3662 137.358 57.4647 138.055 57.5101 138.76C57.5177 139.494 57.5556 140.244 57.5253 141.032C57.5101 141.426 57.5026 141.828 57.4874 142.229C57.4647 142.63 57.4344 143.04 57.4041 143.456C57.3586 144.297 57.245 145.092 57.1617 145.933C57.0556 146.759 56.9647 147.577 56.8435 148.395C56.7451 149.206 56.586 150.016 56.4421 150.804C56.2754 151.577 56.1163 152.258 55.9194 152.993C55.7376 153.675 55.5331 154.334 55.2755 154.978C55.1543 155.273 55.0331 155.516 54.9195 155.773C54.7528 156.091 54.6392 156.288 54.5104 156.531C54.2605 156.993 54.0332 157.303 53.8514 157.606C53.609 157.947 53.5257 157.864 53.4651 157.917C53.1924 157.826 52.6848 157.841 52.5788 157.781C52.3667 157.682 51.8667 157.796 51.8592 157.758C51.8516 157.637 51.8516 157.576 51.8516 157.576" fill="#7E9597"/>
<path d="M35.5955 151.501C35.5577 151.296 35.6107 151.236 35.5425 151.243C35.5198 151.243 35.8304 151.16 35.8076 151.16C35.7698 151.168 35.7849 151.168 35.7698 151.175C35.8152 151.168 36.1637 151.008 36.4136 150.902C36.7166 150.743 37.1408 150.569 37.5272 150.327C37.7165 150.213 37.9135 150.099 38.1256 149.971C38.3528 149.812 38.6104 149.645 38.8376 149.463C39.2543 149.13 39.7239 148.691 40.2239 148.168C40.686 147.691 41.2314 147.077 41.7389 146.494C42.2161 145.888 42.7312 145.274 43.216 144.577C43.716 143.903 44.2084 143.191 44.7007 142.487C45.1704 141.782 45.6855 141.062 46.1173 140.343C46.3369 139.979 46.5642 139.631 46.7763 139.267C46.9808 138.904 47.1853 138.54 47.3823 138.184C47.7838 137.479 48.1171 136.737 48.4504 136.086C48.7534 135.374 48.9806 134.715 49.1624 134.063C49.3518 133.419 49.5033 132.813 49.6472 132.283C49.7836 131.753 49.9124 131.283 50.026 130.904C50.1396 130.526 50.2381 130.23 50.3214 130.041C50.3972 129.844 50.4426 129.745 50.4426 129.745C50.4426 129.745 50.4047 129.851 50.3366 130.048C50.2608 130.245 50.1851 130.548 50.0942 130.927C50.0033 131.313 49.9048 131.783 49.7987 132.328C49.6851 132.874 49.5715 133.487 49.42 134.154C49.2761 134.821 49.0715 135.563 48.814 136.275C48.511 137.002 48.2231 137.752 47.8519 138.51C47.6701 138.888 47.4883 139.267 47.299 139.661C47.1096 140.047 46.8975 140.426 46.693 140.812C46.2839 141.608 45.837 142.32 45.3901 143.1C44.9356 143.85 44.4886 144.6 44.019 145.327C43.572 146.062 43.0645 146.766 42.5873 147.456C42.0873 148.122 41.6404 148.698 41.1329 149.304C40.6632 149.865 40.1709 150.402 39.6406 150.887C39.3906 151.107 39.1634 151.281 38.9437 151.463C38.6483 151.683 38.4513 151.811 38.2165 151.971C37.7696 152.281 37.4135 152.463 37.103 152.652C36.7242 152.849 36.5197 153.114 36.4364 153.129C36.2091 152.887 35.9137 152.213 35.8304 152.092C35.7167 151.774 35.5728 151.493 35.588 151.455C35.6334 151.334 35.5122 151.243 35.5122 151.243" fill="#7E9597"/>
<path d="M33.5352 141.396C33.5125 141.214 33.5655 141.161 33.4974 141.168C33.4746 141.168 33.7625 141.115 33.7474 141.115C33.7095 141.123 33.7246 141.123 33.717 141.123C33.7625 141.123 34.0807 141.002 34.3155 140.926C34.5958 140.805 34.9897 140.684 35.3533 140.502C35.5275 140.419 35.7169 140.328 35.9138 140.237C36.1259 140.116 36.3683 139.987 36.588 139.843C36.9819 139.578 37.4364 139.229 37.9212 138.813C38.3681 138.434 38.8984 137.934 39.3908 137.457C39.8604 136.957 40.3604 136.457 40.8452 135.889C41.3375 135.336 41.8223 134.752 42.3147 134.169C42.7768 133.586 43.2919 132.995 43.7237 132.397C43.9434 132.094 44.1706 131.806 44.3827 131.51C44.5872 131.207 44.7918 130.904 44.9963 130.609C45.3978 130.018 45.7462 129.404 46.0871 128.851C46.4052 128.253 46.6476 127.692 46.8597 127.14C47.0718 126.594 47.2461 126.079 47.4051 125.625C47.5642 125.17 47.7081 124.776 47.8293 124.45C47.9581 124.132 48.0642 123.882 48.1551 123.723C48.2384 123.557 48.2838 123.473 48.2838 123.473C48.2838 123.473 48.246 123.564 48.1702 123.731C48.0869 123.897 48.0036 124.155 47.8975 124.481C47.7915 124.806 47.6778 125.215 47.5491 125.678C47.4127 126.14 47.2764 126.67 47.0946 127.238C46.9279 127.806 46.6931 128.435 46.4204 129.041C46.1022 129.654 45.7917 130.291 45.4205 130.919C45.2311 131.238 45.0417 131.556 44.8524 131.882C44.6554 132.2 44.4433 132.518 44.2312 132.844C43.8146 133.503 43.3676 134.101 42.9131 134.745C42.4586 135.366 42.0117 135.987 41.5421 136.593C41.0951 137.207 40.5952 137.782 40.1255 138.351C39.6332 138.896 39.2014 139.366 38.7014 139.858C38.2393 140.313 37.7621 140.744 37.2622 141.138C37.0198 141.312 36.8077 141.449 36.5956 141.593C36.3153 141.767 36.1259 141.865 35.9062 141.987C35.482 142.229 35.1487 142.358 34.8609 142.509C34.5049 142.653 34.3003 142.873 34.2322 142.88C34.0428 142.653 33.8155 142.047 33.7474 141.934C33.664 141.653 33.5504 141.396 33.5655 141.358C33.611 141.259 33.5125 141.168 33.5125 141.168" fill="#7E9597"/>
<path d="M49.4201 110.179C49.4201 110.179 49.2989 110.171 49.064 110.156C48.8216 110.134 48.4883 110.141 48.0565 110.202C47.1854 110.308 45.928 110.717 44.6705 111.77C43.3979 112.8 42.1101 114.36 40.8906 116.338C39.6861 118.315 38.5044 120.693 37.4818 123.375C37.2167 124.041 36.9667 124.731 36.7319 125.435C36.5273 126.079 36.3077 126.89 36.088 127.632C35.8456 128.397 35.6865 129.147 35.5199 129.912C35.3456 130.677 35.1638 131.45 35.0502 132.268C34.7472 133.881 34.5806 135.555 34.4063 137.282C34.376 138.146 34.3381 139.025 34.3078 139.903C34.3306 140.79 34.3609 141.684 34.3836 142.585C34.4291 143.486 34.5578 144.395 34.6412 145.312C34.7169 146.236 34.9517 147.13 35.1108 148.054L35.2396 148.744C35.285 148.948 35.3532 149.198 35.4138 149.418C35.5426 149.872 35.6638 150.342 35.8304 150.766C36.1334 151.637 36.497 152.516 36.9591 153.334C37.8605 154.985 39.0953 156.478 40.6179 157.568C42.148 158.652 43.9963 159.197 45.8219 159.212C46.2764 159.235 46.7385 159.144 47.193 159.121C47.6399 159.03 48.0944 158.947 48.5338 158.826C48.9504 158.674 49.4428 158.546 49.7988 158.379C50.223 158.167 50.7381 157.993 51.0638 157.75C52.5637 156.894 53.8969 155.584 54.8514 154.076C56.8057 151.031 57.7677 147.395 58.5631 143.88C58.6616 143.433 58.7525 142.994 58.851 142.555C58.9419 142.115 59.0328 141.684 59.1161 141.244C59.2752 140.396 59.4115 139.555 59.5176 138.699C59.7145 136.995 59.8357 135.321 59.8812 133.684C59.9418 130.412 59.7221 127.299 59.1843 124.503C58.6692 121.701 57.8586 119.201 56.8284 117.148C55.821 115.072 54.4953 113.542 53.2682 112.444C52.0107 111.376 50.8214 110.77 49.9806 110.452C49.5716 110.262 49.2307 110.187 49.011 110.103C48.7838 110.028 48.6701 109.99 48.6701 109.99L48.7156 109.77C48.7156 109.77 48.8368 109.793 49.0716 109.831C49.3064 109.884 49.67 109.906 50.117 110.035C51.026 110.247 52.3364 110.732 53.8211 111.717C55.2831 112.717 56.836 114.307 58.1162 116.421C59.4343 118.519 60.4493 121.14 61.1689 124.072C61.8734 127.003 62.2598 130.26 62.2522 133.707C62.2598 135.427 62.1613 137.199 61.9264 139.002C61.8128 139.896 61.6613 140.82 61.4871 141.737L61.3507 142.396L61.1917 143.077C61.078 143.524 60.972 143.971 60.8584 144.418C60.4039 146.213 59.8888 148.047 59.2146 149.872C58.5328 151.69 57.6996 153.531 56.5103 155.205C55.3134 156.879 53.7454 158.318 51.8062 159.28C51.3062 159.561 50.8745 159.659 50.4124 159.841C49.867 160.038 49.3898 160.114 48.8822 160.25C48.3747 160.341 47.852 160.402 47.3369 160.462C46.8142 160.455 46.2991 160.508 45.7765 160.447C43.7085 160.295 41.6859 159.515 40.1179 158.243C38.5196 156.993 37.2848 155.379 36.3531 153.66C35.891 152.796 35.482 151.91 35.1487 150.986C34.9593 150.524 34.8381 150.069 34.7018 149.615L34.4897 148.925L34.323 148.228C34.1109 147.304 33.8382 146.388 33.6715 145.464C33.5049 144.539 33.3004 143.623 33.1716 142.699C32.6338 139.017 32.5807 135.358 33.0807 131.95C33.6034 128.495 34.52 125.405 35.6865 122.64C36.8682 119.89 38.1938 117.474 39.6255 115.489C41.0421 113.497 42.5874 111.936 44.11 110.982C45.625 110.005 47.0794 109.709 48.0262 109.732C48.5035 109.747 48.8822 109.8 49.1019 109.861C49.3367 109.914 49.4504 109.937 49.4504 109.937L49.4201 110.179Z" fill="#050505"/>
<path d="M36.6714 102.627C28.8767 97.7332 17.3854 107.088 12.3858 112.383C5.59861 119.564 1.75807 128.42 0.788463 138.123C-0.234167 148.319 5.26531 156.47 15.3098 157.47C24.7559 158.409 30.6417 151.19 35.8154 144.191C44.0192 133.078 50.0111 111.012 35.8154 102.059" fill="#FDFFFF"/>
<path d="M5.10627 152.819C5.02294 152.781 5.38654 152.652 5.28807 152.637C5.25777 152.63 6.29555 152.501 6.26525 152.501C6.20465 152.501 6.22737 152.501 6.21222 152.501C6.2804 152.508 6.80308 152.425 7.18183 152.38C7.64391 152.281 8.28021 152.205 8.87864 152.039C9.16649 151.963 9.47707 151.887 9.80279 151.796C10.1588 151.675 10.5603 151.554 10.9239 151.41C11.5905 151.137 12.3632 150.766 13.204 150.289C13.9691 149.865 14.8932 149.297 15.7492 148.751C16.5825 148.168 17.4536 147.592 18.3171 146.91C19.1883 146.259 20.0594 145.554 20.9381 144.858C21.7789 144.153 22.6955 143.449 23.4833 142.721C23.8848 142.358 24.3014 142.002 24.6877 141.638C25.0741 141.259 25.4452 140.888 25.824 140.525C26.5664 139.797 27.233 139.017 27.8693 138.328C28.4828 137.563 28.9752 136.843 29.407 136.116C29.8464 135.404 30.2175 134.722 30.5584 134.124C30.8917 133.525 31.1947 133.003 31.4523 132.586C31.7174 132.169 31.9295 131.844 32.0961 131.639C32.2552 131.435 32.3461 131.321 32.3461 131.321C32.3461 131.321 32.2704 131.435 32.1189 131.654C31.9598 131.866 31.778 132.207 31.5432 132.639C31.3159 133.078 31.0508 133.609 30.7554 134.23C30.4599 134.851 30.1342 135.555 29.7403 136.305C29.3615 137.063 28.8767 137.888 28.3313 138.669C27.7102 139.449 27.1118 140.267 26.3997 141.062C26.0437 141.464 25.6877 141.865 25.324 142.274C24.9529 142.676 24.559 143.07 24.1726 143.471C23.3924 144.297 22.5743 145.017 21.7486 145.812C20.9154 146.569 20.0973 147.335 19.2489 148.062C18.4308 148.804 17.5369 149.501 16.6961 150.183C15.825 150.827 15.0523 151.38 14.1812 151.948C13.3782 152.478 12.5525 152.963 11.689 153.387C11.2799 153.576 10.9239 153.705 10.5679 153.864C10.0982 154.031 9.78764 154.129 9.41647 154.251C8.71199 154.485 8.17416 154.591 7.68936 154.728C7.10608 154.841 7.0682 154.675 6.947 154.667C6.69703 154.304 6.06072 153.819 5.9774 153.652C5.80317 153.349 5.09112 152.963 5.12142 152.917C5.21989 152.789 5.26534 152.72 5.26534 152.72" fill="#7E9597"/>
<path d="M18.4382 156.811C18.3548 156.796 18.6275 156.591 18.5442 156.606C18.5139 156.606 19.3472 156.228 19.3244 156.235C19.2714 156.25 19.2941 156.243 19.279 156.25C19.3396 156.235 19.7486 156.031 20.0516 155.894C20.4152 155.69 20.9228 155.463 21.3773 155.167C21.5969 155.031 21.8393 154.879 22.0893 154.728C22.3544 154.531 22.6574 154.326 22.9226 154.107C23.4074 153.698 23.9528 153.183 24.5285 152.561C25.0587 152.001 25.6799 151.274 26.2556 150.592C26.801 149.88 27.3767 149.16 27.9145 148.357C28.4751 147.577 29.0205 146.751 29.5735 145.933C30.0886 145.115 30.6718 144.282 31.1415 143.456C31.3839 143.04 31.6339 142.638 31.8687 142.221C32.0884 141.805 32.3081 141.388 32.5277 140.979C32.9595 140.169 33.3155 139.328 33.664 138.578C33.9821 137.767 34.2018 137.025 34.376 136.298C34.5578 135.578 34.6942 134.896 34.823 134.306C34.9517 133.707 35.0654 133.184 35.1714 132.76C35.285 132.336 35.3759 132.003 35.4668 131.791C35.5502 131.571 35.588 131.457 35.588 131.457C35.588 131.457 35.5502 131.579 35.4896 131.798C35.4138 132.018 35.3456 132.359 35.2623 132.783C35.1866 133.215 35.1032 133.737 35.0199 134.343C34.929 134.949 34.8457 135.631 34.7093 136.373C34.5881 137.116 34.3988 137.949 34.1412 138.752C33.8231 139.578 33.5352 140.426 33.1489 141.29C32.9595 141.721 32.7626 142.161 32.5656 142.6C32.3611 143.04 32.1338 143.471 31.9141 143.918C31.4748 144.82 30.9824 145.653 30.4976 146.539C29.9977 147.403 29.5129 148.266 28.9978 149.107C28.5054 149.956 27.9448 150.774 27.4146 151.569C26.854 152.342 26.3541 153.016 25.7708 153.728C25.2405 154.387 24.6724 155.016 24.0664 155.599C23.7786 155.864 23.5134 156.069 23.2559 156.296C22.9074 156.561 22.6726 156.72 22.3999 156.925C21.8772 157.311 21.453 157.531 21.0818 157.773C20.6273 158.023 20.5516 157.887 20.4531 157.917C20.1501 157.674 19.4987 157.417 19.385 157.296C19.1578 157.076 18.476 156.94 18.4836 156.894C18.5291 156.758 18.5518 156.69 18.5518 156.69" fill="#7E9597"/>
<path d="M0.553711 141.388C0.599161 141.138 0.690062 141.1 0.599161 141.07C0.568861 141.062 1.00821 141.123 0.977913 141.123C0.917313 141.115 0.940038 141.115 0.924888 141.115C0.993063 141.131 1.50059 141.138 1.86419 141.153C2.3187 141.138 2.93985 141.161 3.5307 141.1C3.81855 141.078 4.12913 141.047 4.44728 141.025C4.80331 140.964 5.21236 140.919 5.57596 140.835C6.25014 140.676 7.0531 140.449 7.92423 140.131C8.72718 139.843 9.69678 139.449 10.5982 139.07C11.4845 138.646 12.4011 138.229 13.3328 137.714C14.2645 137.229 15.2114 136.699 16.1583 136.177C17.0673 135.639 18.0521 135.108 18.9232 134.54C19.3625 134.252 19.817 133.987 20.2412 133.692C20.6654 133.397 21.0821 133.101 21.4987 132.806C22.3244 132.23 23.0819 131.586 23.7939 131.033C24.4984 130.404 25.0817 129.791 25.6044 129.162C26.1346 128.548 26.5967 127.958 27.0133 127.443C27.43 126.92 27.8011 126.473 28.1117 126.109C28.4299 125.753 28.6798 125.473 28.8768 125.306C29.0662 125.132 29.1646 125.041 29.1646 125.041C29.1646 125.041 29.0737 125.14 28.8995 125.329C28.7177 125.503 28.4829 125.799 28.195 126.177C27.9072 126.556 27.5739 127.026 27.1951 127.579C26.8088 128.124 26.3922 128.745 25.8998 129.404C25.4226 130.071 24.8241 130.783 24.1803 131.442C23.4682 132.086 22.7637 132.775 21.9608 133.419C21.5593 133.745 21.1578 134.071 20.7488 134.404C20.3321 134.73 19.8928 135.04 19.461 135.366C18.5899 136.033 17.696 136.593 16.7794 137.222C15.8704 137.813 14.9614 138.411 14.0449 138.979C13.1434 139.563 12.189 140.078 11.2724 140.593C10.3407 141.07 9.51498 141.471 8.5984 141.881C7.75 142.259 6.88645 142.593 6.00017 142.858C5.58354 142.971 5.21994 143.04 4.85633 143.13C4.37911 143.214 4.06853 143.259 3.70493 143.312C3.00045 143.426 2.46262 143.433 1.98539 143.486C1.40969 143.502 1.03094 143.691 0.924888 143.668C0.743087 143.282 0.667337 142.373 0.614311 142.199C0.614311 141.79 0.561286 141.396 0.591586 141.358C0.705212 141.252 0.591586 141.085 0.591586 141.085" fill="#7E9597"/>
<path d="M2.4397 129.079C2.49273 128.867 2.58363 128.836 2.5003 128.806C2.47758 128.798 2.86391 128.882 2.84118 128.874C2.78816 128.859 2.81088 128.867 2.79573 128.867C2.85633 128.889 3.31083 128.927 3.64414 128.965C4.06076 128.98 4.61374 129.048 5.15157 129.041C5.41669 129.041 5.6894 129.041 5.98482 129.041C6.31055 129.011 6.68173 129.003 7.01503 128.958C7.63618 128.867 8.37096 128.723 9.17391 128.511C9.90869 128.321 10.8101 128.049 11.6434 127.776C12.4615 127.473 13.3175 127.177 14.1886 126.799C15.0597 126.443 15.9384 126.049 16.8247 125.662C17.6807 125.261 18.5973 124.875 19.4078 124.435C19.8244 124.216 20.241 124.019 20.6501 123.791C21.0516 123.564 21.4455 123.337 21.8318 123.11C22.6045 122.67 23.3317 122.163 24.0058 121.731C24.68 121.231 25.2406 120.739 25.7481 120.231C26.2632 119.739 26.7101 119.254 27.1192 118.83C27.5207 118.406 27.8843 118.042 28.1873 117.754C28.4978 117.466 28.7402 117.239 28.922 117.11C29.1038 116.974 29.1947 116.898 29.1947 116.898C29.1947 116.898 29.1038 116.981 28.9372 117.125C28.763 117.269 28.5357 117.504 28.2554 117.815C27.9752 118.125 27.6494 118.512 27.2707 118.958C26.8919 119.405 26.4829 119.921 25.9981 120.458C25.5284 121.004 24.9527 121.579 24.3316 122.11C23.6498 122.617 22.9756 123.17 22.2181 123.67C21.8394 123.92 21.4531 124.185 21.0667 124.443C20.6728 124.7 20.2562 124.935 19.8471 125.185C19.0215 125.7 18.1806 126.124 17.3247 126.609C16.4687 127.056 15.6203 127.518 14.7491 127.942C13.9083 128.382 13.0145 128.768 12.1585 129.147C11.2874 129.495 10.5223 129.791 9.66629 130.079C8.87849 130.344 8.07553 130.579 7.265 130.738C6.87868 130.806 6.55295 130.844 6.21965 130.897C5.7803 130.935 5.50002 130.95 5.16672 130.973C4.52284 131.018 4.03804 130.988 3.59869 131.003C3.08358 130.98 2.72756 131.116 2.62908 131.086C2.48515 130.738 2.47 129.935 2.43213 129.783C2.45485 129.427 2.42455 129.086 2.46243 129.056C2.56848 128.973 2.47758 128.821 2.47758 128.821" fill="#7E9597"/>
<path d="M36.6184 102.725C36.6184 102.725 36.482 102.657 36.2093 102.528C35.9442 102.384 35.5427 102.233 35.02 102.059C33.9595 101.725 32.3082 101.453 30.2705 101.824C28.2328 102.18 25.8618 103.127 23.362 104.611C20.8623 106.104 18.2186 108.119 15.5976 110.588C14.9386 111.202 14.2796 111.838 13.6357 112.512L13.1509 113.02L12.704 113.535C12.3858 113.906 12.0676 114.277 11.7495 114.656C11.4238 115.035 11.1056 115.406 10.7723 115.792C10.4845 116.186 10.1966 116.58 9.90119 116.974C9.32548 117.777 8.69675 118.549 8.17408 119.436C5.93187 122.86 3.93963 126.776 2.65945 131.124C2.37917 132.222 2.09132 133.328 1.81104 134.442C1.58379 135.571 1.42472 136.722 1.23534 137.881C0.924765 140.206 0.99294 142.562 1.49289 144.88C1.59894 145.464 1.81104 146.017 1.96255 146.592C2.14435 147.153 2.38675 147.698 2.60642 148.251C2.8867 148.774 3.15183 149.304 3.45483 149.812C3.80328 150.289 4.08356 150.819 4.47746 151.258C5.96974 153.099 7.9241 154.538 10.0906 155.44C12.2722 156.341 14.6053 156.728 16.9914 156.682C19.2261 156.652 21.5213 156.008 23.4984 154.94C27.5435 152.811 30.581 149.175 33.2929 145.585C34.6564 143.752 35.9593 141.987 37.0274 140.146C38.1031 138.29 39.0424 136.404 39.8529 134.518C41.4512 130.745 42.542 126.988 43.0723 123.45C43.6253 119.921 43.5571 116.625 43.0647 113.777C42.792 112.361 42.4057 111.065 41.9436 109.906C41.4512 108.762 40.921 107.732 40.3377 106.869C39.1939 105.119 37.9819 103.96 37.1259 103.218C36.7017 102.839 36.3381 102.596 36.1108 102.407C35.876 102.225 35.7548 102.134 35.7548 102.134L35.876 101.945C35.876 101.945 36.0048 102.028 36.2623 102.18C36.5123 102.339 36.9062 102.551 37.3834 102.884C38.3303 103.551 39.6862 104.626 41.0649 106.346C42.4587 108.05 43.7162 110.49 44.4964 113.474C45.2615 116.459 45.4887 119.974 45.0797 123.723C44.6555 127.465 43.6631 131.45 42.0345 135.442C41.2315 137.442 40.2695 139.434 39.1105 141.388C38.5348 142.343 37.891 143.365 37.2319 144.282C36.5653 145.236 35.8608 146.115 35.1488 147.039C33.7095 148.857 32.1794 150.69 30.4295 152.387C28.6873 154.084 26.6875 155.644 24.3922 156.75C22.0819 157.856 19.5518 158.477 16.9005 158.402C14.4159 158.296 11.848 157.72 9.56788 156.599C7.28022 155.493 5.27284 153.819 3.7957 151.796C2.28827 149.789 1.31867 147.441 0.811139 145.054C0.288461 142.668 0.220286 140.184 0.417237 137.82C0.553588 136.639 0.689939 135.464 0.833864 134.29C1.04597 133.131 1.26564 131.98 1.47017 130.836C2.50795 126.306 4.20476 122.042 6.49242 118.39C6.99995 117.443 7.68927 116.603 8.29528 115.739C8.60585 115.315 8.91643 114.891 9.21943 114.466C9.55273 114.088 9.87846 113.717 10.2042 113.345C10.5299 112.974 10.8556 112.611 11.1814 112.239L11.6889 111.664L12.204 111.141C12.8933 110.452 13.5827 109.793 14.2796 109.172C17.0823 106.702 19.8927 104.702 22.6121 103.301C25.3088 101.884 27.9222 101.051 30.1417 100.884C32.3688 100.703 34.111 101.157 35.1791 101.634C35.7169 101.892 36.1108 102.112 36.3532 102.278C36.6032 102.437 36.732 102.521 36.732 102.521L36.6184 102.725Z" fill="#050505"/>
<path d="M101.748 101.483H36.2547C36.2547 101.483 27.4298 105.982 28.4448 123.094C29.3463 138.313 37.1561 138.926 41.3678 139.229C46.1098 139.57 103.862 139.229 103.862 139.229L101.748 101.483Z" fill="#FDFFFF"/>
<path d="M103.256 107.27L38.3605 106.354C38.3605 106.354 29.7855 109.55 28.4448 123.094C27.2403 135.275 35.3532 139.532 41.3678 139.229C46.1098 138.987 103.862 139.229 103.862 139.229L103.256 107.27Z" fill="#7E9597"/>
<path d="M101.643 101.604C98.9535 101.748 96.2568 101.824 93.5676 101.93C90.8406 102.043 88.106 102.096 85.379 102.172L77.1904 102.339L69.0018 102.445L60.8132 102.498C58.0861 102.521 55.3516 102.498 52.6245 102.483C49.8975 102.445 47.1629 102.415 44.4359 102.339L36.2473 102.142L36.5503 102.066C35.6943 102.536 34.8005 103.271 34.0581 104.066C33.3158 104.876 32.6189 105.74 32.0507 106.702C30.869 108.596 30.0888 110.732 29.5282 112.914L29.1874 114.573C29.0813 115.126 29.0359 115.694 28.9601 116.254C28.7859 117.375 28.7783 118.512 28.7177 119.64C28.695 120.776 28.7707 121.913 28.7935 123.041C28.9147 124.147 28.9601 125.329 29.1798 126.427C29.4904 128.647 30.1494 130.851 31.1796 132.798C31.6796 133.783 32.3537 134.662 33.0809 135.457C33.8763 136.192 34.7096 136.881 35.7019 137.313C37.6487 138.237 39.8757 138.457 42.118 138.449L48.9885 138.404C51.2762 138.396 53.5638 138.396 55.8515 138.351L62.6993 138.282L76.4026 138.146L83.2656 138.101L90.1286 138.085L96.9915 138.101C99.2792 138.093 101.567 138.131 103.855 138.154L102.802 139.275L102.423 129.829L102.241 125.109L102.097 120.383C102.006 117.231 101.893 114.08 101.824 110.929C101.756 107.838 101.673 104.717 101.643 101.604ZM101.862 101.483C102.188 104.619 102.446 107.763 102.733 110.899C103.014 114.035 103.249 117.178 103.514 120.322L103.892 125.034L104.233 129.745L104.907 139.176L104.983 140.275L103.855 140.297C101.567 140.343 99.2792 140.403 96.9915 140.426L90.1286 140.502L83.2656 140.54L76.4026 140.547L62.6539 140.441L55.7758 140.381C53.4805 140.358 51.2004 140.29 48.9128 140.229L42.0574 140.017C41.7619 140.002 41.512 140.01 41.1711 139.979L40.3075 139.888C39.7242 139.828 39.141 139.729 38.5501 139.623C37.376 139.388 36.217 138.994 35.1413 138.434C34.043 137.896 33.1188 137.078 32.278 136.222C31.4977 135.305 30.8084 134.313 30.316 133.245C29.7858 132.185 29.4222 131.063 29.104 129.942L28.695 128.245L28.4223 126.518C28.3162 125.943 28.2708 125.375 28.2329 124.799L28.0814 123.079C28.0663 121.928 28.0057 120.776 28.036 119.625C28.1117 118.474 28.0814 117.315 28.2556 116.171C28.3314 115.595 28.3693 115.019 28.4753 114.451L28.8086 112.747C29.301 110.482 30.0812 108.263 31.2099 106.21C31.7629 105.172 32.4522 104.21 33.2097 103.301C33.9975 102.392 34.8308 101.589 35.9519 100.9L36.0655 100.831L36.2549 100.824L44.4435 100.627C47.1705 100.551 49.9051 100.521 52.6321 100.483C55.3591 100.475 58.0937 100.453 60.8207 100.468L69.0093 100.521L77.198 100.627L85.3866 100.794C88.1136 100.869 90.8482 100.93 93.5752 101.036C96.3022 101.134 99.0368 101.218 101.764 101.362L101.87 101.369L101.862 101.483Z" fill="#050505"/>
<path d="M87.7119 101.4C87.5149 101.513 87.2574 101.65 87.1059 101.748C86.962 101.854 86.8029 101.937 86.6514 102.074C86.3332 102.324 86.0302 102.596 85.7651 102.907C85.4924 103.21 85.25 103.536 85.0228 103.877C84.7955 104.217 84.5985 104.566 84.4167 104.93C83.6895 106.384 83.2578 107.967 82.9926 109.573C82.7427 111.179 82.6593 112.815 82.7275 114.444C82.8108 116.072 83.0229 117.716 83.5759 119.299L83.485 119.315C83.4623 119.186 83.4168 119.057 83.3487 118.943C83.2729 118.822 83.1972 118.701 83.129 118.58C83.2123 118.693 83.2956 118.807 83.3865 118.921C83.4774 119.042 83.5305 119.163 83.5759 119.299L83.485 119.315C82.7427 117.762 82.3336 116.125 82.0609 114.482C81.7958 112.83 81.6822 111.164 81.7503 109.49C81.8337 107.816 82.0836 106.126 82.6896 104.46C82.8411 104.043 83.0229 103.627 83.235 103.225C83.4471 102.816 83.6895 102.415 83.9774 102.021C84.2577 101.627 84.591 101.24 84.9773 100.884C85.1515 100.703 85.4015 100.521 85.6288 100.339C85.856 100.165 86.0302 100.059 86.2348 99.9148L87.7119 101.4Z" fill="#050505"/>
<path d="M68.1382 101.521C67.9412 101.634 67.6837 101.771 67.5322 101.869C67.3882 101.975 67.2292 102.059 67.0777 102.195C66.7595 102.445 66.4565 102.718 66.1914 103.028C65.9187 103.331 65.6763 103.657 65.449 103.998C65.2218 104.339 65.0248 104.687 64.843 105.051C64.1158 106.505 63.684 108.088 63.4189 109.694C63.1689 111.3 63.0856 112.936 63.1538 114.565C63.2371 116.194 63.4492 117.837 64.0022 119.421L63.9113 119.436C63.8886 119.307 63.8431 119.178 63.7749 119.065C63.6992 118.943 63.6234 118.822 63.5553 118.701C63.6386 118.815 63.7219 118.928 63.8128 119.042C63.9037 119.163 63.9567 119.284 64.0022 119.421L63.9113 119.436C63.1689 117.883 62.7599 116.247 62.4872 114.603C62.2221 112.951 62.1084 111.285 62.1766 109.611C62.2599 107.937 62.5099 106.248 63.1159 104.581C63.2674 104.164 63.4492 103.748 63.6613 103.346C63.8734 102.937 64.1158 102.536 64.4037 102.142C64.6839 101.748 65.0172 101.362 65.4036 101.006C65.5778 100.824 65.8278 100.642 66.055 100.46C66.2823 100.286 66.4565 100.18 66.661 100.036L68.1382 101.521Z" fill="#050505"/>
<path d="M50.4126 101.809C50.2156 101.922 49.9581 102.059 49.8066 102.157C49.6626 102.263 49.5036 102.346 49.3521 102.483C49.0339 102.733 48.7309 103.005 48.4658 103.316C48.1931 103.619 47.9507 103.945 47.7234 104.286C47.4962 104.626 47.2992 104.975 47.1174 105.339C46.3902 106.793 45.9585 108.376 45.6933 109.982C45.4434 111.588 45.36 113.224 45.4282 114.853C45.5115 116.481 45.7236 118.125 46.2766 119.708L46.1857 119.724C46.163 119.595 46.1175 119.466 46.0494 119.352C45.9736 119.231 45.8979 119.11 45.8297 118.989C45.913 119.102 45.9963 119.216 46.0872 119.33C46.1781 119.451 46.2312 119.572 46.2766 119.708L46.1857 119.724C45.4434 118.171 45.0343 116.534 44.7616 114.891C44.4965 113.239 44.3828 111.573 44.451 109.899C44.5343 108.225 44.7843 106.535 45.3903 104.869C45.5418 104.452 45.7236 104.036 45.9357 103.634C46.1478 103.225 46.3902 102.824 46.6781 102.43C46.9584 102.036 47.2917 101.65 47.678 101.293C47.8522 101.112 48.1022 100.93 48.3294 100.748C48.5567 100.574 48.7309 100.468 48.9354 100.324L50.4126 101.809Z" fill="#050505"/>
<path d="M220.116 120.951C247.205 120.951 269.165 98.991 269.165 71.9023C269.165 44.8137 247.205 22.8539 220.116 22.8539C193.028 22.8539 171.068 44.8137 171.068 71.9023C171.068 98.991 193.028 120.951 220.116 120.951Z" fill="#FDFFFF"/>
<path d="M235.823 116.243C257.961 106.046 267.031 78.5072 256.081 54.7347C245.13 30.9623 218.306 19.9579 196.168 30.1558C174.029 40.3537 164.959 67.8921 175.91 91.6645C186.861 115.437 213.685 126.441 235.823 116.243Z" fill="#7E9597"/>
<path d="M266.604 87.9766C266.604 87.9766 266.498 88.2568 266.301 88.8098C266.089 89.3552 265.831 90.1885 265.369 91.2187C264.506 93.3094 263.082 96.3318 260.741 99.8694C258.378 103.369 255.151 107.482 250.515 111.224C245.917 114.966 239.993 118.489 232.857 120.542C229.297 121.564 225.456 122.201 221.449 122.367C217.442 122.549 213.283 122.132 209.11 121.254C200.777 119.474 192.407 115.315 185.65 108.891C178.878 102.513 173.727 93.9608 171.393 84.5072C170.234 79.7804 169.757 74.8566 170.015 69.9631C170.144 67.5164 170.507 65.0772 170.984 62.6759C171.484 60.2898 172.212 57.8734 173.007 55.6387C176.378 46.3896 182.483 38.3601 190.096 32.5727C197.709 26.7702 206.807 23.2403 215.927 22.2555C216.495 22.1798 217.063 22.1267 217.639 22.104L219.351 21.998C220.487 21.9904 221.624 21.9374 222.752 21.998C225.017 22.0434 227.244 22.3161 229.433 22.657C230.524 22.8691 231.607 23.0433 232.691 23.3236C233.228 23.4599 233.781 23.5736 234.297 23.7251L235.827 24.1796C236.895 24.4902 237.88 24.8992 238.902 25.2477C239.895 25.6643 240.887 26.0506 241.849 26.5127C242.811 26.9672 243.758 27.4217 244.667 27.9519C245.591 28.4443 246.477 28.9897 247.348 29.5427C248.235 30.073 249.045 30.7017 249.894 31.2698C250.704 31.8834 251.499 32.497 252.265 33.1484C255.317 35.7239 257.961 38.5797 260.135 41.5719C264.491 47.5713 266.983 53.9874 268.293 59.7671C269.627 65.5772 269.634 70.7964 269.331 75.0081C268.99 79.235 268.248 82.4847 267.642 84.6663C267.369 85.7722 267.066 86.5752 266.892 87.1357C266.695 87.6887 266.604 87.9766 266.604 87.9766ZM266.324 87.8857C266.324 87.8857 266.415 87.5978 266.589 87.0448C266.748 86.4843 267.051 85.6662 267.309 84.5754C267.892 82.4165 268.627 79.1668 268.801 74.9702C268.945 72.8795 268.854 70.554 268.596 68.0466C268.346 65.5393 267.839 62.8577 267.051 60.0701C265.491 54.4949 262.642 48.5106 258.264 42.9657C256.067 40.2084 253.514 37.5495 250.59 35.1407C247.667 32.7318 244.356 30.5956 240.735 28.8231C239.841 28.361 238.895 27.9822 237.963 27.558C237.008 27.2096 236.046 26.7778 235.084 26.4824L233.569 25.9673C233.069 25.8006 232.577 25.6794 232.077 25.5279C231.092 25.2174 230.047 25.0053 229.017 24.7629C226.934 24.3462 224.805 23.9902 222.639 23.8539C221.555 23.7478 220.465 23.7478 219.359 23.7099L217.707 23.7402C217.154 23.7402 216.601 23.7705 216.048 23.816C211.617 24.0887 207.125 24.9825 202.807 26.5733C198.489 28.1489 194.361 30.429 190.626 33.2696C188.755 34.6937 187.006 36.2845 185.354 37.9661C183.71 39.663 182.226 41.5188 180.832 43.4353C179.461 45.3745 178.287 47.4425 177.203 49.5484C176.151 51.6618 175.264 53.904 174.514 56.1084C173.795 58.4415 173.227 60.6761 172.833 63.0168C172.469 65.3499 172.219 67.6906 172.181 70.0389C172.068 74.7278 172.651 79.4016 173.863 83.8482C176.264 92.7716 181.233 100.771 187.695 106.664C188.089 107.043 188.498 107.407 188.922 107.747L190.172 108.793C191.043 109.437 191.876 110.126 192.77 110.724C194.512 111.982 196.361 113.042 198.217 114.027C199.164 114.489 200.088 114.974 201.05 115.368C201.527 115.572 201.997 115.792 202.481 115.974L203.928 116.519L204.61 116.777L205.367 117.019L206.867 117.504C207.845 117.762 208.776 118.049 209.761 118.262C213.67 119.155 217.578 119.549 221.358 119.489C225.138 119.428 228.782 118.936 232.213 118.14C239.076 116.512 245.015 113.573 249.689 110.164C252.03 108.459 254.083 106.664 255.832 104.854C257.582 103.043 259.09 101.271 260.271 99.5436C262.726 96.1424 264.157 93.1427 265.044 91.0747C265.521 90.0521 265.786 89.234 266.006 88.6962C266.218 88.1659 266.324 87.8857 266.324 87.8857Z" fill="#020000"/>
<path d="M200.838 79.6213C203.633 95.8243 226.101 105.52 251.015 101.293C254.628 100.68 258.098 99.8088 261.378 98.7104C264.885 91.1202 270.808 81.9847 268.422 68.1375C266.233 55.4342 260.908 45.5942 256.507 41.7612C251.53 41.4507 246.273 41.7158 240.902 42.6324C215.98 46.8592 198.043 63.4183 200.838 79.6213Z" fill="#FDFFFF"/>
<path d="M200.398 79.341C202.701 92.6579 219.101 102.566 236.152 101.725C257.673 100.657 259.673 83.6588 257.37 70.3419C255.067 57.0249 245.439 41.6097 227.759 46.9198C211.412 51.8209 198.096 66.0241 200.398 79.341Z" fill="#C6CCD0"/>
<path d="M200.914 79.6061C201.194 81.053 201.588 82.4619 202.156 83.8179C202.739 85.1586 203.444 86.4616 204.3 87.6508C205.156 88.8401 206.087 89.9764 207.163 90.9687C207.671 91.4914 208.246 91.9459 208.792 92.4307C209.375 92.8776 209.935 93.3473 210.541 93.7487C211.731 94.5971 212.988 95.3395 214.276 96.0288C214.92 96.3697 215.579 96.6803 216.238 96.9909C216.912 97.2711 217.571 97.5893 218.253 97.8393C218.935 98.0968 219.609 98.3695 220.306 98.5892L221.343 98.9376L222.389 99.2482C223.783 99.6724 225.199 100.006 226.623 100.301C228.047 100.604 229.487 100.839 230.926 101.044L233.1 101.293L235.274 101.483L237.456 101.596L239.645 101.634L241.834 101.604L244.023 101.506L246.212 101.354L248.394 101.134L250.568 100.847C251.257 100.756 252.007 100.581 252.719 100.453L254.893 100.036C255.621 99.8997 256.348 99.7709 257.045 99.5588L261.279 98.4074L261.09 98.5816L262.794 95.135C263.362 93.9911 263.938 92.8473 264.468 91.6883C265.014 90.5369 265.529 89.3704 265.991 88.1811C266.241 87.5978 266.445 86.9918 266.65 86.3858C266.869 85.7874 267.044 85.1738 267.218 84.5678C267.407 83.9618 267.559 83.3406 267.703 82.7271C267.862 82.1135 267.991 81.4923 268.097 80.8636C268.218 80.2424 268.324 79.6137 268.385 78.985C268.453 78.3563 268.559 77.7275 268.574 77.0912C268.604 76.4549 268.657 75.8262 268.65 75.1899L268.612 73.2886C268.513 72.0235 268.445 70.7585 268.218 69.5086C268.051 68.2587 267.771 67.0164 267.513 65.759C267.218 64.5242 266.923 63.2971 266.566 62.0775C266.407 61.4639 266.203 60.8579 266.014 60.2519C265.832 59.6459 265.627 59.0399 265.408 58.4491C264.998 57.2522 264.544 56.0629 264.059 54.8964C263.574 53.7298 263.044 52.5784 262.484 51.4421C261.915 50.3135 261.317 49.1999 260.65 48.1318C260.014 47.0486 259.287 46.0184 258.537 45.0261C257.764 44.0565 256.939 43.1172 256.03 42.3142L256.461 42.4884L254.128 42.4278C253.348 42.4051 252.575 42.3748 251.795 42.4203C250.235 42.4657 248.682 42.496 247.129 42.6702C246.356 42.746 245.576 42.799 244.803 42.8899L242.493 43.2232C241.713 43.3293 240.97 43.4202 240.19 43.5792C239.418 43.7232 238.637 43.8595 237.887 44.0337C236.38 44.3519 234.857 44.7307 233.365 45.17C232.615 45.3821 231.873 45.6018 231.13 45.8518C230.388 46.0866 229.653 46.3366 228.926 46.6168C227.464 47.1395 226.025 47.7379 224.601 48.3742C223.184 49.0106 221.783 49.6923 220.404 50.4195C219.041 51.1694 217.692 51.9497 216.397 52.8056C215.746 53.2374 215.102 53.6692 214.481 54.1313C213.844 54.5782 213.231 55.0554 212.609 55.5327C211.988 56.0023 211.413 56.525 210.814 57.0249C210.254 57.5628 209.648 58.0627 209.11 58.6233C207.989 59.7065 206.974 60.8958 206.004 62.1154C205.072 63.3653 204.186 64.653 203.444 66.0317C202.716 67.4103 202.05 68.8344 201.603 70.3343C201.156 71.8342 200.815 73.3719 200.709 74.9399C200.595 76.4852 200.671 78.0533 200.914 79.6061ZM200.762 79.6364C200.505 78.076 200.414 76.4852 200.505 74.9096C200.603 73.3264 200.891 71.766 201.307 70.2358C201.732 68.7057 202.338 67.2361 203.019 65.7968C203.716 64.3652 204.557 63.0168 205.459 61.6987C206.398 60.4186 207.375 59.1535 208.474 57.9946C208.996 57.3961 209.587 56.8507 210.14 56.275C210.731 55.7372 211.299 55.1766 211.905 54.6615C213.109 53.6086 214.374 52.6314 215.685 51.73C216.988 50.8134 218.351 49.9726 219.722 49.1696C221.116 48.397 222.518 47.6319 223.972 46.9729C225.426 46.3138 226.896 45.6927 228.396 45.1473C229.138 44.867 229.896 44.6019 230.653 44.3595C231.403 44.1019 232.168 43.8671 232.933 43.6474C234.463 43.1929 236.001 42.8066 237.569 42.4657C238.357 42.2763 239.122 42.14 239.902 41.9961C240.667 41.837 241.486 41.7309 242.266 41.6173L244.629 41.2916C245.425 41.2083 246.22 41.1628 247.008 41.0946C248.591 40.9356 250.189 40.928 251.78 40.8977C252.575 40.8674 253.371 40.8977 254.166 40.9356L256.552 41.0265L256.795 41.034L256.984 41.2007C257.992 42.1021 258.848 43.1096 259.65 44.1474C260.423 45.2079 261.165 46.2835 261.809 47.4122C262.476 48.5333 263.067 49.6847 263.627 50.8589C264.188 52.0254 264.695 53.2147 265.165 54.4191C265.635 55.6236 266.082 56.8356 266.46 58.0703C266.665 58.6839 266.847 59.2975 267.013 59.9262C267.188 60.5473 267.369 61.1685 267.513 61.7972C267.839 63.0471 268.104 64.3121 268.362 65.5772C268.581 66.8346 268.831 68.0997 268.968 69.3874C269.165 70.6676 269.203 71.9629 269.263 73.2507L269.248 75.1899C269.233 75.8338 269.157 76.4777 269.127 77.1215C269.104 77.7654 268.99 78.4017 268.915 79.0456C268.847 79.6895 268.725 80.3182 268.597 80.9545C268.483 81.5908 268.354 82.2195 268.18 82.8407C268.028 83.4694 267.869 84.0906 267.672 84.7042C267.316 85.9389 266.869 87.1509 266.415 88.3477C265.96 89.5522 265.461 90.7339 264.93 91.9004C263.885 94.2411 262.703 96.5212 261.665 98.8468L261.605 98.9755L261.468 99.0134L257.211 100.331C256.507 100.574 255.78 100.725 255.068 100.884L252.909 101.377C252.181 101.536 251.5 101.718 250.727 101.846L248.53 102.21L246.318 102.505L244.099 102.733L241.872 102.862L239.645 102.915L237.41 102.899L235.176 102.808L232.948 102.634L230.729 102.362C229.252 102.134 227.79 101.884 226.335 101.551C224.889 101.203 223.442 100.824 222.025 100.347C221.313 100.127 220.616 99.8694 219.919 99.5967C219.222 99.3391 218.541 99.0361 217.851 98.7407C217.162 98.4529 216.503 98.1044 215.829 97.7862C215.17 97.4302 214.511 97.0893 213.867 96.7106C212.587 95.9531 211.337 95.1426 210.163 94.226C209.564 93.7866 209.011 93.2867 208.443 92.8094C207.905 92.2943 207.345 91.8095 206.845 91.2566C205.807 90.196 204.891 89.0219 204.05 87.8023C203.209 86.5828 202.55 85.2495 201.959 83.8936C201.429 82.5225 201.035 81.0833 200.762 79.6364Z" fill="#020202"/>
<path d="M267.309 84.5754C267.051 85.6662 266.748 86.4843 266.589 87.0448C266.415 87.5978 266.332 87.8781 266.324 87.8857C266.324 87.8857 266.218 88.1659 266.014 88.7113C265.794 89.2492 265.529 90.0748 265.052 91.0899C264.34 92.764 263.241 95.0592 261.552 97.6878C261.787 97.6196 262.014 97.5438 262.234 97.4681C263.711 94.9683 264.703 92.817 265.362 91.2187C265.824 90.1885 266.082 89.3552 266.294 88.8098C266.498 88.2644 266.597 87.9766 266.597 87.9766C266.597 87.9766 266.688 87.6887 266.87 87.1357C267.036 86.5752 267.347 85.7722 267.62 84.6663C268.226 82.4847 268.968 79.235 269.309 75.0081C269.612 70.7964 269.612 65.5772 268.271 59.7671C267.127 54.6994 265.067 49.1469 261.643 43.8141C260.635 43.6702 259.635 43.5641 258.628 43.4732C262.779 48.8742 265.521 54.6691 267.036 60.0777C267.824 62.8653 268.332 65.5469 268.582 68.0542C268.839 70.5615 268.93 72.8871 268.786 74.9778C268.627 79.1668 267.892 82.4165 267.309 84.5754Z" fill="#020000"/>
<path d="M259.772 100.256C258.673 101.763 257.355 103.301 255.84 104.861C254.09 106.672 252.037 108.467 249.697 110.171C245.023 113.58 239.084 116.519 232.221 118.148C228.79 118.943 225.146 119.436 221.366 119.496C217.586 119.557 213.678 119.163 209.769 118.269C208.784 118.057 207.852 117.769 206.875 117.512L205.375 117.027L204.618 116.784L203.936 116.527L202.489 115.981C202.004 115.792 201.535 115.572 201.058 115.375C200.095 114.982 199.164 114.497 198.224 114.035C196.369 113.05 194.52 111.982 192.778 110.732C191.884 110.134 191.051 109.452 190.18 108.8L188.93 107.755C188.506 107.414 188.097 107.051 187.703 106.672C181.241 100.778 176.272 92.7791 173.871 83.8557C172.651 79.4016 172.068 74.7278 172.189 70.0464C172.219 67.6982 172.469 65.3575 172.84 63.0244C173.234 60.6837 173.803 58.4491 174.522 56.1159C175.272 53.9116 176.151 51.677 177.211 49.556C178.287 47.4425 179.469 45.3745 180.84 43.4429C182.226 41.5188 183.711 39.6705 185.362 37.9737C187.021 36.2921 188.763 34.7013 190.634 33.2772C194.376 30.4366 198.497 28.1565 202.815 26.5809C207.133 24.9901 211.617 24.0887 216.056 23.8235C216.609 23.7781 217.162 23.7478 217.715 23.7478L219.366 23.7175C220.465 23.7554 221.563 23.7554 222.646 23.8614C224.82 23.9978 226.949 24.3462 229.025 24.7704C230.055 25.0128 231.1 25.2325 232.085 25.5355C232.585 25.687 233.077 25.8082 233.577 25.9749L235.092 26.49C236.054 26.7854 237.016 27.2172 237.971 27.5656C238.902 27.9898 239.842 28.3686 240.743 28.8306C244.364 30.6032 247.674 32.7394 250.598 35.1482C252.522 36.7314 254.265 38.4282 255.87 40.1856C256.211 40.2084 256.545 40.2159 256.886 40.2387C257.681 40.3068 258.476 40.3826 259.279 40.4811C257.272 37.8904 254.939 35.4134 252.257 33.1484C251.492 32.5045 250.697 31.8834 249.886 31.2698C249.045 30.7017 248.227 30.073 247.341 29.5427C246.47 28.9897 245.584 28.4443 244.659 27.9519C243.75 27.4217 242.804 26.9672 241.842 26.5127C240.887 26.0506 239.887 25.6719 238.895 25.2477C237.872 24.8916 236.895 24.4826 235.819 24.1796L234.289 23.7251C233.774 23.5811 233.214 23.4599 232.683 23.3236C231.6 23.0357 230.517 22.8615 229.426 22.657C227.237 22.3085 225.002 22.0434 222.745 21.998C221.616 21.9298 220.48 21.9828 219.344 21.998L217.632 22.104C217.064 22.1343 216.488 22.1873 215.92 22.2555C206.799 23.2403 197.709 26.7702 190.089 32.5727C182.476 38.36 176.363 46.3896 173 55.6387C172.204 57.8809 171.477 60.2898 170.977 62.6759C170.5 65.0772 170.136 67.5164 170.007 69.9631C169.757 74.8642 170.227 79.7804 171.386 84.5072C173.719 93.9684 178.878 102.513 185.642 108.891C192.407 115.315 200.777 119.474 209.102 121.254C213.276 122.132 217.435 122.549 221.442 122.367C225.449 122.201 229.29 121.564 232.85 120.542C239.986 118.489 245.909 114.974 250.507 111.224C255.113 107.505 258.325 103.43 260.681 99.9451C260.378 100.051 260.075 100.157 259.772 100.256Z" fill="#020000"/>
<path d="M183.551 13.4988C181.362 9.00677 183.233 3.59819 187.725 1.409C192.217 -0.772613 197.626 1.09842 199.815 5.59042C201.732 9.53702 200.52 14.1881 197.156 16.7409L202.724 25.8461L197.255 28.1565L194.119 18.2407C189.998 19.4149 185.491 17.4984 183.551 13.4988Z" fill="#020202"/>
<path d="M187.983 3.37093C187.983 3.37093 188.377 3.29518 189.066 3.14368C189.415 3.09823 189.824 3.03763 190.293 2.99975C190.528 2.99218 190.778 2.9846 191.043 2.97703C191.301 2.99218 191.573 3.00733 191.861 3.03005C192.142 3.06035 192.429 3.1361 192.717 3.18155C192.998 3.2876 193.301 3.33305 193.581 3.47698C194.164 3.70423 194.687 4.09813 195.179 4.53748C195.672 4.98441 196.043 5.58284 196.368 6.20399C196.687 6.83272 196.899 7.5372 196.997 8.24925C197.111 8.96131 197.149 9.70366 197.043 10.4081C196.937 11.1126 196.785 11.8019 196.512 12.4231C196.225 13.0367 195.876 13.5897 195.467 14.0593C195.028 14.4911 194.581 14.9001 194.081 15.1501C193.846 15.3016 193.596 15.4001 193.354 15.4986C193.119 15.6122 192.884 15.6804 192.657 15.741C192.21 15.8849 191.793 15.9228 191.452 15.9909C190.771 16.0591 190.361 16.0818 190.361 16.0818C190.361 16.0818 190.46 16.1046 190.642 16.1349C190.824 16.1652 191.104 16.2409 191.452 16.2788C191.808 16.2864 192.248 16.3621 192.755 16.2864C193.013 16.2712 193.278 16.2409 193.558 16.1727C193.846 16.1197 194.141 16.0364 194.437 15.9076C195.05 15.7031 195.656 15.3168 196.232 14.832C196.793 14.332 197.293 13.7033 197.679 12.9761C198.043 12.2413 198.33 11.4383 198.452 10.5899C198.588 9.74154 198.573 8.87041 198.452 8.00685C198.315 7.15087 198.043 6.31004 197.634 5.54496C197.232 4.77989 196.694 4.09056 196.043 3.5603C195.399 3.03763 194.687 2.63615 193.96 2.43162C193.604 2.30285 193.24 2.26497 192.899 2.1968C192.551 2.18165 192.217 2.15892 191.899 2.1665C191.581 2.1968 191.278 2.21195 190.998 2.24982C190.717 2.31042 190.46 2.37102 190.21 2.42405C189.725 2.55282 189.316 2.72705 188.983 2.84825C188.339 3.18155 187.983 3.37093 187.983 3.37093Z" fill="#FCFCFC"/>
<path d="M201.232 25.5431L195.437 16.3924L199.944 26.2324L201.232 25.5431Z" fill="#FCFCFC"/>
<path d="M190.718 59.7898C188.809 59.7898 187.256 61.2594 187.089 63.1229L160.281 61.0397V66.2892L187.127 64.1985C187.468 65.865 188.945 67.1225 190.718 67.1225C192.74 67.1225 194.384 65.4787 194.384 63.4562C194.384 61.426 192.74 59.7898 190.718 59.7898Z" fill="#050505"/>
<path d="M172.022 79.5986C172.022 82.515 169.636 84.9011 166.72 84.9011H89.3636C86.4472 84.9011 84.061 82.515 84.061 79.5986V53.5935C84.061 50.6771 86.4472 48.2909 89.3636 48.2909H166.727C169.644 48.2909 172.03 50.6771 172.03 53.5935V79.5986H172.022Z" fill="#FAFCFC"/>
<path d="M171 79.5986C171 82.515 168.614 84.9011 165.697 84.9011H91.4241C88.5077 84.9011 86.1216 82.515 86.1216 79.5986V58.9566C86.1216 56.0402 88.5077 53.6541 91.4241 53.6541H165.697C168.614 53.6541 171 56.0402 171 58.9566V79.5986Z" fill="#7E9597"/>
<path d="M172.022 79.5986C172.022 82.515 169.636 84.9011 166.72 84.9011H89.3636C86.4472 84.9011 84.061 82.515 84.061 79.5986V53.5935C84.061 50.6771 86.4472 48.2909 89.3636 48.2909H166.727C169.644 48.2909 172.03 50.6771 172.03 53.5935V79.5986H172.022Z" stroke="#020202" stroke-width="2" stroke-miterlimit="10"/>
<path d="M184.938 107.778C192.74 101.839 193.528 82.068 181.499 75.1369C172.174 69.7662 105.786 75.3793 94.8025 76.1216C90.2953 76.4246 69.0246 77.4851 71.2668 101.642C72.5697 115.694 86.6896 116.61 96.6356 116.731C94.81 124.216 97.8098 138.828 101.12 143.396C128.761 143.396 147.108 143.1 158.599 141.926C177.431 140.002 203.8 142.759 211.988 121.17C205.08 119.951 189.907 113.913 184.953 107.899" fill="#FDFFFF"/>
<path d="M184.741 107.634C192.543 102.255 193.535 87.8553 181.499 81.5756C172.174 76.7125 105.786 81.7953 94.8023 82.4619C90.2952 82.7346 69.8198 83.7875 71.7288 103.748C72.9938 116.913 87.144 116.398 96.6279 116.504C94.8023 123.284 96.9006 134.525 98.2717 137.017C125.913 137.017 149.441 136.972 160.932 135.911C179.764 134.169 200.065 133.972 206.905 120.383C199.997 119.284 189.695 113.08 184.741 107.634Z" fill="#7E9597"/>
<path d="M184.862 107.694C186.453 106.384 187.574 104.664 188.4 102.816C189.225 100.96 189.733 98.9831 189.99 96.9757C190.506 92.9609 190.081 88.8325 188.71 85.0753C187.339 81.3257 184.824 77.9927 181.423 76.0156L181.112 75.8262C181.219 75.8792 181.112 75.8262 181.128 75.8338L181.082 75.811L180.991 75.7732L180.817 75.6974L180.113 75.3868C179.658 75.2732 179.241 75.1369 178.772 75.0232L177.31 74.7278L175.818 74.5157C173.818 74.2582 171.788 74.0839 169.742 73.993C165.667 73.7885 161.561 73.7582 157.463 73.8037C153.365 73.8491 149.259 73.9627 145.154 74.1218C136.95 74.4021 128.739 74.8187 120.527 75.2126C112.316 75.6065 104.112 76.1065 95.8933 76.5988C93.8253 76.7049 91.8103 76.8109 89.8029 77.1442C87.8031 77.4775 85.826 77.9927 83.9399 78.7123C82.0537 79.4471 80.2584 80.4091 78.6525 81.6362C77.0617 82.8786 75.6755 84.3708 74.5847 86.0676C72.3803 89.4764 71.5622 93.6048 71.4865 97.6423C71.4941 98.6574 71.4941 99.6724 71.5925 100.687C71.6304 101.21 71.6531 101.687 71.7289 102.202C71.7819 102.718 71.8728 103.21 71.9789 103.695C72.3652 105.657 73.1682 107.543 74.3574 109.134C75.5316 110.732 77.1072 112.012 78.8646 112.951C80.6144 113.906 82.5385 114.535 84.508 114.982C88.4546 115.86 92.5451 115.981 96.6356 115.981H97.5143L97.3628 116.921C97.2719 117.466 97.1507 117.996 97.0901 118.542C97.0447 119.095 96.9614 119.64 96.9462 120.201C96.9311 120.761 96.8932 121.314 96.9083 121.875C96.9235 122.435 96.9235 122.996 96.9462 123.556L97.0523 125.238L97.2189 126.92C97.2795 127.48 97.3704 128.041 97.4386 128.601C97.5068 129.162 97.6204 129.715 97.7113 130.276C97.8022 130.836 97.9158 131.389 98.0294 131.942C98.1431 132.495 98.2567 133.048 98.4006 133.593C98.537 134.139 98.6582 134.692 98.8172 135.23C98.9763 135.767 99.1051 136.32 99.2869 136.851C99.4687 137.381 99.6126 137.926 99.8172 138.441C100.014 138.957 100.188 139.494 100.423 139.987C100.635 140.494 100.863 140.994 101.12 141.464C101.355 141.964 101.658 142.365 101.931 142.812L101.097 142.388L115.907 142.267C118.376 142.252 120.845 142.229 123.307 142.168L130.708 142.024C133.17 141.964 135.647 141.956 138.101 141.835L145.487 141.57C146.714 141.517 147.949 141.502 149.176 141.418L152.85 141.146C155.304 140.941 157.728 140.835 160.213 140.593C162.713 140.388 165.182 140.252 167.652 140.123C170.121 139.994 172.583 139.866 175.03 139.699C179.931 139.381 184.809 138.911 189.544 137.843C194.263 136.783 198.876 135.078 202.732 132.237C204.648 130.821 206.383 129.147 207.822 127.238C209.269 125.329 210.428 123.2 211.329 120.958L211.844 121.867C211.208 121.723 210.564 121.61 209.943 121.428C209.314 121.261 208.693 121.102 208.08 120.905C207.466 120.723 206.852 120.526 206.246 120.322C205.64 120.125 205.034 119.913 204.436 119.686C203.838 119.466 203.232 119.246 202.641 119.004C202.05 118.769 201.451 118.542 200.861 118.277C200.277 118.019 199.679 117.777 199.103 117.504L197.369 116.694L195.657 115.838L193.967 114.929C193.407 114.626 192.861 114.292 192.308 113.974C191.748 113.664 191.225 113.3 190.68 112.959C190.134 112.626 189.619 112.247 189.097 111.876C188.566 111.52 188.074 111.103 187.574 110.702C187.059 110.315 186.612 109.853 186.142 109.421C185.665 108.99 185.279 108.475 184.847 108.005L185.021 107.861C185.476 108.3 185.877 108.785 186.362 109.187C186.847 109.588 187.309 110.02 187.832 110.376C188.347 110.747 188.839 111.126 189.384 111.459C189.915 111.8 190.437 112.156 190.99 112.467C191.536 112.777 192.074 113.118 192.634 113.406C193.195 113.701 193.748 114.012 194.316 114.285L196.02 115.11L197.747 115.891L199.497 116.625C200.08 116.875 200.671 117.087 201.262 117.322C202.444 117.777 203.626 118.216 204.822 118.61C205.421 118.815 206.019 119.011 206.625 119.186C207.224 119.375 207.83 119.549 208.436 119.708C209.042 119.883 209.648 120.027 210.261 120.163C210.867 120.322 211.481 120.405 212.087 120.526L212.875 120.686L212.602 121.428C211.731 123.799 210.572 126.079 209.095 128.155C207.618 130.23 205.822 132.086 203.792 133.631C199.724 136.745 194.884 138.608 190.013 139.797C185.127 140.987 180.143 141.555 175.196 141.964C172.719 142.153 170.25 142.305 167.788 142.449C165.326 142.6 162.864 142.752 160.44 142.971C158.009 143.229 155.501 143.38 153.032 143.57L149.312 143.835C148.07 143.926 146.835 143.933 145.601 143.986L138.177 144.244C135.7 144.342 133.231 144.327 130.754 144.365L123.338 144.433C120.868 144.471 118.391 144.464 115.922 144.456L101.112 144.426H100.544L100.279 144.002C99.9459 143.471 99.5823 142.933 99.3399 142.388C99.0521 141.843 98.8172 141.297 98.5976 140.744C98.3552 140.199 98.1809 139.638 97.9764 139.078C97.7719 138.525 97.6204 137.957 97.4462 137.396C97.2644 136.836 97.1432 136.267 96.9841 135.699C96.825 135.139 96.7114 134.563 96.5826 133.995C96.4463 133.427 96.3402 132.859 96.2342 132.283C96.1205 131.715 96.0145 131.139 95.9312 130.563C95.8478 129.988 95.7418 129.412 95.6812 128.836C95.613 128.261 95.5297 127.677 95.4842 127.102L95.3403 125.359L95.2645 123.61C95.257 123.026 95.2645 122.435 95.2645 121.852C95.2721 121.269 95.3251 120.678 95.3554 120.087C95.3857 119.496 95.4918 118.905 95.5524 118.322C95.6357 117.731 95.7872 117.148 95.9008 116.557L96.6281 117.496C92.5072 117.39 88.3182 117.156 84.2429 116.148C82.2128 115.641 80.2054 114.929 78.3646 113.876C76.5239 112.83 74.8574 111.414 73.6302 109.671C73.0167 108.8 72.494 107.869 72.1076 106.884C71.8804 106.407 71.744 105.892 71.5698 105.392C71.4486 104.876 71.282 104.377 71.1986 103.854C71.0926 103.331 71.0017 102.808 70.9562 102.301C70.8805 101.793 70.8502 101.248 70.8275 100.74C70.7441 99.7027 70.7441 98.6649 70.7441 97.6271C70.8047 95.5516 71.0396 93.4609 71.5622 91.4383C72.0773 89.4158 72.9106 87.4614 74.0317 85.6965C75.1528 83.9239 76.5921 82.3559 78.2359 81.0605C79.8948 79.7804 81.7431 78.7577 83.6747 77.9624C87.5456 76.3792 91.7573 75.7807 95.8554 75.508C104.044 74.7808 112.248 74.0612 120.459 73.4401C128.67 72.8113 136.889 72.3492 145.123 72.0765C149.244 71.9629 153.365 71.8872 157.486 71.8947C161.614 71.9023 165.743 71.9705 169.879 72.2205C171.947 72.3417 174.015 72.5311 176.09 72.8265L177.643 73.084L179.196 73.4401C179.726 73.584 180.279 73.7734 180.817 73.9476L181.514 74.2733L181.923 74.4703L182.264 74.6899C184.082 75.8413 185.703 77.3109 186.968 79.038C188.233 80.7575 189.233 82.6589 189.9 84.6663C191.271 88.6735 191.521 92.9836 190.816 97.0969C190.46 99.1573 189.854 101.172 188.93 103.051C188.013 104.914 186.71 106.641 185.044 107.876L184.862 107.694Z" fill="#050505"/>
<path d="M95.5143 116.497L95.7113 116.413C95.8173 116.368 95.9082 116.338 96.0825 116.3C96.1279 116.292 96.2037 116.277 96.2643 116.277C96.2946 116.277 96.3779 116.269 96.4309 116.277L96.537 116.284C96.6127 116.3 96.6885 116.315 96.7642 116.345L96.8173 116.368C96.8476 116.383 96.8173 116.36 96.9233 116.421C97.0748 116.504 97.2339 116.648 97.3324 116.807C97.3551 116.845 97.3778 116.89 97.4005 116.928L97.4308 116.989C97.446 117.019 97.4687 117.095 97.4839 117.163C97.5142 117.307 97.5293 117.504 97.4763 117.709C97.4232 117.913 97.3021 118.11 97.1733 118.224C97.0672 118.337 96.8854 118.428 96.8703 118.436C96.8324 118.451 96.7945 118.466 96.7566 118.481C96.6733 118.512 96.59 118.527 96.4991 118.542C96.0446 118.549 96.0673 118.489 95.9385 118.459C95.8325 118.413 95.7264 118.345 95.7037 118.322C95.6204 118.262 95.5068 118.148 95.484 118.11C95.4462 118.057 95.4083 118.004 95.3704 117.951C95.3174 117.86 95.2947 117.799 95.2644 117.724L95.2189 117.572C95.1962 117.474 95.1886 117.421 95.181 117.337L95.0295 116.178L96.2188 116.103L111.551 115.148L119.232 114.679L126.913 114.36C132.034 114.163 137.154 114.004 142.267 113.747C143.548 113.694 144.82 113.61 146.1 113.542C147.381 113.474 148.653 113.398 149.933 113.3C151.206 113.201 152.486 113.133 153.766 113.004L157.592 112.656L153.782 113.141C152.509 113.315 151.236 113.429 149.964 113.573C148.691 113.717 147.419 113.845 146.138 113.959C144.866 114.073 143.586 114.209 142.305 114.3C137.2 114.739 132.079 115.08 126.973 115.466L119.315 116.065L111.679 116.815L96.3779 118.345L97.4157 117.11C97.4157 117.087 97.4157 117.087 97.4081 117.042C97.4005 117.019 97.4005 116.997 97.3854 116.966C97.3627 116.913 97.3551 116.883 97.3172 116.815C97.2945 116.769 97.2642 116.724 97.2263 116.686C97.2036 116.656 97.1051 116.55 97.0294 116.504C97.0066 116.489 96.9081 116.421 96.8097 116.383C96.6885 116.353 96.7112 116.3 96.2643 116.307C96.181 116.315 96.09 116.338 96.0143 116.368C95.9764 116.383 95.9385 116.398 95.9007 116.413C95.8855 116.421 95.7113 116.512 95.5977 116.625C95.4689 116.747 95.3477 116.936 95.2947 117.14C95.2416 117.345 95.2568 117.542 95.2871 117.686C95.3022 117.754 95.3325 117.83 95.3401 117.86L95.3628 117.921C95.378 117.959 95.4007 117.996 95.431 118.042C95.5295 118.201 95.681 118.337 95.8325 118.421L95.931 118.466L95.984 118.489C96.0522 118.512 96.1203 118.534 96.1961 118.542L96.2794 118.549C96.3173 118.557 96.393 118.549 96.4082 118.549C96.4385 118.549 96.4915 118.542 96.5142 118.534C96.59 118.519 96.5749 118.519 96.5824 118.519C96.59 118.519 96.59 118.512 96.5521 118.534L96.4764 118.572L95.5143 116.497Z" fill="#050505"/>
<path d="M103.476 74.7127C106.612 76.5079 109.846 89.1583 110.248 94.332C110.869 102.286 108.725 111.05 104.385 117.519C98.0974 118.815 89.1816 120.117 83.0534 117.178C77.0994 114.323 72.168 110.868 70.6985 103.021C66.3959 80.1591 87.8938 73.6294 103.476 74.7127C103.847 74.8036 103.892 74.4172 103.476 74.7127Z" fill="#FDFFFF"/>
<path d="M69.1912 96.6727C69.1912 96.6727 69.2215 96.6424 69.2745 96.5894C69.3275 96.5363 69.4033 96.4606 69.5851 96.3091C69.9108 96.0288 70.3047 95.7561 70.8349 95.4455C71.8803 94.832 73.3726 94.1426 75.183 93.4306C76.9935 92.7185 79.122 91.9837 81.44 91.302C82.599 90.9611 83.8034 90.6354 85.0609 90.3627C86.3411 90.1279 87.5531 89.9006 88.8332 89.7037C90.1134 89.5446 91.386 89.3325 92.6359 89.234C93.8858 89.1128 95.1205 88.9916 96.3174 88.931C96.9158 88.8931 97.4991 88.8553 98.0748 88.825C98.6505 88.8098 99.2111 88.7947 99.764 88.7795C100.862 88.7341 101.893 88.7341 102.855 88.7492C103.809 88.7416 104.688 88.7719 105.46 88.8174C106.233 88.8553 106.915 88.8704 107.468 88.9386C108.574 89.0446 109.21 89.0977 109.21 89.0977C109.21 89.0977 108.574 89.0749 107.46 89.0446C106.907 89.0143 106.233 89.0371 105.453 89.0522C104.68 89.0598 103.809 89.0825 102.855 89.1507C101.908 89.1961 100.878 89.2643 99.7943 89.3704C99.2489 89.4234 98.6959 89.4688 98.1278 89.5219C97.5597 89.59 96.984 89.6658 96.3931 89.734C95.2114 89.8627 93.9994 90.0597 92.7723 90.2566C91.5375 90.4309 90.3104 90.7187 89.0756 90.946C87.8561 91.2111 86.5759 91.5292 85.4093 91.8171C84.2352 92.1504 83.0762 92.5443 81.9703 92.9382C79.7508 93.7412 77.7131 94.5896 76.0087 95.3849C74.3043 96.1727 72.9408 96.9227 72.1 97.4984C71.6834 97.7787 71.3728 98.0362 71.2516 98.1574C71.2061 98.1953 71.1228 98.2862 71.0698 98.3468C71.0167 98.4074 70.994 98.4301 70.994 98.4301L69.1912 96.6727Z" fill="#7E9597"/>
<path d="M73.2893 86.4994C73.2893 86.4994 75.5088 85.3177 73.5772 85.3404C73.6075 85.3177 73.8196 85.0829 73.865 85.0526C73.9256 85.0147 75.7663 84.6738 73.865 85.0526C74.1907 84.8481 73.3651 84.9768 73.865 84.7647C74.8498 84.3405 75.8042 83.9391 77.4632 83.4921C79.1221 83.0452 81.0537 82.5907 83.152 82.1968C84.1974 81.9998 85.2806 81.818 86.4093 81.6817C87.5455 81.5756 88.6288 81.462 89.7726 81.3938C90.9088 81.3408 92.0451 81.2499 93.1511 81.2499C94.2646 81.2272 95.3554 81.2045 96.4083 81.2272C97.4613 81.2272 98.4839 81.2499 99.4535 81.3029C100.423 81.3332 101.332 81.3863 102.173 81.4544C103.014 81.4999 103.786 81.5756 104.468 81.6514C105.15 81.7196 105.741 81.7726 106.233 81.8559C107.203 81.9998 107.763 82.0756 107.763 82.0756C107.763 82.0756 107.203 82.0377 106.226 81.962C105.741 81.9165 105.142 81.9089 104.461 81.8786C103.779 81.8483 103.006 81.8332 102.165 81.8408C101.325 81.8332 100.416 81.8408 99.4535 81.8786C98.4915 81.9014 97.4764 81.9468 96.4311 82.015C95.3857 82.068 94.3025 82.1665 93.2117 82.265C92.1133 82.3483 91.0149 82.5149 89.9165 82.6361C88.8257 82.7801 87.6819 82.9846 86.629 83.1513C85.576 83.3558 84.5231 83.6058 83.5156 83.8709C81.5007 84.4011 79.6372 84.9768 78.0767 85.5222C76.5163 86.0676 75.2512 86.5903 74.4483 87.0069C74.0544 87.2039 73.759 87.4009 73.6453 87.4918C73.615 87.5145 73.5923 87.5296 73.5696 87.5448C73.5317 87.5751 73.5014 87.6054 73.4711 87.6281C73.4181 87.6736 73.3954 87.6963 73.3954 87.6963L73.2893 86.4994Z" fill="#7E9597"/>
<path d="M71.3274 106.088C71.3274 106.088 71.3577 106.058 71.4107 106.005C71.4637 105.952 71.5319 105.876 71.7061 105.725C72.0243 105.445 72.403 105.172 72.9181 104.861C73.9332 104.248 75.3725 103.558 77.1375 102.846C78.8949 102.134 80.9628 101.407 83.2126 100.725C84.3413 100.392 85.5079 100.059 86.7274 99.786C87.9773 99.5436 89.1515 99.324 90.3938 99.1346C91.6361 98.9831 92.8784 98.7634 94.098 98.6725C95.3175 98.5513 96.5144 98.4301 97.681 98.3771C98.8399 98.2938 99.9686 98.2407 101.037 98.2256C102.105 98.1877 103.112 98.1801 104.044 98.1953C104.976 98.1877 105.824 98.218 106.582 98.2635C107.339 98.3013 107.991 98.3165 108.536 98.3847C109.612 98.4907 110.233 98.5513 110.233 98.5513C110.233 98.5513 109.612 98.5286 108.536 98.4983C107.998 98.468 107.339 98.4907 106.589 98.4983C105.839 98.4983 104.991 98.5286 104.067 98.5892C103.143 98.6346 102.143 98.6952 101.09 98.8089C100.037 98.8922 98.9233 99.0134 97.7794 99.1725C96.628 99.3012 95.4539 99.4982 94.257 99.6876C93.0526 99.8542 91.8709 100.15 90.6665 100.369C89.4772 100.634 88.2349 100.953 87.1062 101.24C85.9699 101.566 84.8413 101.96 83.7656 102.362C81.6143 103.165 79.6372 104.005 77.9934 104.793C76.3496 105.581 75.0316 106.323 74.2211 106.891C73.8196 107.164 73.5242 107.429 73.4105 107.535C73.3651 107.573 73.2893 107.664 73.2363 107.725C73.1833 107.778 73.1606 107.808 73.1606 107.808L71.3274 106.088Z" fill="#7E9597"/>
<path d="M77.9631 114.148C77.9631 114.148 77.9859 114.126 78.0237 114.08C78.0616 114.035 78.1146 113.974 78.2586 113.823C78.5237 113.542 78.8191 113.3 79.2433 113.004C80.0614 112.421 81.228 111.77 82.6597 111.096C84.0838 110.421 85.7654 109.717 87.6062 109.065C88.5303 108.74 89.4848 108.422 90.4923 108.149C91.5376 107.899 92.4921 107.694 93.5147 107.482C94.5449 107.323 95.5675 107.104 96.575 106.997C97.5825 106.876 98.5748 106.732 99.5368 106.672C100.499 106.581 101.431 106.513 102.309 106.482C103.188 106.429 104.029 106.407 104.794 106.414C105.567 106.399 106.271 106.407 106.892 106.437C107.521 106.46 108.059 106.467 108.506 106.52C109.4 106.604 109.907 106.649 109.907 106.649C109.907 106.649 109.392 106.641 108.498 106.634C108.051 106.619 107.506 106.649 106.885 106.679C106.263 106.694 105.559 106.74 104.801 106.816C104.036 106.876 103.211 106.952 102.347 107.073C101.476 107.172 100.559 107.308 99.6202 107.475C98.6733 107.611 97.7113 107.823 96.7341 108.02C95.7493 108.202 94.7797 108.49 93.8025 108.717C92.8405 108.99 91.8027 109.3 90.9089 109.588C89.9923 109.914 89.0833 110.293 88.2197 110.679C86.4926 111.452 84.9094 112.255 83.599 112.997C82.2961 113.739 81.2659 114.429 80.6523 114.936C80.3493 115.179 80.122 115.413 80.069 115.497C80.0463 115.519 79.9781 115.61 79.9402 115.663C79.9023 115.716 79.8872 115.739 79.8872 115.739L77.9631 114.148Z" fill="#7E9597"/>
<path d="M104.233 75.758C107.369 77.5533 109.846 89.4537 110.248 94.6275C110.869 102.581 109.43 110.224 105.089 116.694C98.8019 117.989 89.1816 120.125 83.0534 117.186C77.0994 114.33 72.1681 110.876 70.6985 103.028C66.4035 80.1591 88.6514 74.3794 104.233 75.4702C104.604 75.5611 104.37 75.4626 103.945 75.758" stroke="#020202" stroke-width="2" stroke-miterlimit="10"/>
<path d="M122.171 73.5916C122.171 73.5916 122.231 73.5613 122.345 73.5082C122.504 73.4401 122.792 73.334 123.012 73.3264C123.247 73.3037 123.497 73.334 123.747 73.4022C124.239 73.5537 124.61 73.8415 124.913 74.1521C125.216 74.4703 125.474 74.8263 125.708 75.2126C126.178 75.9853 126.58 76.8867 126.958 77.8639C127.148 78.3487 127.322 78.8562 127.481 79.3789C127.648 79.9016 127.799 80.4167 127.928 80.9924C128.019 81.606 128.072 82.0832 128.14 82.6286C128.223 83.1437 128.231 83.6967 128.246 84.2118C128.261 84.7269 128.292 85.2268 128.292 85.6965C128.284 86.1585 128.269 86.6055 128.261 87.0069C128.254 87.8175 128.201 88.4917 128.178 88.9613C128.148 89.431 128.132 89.7037 128.132 89.7037C128.132 89.7037 128.11 89.4385 128.072 88.9613C128.034 88.4917 127.989 87.8175 127.882 87.0221C127.837 86.6206 127.784 86.1888 127.731 85.7343C127.663 85.2798 127.572 84.8102 127.489 84.3254C127.405 83.8406 127.329 83.3406 127.17 82.8255C127.034 82.3256 126.898 81.818 126.754 81.3105C126.58 80.856 126.36 80.3561 126.14 79.894C125.921 79.4243 125.686 78.9698 125.451 78.5456C124.981 77.6897 124.489 76.9246 124.034 76.3716C123.807 76.0989 123.587 75.8792 123.413 75.7504C123.239 75.6141 123.11 75.5914 123.148 75.6217C123.171 75.6444 123.209 75.6444 123.262 75.652C123.3 75.652 123.443 75.6217 123.481 75.5838C123.375 75.652 123.322 75.6898 123.322 75.6898L122.171 73.5916Z" fill="#050505"/>
<path d="M140.699 72.622C140.699 72.622 140.76 72.5917 140.874 72.5386C141.033 72.4705 141.321 72.3644 141.54 72.3568C141.775 72.3341 142.025 72.3644 142.275 72.4326C142.767 72.5841 143.139 72.8719 143.442 73.1825C143.745 73.5007 144.002 73.8567 144.237 74.243C144.707 75.0157 145.108 75.9171 145.487 76.8943C145.676 77.3791 145.85 77.8866 146.01 78.4093C146.176 78.932 146.328 79.4471 146.456 80.0228C146.547 80.6363 146.6 81.1136 146.669 81.659C146.752 82.1741 146.76 82.7271 146.775 83.2422C146.79 83.7573 146.82 84.2572 146.82 84.7269C146.813 85.1889 146.797 85.6359 146.79 86.0373C146.782 86.8479 146.729 87.522 146.706 87.9917C146.676 88.4614 146.661 88.7341 146.661 88.7341C146.661 88.7341 146.638 88.4689 146.6 87.9917C146.563 87.522 146.517 86.8479 146.411 86.0525C146.366 85.651 146.313 85.2192 146.26 84.7647C146.191 84.3102 146.1 83.8406 146.017 83.3558C145.934 82.871 145.858 82.371 145.699 81.8559C145.563 81.356 145.426 80.8484 145.282 80.3409C145.108 79.8864 144.888 79.3865 144.669 78.9244C144.449 78.4547 144.214 78.0002 143.979 77.576C143.51 76.72 143.017 75.955 142.563 75.402C142.336 75.1293 142.116 74.9096 141.942 74.7808C141.768 74.6445 141.639 74.6218 141.677 74.6521C141.699 74.6748 141.737 74.6748 141.79 74.6824C141.828 74.6824 141.972 74.6521 142.01 74.6142C141.904 74.6824 141.851 74.7202 141.851 74.7202L140.699 72.622Z" fill="#050505"/>
<path d="M158.789 72.2356C158.789 72.2356 158.849 72.2053 158.963 72.1523C159.122 72.0841 159.41 71.9781 159.629 71.9705C159.864 71.9478 160.114 71.9781 160.364 72.0463C160.857 72.1978 161.228 72.4856 161.531 72.7962C161.834 73.1143 162.091 73.4704 162.326 73.8567C162.796 74.6293 163.197 75.5308 163.576 76.508C163.765 76.9928 163.94 77.5003 164.099 78.023C164.265 78.5456 164.417 79.0607 164.546 79.6364C164.637 80.25 164.69 80.7272 164.758 81.2727C164.841 81.7878 164.849 82.3407 164.864 82.8558C164.879 83.3709 164.909 83.8709 164.909 84.3405C164.902 84.8026 164.887 85.2496 164.879 85.651C164.871 86.4616 164.818 87.1357 164.796 87.6054C164.765 88.075 164.75 88.3477 164.75 88.3477C164.75 88.3477 164.727 88.0826 164.69 87.6054C164.652 87.1357 164.606 86.4616 164.5 85.6662C164.455 85.2647 164.402 84.8329 164.349 84.3784C164.28 83.9239 164.19 83.4543 164.106 82.9695C164.023 82.4847 163.947 81.9847 163.788 81.4696C163.652 80.9697 163.515 80.4621 163.371 79.9546C163.197 79.5001 162.978 79.0001 162.758 78.5381C162.538 78.0684 162.303 77.6139 162.069 77.1897C161.599 76.3337 161.107 75.5687 160.652 75.0157C160.425 74.743 160.205 74.5233 160.031 74.3945C159.857 74.2582 159.728 74.2354 159.766 74.2657C159.788 74.2885 159.826 74.2885 159.879 74.296C159.917 74.296 160.061 74.2657 160.099 74.2279C159.993 74.296 159.94 74.3339 159.94 74.3339L158.789 72.2356Z" fill="#050505"/>
<path d="M122.527 141.04C122.527 141.04 122.466 141.032 122.345 141.025C122.269 141.017 122.254 141.025 122.08 140.994C121.891 140.956 121.671 140.896 121.444 140.805C120.724 140.464 120.186 139.843 119.724 139.108C119.262 138.373 118.883 137.502 118.542 136.563C118.376 136.093 118.217 135.608 118.073 135.108C117.929 134.601 117.8 134.124 117.687 133.556C117.603 133.048 117.52 132.541 117.444 132.048C117.353 131.556 117.3 131.048 117.262 130.556C117.224 130.063 117.164 129.601 117.141 129.147C117.141 128.685 117.171 128.276 117.202 127.889C117.27 127.124 117.323 126.48 117.361 126.034C117.384 125.806 117.406 125.632 117.414 125.518C117.429 125.511 117.391 125.496 117.444 125.503V125.526V125.564C117.444 125.587 117.444 125.609 117.444 125.625C117.444 125.655 117.444 125.67 117.444 125.67C117.452 125.685 117.421 125.571 117.452 125.526C117.452 125.647 117.459 125.821 117.467 126.049C117.49 126.496 117.527 127.132 117.565 127.905C117.596 128.283 117.618 128.708 117.679 129.124C117.762 129.541 117.876 129.988 117.982 130.45C118.08 130.904 118.194 131.374 118.361 131.859C118.512 132.344 118.664 132.828 118.815 133.321C118.974 133.745 119.171 134.237 119.368 134.677C119.565 135.124 119.777 135.555 119.989 135.972C120.414 136.79 120.876 137.51 121.307 138.025C121.519 138.282 121.732 138.487 121.906 138.616C122.072 138.752 122.232 138.805 122.277 138.82C122.262 138.798 122.232 138.798 122.209 138.813C122.171 138.828 122.262 138.813 122.285 138.813C122.322 138.813 122.353 138.805 122.383 138.805C122.504 138.798 122.565 138.798 122.565 138.798L122.527 141.04Z" fill="black"/>
<path d="M138.616 140.676C138.616 140.676 138.556 140.669 138.45 140.661C138.419 140.661 138.397 140.653 138.359 140.653C138.321 140.646 138.313 140.653 138.2 140.631C138.018 140.593 137.798 140.532 137.578 140.441C137.253 140.267 136.965 140.047 136.715 139.767C136.465 139.494 136.245 139.184 136.041 138.843C135.639 138.169 135.314 137.381 135.026 136.533C134.882 136.108 134.753 135.669 134.632 135.215C134.511 134.752 134.405 134.328 134.306 133.813C134.238 133.359 134.17 132.904 134.109 132.457C134.033 132.018 133.995 131.556 133.965 131.116C133.935 130.677 133.889 130.26 133.874 129.851C133.882 129.435 133.912 129.071 133.935 128.723C133.995 128.033 134.048 127.465 134.086 127.064C134.109 126.867 134.124 126.708 134.139 126.602C134.192 126.647 134.147 126.753 134.155 126.738C134.162 126.753 134.132 126.647 134.162 126.609C134.17 126.715 134.17 126.874 134.177 127.071C134.2 127.473 134.238 128.041 134.283 128.73C134.314 129.071 134.336 129.45 134.389 129.821C134.465 130.192 134.571 130.594 134.662 131.003C134.753 131.412 134.851 131.828 135.003 132.26C135.139 132.692 135.276 133.131 135.412 133.571C135.548 133.949 135.73 134.389 135.904 134.783C136.079 135.184 136.268 135.571 136.457 135.934C136.836 136.669 137.238 137.313 137.624 137.767C137.813 137.995 137.995 138.169 138.147 138.29C138.298 138.404 138.419 138.449 138.45 138.457C138.419 138.426 138.374 138.419 138.336 138.434C138.298 138.441 138.359 138.441 138.389 138.434C138.419 138.434 138.45 138.426 138.48 138.426C138.586 138.419 138.647 138.419 138.647 138.419L138.616 140.676Z" fill="black"/>
<path d="M175.06 138.487C175.06 138.487 175.007 138.479 174.901 138.472C174.848 138.464 174.78 138.464 174.704 138.457C174.545 138.426 174.355 138.388 174.151 138.32C173.916 138.252 173.825 138.169 173.658 138.07C173.492 137.979 173.363 137.866 173.227 137.745C173.083 137.623 172.954 137.495 172.84 137.351C172.712 137.207 172.598 137.063 172.492 136.904C172.045 136.275 171.674 135.525 171.348 134.715C171.03 133.904 170.742 133.04 170.53 132.139C170.424 131.654 170.371 131.253 170.288 130.813C170.25 130.601 170.212 130.382 170.174 130.177C170.151 129.957 170.129 129.738 170.106 129.526C170.068 129.101 170.03 128.692 169.992 128.299C169.992 127.889 170.022 127.541 170.045 127.2C170.098 126.534 170.159 125.981 170.197 125.594C170.219 125.405 170.242 125.253 170.25 125.147C170.25 125.14 170.25 125.132 170.257 125.125C170.303 125.14 170.272 125.14 170.28 125.147V125.178C170.28 125.2 170.28 125.215 170.28 125.231C170.28 125.261 170.28 125.269 170.28 125.269C170.288 125.284 170.257 125.178 170.288 125.147C170.295 125.253 170.295 125.405 170.303 125.594C170.325 125.981 170.356 126.534 170.409 127.193C170.439 127.518 170.462 127.889 170.522 128.238C170.613 128.594 170.712 128.973 170.818 129.367C170.871 129.564 170.924 129.76 170.969 129.957C171.038 130.162 171.113 130.367 171.181 130.571C171.325 130.973 171.469 131.435 171.613 131.791C171.939 132.571 172.34 133.343 172.742 134.025C173.151 134.699 173.583 135.29 173.977 135.684C174.075 135.783 174.166 135.874 174.257 135.942C174.348 136.017 174.431 136.086 174.507 136.116C174.583 136.161 174.651 136.207 174.704 136.214C174.749 136.222 174.833 136.275 174.795 136.237C174.78 136.222 174.757 136.23 174.742 136.237C174.817 136.23 174.878 136.23 174.924 136.222C175.03 136.214 175.083 136.214 175.083 136.214L175.06 138.487Z" fill="black"/>
<path d="M158.266 139.941C158.266 139.941 158.213 139.934 158.107 139.926C158.054 139.919 157.986 139.911 157.91 139.911C157.751 139.881 157.561 139.843 157.357 139.775C157.122 139.707 157.039 139.623 156.865 139.525C156.698 139.434 156.569 139.32 156.433 139.199C156.152 138.957 155.918 138.669 155.698 138.351C155.251 137.722 154.887 136.972 154.562 136.161C154.244 135.351 153.963 134.487 153.751 133.586C153.645 133.101 153.592 132.7 153.509 132.26C153.471 132.048 153.433 131.828 153.395 131.624C153.372 131.404 153.35 131.185 153.327 130.972C153.289 130.548 153.251 130.139 153.213 129.753C153.213 129.344 153.244 128.995 153.266 128.655C153.319 127.988 153.38 127.435 153.418 127.056C153.441 126.867 153.463 126.715 153.471 126.609C153.471 126.602 153.471 126.594 153.479 126.587C153.524 126.602 153.494 126.602 153.501 126.609V126.64C153.501 126.662 153.501 126.677 153.501 126.693C153.501 126.723 153.501 126.73 153.501 126.73C153.509 126.746 153.479 126.64 153.509 126.609C153.516 126.715 153.516 126.867 153.524 127.056C153.547 127.443 153.577 127.995 153.63 128.655C153.66 128.98 153.683 129.351 153.744 129.692C153.835 130.048 153.933 130.427 154.039 130.821C154.092 131.018 154.145 131.215 154.191 131.412C154.259 131.616 154.334 131.821 154.403 132.025C154.547 132.427 154.691 132.881 154.834 133.245C155.16 134.025 155.554 134.798 155.956 135.48C156.365 136.154 156.789 136.745 157.183 137.139C157.372 137.336 157.561 137.495 157.713 137.578C157.789 137.623 157.857 137.669 157.902 137.676C157.94 137.684 158.031 137.737 157.993 137.699C157.978 137.684 157.955 137.684 157.94 137.699C158.016 137.692 158.077 137.692 158.122 137.684C158.228 137.676 158.281 137.676 158.281 137.676L158.266 139.941Z" fill="black"/>
</g>
<defs>
<clipPath id="clip0">
<rect width="336.362" height="160" fill="white" transform="translate(0.318848 0.5)"/>
</clipPath>
</defs>
</svg>
