<svg width="201" height="267" viewBox="0 0 201 267" fill="none" xmlns="http://www.w3.org/2000/svg">
<ellipse cx="110.5" cy="261.5" rx="90.5" ry="5.5" fill="#F4F4F7"/>
<path d="M70.6207 168.105C68.7149 172.631 65.3267 179.143 60.5357 182.743C54.3682 187.401 50.0271 189.836 44.8655 195.554C37.5068 203.707 54.0505 227.688 63.5532 233.247C82.3469 211.568 94.2054 197.46 105.455 181.525C119.352 161.778 78.1646 147.564 68.8207 168.105" fill="#7E9597"/>
<path d="M76.6561 174.669C71.3092 182.345 64.1623 189.069 58.9213 194.839C57.7831 196.083 52.2773 189.916 51.7744 189.201C56.989 183.748 63.9506 177.607 68.5034 171.81C70.0916 174.113 73.1092 175.569 74.0886 175.516" fill="#FFFDFD"/>
<path d="M64.1355 175.304C64.1355 175.304 64.9561 175.807 66.2002 176.681C67.4707 177.528 69.0589 178.772 70.5412 180.148C71.2294 180.89 71.9706 181.578 72.5265 182.345C73.1353 183.06 73.5588 183.828 73.9294 184.49C74.3529 185.125 74.4588 185.76 74.6441 186.131C74.8029 186.528 74.8823 186.766 74.8823 186.766C74.8823 186.766 74.7499 186.554 74.5382 186.184C74.2735 185.84 74.0617 185.257 73.5588 184.728C73.0823 184.172 72.5529 183.537 71.8647 182.954C71.2294 182.319 70.4089 181.816 69.6413 181.234C68.0266 180.201 66.3325 179.328 65.0355 178.772C63.7385 178.19 62.812 177.819 62.812 177.819L64.1355 175.304Z" fill="#020202"/>
<path d="M58.3656 182.769C58.3656 182.769 59.0802 183.404 60.192 184.463C61.3037 185.495 62.6802 187.004 63.9243 188.592C64.5066 189.439 65.1154 190.233 65.5124 191.081C65.9889 191.875 66.3065 192.722 66.5712 193.41C66.8889 194.098 66.8889 194.733 67.0212 195.157C67.1006 195.58 67.1536 195.819 67.1536 195.819C67.1536 195.819 67.0477 195.58 66.8889 195.183C66.7036 194.786 66.5712 194.204 66.1477 193.595C65.7771 192.96 65.3536 192.245 64.7448 191.583C64.2154 190.869 63.5007 190.207 62.839 189.545C61.4096 188.275 59.8743 187.137 58.6832 186.369C57.4921 185.575 56.645 185.072 56.645 185.072L58.3656 182.769Z" fill="#020202"/>
<path d="M70.7269 168.158C70.7269 168.158 70.6475 168.369 70.4887 168.74C70.3034 169.11 70.1446 169.719 69.6946 170.434C68.9005 171.916 67.3917 173.822 65.327 176.072C63.2095 178.243 60.8007 180.969 57.9684 184.145C56.4861 185.681 54.845 187.216 53.0979 188.857C52.648 189.281 52.2774 189.678 51.7215 190.128C50.9803 190.683 50.1598 190.895 49.3921 190.922C47.8569 190.948 46.5863 190.525 45.3687 190.26C44.1511 189.969 42.9864 189.863 42.3511 190.313C42.1923 190.419 42.007 190.578 41.8747 190.736C41.6629 191.001 41.4247 191.266 41.2659 191.531C40.9482 192.007 40.6571 192.536 40.3659 193.119C39.2806 195.448 38.7512 198.201 38.6454 201.06C38.513 206.777 39.4659 213.051 42.1394 218.821C43.4894 221.68 45.3158 224.486 48.0157 226.259C50.8215 227.98 53.7862 229.647 56.8831 230.997C58.4449 231.632 60.0331 232.241 61.6742 232.453C62.4948 232.559 63.3153 232.532 64.0035 232.268C64.6653 232.03 65.1153 231.262 65.6976 230.627C67.9211 228.006 70.224 225.412 72.421 222.712C76.8415 217.392 81.1031 211.939 85.3118 206.592C89.4412 201.192 93.3322 195.792 96.8792 190.366C98.6527 187.666 100.426 184.992 102.226 182.425C104.079 179.884 105.482 177.501 105.8 174.828C106.17 172.207 105.403 169.64 103.947 167.549C102.544 165.431 100.532 163.764 98.4145 162.493C94.1528 159.978 89.4676 158.999 85.4177 158.946C81.3414 158.893 77.8209 159.978 75.2797 161.434C72.7122 162.89 71.1504 164.716 70.2505 166.014C69.324 167.337 68.9799 168.131 68.9799 168.131L68.7417 168.025C68.7417 168.025 69.0328 167.205 69.8534 165.775C70.674 164.372 72.1298 162.334 74.7239 160.534C77.2915 158.734 81.0237 157.411 85.3913 157.199C89.7588 156.961 94.7881 157.861 99.5791 160.455C101.961 161.778 104.317 163.552 106.117 166.04C107.891 168.528 108.949 171.863 108.473 175.172C108.129 178.481 106.276 181.525 104.503 184.013C102.729 186.581 100.929 189.201 99.0762 191.875C95.3704 197.222 91.3735 202.701 86.9795 207.942C82.6119 213.209 77.9003 218.318 73.268 223.453C70.9122 225.994 68.6358 228.615 66.3329 231.182L65.4859 232.162C65.1947 232.506 64.7712 232.877 64.3212 233.035C63.3947 233.406 62.4418 233.379 61.5683 233.274C59.7948 233.035 58.1537 232.453 56.5655 231.791C53.3891 230.468 50.4245 228.827 47.5128 227.08C44.5482 225.174 42.51 222.341 40.9218 219.456C39.3336 216.545 38.2218 213.448 37.4807 210.324C36.6866 207.227 36.3425 204.077 36.3954 201.007C36.5013 197.936 36.9248 194.866 38.2483 192.113C38.5924 191.451 38.9895 190.763 39.4659 190.101L40.1277 189.281C40.4453 188.91 40.7894 188.619 41.1865 188.381C42.9335 187.401 44.6276 187.851 45.8981 188.116C47.1951 188.434 48.3863 188.804 49.3657 188.804C49.8157 188.804 50.2392 188.645 50.4774 188.486C50.8745 188.195 51.3509 187.719 51.7744 187.348C53.5215 185.76 55.1626 184.278 56.6978 182.875C59.6095 179.857 62.2565 177.21 64.5065 175.199C66.73 173.187 68.3711 171.466 69.2446 170.143C69.7475 169.534 70.0122 168.952 70.224 168.581C70.4357 168.211 70.5416 168.025 70.5416 168.025L70.7269 168.158Z" fill="#020202"/>
<path d="M65.3265 231.474C59.0532 238.806 46.2682 234.438 37.5331 223.506C28.798 212.574 27.051 198.439 33.6685 191.901C40.286 185.363 52.7269 188.936 61.4619 199.869C70.197 210.801 71.3882 224.353 65.3265 231.474Z" fill="white"/>
<path d="M65.406 231.553C65.406 231.553 65.3266 231.659 65.1413 231.844C64.9825 232.03 64.7178 232.321 64.3472 232.638C63.6061 233.3 62.4149 234.2 60.6414 234.809C58.868 235.418 56.5386 235.735 53.9181 235.338C51.324 234.941 48.4123 233.988 45.633 232.321C42.8272 230.68 40.1008 228.377 37.745 225.544C35.3891 222.739 33.351 219.297 31.8951 215.592C30.4393 211.859 29.4334 207.836 29.2481 203.654C29.1158 199.524 29.9099 194.972 32.9274 191.557C34.3833 189.916 36.4215 188.592 38.592 188.01C40.789 187.401 43.0654 187.401 45.2359 187.719C49.577 188.486 53.4152 190.551 56.6445 193.039C59.8474 195.501 62.5473 198.651 64.5061 201.642C66.5972 204.818 68.0001 208.048 68.8207 211.198C70.4618 217.524 69.6942 223.083 68.3442 226.524C67.6824 228.244 66.9413 229.515 66.359 230.335C65.7237 231.13 65.406 231.553 65.406 231.553ZM65.2207 231.394C65.2207 231.394 65.5119 230.971 66.0943 230.203C66.6237 229.383 67.3383 228.138 67.8413 226.418C68.4236 224.697 68.6089 222.474 68.503 220.012C68.3707 217.524 67.7619 214.771 66.7031 211.912C65.6443 209.08 64.1619 206.089 62.2296 203.283C60.165 200.345 57.8621 197.672 54.8975 195.263C52.0122 192.88 48.5447 190.922 44.7595 190.101C41.0272 189.254 36.845 189.889 33.9862 192.642C31.0745 195.369 29.9628 199.657 30.0687 203.654C30.1481 207.704 31.3392 211.648 33.1127 215.062C34.8597 218.53 37.0832 221.468 39.4655 224.062C41.8213 226.656 44.3095 228.827 46.7977 230.547C49.2858 232.268 51.774 233.565 54.1828 234.2C56.5651 234.835 58.7886 234.862 60.5356 234.385C62.2826 233.935 63.4737 233.062 64.1884 232.453C64.559 232.135 64.8237 231.871 64.9825 231.685C65.1149 231.474 65.2207 231.394 65.2207 231.394Z" fill="#020000"/>
<path d="M32.0542 210.959C32.0542 210.959 33.2454 206.804 34.1453 204.686C34.3571 204.104 34.6747 203.733 34.9394 203.177C35.2306 202.648 35.5482 202.092 35.8659 201.536C36.1835 200.954 36.66 200.398 37.057 199.816C37.4806 199.26 37.8776 198.598 38.3805 198.069C38.857 197.513 39.3599 196.957 39.8364 196.427C40.3128 195.845 40.8687 195.422 41.3452 194.919C42.3245 193.913 43.3569 193.172 44.2039 192.457C45.9774 191.133 47.195 190.339 47.195 190.339C47.195 190.339 45.898 190.895 43.9657 191.928C43.0392 192.51 41.8746 193.092 40.7363 193.939C40.1805 194.363 39.5187 194.733 38.9629 195.236C38.3805 195.739 37.7982 196.216 37.1894 196.719C36.5806 197.222 36.0776 197.83 35.5218 198.36C34.9924 198.942 34.41 199.445 33.9336 200.054C33.4571 200.663 33.0071 201.271 32.5571 201.827C32.1336 202.383 31.6307 202.966 31.3925 203.442C30.2013 205.401 30.2543 205.083 30.2543 205.083L32.0542 210.959Z" fill="#A7C4C3"/>
<path d="M36.8717 223.427C36.8717 223.427 37.9305 218.927 39.1746 216.068C39.4657 215.327 39.9157 214.718 40.3128 213.977C40.7363 213.236 41.1598 212.468 41.6098 211.648C42.0863 210.854 42.6686 210.086 43.2245 209.265C43.8068 208.471 44.3097 207.571 44.9979 206.857C46.2685 205.321 47.5391 203.76 48.889 202.463C50.1596 201.06 51.5095 199.974 52.6213 198.942C54.9242 197.036 56.5388 195.845 56.5388 195.845C56.5388 195.845 54.8183 196.772 52.2772 198.36C51.0596 199.233 49.5508 200.133 48.0949 201.351C46.5597 202.463 45.0774 203.865 43.5421 205.295C42.748 205.957 42.1127 206.804 41.398 207.545C40.7098 208.312 39.9951 209.027 39.3863 209.821C38.7775 210.642 38.1952 211.436 37.6393 212.177C37.1099 212.945 36.5011 213.659 36.1305 214.321C34.5688 216.995 33.8276 218.027 33.8276 218.027L36.8717 223.427Z" fill="#A7C4C3"/>
<path d="M44.1245 230.865C44.1245 230.865 44.6009 229.7 45.845 226.815C46.1362 226.074 46.5862 225.465 46.9832 224.724C47.4067 223.983 47.8303 223.215 48.2803 222.394C48.7567 221.6 49.3391 220.833 49.8949 220.012C50.4773 219.218 50.9802 218.318 51.6684 217.603C52.939 216.068 54.2095 214.506 55.5595 213.209C56.83 211.806 58.18 210.721 59.2917 209.689C61.5946 207.783 63.2093 206.592 63.2093 206.592C63.2093 206.592 61.4888 207.518 58.9476 209.107C57.73 209.98 56.2212 210.88 54.7654 212.098C53.2301 213.209 51.7478 214.612 50.2126 216.042C49.4185 216.703 48.7832 217.55 48.0685 218.292C47.3803 219.059 46.6656 219.774 46.0568 220.568C45.448 221.389 44.8656 222.183 44.3098 222.924C43.7804 223.691 43.1716 224.406 42.801 225.068C41.2393 227.741 41.2393 228.324 41.2393 228.324L44.1245 230.865Z" fill="#A7C4C3"/>
<path d="M54.2625 235.815C54.2625 235.815 54.1831 235.126 54.9507 233.141C55.136 232.612 55.9036 231.474 56.1419 230.971C56.4066 230.468 57.3595 229.038 57.6507 228.483C57.9154 227.927 58.6036 227.318 58.9742 226.736C59.3712 226.18 59.7153 225.571 60.1653 225.041C61.0388 223.956 61.9123 222.844 62.8652 221.944C63.7652 220.965 64.7181 220.197 65.4858 219.483C67.1004 218.159 68.2651 217.339 68.2651 217.339C68.2651 217.339 67.0475 217.947 65.2475 219.006C64.374 219.589 63.3152 220.224 62.2564 221.071C61.1712 221.839 60.1124 222.844 59.0006 223.85C58.4448 224.327 57.9948 224.936 57.4918 225.465C57.0154 226.021 56.486 226.524 56.0625 227.133C55.6389 227.741 55.2154 228.297 54.8449 228.853C54.4743 229.409 54.0243 229.965 53.8125 230.415C52.7537 232.321 51.6685 234.094 51.6685 234.094L54.2625 235.815Z" fill="#A7C4C3"/>
<path d="M65.4328 231.632C65.4328 231.632 65.0622 232.003 64.3475 232.691C63.6328 233.353 63.1034 233.803 61.4888 234.703C59.8476 235.524 56.4595 236.265 53.9184 235.921C51.3773 235.55 50.2391 234.703 46.9568 233.274C43.8863 230.812 41.4246 229.7 38.9893 226.736C37.7982 225.253 36.21 223.506 35.31 221.839C34.3571 220.039 32.7954 217.445 32.0277 215.512C30.5454 211.595 29.6454 208.683 29.2749 204.236C28.9572 199.895 29.5396 194.839 32.6895 191.292C34.0924 189.625 36.1835 188.248 38.2482 187.586C40.3658 186.951 42.5628 186.766 44.6539 187.057C48.8626 187.613 52.7272 189.466 56.036 191.848C59.3447 194.204 62.177 197.248 64.2681 200.345C66.5181 203.601 68.1063 206.936 69.0327 210.324C69.9592 213.659 70.2239 216.915 70.0915 219.721C69.9856 222.553 69.3239 224.909 68.5827 226.709C67.8416 228.509 66.9945 229.753 66.3857 230.547C65.8034 231.235 65.4328 231.632 65.4328 231.632ZM65.1946 231.315C65.1946 231.315 65.5122 230.918 66.1475 230.177C66.7298 229.409 67.5239 228.165 68.0004 226.365C69.1651 222.791 68.6357 217.153 66.0945 211.568C64.8769 208.789 63.2623 205.824 61.277 203.124C59.1594 200.292 56.7771 197.698 53.9184 195.422C51.1126 193.145 47.7774 191.425 44.2833 190.683C40.7628 189.969 37.0835 190.392 34.1718 192.933C31.2601 195.395 30.1219 199.921 30.4925 204.077C30.8101 208.312 32.3454 212.256 34.2512 215.645C35.2041 217.365 36.2365 218.953 37.2953 220.436C38.4864 221.997 39.4923 223.374 40.6305 224.644C42.8539 227.212 45.2892 229.171 47.7244 230.785C50.1067 232.347 52.6214 233.697 54.8184 234.412C57.0418 235.126 59.133 235.179 60.6947 234.518C62.2829 233.909 62.6005 233.697 63.3417 233.062C64.0564 232.427 65.1946 231.315 65.1946 231.315Z" fill="#020000"/>
<path d="M138.543 160.058C140.502 164.69 143.97 171.36 148.893 175.066C155.193 179.831 159.64 182.345 164.934 188.195C172.478 196.56 155.511 221.124 145.77 226.815C126.5 204.607 114.376 190.154 102.862 173.796C88.6211 153.573 130.841 139.014 140.396 160.031" fill="#7E9597"/>
<path d="M132.323 166.808C137.802 174.669 145.108 181.578 150.481 187.481C151.646 188.751 157.284 182.425 157.787 181.71C152.44 176.125 145.319 169.825 140.634 163.869C139.02 166.225 135.896 167.734 134.917 167.655" fill="#FFFDFD"/>
<path d="M144.525 167.363C144.525 167.363 143.731 167.919 142.487 168.899C141.243 169.852 139.681 171.228 138.252 172.71C137.59 173.505 136.876 174.246 136.373 175.093C135.79 175.86 135.393 176.681 135.049 177.369C134.679 178.031 134.573 178.693 134.414 179.09C134.282 179.513 134.202 179.751 134.202 179.751C134.202 179.751 134.308 179.54 134.52 179.143C134.758 178.772 134.943 178.163 135.446 177.607C135.896 177.025 136.399 176.31 137.087 175.702C137.696 175.013 138.49 174.431 139.231 173.822C140.82 172.684 142.487 171.678 143.811 171.016C145.108 170.328 146.034 169.905 146.034 169.905L144.525 167.363Z" fill="#020202"/>
<path d="M150.905 174.669C150.905 174.669 150.216 175.357 149.158 176.496C148.072 177.634 146.775 179.248 145.611 180.943C145.081 181.843 144.499 182.69 144.128 183.59C143.678 184.437 143.414 185.31 143.202 186.051C142.937 186.766 142.937 187.428 142.858 187.851C142.805 188.275 142.752 188.539 142.752 188.539C142.752 188.539 142.831 188.301 142.964 187.878C143.149 187.481 143.228 186.845 143.625 186.21C143.97 185.548 144.34 184.781 144.922 184.066C145.425 183.298 146.114 182.584 146.749 181.869C148.125 180.493 149.608 179.222 150.799 178.348C151.964 177.475 152.811 176.893 152.811 176.893L150.905 174.669Z" fill="#020202"/>
<path d="M138.649 160.005C138.649 160.005 139.02 160.825 139.972 162.149C140.899 163.499 142.54 165.272 144.843 167.337C147.146 169.402 149.846 172.102 152.837 175.199C154.425 176.628 156.119 178.163 157.893 179.804C158.316 180.175 158.819 180.678 159.216 180.969C159.454 181.128 159.904 181.287 160.381 181.287C161.387 181.313 162.604 180.916 163.928 180.598C165.225 180.307 166.972 179.857 168.719 180.863C169.142 181.101 169.46 181.393 169.804 181.79L170.466 182.61C170.942 183.272 171.339 183.96 171.71 184.648C173.06 187.454 173.51 190.604 173.616 193.754C173.695 196.904 173.325 200.133 172.53 203.31C171.763 206.486 170.625 209.662 169.01 212.654C167.395 215.618 165.304 218.53 162.287 220.462C159.322 222.236 156.278 223.903 153.022 225.28C151.381 225.941 149.713 226.55 147.887 226.788C146.987 226.894 146.008 226.921 145.081 226.55C144.605 226.391 144.181 225.994 143.89 225.65L143.017 224.671C140.661 222.024 138.331 219.35 135.923 216.756C131.184 211.489 126.367 206.248 121.894 200.848C117.394 195.475 113.291 189.863 109.506 184.384C107.626 181.657 105.773 178.957 103.947 176.31C102.12 173.769 100.215 170.646 99.8705 167.258C99.3941 163.869 100.479 160.455 102.279 157.914C104.132 155.373 106.514 153.546 108.95 152.196C113.873 149.549 119.008 148.623 123.482 148.861C127.955 149.073 131.767 150.449 134.387 152.276C137.034 154.102 138.543 156.193 139.364 157.623C140.211 159.078 140.502 159.925 140.502 159.925L140.264 160.031C140.264 160.031 139.893 159.211 138.967 157.861C138.04 156.537 136.426 154.658 133.805 153.149C131.211 151.64 127.611 150.529 123.429 150.582C119.273 150.634 114.482 151.614 110.114 154.208C107.944 155.505 105.906 157.199 104.45 159.396C102.968 161.54 102.173 164.187 102.544 166.887C102.862 169.64 104.344 172.075 106.223 174.696C108.05 177.316 109.85 180.069 111.703 182.848C115.329 188.407 119.326 193.939 123.561 199.471C127.876 204.951 132.243 210.536 136.77 215.989C139.02 218.742 141.349 221.389 143.652 224.089C144.261 224.75 144.711 225.544 145.399 225.783C146.113 226.074 146.961 226.074 147.781 225.968C149.449 225.73 151.09 225.121 152.678 224.459C155.854 223.083 158.872 221.389 161.757 219.615C164.537 217.815 166.389 214.903 167.766 211.992C170.519 206.089 171.498 199.657 171.366 193.78C171.233 190.842 170.704 188.01 169.592 185.628C169.301 185.019 168.984 184.49 168.666 183.987C168.481 183.722 168.242 183.431 168.031 183.166C167.898 183.034 167.713 182.822 167.554 182.743C166.866 182.266 165.675 182.398 164.431 182.663C163.187 182.928 161.89 183.378 160.301 183.325C159.507 183.298 158.687 183.087 157.919 182.504C157.337 182.028 156.993 181.631 156.516 181.207C154.743 179.513 153.049 177.925 151.54 176.363C148.655 173.107 146.166 170.328 143.996 168.105C141.878 165.828 140.343 163.843 139.522 162.361C138.702 160.878 138.437 160.005 138.437 160.005H138.649Z" fill="#020202"/>
<path d="M143.969 224.989C150.401 232.506 163.477 228.006 172.451 216.809C181.398 205.613 183.171 191.107 176.421 184.437C169.645 177.74 156.913 181.419 147.94 192.616C138.966 203.813 137.722 217.709 143.969 224.989Z" fill="white"/>
<path d="M144.048 224.909C144.048 224.909 144.128 225.015 144.313 225.2C144.498 225.386 144.763 225.677 145.134 225.994C145.875 226.63 147.093 227.53 148.866 227.98C150.639 228.483 152.916 228.456 155.378 227.794C157.839 227.159 160.407 225.809 162.948 224.062C165.489 222.289 168.057 220.065 170.465 217.418C172.901 214.745 175.177 211.727 176.951 208.18C178.777 204.686 179.995 200.636 180.074 196.48C180.18 192.378 179.042 187.984 176.051 185.178C173.112 182.345 168.824 181.684 165.013 182.557C161.122 183.378 157.575 185.39 154.61 187.825C151.566 190.286 149.21 193.039 147.093 196.057C145.134 198.942 143.598 202.013 142.513 204.898C141.428 207.81 140.819 210.642 140.687 213.209C140.581 215.751 140.766 218.027 141.375 219.774C141.904 221.547 142.646 222.844 143.175 223.665C143.757 224.486 144.048 224.909 144.048 224.909ZM143.863 225.094C143.863 225.094 143.519 224.671 142.91 223.85C142.328 223.03 141.587 221.733 140.899 219.959C139.522 216.439 138.754 210.748 140.449 204.263C141.296 201.033 142.751 197.724 144.869 194.495C146.854 191.398 149.634 188.195 152.916 185.681C156.225 183.14 160.169 181.022 164.589 180.228C166.813 179.884 169.142 179.884 171.365 180.519C173.589 181.128 175.68 182.451 177.162 184.145C180.233 187.613 181.08 192.298 180.921 196.507C180.736 200.795 179.677 204.924 178.195 208.736C176.686 212.521 174.621 216.042 172.186 218.927C169.751 221.839 166.971 224.194 164.113 225.888C161.254 227.583 158.289 228.562 155.616 228.985C152.942 229.409 150.534 229.065 148.734 228.456C146.907 227.821 145.69 226.894 144.922 226.233C144.525 225.888 144.26 225.597 144.101 225.412C143.943 225.2 143.863 225.094 143.863 225.094Z" fill="#020000"/>
<path d="M178.009 203.998C178.009 203.998 176.792 199.736 175.892 197.566C175.68 196.983 175.362 196.586 175.071 196.03C174.78 195.501 174.436 194.919 174.118 194.336C173.801 193.728 173.324 193.172 172.901 192.563C172.451 191.981 172.054 191.319 171.551 190.763C171.048 190.207 170.545 189.625 170.068 189.069C169.592 188.486 169.01 188.037 168.507 187.534C167.501 186.528 166.442 185.734 165.569 184.992C163.769 183.642 162.498 182.822 162.498 182.822C162.498 182.822 163.822 183.404 165.807 184.437C166.76 185.019 167.924 185.628 169.089 186.501C169.671 186.925 170.333 187.295 170.889 187.825C171.498 188.328 172.08 188.831 172.689 189.36C173.298 189.863 173.827 190.498 174.41 191.054C174.965 191.636 175.548 192.166 176.024 192.801C176.501 193.436 176.977 194.045 177.427 194.628C177.851 195.21 178.38 195.792 178.618 196.295C179.836 198.307 179.783 197.963 179.783 197.963L178.009 203.998Z" fill="#A7C4C3"/>
<path d="M173.112 216.756C173.112 216.756 172.027 212.151 170.757 209.212C170.439 208.471 170.015 207.836 169.592 207.068C169.168 206.301 168.718 205.507 168.268 204.686C167.792 203.866 167.183 203.071 166.601 202.251C165.992 201.43 165.489 200.53 164.801 199.763C163.504 198.174 162.18 196.586 160.804 195.263C159.48 193.833 158.104 192.722 156.966 191.663C154.61 189.704 152.969 188.486 152.969 188.486C152.969 188.486 154.742 189.439 157.336 191.054C158.58 191.928 160.116 192.88 161.624 194.125C163.186 195.263 164.721 196.719 166.283 198.148C167.104 198.836 167.739 199.683 168.48 200.451C169.168 201.245 169.91 201.96 170.545 202.78C171.154 203.627 171.762 204.421 172.318 205.189C172.874 205.957 173.483 206.698 173.88 207.386C175.495 210.139 176.236 211.198 176.236 211.198L173.112 216.756Z" fill="#A7C4C3"/>
<path d="M165.648 224.38C165.648 224.38 165.145 223.189 163.875 220.224C163.557 219.483 163.134 218.847 162.71 218.08C162.287 217.312 161.837 216.518 161.387 215.698C160.91 214.877 160.301 214.083 159.719 213.262C159.11 212.442 158.607 211.542 157.919 210.774C156.622 209.186 155.298 207.598 153.922 206.274C152.599 204.845 151.222 203.733 150.084 202.674C147.728 200.716 146.087 199.498 146.087 199.498C146.087 199.498 147.86 200.451 150.454 202.066C151.699 202.939 153.234 203.892 154.743 205.136C156.304 206.274 157.84 207.73 159.401 209.159C160.222 209.848 160.857 210.695 161.598 211.462C162.287 212.256 163.028 212.971 163.663 213.792C164.272 214.639 164.881 215.433 165.436 216.2C165.992 216.968 166.601 217.709 166.998 218.397C168.613 221.15 168.613 221.733 168.613 221.733L165.648 224.38Z" fill="#A7C4C3"/>
<path d="M155.298 229.462C155.298 229.462 155.378 228.774 154.584 226.709C154.398 226.153 153.604 225.015 153.34 224.486C153.075 223.956 152.095 222.5 151.804 221.944C151.513 221.362 150.825 220.727 150.454 220.145C150.057 219.589 149.713 218.927 149.237 218.397C148.337 217.286 147.437 216.148 146.484 215.221C145.557 214.215 144.605 213.448 143.784 212.706C142.116 211.357 140.952 210.509 140.952 210.509C140.952 210.509 142.196 211.145 144.049 212.23C144.949 212.839 146.034 213.474 147.093 214.348C148.204 215.142 149.29 216.174 150.428 217.206C151.01 217.709 151.46 218.318 151.99 218.874C152.493 219.456 153.022 219.959 153.445 220.568C153.869 221.177 154.292 221.786 154.69 222.342C155.06 222.897 155.537 223.48 155.748 223.956C156.834 225.888 157.945 227.715 157.945 227.715L155.298 229.462Z" fill="#A7C4C3"/>
<path d="M142.778 224.009C142.143 223.189 141.269 221.918 140.502 220.065C139.761 218.212 139.072 215.803 138.966 212.892C138.834 210.033 139.099 206.698 140.052 203.257C140.978 199.789 142.619 196.375 144.922 193.039C147.066 189.863 149.978 186.739 153.34 184.331C156.728 181.895 160.672 179.99 165.013 179.434C167.157 179.143 169.433 179.328 171.577 179.99C173.695 180.678 175.839 182.081 177.295 183.801C180.551 187.428 181.133 192.616 180.789 197.063C180.418 201.616 179.492 204.607 177.983 208.604C177.215 210.589 175.601 213.262 174.621 215.089C173.695 216.809 172.054 218.609 170.863 220.118C168.374 223.162 165.833 224.3 162.71 226.815C159.348 228.271 158.184 229.144 155.59 229.541C152.995 229.885 149.501 229.144 147.834 228.297C146.166 227.397 145.637 226.921 144.922 226.233C144.207 225.518 143.837 225.147 143.837 225.147C143.837 225.147 143.466 224.75 142.778 224.009ZM145.954 226.656C146.696 227.291 147.013 227.503 148.654 228.138C150.269 228.827 152.413 228.774 154.69 228.033C156.939 227.291 159.534 225.915 161.969 224.327C164.457 222.686 166.945 220.647 169.222 218.027C170.413 216.73 171.445 215.327 172.636 213.712C173.721 212.177 174.78 210.562 175.76 208.789C177.718 205.295 179.307 201.245 179.624 196.93C179.995 192.669 178.83 188.036 175.865 185.495C172.901 182.901 169.116 182.451 165.516 183.193C161.916 183.96 158.528 185.707 155.642 188.063C152.731 190.392 150.269 193.039 148.099 195.951C146.06 198.704 144.419 201.748 143.175 204.607C140.581 210.324 140.052 216.121 141.216 219.774C141.719 221.627 142.54 222.871 143.122 223.691C143.757 224.459 144.102 224.856 144.102 224.856C144.102 224.856 145.24 225.994 145.954 226.656Z" fill="#020000"/>
<path d="M61.886 162.599C63.1301 165.219 66.333 166.384 68.98 165.193L123.323 140.549C125.97 139.358 127.108 136.208 125.864 133.588L100.162 79.6421C98.9175 77.0216 95.7146 75.857 93.0676 77.0481L38.7249 101.692C36.0779 102.883 34.9397 106.033 36.1837 108.653L61.886 162.599Z" fill="#819598"/>
<path d="M61.4624 163.367C61.5153 163.314 61.8065 164.505 63.4211 165.616C64.2417 166.119 65.4329 166.543 66.8358 166.384C68.2122 166.225 69.721 165.352 71.468 164.637C74.9356 163.181 79.0649 161.222 83.8559 159.078C88.647 156.934 93.9939 154.42 99.8967 151.826C105.799 149.232 112.205 146.426 119.034 143.673C119.881 143.329 120.755 142.958 121.602 142.614L122.899 142.085C123.058 141.979 123.799 141.661 123.931 141.476C124.434 141.158 124.937 140.417 125.255 139.755C125.546 139.041 125.625 138.247 125.493 137.479C125.334 136.764 124.937 135.838 124.567 134.938C124.196 134.038 123.799 133.111 123.428 132.211C122.661 130.385 121.893 128.532 121.126 126.679C118.055 119.215 114.746 111.591 111.358 103.836C107.917 96.1064 104.344 88.2978 100.691 80.4892C100.214 79.5627 99.632 78.9804 98.8379 78.4775C98.0438 78.0275 97.1174 77.8157 96.2174 77.8687C95.3174 77.8687 94.5233 78.3186 93.491 78.7686L90.5528 80.0657C86.6353 81.7862 82.7177 83.4803 78.8531 85.1744C71.0709 88.5096 63.4476 91.8183 56.036 94.9947C52.3302 96.5564 48.6774 98.0917 45.104 99.6005C43.3569 100.342 41.6364 101.056 39.9158 101.771C38.91 102.3 38.6718 102.512 38.2218 103.121C37.8512 103.677 37.56 104.339 37.5335 105.027C37.4541 105.741 37.613 106.35 37.9041 107.065C38.2747 107.912 38.6453 108.733 38.9894 109.553C39.7041 111.194 40.3923 112.835 41.0805 114.424C42.4305 117.626 43.7275 120.723 44.9716 123.688C47.4068 129.67 49.6303 135.123 51.6156 139.994C53.6273 144.838 55.2684 149.099 56.8037 152.54C59.7683 159.449 61.4624 163.393 61.4624 163.367ZM61.2241 163.499C61.2241 163.499 59.4507 159.581 56.3272 152.752C54.7919 149.311 52.7802 145.208 50.5303 140.47C48.2803 135.732 45.7392 130.411 42.9599 124.588C41.6099 121.676 40.1805 118.606 38.7247 115.456C38.01 113.868 37.2689 112.253 36.5277 110.638C36.1571 109.818 35.7865 108.997 35.416 108.15C35.0189 107.197 34.6748 105.98 34.8071 104.815C34.8601 103.65 35.3101 102.512 35.9718 101.559C36.5542 100.606 37.9041 99.6799 38.5923 99.3887C40.3658 98.6211 42.1923 97.8534 44.0187 97.0858C47.5921 95.577 51.245 94.0418 54.9508 92.5065C62.4153 89.436 70.0916 86.2861 77.9267 83.0568C81.8442 81.4686 85.7882 79.8804 89.7587 78.2657L92.7498 77.0746C93.6763 76.7304 94.8674 76.1481 96.138 76.1746C97.3821 76.1746 98.6261 76.4922 99.6585 77.154C100.664 77.8157 101.564 78.901 102.014 79.9333C105.323 87.8743 108.685 95.7623 112.099 103.518C115.54 111.247 118.955 118.844 122.423 126.123C123.27 127.95 124.117 129.75 124.964 131.55C125.387 132.45 125.811 133.35 126.208 134.223C126.605 135.097 127.081 135.944 127.399 137.108C127.849 139.385 127.081 141.794 125.123 143.329C124.567 143.779 124.381 143.805 123.746 144.149L122.449 144.705C121.602 145.076 120.729 145.446 119.881 145.817C113.105 148.782 106.647 151.402 100.664 153.811C94.6821 156.22 89.1499 158.284 84.2794 160.217C79.409 162.149 75.1208 163.711 71.6533 165.193C69.9063 165.855 68.424 166.702 66.8887 166.861C65.3799 167.019 64.1094 166.516 63.2359 165.961C61.5153 164.637 61.2771 163.446 61.2241 163.499Z" fill="#020000"/>
<path d="M43.8862 119.771C43.8862 119.771 39.4922 111.062 37.957 107.277L37.7452 105.98C37.7187 105.768 37.7188 105.397 37.7188 105.106L37.7717 104.312L38.0629 104.577L37.8511 104.233V104.206L37.8776 104.18L37.957 104.021L38.2746 103.386C38.4599 103.121 38.7511 102.803 39.0158 102.512C39.5981 101.85 40.3128 101.506 40.7893 101.189C41.7157 100.474 51.6684 96.3976 51.6684 96.3976C51.6684 96.3976 38.5923 103.015 40.4452 106.641L43.8862 119.771Z" fill="#FAFCFC"/>
<path d="M37.9043 102.433L28.5869 80.3304L29.7781 79.5892L40.6043 100.924L37.9043 102.433Z" fill="#020000"/>
<path d="M29.4073 80.6745C27.4221 81.548 25.0927 80.6215 24.2192 78.6098C23.3722 76.6246 24.2986 74.3217 26.2839 73.4482C28.2691 72.5747 30.5985 73.5011 31.472 75.5128C32.3455 77.5246 31.419 79.8274 29.4073 80.6745Z" fill="#020000"/>
<path d="M45.7924 53.834L33.8545 48.037L34.6751 45.6812L47.8571 49.2017L45.7924 53.834Z" fill="#020000"/>
<path d="M33.4044 50.737C30.1486 53.4369 25.2781 52.9869 22.5782 49.7311C19.8783 46.4753 20.3283 41.6049 23.5841 38.9049C26.8399 36.205 31.7103 36.655 34.4103 39.9108C37.1102 43.1666 36.6867 48.0371 33.4044 50.737Z" fill="#020000"/>
<path d="M30.1486 48.9635C30.1486 48.9635 30.3338 48.7518 30.6515 48.4341C30.9956 48.1165 31.3397 47.6135 31.6838 46.9518C31.8691 46.6342 32.0015 46.2636 32.1073 45.8665C32.2397 45.4695 32.2397 45.046 32.3191 44.6224C32.3191 44.1725 32.3191 43.7489 32.1867 43.2989C32.1603 42.8754 31.8426 42.3725 31.7632 42.1078C31.4721 41.6578 31.1544 41.2343 30.8368 41.049C30.5721 40.7578 30.0956 40.5461 29.7515 40.3078C29.328 40.1755 28.9574 39.8843 28.5604 39.8049C28.1633 39.6726 27.7663 39.5667 27.4222 39.5402C26.7075 39.4343 26.0457 39.4608 25.6487 39.5932C25.1987 39.7255 24.9604 39.7784 24.9604 39.7784C24.9604 39.7784 25.1457 39.6196 25.5428 39.3549C25.7281 39.1961 26.0192 39.1167 26.3369 39.0108C26.6545 38.8785 27.0251 38.7991 27.4486 38.7991C27.8721 38.7461 28.3221 38.7991 28.7986 38.852C29.3015 38.8785 29.7515 39.0902 30.2809 39.2226C30.7574 39.4873 31.2603 39.6196 31.7368 40.0696C32.2662 40.4667 32.5573 40.8902 32.875 41.3137C33.1661 42.0019 33.4044 42.4254 33.4573 43.0342C33.5896 43.5901 33.5367 44.1725 33.4838 44.7019C33.3779 45.2313 33.2455 45.7342 33.0338 46.1842C32.822 46.6342 32.6103 47.0312 32.3191 47.3488C32.0809 47.693 31.7897 47.9577 31.525 48.1694C31.2603 48.3812 31.0485 48.5665 30.8368 48.6459C30.3868 48.8576 30.1486 48.9635 30.1486 48.9635Z" fill="#FCFCFC"/>
<path d="M27.8987 73.7923C27.8987 73.7923 27.7134 73.8452 27.3958 73.8982C27.2369 73.9246 27.0252 73.9776 26.8664 74.1099C26.6811 74.2423 26.4693 74.2952 26.284 74.507C25.8605 74.8246 25.5693 75.407 25.384 76.0158C25.2252 76.6246 25.1723 77.3657 25.437 78.001C25.5164 78.1863 25.4899 78.2922 25.5958 78.451C25.7017 78.6098 25.7811 78.7951 25.887 78.8745C26.0723 79.0863 26.3634 79.2716 26.6281 79.4304C27.2105 79.6686 27.8457 79.801 28.3751 79.7216C28.6398 79.7216 28.8781 79.6421 29.1163 79.6157C29.3545 79.5892 29.5133 79.5098 29.6722 79.4304C29.9898 79.298 30.1486 79.2451 30.1486 79.2451C30.1486 79.2451 29.9898 79.351 29.7251 79.5363C29.5928 79.6157 29.4339 79.7745 29.1957 79.8274C28.9839 79.9068 28.7457 80.0657 28.4281 80.0921C27.8457 80.2245 27.1311 80.2245 26.3899 79.9598C26.0458 79.7745 25.7017 79.5892 25.384 79.2716C25.1193 78.9804 24.8811 78.6363 24.7752 78.2128C24.4841 77.4187 24.5899 76.5716 24.8017 75.857C25.0399 75.1423 25.5164 74.5599 26.0193 74.2423C26.2311 74.0305 26.5487 73.9776 26.7605 73.8982C26.9987 73.7923 27.184 73.8188 27.3428 73.8188C27.6869 73.7923 27.8987 73.7923 27.8987 73.7923Z" fill="#FCFCFC"/>
<path d="M89.7322 93.9624C81.8971 99.4152 73.1091 103.253 64.5064 107.568C58.63 110.506 50.5302 116.779 44.098 117.706C39.7835 118.315 40.9746 115.747 39.3335 112.333C38.2747 110.162 36.3688 108.071 34.9659 106.006C23.5574 89.2507 5.29314 98.9917 4.12846 111.062C3.06967 121.782 15.2988 144.149 22.2868 152.011C28.5602 159.105 35.6806 159.82 44.2039 156.564C52.9655 153.229 60.88 148.332 66.8092 144.758C65.9622 144.864 67.0475 167.946 68.0533 169.931C72.712 179.037 90.6851 180.043 99.3408 180.043C112.443 180.043 125.361 176.125 135.525 167.84C143.89 161.037 141.004 150.979 141.004 141.132C141.004 133.535 140.899 126.044 139.734 118.632C138.966 113.788 136.558 108.256 136.134 103.65C135.763 99.6005 139.893 94.5447 141.216 90.336C144.393 80.2245 144.684 69.2659 144.181 58.7574C143.387 42.6901 137.934 27.2317 129.172 13.8114C121.152 1.5294 105.694 -3.60577 96.5614 11.8527C90.3675 22.3612 101.458 36.5491 105.773 46.6606C108.023 51.9546 111.199 57.778 112.02 63.4161C112.867 69.2924 112.364 77.5246 107.811 81.8656C102.888 86.5773 95.3438 90.0448 89.7322 93.9624Z" fill="#7E9597"/>
<path d="M47.8036 154.976C40.7891 158.708 33.7216 158.205 32.901 158.125C21.2543 157.146 9.79278 133.323 5.68994 123.026L14.1603 126.388C20.3808 141.926 31.3922 150.661 35.6274 153.308C38.1685 154.87 40.6832 155.717 47.8036 154.976Z" fill="#FFFDFD"/>
<path d="M128.775 105.344C139.999 87.3978 138.834 71.9394 138.278 61.6691L138.093 58.2015C137.722 50.3135 130.972 26.7552 124.355 19.1584L128.511 15.532C136.531 24.6906 143.254 50.0488 143.625 57.9633L143.81 61.3779C144.499 74.2158 145.637 88.0331 134.969 104.1C134.652 104.921 130.364 106.377 128.775 105.344Z" fill="#FFFDFD"/>
<path d="M127.796 106.191C131.661 116.594 133.037 123.688 134.678 134.382C135.552 140.126 135.657 145.711 135.737 151.508C135.816 157.755 136.769 161.858 132.137 167.575C131.052 168.925 128.749 172.155 128.537 172.763C133.646 172.181 140.607 161.937 141.401 157.702C142.434 152.223 141.693 146.399 141.137 140.92C139.919 129.035 136.902 115.403 134.466 103.915C134.175 102.618 134.043 105.397 133.831 104.021" fill="white"/>
<path d="M66.9944 145.526C67.5238 153.599 68.8209 157.437 67.2856 165.193C66.5974 168.581 65.9356 168.687 66.2533 170.063C67.5238 175.437 75.756 176.496 79.4883 176.787C65.3004 171.466 79.4883 140.549 67.365 144.811" fill="#FFFDFD"/>
<path d="M43.5157 117.574C44.151 117.124 54.9507 111.644 57.5183 109.447C60.0859 111.274 61.5682 112.015 64.8505 114.212C58.4712 116.568 52.7273 120.088 44.3098 124.853C44.4951 122.656 42.4834 120.353 42.4834 118.606" fill="#FFFDFD"/>
<path d="M41.2659 115.165C41.2659 115.165 41.61 116.224 42.1129 117.812C42.6158 119.4 43.357 121.465 43.9129 123.662C44.0452 124.218 44.204 124.747 44.2835 125.303C44.3629 125.859 44.4952 126.388 44.5217 126.917C44.5482 127.447 44.5481 127.95 44.5746 128.426C44.5481 128.903 44.4687 129.353 44.4423 129.776C44.3893 130.623 44.0982 131.258 44.0188 131.735C43.8864 132.211 43.807 132.476 43.807 132.476C43.807 132.476 43.8599 132.211 43.9393 131.735C43.9923 131.258 44.2305 130.597 44.204 129.75C44.204 129.326 44.257 128.903 44.2305 128.426C44.1776 127.95 44.1246 127.473 44.0717 126.97C44.0188 126.467 43.8335 125.965 43.7276 125.435C43.6217 124.906 43.4099 124.403 43.2511 123.873C42.5364 121.809 41.2923 119.824 40.6571 118.288C40.0218 116.753 39.9424 115.668 39.9424 115.668L41.2659 115.165Z" fill="#020202"/>
<path d="M89.8117 94.0683C82.7971 98.9917 75.7032 104.18 67.4446 106.959C65.3799 107.621 63.2623 108.124 61.2771 108.891C59.2918 109.633 57.3595 110.612 55.4537 111.591C51.6685 113.603 47.9627 115.827 44.151 117.865C43.6746 118.129 43.1716 118.368 42.5893 118.579C42.3246 118.685 41.954 118.765 41.504 118.712C40.9746 118.606 40.657 118.156 40.5247 117.891C39.9953 116.753 39.7306 115.8 39.2806 114.927C38.2218 113.021 37.0836 111.274 35.9189 109.447C34.7277 107.647 33.6425 105.742 32.4249 104.047C31.2072 102.433 29.672 100.977 27.9514 99.9181C24.4839 97.7741 20.0899 97.4564 16.1723 98.5417C12.2283 99.6005 8.54898 101.903 6.03434 105.08C4.76379 106.668 3.83734 108.494 3.44029 110.4C3.04324 112.253 3.255 114.371 3.67852 116.356C4.5785 120.406 6.27257 124.35 8.15194 128.135C11.9371 135.758 16.5429 143.064 21.8369 149.708C24.4574 153.017 27.5809 155.796 31.5249 156.855C35.416 157.914 39.6776 157.226 43.5952 155.796C51.6156 152.884 59.0801 148.57 66.4917 144.202L66.9152 145.393C67.0475 145.393 67.2328 145.261 67.2857 145.182C67.3122 145.155 67.3387 145.102 67.3652 145.049C67.3652 145.023 67.3652 145.049 67.3652 145.049L67.3916 145.288L67.471 145.896L67.6828 147.193C67.8151 148.067 67.9475 148.94 68.0534 149.814C68.2651 151.561 68.371 153.334 68.371 155.081C68.3975 158.602 68.0004 162.122 67.2328 165.564C67.0475 166.411 66.8093 167.284 66.5711 168.131C66.3064 168.925 66.4122 169.587 66.8093 170.275C67.6299 171.625 69.1386 172.578 70.621 173.372C73.665 174.934 77.0002 175.966 80.3619 176.84C83.7236 177.687 87.1382 178.322 90.5793 178.825C94.0204 179.301 97.4615 179.725 100.929 179.566C107.838 179.381 114.746 178.11 121.152 175.543C124.355 174.272 127.425 172.684 130.337 170.831C133.143 168.952 136.108 166.887 138.119 164.293C140.237 161.672 141.402 158.47 141.852 155.108C142.328 151.746 142.222 148.279 142.169 144.811C142.169 143.064 142.116 141.37 142.01 139.623C141.878 137.929 141.693 136.235 141.454 134.514C140.978 131.1 140.343 127.685 139.681 124.27C138.993 120.829 138.569 117.335 137.563 114.159C136.61 110.85 135.446 107.515 135.022 103.809L134.969 103.439L135.075 103.068C137.431 98.8858 139.602 94.6241 141.057 90.1242C142.593 85.6244 143.228 80.9921 143.387 76.2011C143.546 71.4365 143.228 66.6454 142.937 61.8014C142.751 56.9574 142.222 52.2723 141.163 47.6136C139.099 38.2961 135.631 29.2699 131.211 20.773C130.099 18.6555 128.934 16.5643 127.69 14.5261C126.446 12.5409 125.175 10.3439 123.72 8.80864C120.649 5.57931 116.096 3.85876 111.596 3.80582C107.07 3.69994 102.517 5.44696 99.4467 8.7557C97.9114 10.3968 96.7732 12.3556 96.0056 14.5526C95.3439 16.6173 95.1321 18.9466 95.4497 21.223C96.0321 25.8023 98.0703 30.1963 100.294 34.458C102.517 38.7197 105.058 42.9284 106.858 47.4812C108.738 51.9017 110.908 56.3222 112.046 61.1397C113.052 65.9572 112.999 70.9865 111.676 75.7246C110.961 78.0804 109.796 80.3304 108.023 82.0774C106.223 83.6921 104.264 85.2008 102.226 86.4979C98.1232 89.1184 93.8086 91.3419 89.8117 94.0683ZM89.6528 93.83C93.6498 91.0507 97.9379 88.8008 101.961 86.1008C104 84.7773 105.879 83.295 107.652 81.6803C109.346 80.0127 110.458 77.8157 111.12 75.5393C112.39 70.9336 112.232 65.9572 111.146 61.3514C109.929 56.7192 107.652 52.4311 105.641 48.0106C103.735 43.5901 101.141 39.5402 98.7585 35.2786C96.4027 31.0434 94.0733 26.57 93.3321 21.4877C92.9616 18.9466 93.0939 16.3526 93.888 13.785C94.6821 11.4027 95.9527 9.04687 97.7262 7.14103C101.22 3.24995 106.488 1.1853 111.649 1.21177C116.811 1.21177 122.026 3.17054 125.705 6.98221C126.658 7.98807 127.399 9.0204 128.061 10.0527C128.749 11.0851 129.411 12.1174 130.046 13.1497C131.343 15.2408 132.534 17.3849 133.672 19.5554C138.225 28.2376 141.799 37.4226 143.943 47.0577C144.472 49.4664 144.922 51.8752 145.187 54.3634C145.504 56.8251 145.584 59.2603 145.716 61.6691C145.954 66.5131 146.246 71.3835 146.034 76.307C145.848 81.2039 145.107 86.2596 143.466 90.9184C141.878 95.63 139.602 100.024 137.193 104.259L137.352 103.545C137.696 106.8 138.807 110.109 139.707 113.497C140.74 116.991 141.084 120.459 141.719 123.847C142.301 127.288 142.884 130.729 143.334 134.223C143.546 135.97 143.704 137.717 143.837 139.517C143.916 141.238 143.943 143.038 143.916 144.758C143.916 148.226 143.969 151.773 143.413 155.32C142.884 158.84 141.56 162.414 139.205 165.193C136.849 168.078 133.937 169.984 130.972 171.916C127.981 173.769 124.805 175.331 121.496 176.575C114.905 179.063 107.891 180.307 100.876 180.466C97.3556 180.598 93.8615 180.148 90.394 179.646C86.9264 179.116 83.5118 178.454 80.0972 177.581C76.709 176.707 73.3209 175.728 70.1445 174.113C68.5828 173.293 66.9681 172.366 65.9358 170.699C65.4064 169.905 65.274 168.687 65.5917 167.84C65.8299 167.019 66.0152 166.172 66.227 165.325C66.9681 161.964 67.3122 158.496 67.2593 155.055C67.2328 153.334 67.074 151.614 66.8358 149.92C66.7034 149.073 66.5711 148.226 66.4122 147.379L66.174 146.082L66.0681 145.393C66.0417 145.288 66.0417 145.129 66.0417 144.996C66.0417 144.891 66.0417 144.811 66.0946 144.679C66.1211 144.573 66.174 144.467 66.227 144.388C66.3064 144.282 66.5446 144.123 66.7299 144.096L69.6151 143.752L67.1534 145.288C59.8477 149.814 52.3832 154.34 44.2304 157.49C40.1541 159.052 35.5218 160.005 30.9955 158.867C26.4691 157.781 22.8163 154.473 20.1163 151.111C14.6371 144.308 9.95189 136.976 6.03434 129.167C4.15498 125.223 2.40796 121.173 1.50798 116.779C1.058 114.582 0.819767 112.28 1.3227 109.897C1.85209 107.594 2.96383 105.503 4.39321 103.73C7.27843 100.183 11.3019 97.6946 15.6959 96.5829C20.0634 95.4712 24.9868 95.9212 28.8514 98.4358C30.7837 99.6534 32.3984 101.268 33.7219 103.121C34.9924 104.947 35.9718 106.827 37.1365 108.653C38.2747 110.48 39.4394 112.385 40.4188 114.265C40.9217 115.297 41.2393 116.462 41.5835 117.282C41.5305 117.838 42.7481 117.282 43.6481 116.859C47.4862 114.953 51.245 112.809 55.1096 110.903C57.0684 109.977 59.0007 109.024 61.0918 108.336C63.13 107.594 65.2476 107.118 67.2857 106.483C75.465 103.809 82.5854 98.727 89.6528 93.83Z" fill="#020202"/>
<path d="M10.3493 137.426C10.3493 137.426 10.3493 137.4 10.3228 137.373C10.2963 137.347 10.2963 137.294 10.2698 137.241C10.0051 136.817 10.2698 135.785 10.614 135.626C10.7728 135.467 11.0904 135.308 11.2228 135.255L11.4875 135.203C11.7257 135.176 11.8051 135.176 11.911 135.203C12.1492 135.229 12.308 135.255 12.5198 135.308C13.2874 135.467 14.1874 135.785 15.2197 136.023C15.4579 136.076 15.6697 136.103 15.9344 136.155C16.252 136.182 16.5697 136.208 16.8873 136.208C17.5491 136.261 18.2373 136.288 18.952 136.341C19.6667 136.394 20.3284 136.261 21.0696 136.235L22.1548 136.155L22.4195 136.129C22.446 136.129 22.5784 136.102 22.4989 136.129L22.6313 136.103L23.1872 135.944C23.9283 135.732 24.6695 135.547 25.4106 135.335C26.1253 135.123 26.7341 134.753 27.3694 134.488C28.6664 133.985 29.7517 133.164 30.7576 132.582C31.737 131.973 32.4781 131.364 33.034 130.967C33.5898 130.57 33.881 130.332 33.881 130.332C33.881 130.332 33.5898 130.597 33.1134 131.047C32.6105 131.497 31.9487 132.185 31.0223 132.9C30.0958 133.588 29.09 134.514 27.7665 135.229C27.1312 135.6 26.4694 136.05 25.7547 136.367C25.0401 136.632 24.3254 136.923 23.6107 137.214L23.0813 137.426L22.9489 137.479L22.7372 137.532L22.446 137.585L21.2549 137.797C20.4872 137.929 19.6667 138.141 18.952 138.167C18.2373 138.194 17.5226 138.247 16.8609 138.273C16.5432 138.3 16.1991 138.3 15.9079 138.326C15.4315 138.326 15.1668 138.299 14.8227 138.247C13.6845 138.088 12.7315 137.929 12.0698 137.85C11.9374 137.823 11.8051 137.823 11.7786 137.85C11.7786 137.85 11.7257 137.85 11.858 137.85L11.9639 137.823C12.0698 137.797 12.3345 137.664 12.4668 137.532C12.5992 137.4 12.7051 137.241 12.811 136.923C12.8904 136.632 12.8374 136.314 12.7315 136.103C12.6786 136.023 12.758 136.129 12.758 136.129C12.7845 136.155 12.7845 136.182 12.7845 136.182L10.3493 137.426Z" fill="#020202"/>
<path d="M23.7427 154.499V154.314H23.5309C23.5309 154.314 24.4309 153.731 23.3456 153.917C23.2133 153.784 23.4515 153.864 23.3456 153.731C23.2397 153.573 23.7427 152.964 22.7633 153.334C22.7103 153.096 22.3927 152.593 22.3662 152.355L21.731 151.402L23.5044 151.482C23.9015 151.482 24.2456 151.693 24.7485 151.614C25.1985 151.614 25.675 151.614 26.1779 151.482C27.1573 151.349 28.1367 151.005 29.1161 150.608C30.0955 150.237 31.0219 149.735 31.9483 149.205C32.8748 148.676 33.7483 148.067 34.6218 147.432C35.4688 146.77 36.3159 146.108 37.0835 145.341C37.8776 144.599 38.5923 143.805 39.2276 142.932C39.8629 142.058 40.4452 141.132 40.7628 140.126C40.9746 139.623 41.054 139.094 41.0805 138.564C41.2128 138.008 41.1599 139.067 41.1069 138.538C41.2128 139.067 41.2922 138.008 41.2393 138.564C41.2658 139.12 41.2393 139.676 41.054 140.232C40.8422 141.344 40.3128 142.349 39.757 143.329C39.2011 144.308 38.5394 145.208 37.7982 146.055C37.0835 146.929 36.2894 147.696 35.4688 148.49C34.6483 149.258 33.7748 149.973 32.8483 150.634C31.9219 151.27 30.969 151.905 29.9366 152.434C28.9308 152.964 27.872 153.467 26.6808 153.758C26.125 153.943 25.4897 154.023 24.8544 154.102C24.2456 154.234 24.0338 153.758 23.3721 153.731L24.4838 152.699C24.5103 152.673 24.5103 152.646 24.4838 152.62C24.4838 152.593 24.4574 152.646 24.4309 152.54C24.4044 152.461 24.3515 152.408 24.2985 152.355C24.2191 152.302 24.1662 152.276 24.2456 152.302L24.4044 152.382L24.6956 152.54L23.7427 154.499Z" fill="#020202"/>
<path d="M47.1951 156.537L48.651 155.637C48.6245 155.637 47.4863 155.214 47.3539 155.214V155.637C47.2481 155.611 46.0834 156.511 46.1628 156.511C46.2157 156.511 46.2687 156.511 46.3481 156.484C46.454 156.458 46.5598 156.352 46.6128 156.352C46.7451 156.326 46.851 156.193 46.851 156.061L43.8334 155.849L46.5863 154.261L47.1686 153.679C47.8304 153.229 48.6245 152.329 49.2068 151.693C50.3186 150.449 51.1921 148.914 51.8538 147.273C53.0979 143.991 54.0508 141.476 53.2832 137.902C54.4479 141.37 53.9714 144.043 53.0714 147.67C52.595 149.496 51.8538 151.27 50.7421 152.884C50.1597 153.679 49.498 154.446 48.7568 155.108C48.3598 155.426 47.9363 155.717 47.5128 156.008L46.1098 156.723L44.3628 156.881L40.0747 157.728C40.2335 157.411 43.2246 155.823 43.5158 155.584C43.6481 155.452 42.854 156.061 43.0923 156.008C43.2511 155.955 46.7187 154.234 46.6128 154.234C46.6128 154.234 46.2157 154.631 46.454 153.811L46.8245 153.731L47.1951 156.537Z" fill="#020202"/>
<path d="M47.7773 115.085C47.7773 115.085 49.8949 115.482 50.3449 115.668C50.6096 115.747 51.6949 116.938 51.9331 117.044C52.1184 117.124 52.2243 117.415 52.489 117.6C53.5478 118.553 54.7125 120.353 55.5595 122.312C56.433 124.27 56.9624 126.362 57.1212 127.976C57.2006 128.77 57.1477 129.459 57.0948 129.935C56.9624 130.385 56.9095 130.65 56.9095 130.65C56.9095 130.65 57.0153 130.385 57.2271 129.961C57.3595 129.485 57.5183 128.823 57.5712 127.976C57.6771 126.309 57.4653 124.059 56.883 121.862C56.3007 119.691 55.4007 117.521 54.236 116.065C53.9184 115.694 51.7214 113.603 51.3508 113.312C51.0331 113.047 51.3508 113.418 51.1655 113.312C50.742 113.074 50.9802 113.312 50.9802 113.312L47.7773 115.085Z" fill="#020202"/>
<path d="M135.26 22.8642C135.26 22.8642 135.287 23.2347 135.34 23.8436C135.393 24.1083 135.313 24.6906 135.287 25.2465C135.26 25.8553 135.048 26.3317 134.89 26.9405C134.493 28.1052 133.857 29.3228 133.01 30.461C132.19 31.6522 131.131 32.711 130.072 33.7433C127.902 35.755 125.466 37.3962 123.534 38.4285C121.602 39.4608 120.172 39.8049 120.172 39.8049C120.172 39.8049 121.549 39.302 123.296 38.0579C125.069 36.8403 127.24 34.9345 129.066 32.7904C129.94 31.7051 130.813 30.5934 131.396 29.4552C132.031 28.3434 132.454 27.2317 132.64 26.3053C132.693 25.8553 132.825 25.4053 132.772 25.1141C132.746 24.77 132.825 24.6112 132.719 24.2406C132.587 23.6318 132.507 23.2612 132.507 23.2612L135.26 22.8642Z" fill="#020202"/>
<path d="M141.692 40.599C141.692 40.599 141.692 40.6784 141.692 40.8108C141.666 40.9961 141.719 41.049 141.64 41.499C141.587 41.8961 141.481 42.399 141.322 42.7431C141.19 43.1666 140.978 43.5637 140.74 44.0136C139.76 45.7342 138.119 47.64 136.16 49.1488C135.207 49.9164 134.149 50.5782 133.169 51.1341C132.163 51.6899 131.184 52.087 130.337 52.3781C129.463 52.6428 128.749 52.8546 128.246 52.934C127.743 53.0399 127.452 53.0928 127.452 53.0928C127.452 53.0928 127.743 52.987 128.219 52.8281C128.722 52.6693 129.384 52.3517 130.178 51.9811C130.946 51.5576 131.846 51.0282 132.719 50.3929C133.593 49.7312 134.466 48.99 135.26 48.143C136.875 46.5018 138.093 44.5166 138.648 43.0343C138.781 42.6637 138.887 42.3196 138.94 42.0284C139.019 41.7108 138.993 41.5784 139.019 41.4461C139.072 41.3931 138.993 41.049 138.993 40.9431C138.966 40.8108 138.966 40.7314 138.966 40.7314L141.692 40.599Z" fill="#020202"/>
<path d="M145.504 64.4749C145.504 64.4749 144.763 65.0308 143.625 65.8249C143.334 66.0366 143.069 66.2484 142.698 66.4601C142.301 66.6454 141.878 66.8572 141.454 67.0689C141.031 67.2807 140.581 67.466 140.131 67.6778C139.707 67.916 139.204 67.9689 138.754 68.0748C137.828 68.2866 136.901 68.4719 136.028 68.6571C135.154 68.7101 134.334 68.763 133.646 68.816C132.269 68.9218 131.343 68.9748 131.343 68.9748C131.343 68.9748 132.243 68.7366 133.593 68.3924C134.254 68.2072 135.049 68.0219 135.869 67.8101C136.637 67.4925 137.484 67.1219 138.304 66.7778C138.701 66.5925 139.151 66.4866 139.469 66.1954C139.813 65.9572 140.131 65.719 140.475 65.4808C140.793 65.269 141.11 65.0308 141.401 64.8455C141.693 64.6072 141.931 64.2896 142.169 64.0514C143.122 63.0455 143.757 62.3573 143.757 62.3573L145.504 64.4749Z" fill="#020202"/>
<path d="M144.869 84.4068C144.869 84.4068 144.71 84.592 144.419 84.8832C144.287 85.042 144.101 85.2273 143.916 85.4391C143.731 85.6508 143.36 85.9155 143.043 86.1538C142.354 86.7361 141.56 87.1596 140.74 87.5567C139.919 88.0331 138.94 88.2714 138.04 88.6419C137.06 88.8537 136.16 89.1713 135.234 89.2243C134.334 89.3566 133.487 89.4096 132.746 89.3037C132.375 89.2507 132.058 89.3037 131.766 89.1978C131.475 89.0919 131.237 89.0125 131.052 88.9596C130.655 88.8272 130.443 88.7478 130.443 88.7478C130.443 88.7478 130.681 88.7743 131.078 88.8272C131.29 88.8537 131.528 88.8802 131.793 88.9331C132.058 88.9861 132.402 88.8802 132.746 88.8802C133.434 88.8537 134.228 88.6684 135.049 88.3772C135.869 88.1919 136.69 87.689 137.537 87.3714C138.304 86.8685 139.151 86.4979 139.787 85.9685C140.475 85.4655 141.057 84.9891 141.375 84.5656C141.56 84.3538 141.746 84.2479 141.904 83.9832C142.063 83.745 142.196 83.5332 142.301 83.348C142.513 83.0038 142.646 82.7921 142.646 82.7921L144.869 84.4068Z" fill="#020202"/>
<path d="M67.0213 147.961L66.7036 145.235C67.0742 145.341 69.0859 146.082 69.483 146.108C70.2506 146.214 71.0182 146.426 71.7858 146.452C72.5799 146.479 73.374 146.558 74.1681 146.532L76.5769 146.373L78.9857 145.976C79.7798 145.79 80.5474 145.552 81.3415 145.341C82.1091 145.076 82.8503 144.758 83.6444 144.441C84.3855 144.096 85.0737 143.62 85.7884 143.223C85.1267 143.726 84.4914 144.282 83.8032 144.732C83.062 145.129 82.3473 145.579 81.6062 145.949C80.8386 146.267 80.0445 146.611 79.2768 146.929L76.8416 147.696L74.327 148.199C73.4799 148.332 72.6064 148.385 71.7594 148.464C70.8859 148.517 70.0124 148.437 69.1124 148.411C68.6624 148.411 68.2124 148.252 67.7624 148.199L67.0742 147.987H67.0213V147.961Z" fill="#020202"/>
<path d="M67.4448 155.611L67.7624 152.726C68.6094 153.493 70.3829 154.314 70.7535 154.42C71.4947 154.658 72.2094 154.976 72.977 155.161C73.7446 155.32 74.5387 155.505 75.3328 155.637L77.7416 155.876H80.1768C80.9974 155.823 81.7915 155.717 82.612 155.637C83.4326 155.505 84.2002 155.293 85.0208 155.134C85.8149 154.896 86.5561 154.579 87.3502 154.287C86.609 154.658 85.8943 155.108 85.1267 155.452C84.3326 155.717 83.565 156.061 82.7444 156.299C81.9238 156.484 81.1033 156.696 80.2827 156.881L77.7416 157.173L75.174 157.252C74.327 157.252 73.4534 157.146 72.5799 157.093C71.7064 157.014 70.8594 156.776 69.9859 156.617C69.5359 156.564 69.1388 156.326 68.6889 156.167C68.7153 156.167 67.3389 155.558 67.4448 155.611Z" fill="#020202"/>
<path d="M67.5502 163.314L68.3443 160.508C69.0325 161.408 70.6472 162.52 70.9913 162.705C71.6795 163.049 72.3148 163.499 73.056 163.817C73.7971 164.108 74.5118 164.425 75.2794 164.69L77.6088 165.325L80.0176 165.749C80.8381 165.828 81.6322 165.881 82.4528 165.934C83.2734 165.961 84.0939 165.881 84.9145 165.855C85.7351 165.775 86.5292 165.564 87.3497 165.405C86.5556 165.643 85.788 165.961 84.9674 166.172C84.1469 166.305 83.3263 166.49 82.4793 166.596C81.6322 166.649 80.7852 166.702 79.9381 166.728L77.397 166.622L74.8559 166.278C74.0089 166.119 73.1883 165.881 72.3413 165.669C71.4942 165.431 70.7001 165.061 69.8531 164.743C69.4296 164.611 69.059 164.319 68.662 164.081C68.7149 164.081 67.4443 163.234 67.5502 163.314Z" fill="#020202"/>
<path d="M137.511 108.918C137.511 108.918 137.934 109.791 137.855 110.453C137.855 110.771 137.855 110.506 137.722 111.035C137.616 111.591 137.431 112.121 137.193 112.677C136.319 114.979 134.387 117.494 132.137 119.453C129.914 121.465 127.373 122.947 125.387 123.82C124.381 124.244 123.534 124.509 122.926 124.668C122.317 124.773 121.973 124.853 121.973 124.853C121.973 124.853 122.317 124.747 122.899 124.588C123.481 124.376 124.302 124.032 125.255 123.503C127.108 122.444 129.464 120.75 131.422 118.606C133.408 116.515 134.969 114 135.525 111.988C135.684 111.485 135.79 111.035 135.843 110.665C135.896 110.294 135.975 109.977 135.949 109.606C135.949 108.944 136.399 106.218 136.399 106.218L137.511 108.918Z" fill="#020000"/>
<path d="M140.978 124.138C140.978 124.138 141.401 125.012 141.322 125.673C141.322 125.991 141.322 125.726 141.19 126.256C141.084 126.812 140.898 127.341 140.66 127.897C139.787 130.2 137.854 132.714 135.604 134.673C133.381 136.685 130.84 138.167 128.855 139.041C127.849 139.464 127.002 139.729 126.393 139.888C125.784 139.994 125.44 140.073 125.44 140.073C125.44 140.073 125.784 139.967 126.366 139.808C126.949 139.597 127.769 139.252 128.722 138.723C130.575 137.664 132.931 135.97 134.89 133.826C136.875 131.735 138.437 129.22 138.993 127.209C139.151 126.706 139.257 126.256 139.31 125.885C139.363 125.515 139.443 125.197 139.416 124.826C139.416 124.165 139.866 121.438 139.866 121.438L140.978 124.138Z" fill="#020000"/>
<path d="M143.307 141.291C143.307 141.291 143.625 142.191 143.519 142.852C143.493 143.17 143.519 142.905 143.334 143.408C143.175 143.938 142.937 144.467 142.646 144.996C141.534 147.22 139.363 149.496 136.928 151.243C134.519 153.017 131.846 154.234 129.781 154.923C128.749 155.24 127.875 155.426 127.24 155.531C126.631 155.584 126.261 155.611 126.261 155.611C126.261 155.611 126.605 155.558 127.214 155.426C127.822 155.267 128.67 155.002 129.649 154.579C131.608 153.705 134.122 152.249 136.293 150.317C138.49 148.438 140.263 146.082 141.031 144.123C141.243 143.646 141.402 143.196 141.481 142.826C141.587 142.455 141.693 142.138 141.693 141.767C141.772 141.105 142.487 138.458 142.487 138.458L143.307 141.291Z" fill="#020000"/>
<path d="M88.2764 127.341C87.0852 127.738 86.5293 129.194 86.7146 129.829C88.2499 135.176 90.5528 141.661 91.5322 144.864C91.7969 145.738 92.7233 146.426 94.0203 146.426C103.602 146.267 118.558 140.047 121.178 137.294C121.655 137.241 122.052 135.811 121.999 134.594C120.914 129.935 118.981 124.218 117.287 119.771C116.52 118.659 115.196 118.712 114.137 118.871C107.494 121.994 97.4614 125.356 88.2764 127.341Z" fill="#C5CCD0"/>
<path d="M100.849 131.55C98.3348 132.397 95.529 133.164 92.3791 133.747C91.4526 133.906 90.4997 133.164 90.2615 132.079C89.9968 130.994 90.5791 129.961 91.4791 129.803C97.6731 128.638 102.464 126.732 106.355 125.038C107.229 124.641 108.261 125.197 108.658 126.229C109.082 127.262 108.738 128.4 107.864 128.797C105.799 129.697 103.47 130.676 100.849 131.55Z" fill="white"/>
<path d="M99.6586 141.529C98.2557 141.926 96.694 142.217 94.8941 142.27C94.3647 142.296 93.7559 141.476 93.5441 140.444C93.3059 139.411 93.5706 138.564 94.0735 138.538C97.594 138.405 100.215 137.4 102.332 136.42C102.809 136.182 103.444 136.844 103.761 137.85C104.079 138.855 103.973 139.861 103.497 140.073C102.385 140.602 101.114 141.132 99.6586 141.529Z" fill="white"/>
<path d="M113.344 127.817C114.791 127.817 115.964 126.644 115.964 125.197C115.964 123.75 114.791 122.576 113.344 122.576C111.896 122.576 110.723 123.75 110.723 125.197C110.723 126.644 111.896 127.817 113.344 127.817Z" fill="white"/>
<path d="M114.905 136.685C115.899 136.685 116.705 135.879 116.705 134.885C116.705 133.891 115.899 133.085 114.905 133.085C113.911 133.085 113.105 133.891 113.105 134.885C113.105 135.879 113.911 136.685 114.905 136.685Z" fill="white"/>
<path d="M108.579 136.711C109.631 136.711 110.485 135.858 110.485 134.805C110.485 133.753 109.631 132.9 108.579 132.9C107.526 132.9 106.673 133.753 106.673 134.805C106.673 135.858 107.526 136.711 108.579 136.711Z" fill="white"/>
<path d="M88.2764 127.341C87.0852 127.738 86.5293 129.194 86.7146 129.829C88.2499 135.176 90.5528 141.661 91.5322 144.864C91.7969 145.738 92.7233 146.426 94.0203 146.426C103.602 146.267 118.558 140.047 121.178 137.294C121.655 137.241 122.052 135.811 121.999 134.594C120.914 129.935 118.981 124.218 117.287 119.771C116.52 118.659 115.196 118.712 114.137 118.871C107.494 121.994 97.4614 125.356 88.2764 127.341Z" stroke="#020202" stroke-width="0.5" stroke-miterlimit="10"/>
<path d="M83.2475 117.891C107.559 117.891 127.267 98.183 127.267 73.8717C127.267 49.5604 107.559 29.8522 83.2475 29.8522C58.9362 29.8522 39.228 49.5604 39.228 73.8717C39.228 98.183 58.9362 117.891 83.2475 117.891Z" fill="#7E9597"/>
<path d="M125.308 60.5044C126.05 66.2219 124.991 69.266 123.773 71.6747C119.565 79.9069 111.174 88.0861 100.083 93.883C79.939 104.392 58.4719 103.068 52.1456 90.9184C45.8193 78.7687 56.9631 60.3985 77.1068 49.8635C89.7329 43.2725 102.888 41.3137 112.524 43.8019C114.138 44.2254 116.891 44.5431 119.565 48.8047" fill="#F0EFEF"/>
<path d="M100.056 93.883C78.1656 104.789 58.4455 103.068 52.1192 90.9183C45.7929 78.7686 56.8044 60.1073 77.0803 49.8635C80.3361 48.2223 97.5151 51.7429 104 61.7485C114.482 77.9481 110.724 86.6567 107.706 89.039C104.741 91.3683 103.444 92.2154 100.056 93.883Z" fill="#C6CCD0"/>
<path d="M125.123 69.4512C125.15 70.1924 121.338 75.5923 121.312 76.6775C119.115 105.503 97.0651 113.841 96.2974 114.132C94.7622 114.715 93.8887 115.059 93.8887 115.059C93.8887 115.059 94.7887 114.768 96.3504 114.238C97.118 113.974 98.0974 113.682 99.1562 113.285C100.215 112.809 101.406 112.28 102.703 111.697C104.027 111.168 105.297 110.241 106.727 109.474C108.182 108.706 109.479 107.541 110.962 106.509C112.338 105.344 113.741 104.1 115.038 102.75C116.309 101.347 117.606 99.9181 118.691 98.3035C119.882 96.7947 120.782 95.0741 121.735 93.433C122.556 91.7389 123.403 90.0713 123.985 88.3772C124.673 86.7096 125.07 85.042 125.547 83.4538C125.864 81.8656 126.261 80.3568 126.394 78.9275C126.632 77.5246 126.685 76.2275 126.764 75.0629C126.844 73.9247 126.897 71.3306 126.897 70.4836C127.135 67.4395 125.811 62.9396 125.811 62.9396C125.811 62.9396 125.97 65.7984 125.123 69.4512Z" fill="#FCFCFC"/>
<path d="M103.391 42.9284C102.729 42.4254 87.4559 26.8611 59.4507 40.3343C58.0478 41.3666 54.2891 43.4048 54.2891 43.4048C54.2891 43.4048 55.0567 42.7695 56.4331 41.6843C57.1213 41.1549 57.9419 40.4402 58.9213 39.7255C59.9536 39.0638 61.1183 38.3226 62.3889 37.502C63.6329 36.6285 65.1682 36.0462 66.7035 35.2521C68.2387 34.4051 70.0122 33.9815 71.7857 33.2933C73.6121 32.7904 75.5179 32.2875 77.4767 31.9963C79.462 31.7316 81.4737 31.4669 83.5119 31.5198C85.55 31.4139 87.5882 31.7051 89.5735 31.8639C91.5587 32.2345 93.5175 32.4992 95.3439 33.0816C97.2233 33.5051 98.9174 34.2462 100.585 34.8286C102.173 35.5697 103.735 36.1785 105.058 36.9726C106.435 37.6609 107.626 38.455 108.685 39.1432C109.744 39.8049 110.617 40.5725 111.358 41.1284C112.708 42.2931 114.905 44.1195 114.905 44.1195C114.905 44.1195 107.361 43.5372 103.391 42.9284Z" fill="#FCFCFC"/>
<path d="M125.414 60.4779L125.335 60.5044C125.335 60.4779 125.308 60.4515 125.308 60.425C125.149 59.7103 124.832 58.8633 124.488 57.9633C124.488 57.9633 124.488 57.9898 124.514 57.9898C125.149 59.3662 125.388 60.1338 125.388 60.1338L125.308 59.975C125.308 59.975 125.123 59.2868 124.514 57.8839C124.064 56.8251 123.614 55.4486 122.688 53.8075C122.449 53.3046 122.211 52.8281 121.92 52.2987C120.888 50.4723 119.644 48.4076 118.108 46.3165C117.976 46.1312 117.87 45.9459 117.738 45.7607C117.5 45.496 117.314 45.0195 116.891 44.7548C115.938 43.5901 114.932 42.399 113.741 41.2608C109.929 37.5285 104.953 33.8227 98.7324 31.3875C92.512 29.0052 85.2327 27.7876 77.4506 28.767C69.9861 29.7199 62.0186 32.658 55.4541 37.8461C52.1189 40.4137 49.2337 43.5636 46.6396 47.0047C44.125 50.4988 42.1132 54.3898 40.6309 58.5192C39.2015 62.6749 38.4339 67.0425 38.1957 71.4365C38.0633 75.857 38.6722 80.3304 39.7045 84.5391C40.9221 88.7743 42.5897 92.8506 44.8661 96.5829C47.169 100.289 49.8954 103.677 53.0718 106.589C56.3011 109.421 59.7422 111.962 63.5274 113.868C67.3391 115.668 71.2566 117.203 75.3065 117.997C79.3564 118.738 83.4063 119.162 87.4562 118.765C89.5209 118.712 91.3738 118.288 93.2531 117.997C95.2384 117.547 97.0383 116.991 98.8648 116.382C106.091 113.815 112.073 109.394 116.52 104.444C120.941 99.4417 123.667 93.883 125.335 88.8272C127.055 83.745 127.373 79.0598 127.505 75.2746C127.532 73.3688 127.505 71.6747 127.293 70.1924C127.161 68.7101 127.029 67.466 126.791 66.4866C126.393 64.5014 126.182 63.4426 126.182 63.4426C126.182 63.4426 126.049 62.9396 125.785 62.0926C125.652 61.0073 125.414 60.4779 125.414 60.4779ZM115.753 44.9666C118.188 47.5341 120.041 50.1811 121.391 52.537C122.317 54.1781 123.111 55.6604 123.614 57.0368C124.196 58.3868 124.673 59.525 124.938 60.5044C125.149 61.1397 125.282 61.6426 125.441 62.0926C125.467 62.3044 125.467 62.5426 125.467 62.8073C125.467 64.2896 125.202 66.5395 124.329 69.1865C123.932 70.563 123.191 71.8335 122.211 73.2894C121.364 74.7982 120.2 76.1746 119.035 77.7099C116.547 80.7274 113.317 83.7715 109.532 86.7096C105.72 89.6213 101.247 92.3477 96.2442 94.7035C91.2414 97.0064 85.7357 99.0181 79.7535 99.9975C73.8242 100.924 67.3126 100.924 61.4628 98.4887C58.5511 97.2976 55.8511 95.4447 53.9982 92.9036C52.1189 90.3889 51.113 87.292 51.0865 84.1685C50.9807 77.8422 54.1041 71.9129 57.8364 66.9895C61.6745 62.0397 66.4126 57.9633 71.3625 54.5751C76.3389 51.187 81.5799 48.6988 86.8209 47.0312C92.062 45.3371 97.2501 44.4372 102.041 44.0401C106.832 43.6431 111.306 43.8813 115.091 44.7813C115.303 44.8607 115.541 44.9136 115.753 44.9666ZM126.446 66.5131C126.685 67.5189 126.791 68.7365 126.87 70.1924C127.055 71.6482 127.029 73.3158 126.949 75.1952C126.817 78.9275 126.076 83.5068 124.144 88.3508C122.264 93.1948 119.194 98.277 114.853 102.856C110.485 107.436 104.741 111.353 98.0177 114C96.3236 114.582 94.5237 115.165 92.8031 115.588C90.9502 115.959 89.0444 116.488 87.1915 116.594C83.4857 117.124 79.4888 116.938 75.5712 116.409C71.6272 115.827 67.7361 114.582 63.9774 112.862C60.2716 111.062 56.7776 108.706 53.6541 105.874C50.5836 102.989 47.9631 99.6005 45.7661 95.9741C43.675 92.2683 42.2191 88.2184 41.2133 84.1156C40.3927 79.8804 40.0486 75.7246 40.3398 71.5159C40.7103 67.3336 41.5574 63.2308 43.0132 59.3397C44.5485 55.5016 46.4543 51.8487 48.8895 48.6194C51.3777 45.443 54.1306 42.5313 57.2805 40.202C63.5539 35.4903 70.7008 32.6051 77.9535 31.6787C84.9416 30.8581 91.9561 31.6522 97.8854 33.6639C103.868 35.7021 108.923 38.7991 112.814 42.2137C113.476 42.796 114.058 43.3784 114.641 43.9607C110.909 42.8754 106.568 42.4784 101.882 42.6107C96.9325 42.7431 91.612 43.5901 86.1592 45.1518C80.6799 46.6606 75.1742 49.3076 70.039 52.7487C64.8509 56.1633 60.0069 60.5044 56.1158 65.7719C52.2777 70.9865 49.2072 77.4187 49.5778 84.2744C49.7631 87.6625 51.0071 90.9977 53.1247 93.5918C55.2423 96.2123 58.1275 98.0388 61.1186 99.2299C67.2067 101.586 73.7448 101.745 79.8329 101.056C85.9474 100.342 91.7708 98.727 96.9325 96.4241C102.121 94.1477 106.7 91.2625 110.538 88.1655C114.403 85.095 117.605 81.8392 119.988 78.5834C122.317 75.2746 124.17 72.3365 124.964 69.4512C125.626 67.016 125.838 65.0043 125.785 63.4955V63.522C125.891 63.469 126.076 64.5278 126.446 66.5131Z" fill="#020000"/>
<path d="M32.7691 105.344C35.919 111.883 36.9248 119.188 24.1663 125.276C10.349 131.867 5.79621 126.388 2.64629 119.85C-0.503629 113.312 3.67862 104.762 11.9902 100.765C20.3282 96.7682 29.6456 98.8064 32.7691 105.344Z" fill="#FFFDFD"/>
<path d="M5.84934 103.756C5.84934 103.756 6.16698 103.333 6.11404 103.492C6.0611 103.65 5.34642 105.927 5.31995 106.165C5.16113 106.615 5.02878 107.568 5.08172 108.653C5.10819 109.765 5.31995 111.088 5.71699 112.465C5.90228 113.153 6.16698 113.868 6.45815 114.582C6.74932 115.271 7.09343 116.012 7.46401 116.594C7.94047 117.229 8.36399 117.971 8.86692 118.5C9.34337 119.082 9.87277 119.612 10.4286 120.115C11.5404 121.094 12.7051 121.835 13.7639 122.418C15.8814 123.556 17.3373 124.27 17.3373 124.27C17.3373 124.27 15.8285 123.741 13.5786 122.788C12.4668 122.312 11.1698 121.676 9.89924 120.776C9.26396 120.326 8.62869 119.824 8.04635 119.215C7.3846 118.659 6.96108 118.024 6.40521 117.415C5.82287 116.7 5.42583 116.012 5.02878 115.271C4.63173 114.556 4.28762 113.815 3.99645 113.074C3.38764 111.618 2.99059 110.162 2.8053 108.865C2.62001 107.541 2.40825 107.489 2.56707 106.589C2.62001 106.112 3.30823 106.033 3.3347 105.821C3.94351 106.694 3.5994 105.556 3.5994 105.556L5.84934 103.756Z" fill="#A7C4C3"/>
<path d="M21.7576 97.2976C21.7576 97.2976 21.4929 97.2976 23.3193 97.0064C23.6105 97.1917 24.0075 97.4829 24.431 97.8799C24.8546 98.2505 25.384 98.674 25.8075 99.177C26.7339 100.156 27.7133 101.321 28.5868 102.697C29.4868 104.047 30.2809 105.583 30.9162 107.171C31.2338 107.939 31.525 108.812 31.7103 109.606C31.975 110.347 31.975 111.3 32.0544 112.094C32.0279 112.915 31.975 113.682 31.7897 114.397C31.6838 115.112 31.3662 115.747 31.1809 116.356C30.175 118.659 29.4868 120.168 29.4868 120.168C29.4868 120.168 30.0162 118.579 30.7573 116.224C30.8897 115.615 31.1015 114.98 31.1544 114.291C31.2603 113.603 31.2338 112.888 31.1809 112.147C31.022 111.406 30.9956 110.718 30.6515 109.95C30.3868 109.156 30.0691 108.494 29.6721 107.753C28.9045 106.324 28.0045 104.947 27.0516 103.783C26.1251 102.592 25.0928 101.586 24.1928 100.818C23.7428 100.395 23.3193 100.13 22.9487 99.8652C22.6046 99.6005 22.234 99.3622 21.8899 99.2034C21.2546 98.7799 18.4224 97.5358 18.4224 97.5358L21.7576 97.2976Z" fill="#A7C4C3"/>
<path d="M10.5605 100.845C10.5605 100.845 10.5605 101.268 10.587 102.009C10.587 102.777 10.6664 103.73 10.7987 104.974C10.9575 106.191 11.1958 107.621 11.6458 109.077C12.0693 110.559 12.6781 112.094 13.5251 113.497C13.9222 114.212 14.3986 114.874 14.9016 115.562C15.378 116.277 15.9339 116.832 16.4368 117.415C16.9927 117.971 17.4956 118.526 18.0779 118.95C18.6338 119.426 19.1897 119.797 19.7191 120.168C21.8896 121.518 23.2925 122.497 23.2925 122.497C23.2925 122.497 21.8102 121.676 19.4809 120.565C18.8985 120.273 18.2897 119.929 17.6809 119.506C17.0456 119.109 16.4368 118.606 15.8015 118.076C15.2192 117.521 14.531 116.938 14.0016 116.303C13.4457 115.694 12.8369 115.032 12.334 114.291C11.2752 112.862 10.4546 111.274 9.81933 109.738C9.18405 108.203 8.76053 106.694 8.46937 105.397C8.20467 104.1 8.01938 102.909 7.93997 102.195C7.86056 101.453 7.80762 101.03 7.80762 101.03L10.5605 100.845Z" fill="#A7C4C3"/>
<path d="M15.4311 97.0064C15.4311 97.0064 15.6693 97.3241 16.1193 97.8799C16.5428 98.4623 17.2046 99.177 17.9192 100.236C18.6339 101.268 19.481 102.459 20.2486 103.809C21.0956 105.106 21.8103 106.615 22.5515 108.071C23.1868 109.58 23.9279 111.062 24.3779 112.518C24.9073 113.947 25.2779 115.35 25.5691 116.541C25.9132 117.706 25.9661 118.738 26.0984 119.453C26.2043 120.141 26.2573 120.565 26.2573 120.565C26.2573 120.565 26.1514 120.168 25.9661 119.479C25.7543 118.791 25.5955 117.812 25.1191 116.674C24.722 115.535 24.2191 114.212 23.5309 112.862C22.9485 111.485 22.075 110.109 21.3074 108.733C20.4339 107.409 19.5868 106.033 18.6339 104.868C17.7604 103.65 16.834 102.618 16.0663 101.745C15.3252 100.845 14.5311 100.156 14.0811 99.6269C13.5782 99.124 13.3135 98.8328 13.3135 98.8328L15.4311 97.0064Z" fill="#A7C4C3"/>
<path d="M32.5043 104.471C32.5043 104.471 33.2454 105.847 34.1984 108.468C34.5954 109.791 35.1513 111.433 35.1513 113.471C35.1778 115.456 34.5954 117.891 33.1131 119.956C31.6573 122.047 29.4603 123.768 27.025 125.144C24.5368 126.441 21.8369 127.447 18.8193 128.162C15.8812 128.77 12.546 129.009 9.55486 127.764C6.51082 126.573 4.34029 123.873 2.69916 121.147C2.27564 120.459 1.90506 119.797 1.50801 119.029C1.13743 118.368 0.846261 117.574 0.581561 116.727C0.0786328 115.059 -0.0272469 113.365 0.158043 111.697C0.528622 108.362 2.11682 105.318 4.155 102.909C6.19319 100.474 8.78724 98.7005 11.4607 97.5888C14.0812 96.5035 16.887 95.9476 19.4017 96.1065C21.9163 96.2123 24.1398 96.9535 25.9398 97.8535C27.7397 98.7534 29.0632 99.8917 30.0426 100.898C30.9955 101.956 31.6043 102.83 31.9749 103.492C32.319 104.127 32.5043 104.471 32.5043 104.471ZM32.2661 104.577C32.2661 104.577 32.0808 104.233 31.7102 103.624C31.3396 103.015 30.6779 102.142 29.672 101.242C28.6397 100.368 27.1838 99.5475 25.4368 98.9917C23.6898 98.4358 21.5987 98.2505 19.4017 98.4093C17.1782 98.5682 14.9018 99.0976 12.546 100.156C10.2431 101.162 8.01961 102.671 6.16672 104.683C4.28735 106.668 2.91091 109.236 2.35505 112.015C2.09035 113.418 2.06388 114.874 2.27564 116.303C2.38152 116.965 2.56681 117.679 2.85797 118.447C3.0962 119.109 3.44031 119.85 3.78442 120.538C5.05498 123.318 7.06669 125.859 9.84604 126.997C12.6254 128.162 15.7488 127.579 18.3958 126.679C21.0693 125.753 23.5839 124.403 25.8339 123.132C28.0838 121.809 30.0161 120.353 31.472 118.738C32.9543 117.15 33.8013 115.244 34.0395 113.444C34.2778 111.644 34.0925 109.95 33.7748 108.653C33.4307 107.33 33.0337 106.324 32.7425 105.662C32.4249 104.947 32.2661 104.577 32.2661 104.577Z" fill="#020202"/>
<path d="M125.361 8.57038C128.564 15.2143 127.717 22.7053 115.832 27.9993C103.179 33.6374 97.9118 29.9846 94.7089 23.3406C91.506 16.6967 95.7677 7.98805 104.238 3.91168C112.708 -0.16469 122.158 1.92643 125.361 8.57038Z" fill="#FFFDFD"/>
<path d="M125.467 8.51745C125.467 8.51745 125.626 8.86156 125.917 9.52331C126.208 10.1851 126.552 11.1909 126.896 12.4879C127.188 13.785 127.426 15.4526 127.135 17.3849C126.843 19.2907 125.917 21.4083 124.355 23.2347C122.794 25.0612 120.65 26.5964 118.267 27.7876C115.858 29.0052 113.238 29.9052 110.379 30.5669C107.547 31.1492 104.423 31.4933 101.485 30.461C98.4677 29.5346 96.2442 26.967 94.709 24.32C94.3119 23.6583 93.9678 22.8906 93.6767 22.2289C93.412 21.4348 93.1737 20.6407 93.0678 19.8466C92.8296 18.2584 92.9884 16.6172 93.3325 15.0555C94.1002 11.9585 95.8737 9.25861 97.9383 7.11454C100.029 4.97048 102.597 3.40875 105.085 2.42937C107.653 1.37057 110.247 0.94705 112.656 0.99999C115.038 1.02646 117.208 1.6088 118.955 2.37643C120.729 3.14405 122.052 4.17638 123.032 5.10283C123.985 6.08222 124.594 6.92925 124.964 7.56453C125.282 8.19981 125.467 8.51745 125.467 8.51745ZM125.282 8.62333C125.282 8.62333 125.096 8.30569 124.726 7.69688C124.355 7.08807 123.72 6.26751 122.741 5.42047C121.735 4.57343 120.305 3.8058 118.611 3.2764C116.891 2.74701 114.853 2.58819 112.682 2.72054C110.512 2.85289 108.182 3.40875 105.906 4.36167C103.576 5.36753 101.353 6.74396 99.3677 8.59686C97.4089 10.4498 95.7942 12.832 94.9737 15.532C94.206 18.2584 94.1796 21.1436 95.609 23.87C96.8266 26.5435 98.8383 29.0052 101.671 29.9316C104.476 30.8051 107.467 30.4081 110.088 29.5081C112.735 28.6611 115.223 27.4435 117.473 26.3052C119.697 25.0612 121.655 23.7112 123.217 22.2024C124.779 20.6936 125.864 18.9731 126.314 17.2261C126.791 15.5055 126.817 13.8644 126.579 12.5938C126.367 11.2968 125.996 10.3174 125.732 9.65566C125.414 8.96744 125.282 8.62333 125.282 8.62333Z" fill="#020202"/>
<path d="M98.4674 8.33215C98.4674 8.33215 98.335 9.73506 98.0968 10.4233C97.938 10.7939 97.885 11.1644 97.8321 11.588C97.7527 12.0115 97.6733 12.5144 97.6468 13.1232C97.488 15.479 97.9909 18.7878 99.2879 21.8053C99.5526 22.4671 100.056 23.3141 100.453 23.9759C100.929 24.5847 101.379 25.22 101.961 25.6964C102.491 26.2523 103.153 26.6229 103.708 27.0464C104.344 27.3905 104.9 27.7611 105.482 28.0258C107.785 29.111 109.32 29.8522 109.32 29.8522C109.32 29.8522 107.732 29.2699 105.323 28.4228C104.714 28.2111 104.079 27.8934 103.417 27.6023C102.782 27.2317 102.041 26.8876 101.406 26.3582C100.717 25.9082 100.135 25.2464 99.4997 24.5847C98.9703 23.87 98.5203 23.2877 98.0438 22.4142C96.3498 19.3436 95.4233 15.8496 95.3174 13.1232C95.2116 11.8262 95.238 11.5615 95.3968 10.8997C95.5027 12.0644 96.6674 9.86741 96.6674 9.86741L98.4674 8.33215Z" fill="#A7C4C3"/>
<path d="M114.429 1.63529C114.429 1.63529 114.535 1.1853 115.117 1.60882C115.408 1.79411 115.752 2.05881 116.176 2.45586C116.573 2.82644 117.076 3.22349 117.499 3.69994C118.373 4.62639 119.326 5.7646 120.146 7.08809C120.994 8.38512 121.761 9.86744 122.37 11.3762C122.688 12.1174 122.952 12.9644 123.138 13.7056C123.376 14.4203 123.402 15.3202 123.455 16.0879C123.482 17.7555 123.349 18.7084 122.396 23.3936C122.396 23.3936 123.349 19.926 122.608 16.1143C122.449 15.3997 122.423 14.7379 122.079 13.9967C121.814 13.2291 121.523 12.5938 121.152 11.8792C120.411 10.5027 119.564 9.17922 118.638 8.06748C117.738 6.90281 116.785 5.94989 115.911 5.20873C115.488 4.78521 115.091 4.54698 114.72 4.28228C114.403 4.01758 114.058 3.80582 113.714 3.62053C113.105 3.27643 110.458 2.08528 110.458 2.08528L114.429 1.63529Z" fill="#A7C4C3"/>
<path d="M103.603 3.96463C103.603 3.96463 103.444 5.39401 103.497 6.1881C103.576 6.95573 103.523 8.14688 103.735 9.39097C103.973 10.6351 104.079 12.1438 104.609 13.732C104.847 14.5261 105.032 15.3467 105.297 16.1673C105.614 16.9614 105.932 17.7819 106.25 18.6025C106.541 19.4495 106.991 20.1378 107.414 20.9583C107.864 21.6995 108.314 22.3612 108.844 22.9965C109.373 23.6318 109.929 24.2141 110.511 24.6906C111.041 25.22 111.676 25.617 112.179 26.0406C114.402 27.5493 115.885 28.5552 115.885 28.5552C115.885 28.5552 114.297 27.6817 111.941 26.3847C111.385 26.0141 110.723 25.67 110.114 25.167C109.453 24.7171 108.844 24.1612 108.208 23.5524C107.6 22.9436 106.991 22.2289 106.461 21.5142C106.011 20.7995 105.403 20.0319 105.032 19.1848C104.609 18.3643 104.185 17.5437 103.788 16.7496C103.417 15.929 103.126 15.082 102.809 14.2614C102.12 12.6732 101.829 11.0321 101.432 9.68213C101.062 8.3057 101.009 7.22043 100.85 6.42633C100.744 5.65871 100.665 5.20872 100.665 5.20872L103.603 3.96463Z" fill="#A7C4C3"/>
<path d="M107.467 2.58818C107.467 2.58818 107.705 2.90582 108.155 3.46169C108.579 4.04403 109.241 4.75871 109.955 5.81751C110.67 6.84984 111.517 8.04099 112.285 9.39095C113.132 10.688 113.847 12.1968 114.588 13.6526C115.223 15.1614 115.964 16.6437 116.414 18.0996C116.943 19.5289 117.314 20.9318 117.605 22.123C117.949 23.2877 118.002 24.32 118.135 25.0347C118.241 25.7229 118.293 26.1464 118.293 26.1464C118.293 26.1464 118.188 25.7494 118.002 25.0611C117.791 24.3729 117.632 23.3935 117.155 22.2553C116.758 21.1171 116.255 19.7936 115.567 18.4437C114.985 17.0672 114.111 15.6908 113.344 14.3144C112.47 12.9909 111.623 11.6144 110.67 10.4497C109.797 9.23213 108.87 8.19981 108.103 7.3263C107.361 6.42632 106.567 5.7381 106.117 5.2087C105.614 4.70577 104.079 3.46169 104.079 3.46169L107.467 2.58818Z" fill="#A7C4C3"/>
<path d="M125.467 8.51746C125.467 8.51746 125.626 8.86157 125.943 9.52331C126.234 10.1851 126.631 11.1644 127.029 12.4615C127.399 13.7585 127.743 15.4261 127.505 17.3584C127.267 19.2907 126.287 21.4348 124.646 23.2083C123.032 25.0082 120.861 26.4905 118.452 27.6817C116.044 28.8728 113.397 29.8257 110.538 30.5404C107.705 31.1492 104.582 31.6786 101.591 30.7257C98.5204 29.8522 96.3234 27.2052 94.8146 24.5582C94.4176 23.8965 94.047 23.1289 93.7558 22.4671C93.4911 21.726 93.2 20.9054 93.0941 20.1113C92.8294 18.5231 92.9088 16.8555 93.2529 15.2938C93.9676 12.1438 95.7146 9.41743 97.8057 7.2469C99.8968 5.0499 102.438 3.48817 104.953 2.45584C107.52 1.39705 110.141 0.947058 112.549 0.973527C117.42 1.05294 121.099 3.17053 122.979 5.0499C123.932 6.02928 124.567 6.87632 124.937 7.5116C125.282 8.17335 125.467 8.51746 125.467 8.51746ZM125.282 8.62334C125.282 8.62334 125.096 8.3057 124.726 7.67042C124.355 7.06161 123.72 6.24104 122.714 5.36754C121.708 4.49403 120.279 3.75287 118.558 3.22347C116.811 2.69407 114.773 2.53525 112.576 2.6676C108.235 2.98524 103.179 4.89108 99.2351 8.67628C97.2763 10.5556 95.6881 12.9909 94.894 15.6908C94.1264 18.4437 94.2588 21.3554 95.6881 24.0818C96.9322 26.7817 98.9175 29.2964 101.776 30.1434C104.608 30.964 107.6 30.3287 110.247 29.4287C112.894 28.5287 115.408 27.2846 117.685 26.1464C119.935 24.9023 121.973 23.6053 123.561 22.123C125.176 20.6672 126.287 18.9466 126.711 17.1996C127.108 15.4526 127.029 13.8114 126.711 12.5409C126.42 11.2439 126.023 10.2645 125.758 9.60272C125.44 8.96745 125.282 8.62334 125.282 8.62334Z" fill="#020202"/>
</svg>
