<svg width="16" height="16" viewBox="0 0 16 16" fill="none" xmlns="http://www.w3.org/2000/svg">
  <path fill-rule="evenodd" clip-rule="evenodd" d="M8 16C12.4183 16 16 12.4183 16 8C16 3.58172 12.4183 0 8 0C3.58172 0 0 3.58172 0 8C0 12.4183 3.58172 16 8 16Z" fill="#ECEDF8"/>
  <path fill-rule="evenodd" clip-rule="evenodd" d="M6 5.21397C6.22378 4.92626 6.50429 4.70328 6.84156 4.54504C7.17882 4.3868 7.54725 4.30768 7.94685 4.30768C8.21219 4.30768 8.46473 4.34764 8.7045 4.42756C8.94426 4.50748 9.16004 4.62416 9.35185 4.77761C9.54366 4.93106 9.6955 5.13005 9.80739 5.37461C9.91928 5.61917 9.97522 5.89489 9.97522 6.20178C9.97522 6.3872 9.95205 6.56382 9.90569 6.73165C9.85934 6.89949 9.79221 7.05453 9.7043 7.19679C9.61638 7.33905 9.52687 7.46452 9.43576 7.57321C9.34466 7.6819 9.23676 7.79699 9.11209 7.91847C9.05774 7.96962 8.97942 8.04234 8.87712 8.13665C8.77482 8.23096 8.6965 8.30528 8.64216 8.35963C8.58781 8.41397 8.52787 8.47951 8.46234 8.55623C8.3968 8.63295 8.34805 8.70568 8.31608 8.77441C8.28412 8.84314 8.26653 8.91267 8.26334 8.983L8.23936 9.41457H7.26593L7.26114 8.92067C7.26114 8.85353 7.26513 8.7888 7.27313 8.72646C7.28112 8.66412 7.2971 8.60099 7.32108 8.53705C7.34505 8.47311 7.36583 8.41797 7.38342 8.37161C7.401 8.32526 7.43297 8.26932 7.47932 8.20378C7.52567 8.13825 7.56004 8.0887 7.58242 8.05513C7.6048 8.02156 7.64635 7.96962 7.70709 7.89929C7.76783 7.82896 7.80939 7.7818 7.83177 7.75783C7.85415 7.73385 7.9013 7.6843 7.97323 7.60918C8.04516 7.53405 8.09071 7.4869 8.10989 7.46772C8.31449 7.25033 8.47033 7.05134 8.57742 6.87072C8.68452 6.69009 8.73806 6.4879 8.73806 6.26412C8.73806 5.99239 8.65654 5.78061 8.49351 5.62876C8.33047 5.47691 8.11788 5.40098 7.85574 5.40098C7.66394 5.40098 7.47373 5.45213 7.28511 5.55443C7.0965 5.65673 6.94146 5.79739 6.81998 5.97641L6 5.21397ZM7.03097 10.9634C7.03097 10.762 7.1037 10.5894 7.24915 10.4455C7.39461 10.3017 7.57123 10.2298 7.77902 10.2298C7.98042 10.2298 8.15385 10.3017 8.2993 10.4455C8.44476 10.5894 8.51748 10.762 8.51748 10.9634C8.51748 11.1648 8.44476 11.3366 8.2993 11.4789C8.15385 11.6212 7.98042 11.6923 7.77902 11.6923C7.57123 11.6923 7.39461 11.6212 7.24915 11.4789C7.1037 11.3366 7.03097 11.1648 7.03097 10.9634Z" fill="#242748"/>
</svg>
