<svg width="33" height="33" viewBox="0 0 33 33" fill="none" xmlns="http://www.w3.org/2000/svg">
  <g filter="url(#filter0_d)">
    <path fill-rule="evenodd" clip-rule="evenodd" d="M16.7753 27.5C23.955 27.5 29.7753 21.6797 29.7753 14.5C29.7753 7.3203 23.955 1.5 16.7753 1.5C9.59557 1.5 3.77527 7.3203 3.77527 14.5C3.77527 21.6797 9.59557 27.5 16.7753 27.5Z" fill="white"/>
    <path d="M16.7753 28C24.2311 28 30.2753 21.9558 30.2753 14.5C30.2753 7.04416 24.2311 1 16.7753 1C9.31942 1 3.27527 7.04416 3.27527 14.5C3.27527 21.9558 9.31942 28 16.7753 28Z" stroke="#D5D7E9"/>
  </g>
  <path fill-rule="evenodd" clip-rule="evenodd" d="M11.9583 9.68306C11.7142 9.92714 11.7142 10.3229 11.9583 10.5669L15.8914 14.5L11.9583 18.4331C11.7142 18.6771 11.7142 19.0729 11.9583 19.3169C12.2024 19.561 12.5981 19.561 12.8422 19.3169L16.7753 15.3839L20.7083 19.3169C20.9524 19.561 21.3481 19.561 21.5922 19.3169C21.8363 19.0729 21.8363 18.6771 21.5922 18.4331L17.6592 14.5L21.5922 10.5669C21.8363 10.3229 21.8363 9.92714 21.5922 9.68306C21.3481 9.43898 20.9524 9.43898 20.7083 9.68306L16.7753 13.6161L12.8422 9.68306C12.5981 9.43898 12.2024 9.43898 11.9583 9.68306Z" fill="#3E7DA6"/>
  <path d="M11.9583 10.5669L11.6048 10.9205H11.6048L11.9583 10.5669ZM11.9583 9.68306L11.6048 9.3295L11.9583 9.68306ZM15.8914 14.5L16.2449 14.8536L16.5985 14.5L16.2449 14.1464L15.8914 14.5ZM11.9583 18.4331L11.6048 18.0795L11.9583 18.4331ZM11.9583 19.3169L11.6048 19.6705L11.9583 19.3169ZM16.7753 15.3839L17.1288 15.0303L16.7753 14.6768L16.4217 15.0303L16.7753 15.3839ZM20.7083 19.3169L21.0619 18.9634L20.7083 19.3169ZM21.5922 18.4331L21.2387 18.7866L21.5922 18.4331ZM17.6592 14.5L17.3056 14.1464L16.952 14.5L17.3056 14.8536L17.6592 14.5ZM21.5922 9.68306L21.9458 9.3295L21.5922 9.68306ZM20.7083 9.68306L20.3548 9.3295L20.7083 9.68306ZM16.7753 13.6161L16.4217 13.9697L16.7753 14.3232L17.1288 13.9697L16.7753 13.6161ZM12.8422 9.68306L13.1958 9.3295V9.3295L12.8422 9.68306ZM12.3119 10.2134C12.2631 10.1646 12.2631 10.0854 12.3119 10.0366L11.6048 9.3295C11.1654 9.76884 11.1654 10.4812 11.6048 10.9205L12.3119 10.2134ZM16.2449 14.1464L12.3119 10.2134L11.6048 10.9205L15.5378 14.8536L16.2449 14.1464ZM12.3119 18.7866L16.2449 14.8536L15.5378 14.1464L11.6048 18.0795L12.3119 18.7866ZM12.3119 18.9634C12.2631 18.9146 12.2631 18.8354 12.3119 18.7866L11.6048 18.0795C11.1654 18.5188 11.1654 19.2312 11.6048 19.6705L12.3119 18.9634ZM12.4887 18.9634C12.4398 19.0122 12.3607 19.0122 12.3119 18.9634L11.6048 19.6705C12.0441 20.1098 12.7564 20.1098 13.1958 19.6705L12.4887 18.9634ZM16.4217 15.0303L12.4887 18.9634L13.1958 19.6705L17.1288 15.7374L16.4217 15.0303ZM21.0619 18.9634L17.1288 15.0303L16.4217 15.7374L20.3548 19.6705L21.0619 18.9634ZM21.2387 18.9634C21.1898 19.0122 21.1107 19.0122 21.0619 18.9634L20.3548 19.6705C20.7941 20.1098 21.5064 20.1098 21.9458 19.6705L21.2387 18.9634ZM21.2387 18.7866C21.2875 18.8354 21.2875 18.9146 21.2387 18.9634L21.9458 19.6705C22.3851 19.2312 22.3851 18.5188 21.9458 18.0795L21.2387 18.7866ZM17.3056 14.8536L21.2387 18.7866L21.9458 18.0795L18.0127 14.1464L17.3056 14.8536ZM21.2387 10.2134L17.3056 14.1464L18.0127 14.8536L21.9458 10.9205L21.2387 10.2134ZM21.2387 10.0366C21.2875 10.0854 21.2875 10.1646 21.2387 10.2134L21.9458 10.9205C22.3851 10.4812 22.3851 9.76884 21.9458 9.3295L21.2387 10.0366ZM21.0619 10.0366C21.1107 9.9878 21.1898 9.9878 21.2387 10.0366L21.9458 9.3295C21.5064 8.89017 20.7941 8.89017 20.3548 9.3295L21.0619 10.0366ZM17.1288 13.9697L21.0619 10.0366L20.3548 9.3295L16.4217 13.2626L17.1288 13.9697ZM12.4887 10.0366L16.4217 13.9697L17.1288 13.2626L13.1958 9.3295L12.4887 10.0366ZM12.3119 10.0366C12.3607 9.9878 12.4398 9.9878 12.4887 10.0366L13.1958 9.3295C12.7564 8.89017 12.0441 8.89017 11.6048 9.3295L12.3119 10.0366Z" fill="#3E7DA6"/>
  <defs>
    <filter id="filter0_d" x="0.775269" y="0.5" width="32" height="32" filterUnits="userSpaceOnUse" color-interpolation-filters="sRGB">
      <feFlood flood-opacity="0" result="BackgroundImageFix"/>
      <feColorMatrix in="SourceAlpha" type="matrix" values="0 0 0 0 0 0 0 0 0 0 0 0 0 0 0 0 0 0 127 0"/>
      <feOffset dy="2"/>
      <feGaussianBlur stdDeviation="1"/>
      <feColorMatrix type="matrix" values="0 0 0 0 0.227451 0 0 0 0 0.227451 0 0 0 0 0.341176 0 0 0 0.0796 0"/>
      <feBlend mode="normal" in2="BackgroundImageFix" result="effect1_dropShadow"/>
      <feBlend mode="normal" in="SourceGraphic" in2="effect1_dropShadow" result="shape"/>
    </filter>
  </defs>
</svg>
