<svg width="70" height="60" viewBox="0 0 70 60" fill="none" xmlns="http://www.w3.org/2000/svg">
  <g clip-path="url(#clip0)">
    <path d="M50.9698 36.8429L43.4717 9.84277L43.2957 9.88384L48.2651 37.459L50.9698 36.8429Z" fill="#231F20"/>
    <path d="M42.5436 10.6465C42.6668 11.1804 43.1949 11.5148 43.7288 11.3916C44.2627 11.2684 44.5971 10.7404 44.4739 10.2006C44.3507 9.66672 43.8226 9.3323 43.2887 9.45551C42.7548 9.57872 42.4204 10.1126 42.5436 10.6465Z" fill="#231F20"/>
    <path d="M50.6505 45.0452L43.1524 18.045L42.9764 18.0861L47.9517 45.6671L50.6505 45.0452Z" fill="#231F20"/>
    <path d="M42.2282 18.849C42.3514 19.3829 42.8794 19.7114 43.4133 19.5941C43.9472 19.4709 44.2817 18.9428 44.1584 18.4089C44.0352 17.875 43.5072 17.5406 42.9733 17.6638C42.4394 17.787 42.1108 18.3151 42.2282 18.849Z" fill="#231F20"/>
    <path d="M10.6965 68.3141C11.1365 70.2502 13.0667 71.4647 15.0029 71.0188L55.4679 61.7723C57.4041 61.3323 58.6127 59.4021 58.1727 57.4659L51.5664 28.5472C51.1263 26.6111 49.1961 25.3966 47.2599 25.8425L6.79486 35.089C4.85874 35.529 3.65012 37.4593 4.09015 39.3954L10.6965 68.3141Z" fill="#809699" stroke="#231F20" stroke-width="1.7703" stroke-miterlimit="10"/>
    <path d="M22.9123 9.27472L23.8906 13.547L22.4322 13.8809L21.454 9.60865L22.9123 9.27472Z" fill="#231F20"/>
    <path d="M18.5004 7.56059C18.8935 9.26204 20.5891 10.3298 22.2964 9.93675C24.0037 9.54952 25.0715 7.84808 24.6784 6.14076C24.2853 4.43345 22.5898 3.37152 20.8825 3.75874C19.1751 4.15183 18.1132 5.85328 18.5004 7.56059Z" fill="#231F20"/>
    <path d="M13.0884 38.2336C13.1999 38.1749 13.3114 38.1163 13.4287 38.0635C13.505 38.0283 13.5754 37.993 13.6516 37.9578C13.8453 37.8698 14.0389 37.7936 14.2383 37.7232C14.5728 37.6 14.9189 37.5002 15.271 37.4181L40.599 31.6097C40.9569 31.5276 41.3089 31.4689 41.661 31.4337C41.8722 31.4102 42.0834 31.3985 42.2887 31.3926C42.3709 31.3926 42.453 31.3867 42.5351 31.3867C42.6642 31.3867 42.7874 31.3867 42.9106 31.3926C46.7594 31.551 50.1858 34.2499 51.0893 38.1867L57.0092 63.99C57.1324 64.5121 57.2028 65.0402 57.2204 65.5565C57.2321 65.7501 57.2321 65.9378 57.2262 66.1314C57.2204 66.325 57.2145 66.5187 57.1969 66.7123C57.191 66.8061 57.1793 66.9059 57.1676 66.9998C57.1206 67.3752 57.0502 67.7449 56.9564 68.1145C56.7099 69.0708 56.3051 69.9743 55.7654 70.7899C55.7067 70.8779 55.6539 70.96 55.5952 71.0422C55.5424 71.1184 55.4837 71.1947 55.4251 71.271C55.3371 71.3824 55.2432 71.4998 55.1493 71.6171C55.0026 71.7873 54.8501 71.9574 54.6917 72.1217C54.3573 72.462 53.9876 72.7788 53.5945 73.0604C53.5241 73.1132 53.4479 73.166 53.3716 73.213C52.5033 73.7997 51.5117 74.2456 50.4263 74.492L25.0924 80.3004C24.0129 80.5468 22.9275 80.582 21.889 80.4294C21.7775 80.4177 21.6719 80.4001 21.5663 80.3766C21.1087 80.2945 20.6628 80.1713 20.2227 80.0187C20.0115 79.9425 19.8003 79.8545 19.5891 79.7665C19.4542 79.7078 19.3251 79.6433 19.1901 79.5787C19.1021 79.5376 19.02 79.4907 18.9379 79.4438C18.8264 79.3851 18.7208 79.3206 18.6093 79.256C17.782 78.7573 17.0428 78.1237 16.415 77.3844C16.1745 77.097 15.9515 76.7919 15.7462 76.4692C15.6992 76.3929 15.6523 76.3225 15.6054 76.2462C15.5056 76.082 15.4118 75.9118 15.3237 75.7358C15.2416 75.5657 15.1536 75.3955 15.0832 75.2195C14.8779 74.7384 14.7136 74.2397 14.5904 73.7117L8.67051 47.9084C7.79045 43.9716 9.69138 40.0465 13.0884 38.2336ZM56.4342 67.9444C55.9648 67.8094 55.5072 67.6979 55.0554 67.6158L55.6011 70.0037C55.9648 69.3642 56.2465 68.666 56.4342 67.9444ZM54.5509 71.4529C54.7093 71.2768 54.8618 71.1008 55.0026 70.9072C55.0496 70.8544 55.0906 70.7957 55.1317 70.7371L54.3925 67.5161C54.1754 67.4926 53.9583 67.4691 53.7471 67.4574C53.5007 67.4456 53.2543 67.4339 53.0137 67.4398C52.7849 67.4456 52.5561 67.4515 52.3273 67.475L53.4713 72.4502C53.8586 72.151 54.2223 71.8166 54.5509 71.4529ZM51.7054 67.5513C50.9426 67.6745 50.221 67.8915 49.5404 68.2084L50.8253 73.8055C51.5821 73.5826 52.2862 73.254 52.9198 72.8433L51.7054 67.5513ZM50.221 73.9581L48.9713 68.5017C48.3963 68.8244 47.8624 69.2234 47.3637 69.6927L48.4374 74.3746L50.221 73.9581ZM25.7906 74.668C25.1217 74.4509 24.4412 74.3218 23.7664 74.2749L25.022 79.7371L26.8584 79.3147L25.7906 74.668ZM23.1269 74.2632C22.3759 74.2749 21.6308 74.3922 20.8916 74.6152L22.1002 79.8897C22.8512 79.9835 23.6256 79.9777 24.4059 79.8603L23.1269 74.2632ZM20.0819 79.3616C20.5161 79.5376 20.9679 79.6785 21.4372 79.7782L20.299 74.8205C20.1054 74.8909 19.9118 74.9789 19.724 75.067C19.507 75.1667 19.284 75.2782 19.0728 75.3955C18.8675 75.507 18.6621 75.6302 18.4626 75.7593L19.1901 78.9392C19.2723 78.9861 19.3544 79.0272 19.4424 79.0683C19.6536 79.1739 19.8648 79.2736 20.0819 79.3616ZM18.445 78.4698L17.9111 76.1348C17.5532 76.3988 17.1953 76.6863 16.8492 77.0031C17.3127 77.5604 17.8525 78.0533 18.445 78.4698Z" fill="#809699"/>
    <path d="M12.5734 37.8756C12.7494 37.7759 12.9254 37.682 13.1073 37.5881C13.119 37.5823 13.1308 37.5764 13.1425 37.5705C13.3361 37.4766 13.5297 37.3886 13.7292 37.3065C14.0402 37.1774 14.3628 37.0718 14.6914 36.9779C14.8381 36.9369 14.9906 36.8958 15.1432 36.8606L40.4771 31.0522C40.6296 31.017 40.7822 30.9877 40.9347 30.9584C41.275 30.8997 41.6094 30.8586 41.9439 30.8351C42.1609 30.8175 42.3722 30.8117 42.5892 30.8117C42.601 30.8117 42.6127 30.8117 42.6303 30.8117C42.8357 30.8117 43.0351 30.8175 43.2346 30.8351C47.2125 31.1226 50.7151 33.9623 51.648 38.0458L57.5678 63.8491C57.6852 64.3712 57.7614 64.8875 57.7908 65.4038C57.8025 65.5974 57.8084 65.791 57.8084 65.9788C57.8084 66.1724 57.8025 66.3719 57.7849 66.5655C57.6558 68.4723 56.9342 70.2735 55.7725 71.7402C55.6258 71.9221 55.4792 72.0981 55.3207 72.2683C55.1741 72.4326 55.0157 72.5851 54.8514 72.7376C53.6897 73.8289 52.2288 74.6386 50.5684 75.0199L25.2404 80.8283C23.58 81.2097 21.9137 81.1217 20.3883 80.6406C20.1771 80.576 19.9659 80.4997 19.7605 80.4176C19.5434 80.3355 19.3322 80.2416 19.121 80.1419C17.4372 79.3322 16.0056 78.0239 15.061 76.3635C14.9613 76.1933 14.8733 76.0232 14.7853 75.8472C14.6973 75.677 14.621 75.501 14.5506 75.3191C14.3511 74.8439 14.1927 74.3452 14.0695 73.823L8.14964 48.0197C7.20504 43.948 9.11769 39.8704 12.5734 37.8756ZM15.9 75.5949C15.988 75.7592 16.0819 75.9235 16.1816 76.0819C16.1816 76.0819 16.1875 76.0936 16.1934 76.0936C16.3928 76.4104 16.6099 76.7096 16.8446 76.9971C17.314 77.5545 17.8537 78.0532 18.4463 78.4639C18.5578 78.5402 18.6693 78.6164 18.7807 78.6868C18.9157 78.769 19.0506 78.8511 19.1914 78.9274C19.2736 78.9743 19.3557 79.0154 19.4437 79.0565C19.6549 79.1679 19.8661 79.2618 20.0832 79.3498C20.5174 79.5258 20.9691 79.6666 21.4385 79.7664C21.6615 79.8133 21.8785 79.8485 22.1015 79.8837C22.8525 79.9776 23.6269 79.9717 24.4072 79.8544C24.6009 79.825 24.7886 79.7898 24.9763 79.7429L50.3044 73.9345C50.4746 73.8935 50.6506 73.8524 50.8149 73.7996C51.5717 73.5766 52.2757 73.2481 52.9094 72.8374C53.0971 72.7142 53.2849 72.5851 53.4609 72.4502C53.854 72.1509 54.2177 71.8165 54.5463 71.4528C54.7047 71.2767 54.8573 71.1007 54.9981 70.9071C55.045 70.8543 55.0861 70.7957 55.1271 70.737C55.2327 70.5903 55.3325 70.4378 55.4322 70.2852C55.4909 70.1913 55.5437 70.0975 55.6024 70.0036C55.972 69.3582 56.2536 68.6659 56.4355 67.9443C56.5294 67.5805 56.5939 67.2109 56.635 66.8354C56.635 66.8354 56.635 66.8295 56.635 66.8237C56.6584 66.63 56.6702 66.4423 56.676 66.2487C56.6878 66.0609 56.6819 65.8673 56.676 65.6796C56.6584 65.1633 56.5939 64.6411 56.4707 64.1189L50.5508 38.3098C49.6884 34.549 46.3559 31.991 42.6596 31.944C42.5892 31.944 42.5247 31.944 42.4543 31.944C42.4484 31.944 42.4426 31.944 42.4367 31.944C42.4308 31.944 42.425 31.944 42.4191 31.944C42.2959 31.944 42.1668 31.9499 42.0436 31.9616C41.8383 31.9734 41.6329 31.9968 41.4276 32.0262C41.1929 32.0555 40.9582 32.1024 40.7235 32.1552L15.3896 37.9636C15.1549 38.0164 14.9261 38.081 14.6973 38.1514C14.4978 38.2159 14.3042 38.2863 14.1164 38.3626C14.005 38.4095 13.8876 38.4564 13.7761 38.5093C13.7703 38.5093 13.7644 38.5151 13.7585 38.521C13.7409 38.5269 13.7292 38.5327 13.7116 38.5445C13.6588 38.5679 13.6119 38.5914 13.5591 38.6149C10.2559 40.2694 8.37259 44.0243 9.23505 47.7792L15.1549 73.5825C15.2722 74.1047 15.4424 74.6034 15.6536 75.0786C15.7299 75.2605 15.8061 75.4306 15.9 75.5949Z" fill="#231F20"/>
    <path d="M40.3549 32.83C40.6835 32.7537 41.0062 32.7009 41.3347 32.6657C41.5283 32.6481 41.722 32.6305 41.9156 32.6305C41.9918 32.6246 42.0681 32.6246 42.1444 32.6246C42.2617 32.6246 42.3791 32.6246 42.4964 32.6305C46.046 32.7772 49.2024 35.2648 50.0356 38.8965L56.4365 66.8061C56.0904 66.7122 55.0284 66.4482 54.1777 66.3778C54.1542 66.3661 54.1308 66.3543 54.1073 66.3426L47.9234 39.3776C47.0903 35.7459 43.9338 33.2583 40.3843 33.1116C40.2669 33.1057 40.1554 33.1057 40.0381 33.1057C39.9618 33.1057 39.8856 33.1057 39.8093 33.1116C39.6157 33.1175 39.4221 33.1292 39.2285 33.1468C38.9058 33.182 38.5772 33.2348 38.2487 33.3111L40.3549 32.83Z" fill="#EFEFEF"/>
    <path d="M16.0263 38.4095C15.6977 38.4857 15.3809 38.5796 15.0758 38.6911C14.8939 38.7556 14.712 38.8319 14.536 38.9082C14.4656 38.9375 14.3952 38.9727 14.3248 39.0079C14.2192 39.0607 14.1136 39.1077 14.0139 39.1663C10.8809 40.8443 9.1266 44.4584 9.95972 48.0901L16.3607 75.9997C16.6364 75.765 17.4754 75.0668 18.2088 74.6327C18.2205 74.6151 18.2381 74.5916 18.2557 74.574L12.0719 47.609C11.2387 43.9773 12.993 40.3632 16.126 38.6852C16.2257 38.6324 16.3313 38.5796 16.437 38.5268C16.5074 38.4916 16.5778 38.4564 16.6423 38.4329C16.8183 38.3508 16.9943 38.2804 17.1821 38.21C17.493 38.0985 17.8098 38.0046 18.1325 37.9284L16.0263 38.4095Z" fill="#EFEFEF"/>
    <path d="M30.3464 45.0275C39.323 42.9682 44.9495 33.9916 42.8902 25.015C40.8308 16.0384 31.8542 10.4119 22.8776 12.4712C13.9011 14.5306 8.27455 23.5072 10.3339 32.4837C12.3932 41.4545 21.3698 47.081 30.3464 45.0275Z" fill="#809699"/>
    <path d="M23.0009 13.0111C14.3118 15.0059 8.88475 23.6657 10.8796 32.3548C12.8743 41.0439 21.5341 46.4709 30.2174 44.482C38.9065 42.4872 44.3335 33.8274 42.3387 25.1383C40.3498 16.4492 31.69 11.0222 23.0009 13.0111ZM22.7545 11.9198C27.2486 10.8872 31.8777 11.6675 35.7793 14.12C39.6868 16.5724 42.4032 20.3918 43.4358 24.886C44.4684 29.3802 43.6881 34.0093 41.2357 37.9109C38.7891 41.8183 34.9638 44.5406 30.4696 45.5674C25.9755 46.6 21.3522 45.8197 17.4448 43.3672C13.5373 40.9207 10.815 37.0953 9.78828 32.6012C8.75568 28.107 9.536 23.4838 11.9884 19.5763C14.435 15.6689 18.2603 12.9524 22.7545 11.9198Z" fill="#231F20"/>
    <path d="M23.9213 14.243C23.3229 14.378 22.7479 14.5481 22.1847 14.7535C23.053 14.3369 23.9859 14.0025 24.9715 13.7795C30.6919 12.4712 36.3654 15.0762 38.9938 19.805C35.7669 15.258 29.8647 12.8819 23.9213 14.243Z" fill="#EFEFEF"/>
    <path d="M28.7505 38.0695C37.1873 36.1334 43.0602 30.2252 41.8399 24.898C40.6195 19.5707 32.7577 16.8073 24.315 18.7434C15.8723 20.6795 10.0053 26.5877 11.2256 31.915C12.4518 37.2422 20.3078 40.0056 28.7505 38.0695Z" fill="#C6CDD1"/>
    <path d="M24.4156 19.1657C20.3732 20.0927 16.8178 21.9643 14.4006 24.4343C12.0831 26.8046 11.1092 29.4272 11.6548 31.821C12.2063 34.2147 14.2246 36.1508 17.34 37.2773C20.5903 38.4449 24.6092 38.5798 28.6516 37.6469C32.694 36.7199 36.2495 34.8483 38.6667 32.3842C40.9842 30.0139 41.9581 27.3913 41.4125 24.9976C40.861 22.6038 38.8427 20.6677 35.7214 19.5471C32.477 18.3678 28.458 18.2387 24.4156 19.1657ZM24.222 18.315C32.9111 16.3202 40.9901 19.2244 42.2691 24.7981C43.5481 30.3718 37.5402 36.5029 28.8511 38.4918C20.162 40.4866 12.0831 37.5824 10.8041 32.0146C9.52505 26.4409 15.5329 20.3098 24.222 18.315Z" fill="#231F20"/>
    <path d="M22.4323 20.2042C23.107 19.9812 23.7993 19.7817 24.5209 19.6174C32.1657 17.8632 39.2707 20.4154 40.3972 25.3202C41.377 29.6032 37.4695 34.2616 31.3619 36.538C30.2648 30.1019 27.8886 23.5308 22.4323 20.2042Z" fill="#EFEFEF"/>
    <path d="M13.4561 38.1103C17.4163 43.068 23.8173 45.3503 29.9718 43.995C36.1264 42.6397 40.9725 37.8756 42.4804 31.7094C41.8702 38.521 36.9536 44.1416 30.3238 45.6025C23.6999 47.0634 16.8766 44.036 13.4561 38.1103Z" fill="#231F20"/>
    <path d="M43.2464 51.7747L48.5555 74.9179L47.4633 75.1685L42.1541 52.0253L43.2464 51.7747Z" fill="#231F20"/>
    <path d="M22.76 56.4767L28.0692 79.6199L26.9769 79.8705L21.6678 56.7273L22.76 56.4767Z" fill="#231F20"/>
    <path d="M24.3387 6.9682C23.9339 5.19635 22.1679 4.08748 20.3902 4.49231C19.956 4.59205 19.5629 4.77393 19.2226 5.01447C19.6216 4.58618 20.1496 4.26349 20.7598 4.12268C22.385 3.75306 23.9984 4.76219 24.3739 6.38737C24.4619 6.76872 24.4678 7.15595 24.415 7.51971C24.4032 7.33783 24.3797 7.15008 24.3387 6.9682Z" fill="#EFEFEF"/>
    <path d="M51.2086 37.4945L44.7783 39.2546L44.8076 39.3837L51.3611 38.1751L51.2086 37.4945Z" fill="#231F20"/>
    <path d="M52.9093 44.9631L46.4849 46.7174L46.5142 46.8464L53.0677 45.6378L52.9093 44.9631Z" fill="#231F20"/>
    <path d="M54.6182 52.426L48.1938 54.1861L48.2231 54.3093L54.7707 53.1066L54.6182 52.426Z" fill="#231F20"/>
    <path d="M56.3245 59.8889L49.8942 61.649L49.9235 61.7781L56.477 60.5695L56.3245 59.8889Z" fill="#231F20"/>
    <path d="M8.66187 47.932L15.0922 46.1719L15.0628 46.0428L8.50933 47.2514L8.66187 47.932Z" fill="#231F20"/>
    <path d="M10.3704 55.3946L16.7949 53.6404L16.7655 53.5113L10.2179 54.7199L10.3704 55.3946Z" fill="#231F20"/>
    <path d="M44.2987 27.8608C44.2987 27.8608 44.9616 27.8842 45.9297 27.7903C46.1702 27.7727 46.4343 27.7434 46.7041 27.7023C46.8391 27.6847 46.9799 27.6671 47.1266 27.6495L47.1559 27.6437H47.1676H47.1735C47.1852 27.6437 47.0972 27.6554 47.1383 27.6495H47.1442L47.197 27.6437L47.3084 27.6378L47.5314 27.6261C47.7015 27.6026 47.7837 27.6554 47.901 27.6613C48.0066 27.6671 48.1298 27.7023 48.253 27.7493L48.4408 27.8021C48.4995 27.8256 48.5523 27.8666 48.6109 27.896L48.7811 27.984L48.8221 28.0074C48.8045 27.9957 48.8632 28.0368 48.7811 27.9781L48.7869 27.984L48.7987 27.9957L48.8221 28.0133L48.916 28.0837L49.1096 28.2304L49.2035 28.3008L49.2563 28.3712C49.3267 28.4651 49.4147 28.5296 49.4793 28.6411C49.5379 28.7525 49.6201 28.8582 49.6846 28.9638C49.7315 29.0811 49.7785 29.1984 49.8254 29.3158C49.9134 29.6033 50.0014 29.8732 50.0836 30.1372C50.1657 30.4012 50.2537 30.6476 50.3358 30.8764C50.6585 31.7917 50.9519 32.3784 50.9519 32.3784L51.0634 32.3549C51.0634 32.3549 51.0751 31.6919 50.9695 30.7297C50.9402 30.4892 50.9167 30.2252 50.8756 29.9553C50.8287 29.6795 50.8052 29.3979 50.7348 29.087C50.6879 28.9168 50.6351 28.7467 50.5823 28.5707C50.506 28.4064 50.418 28.2421 50.3241 28.0778C50.2302 27.9136 50.0718 27.761 49.9428 27.6085C49.8724 27.5263 49.8019 27.4618 49.7433 27.4207L49.5555 27.274L49.4617 27.1978L49.3678 27.1332L49.3032 27.1039L49.0451 26.9807C48.9571 26.9396 48.875 26.8986 48.7869 26.8634L48.5112 26.7929C48.3293 26.746 48.1533 26.6991 47.948 26.7108C47.7602 26.7108 47.5373 26.6932 47.4082 26.7343L47.1852 26.7753L47.0738 26.7929L47.021 26.8047L46.9682 26.8164L46.9564 26.8223L46.933 26.8282C46.7921 26.8751 46.6572 26.9162 46.5281 26.9631C46.2641 27.0452 46.0177 27.1332 45.7889 27.2212C44.8854 27.5498 44.2987 27.8608 44.2987 27.8608Z" fill="#EFEFEF"/>
    <path d="M10.3398 35.6227C10.3398 35.6227 9.67684 35.5993 8.70877 35.6931C8.46822 35.7107 8.20421 35.7401 7.93432 35.7811C7.79938 35.7987 7.65857 35.8163 7.51189 35.8339L7.48256 35.8398H7.47082H7.46496L7.41802 35.8515H7.41215L7.35935 35.8633L7.25374 35.8926L7.03666 35.9513C6.90172 35.9747 6.71397 36.0745 6.54383 36.1625C6.45582 36.2094 6.36195 36.2505 6.28568 36.3033L6.0686 36.4793C5.92192 36.5967 5.78111 36.7257 5.66964 36.8783C5.5523 37.025 5.41735 37.1716 5.34695 37.3476C5.1592 37.6821 5.0536 38.0576 5.0008 38.4272C4.98906 38.6149 4.97733 38.8027 4.9832 38.9845C5.01253 39.1664 5.04186 39.3424 5.0712 39.5184C5.1416 39.8294 5.24134 40.0934 5.32348 40.3574C5.40562 40.6215 5.49363 40.8679 5.57576 41.0967C5.89845 42.0119 6.19768 42.5987 6.19768 42.5987L6.30915 42.5752C6.30915 42.5752 6.32088 41.9122 6.21528 40.95C6.18594 40.7095 6.16247 40.4454 6.1214 40.1756C6.08033 39.9057 6.03926 39.6182 5.99819 39.3248C5.99233 39.2016 5.98059 39.0784 5.97472 38.9493C5.98059 38.8203 6.00993 38.6971 6.01579 38.568C6.06273 38.3157 6.139 38.0634 6.26808 37.8405C6.31501 37.7173 6.40302 37.6175 6.47929 37.5119C6.54383 37.4004 6.6377 37.3124 6.73744 37.2244L6.87825 37.0895L7.01906 36.9956C7.1188 36.9311 7.17747 36.8489 7.34175 36.802L7.54709 36.7199L7.64683 36.6788L7.69964 36.6553H7.70551C7.74658 36.6436 7.65857 36.6671 7.66444 36.6671H7.6703L7.68204 36.6612L7.70551 36.6553C7.84045 36.6084 7.98126 36.5673 8.11033 36.5204C8.37435 36.4382 8.62077 36.3502 8.84958 36.2622C9.75311 35.9278 10.3398 35.6227 10.3398 35.6227Z" fill="#EFEFEF"/>
    <path d="M25.9651 58.0643C26.059 58.475 26.3113 58.8271 26.6633 59.05C27.0153 59.2729 27.4495 59.3434 27.8543 59.2495L38.7846 56.7501C39.6354 56.5565 40.1634 55.7116 39.9698 54.8609L38.4854 48.3661C38.3915 47.9554 38.1393 47.6034 37.7872 47.3804C37.4352 47.1575 37.0011 47.0871 36.5962 47.181L25.6659 49.6803C24.8152 49.8739 24.2872 50.7188 24.4808 51.5695L25.9651 58.0643Z" fill="#C6CDD1"/>
    <path d="M25.7995 58.117C25.7995 58.117 25.8171 58.1581 25.8406 58.2402C25.8641 58.3223 25.9052 58.4397 26.0166 58.6157C26.2278 58.9325 26.6033 59.3549 27.3308 59.4254C27.501 59.4488 27.6829 59.4254 27.8648 59.396C28.0349 59.3549 28.2109 59.3139 28.3928 59.2728C28.7565 59.1848 29.1555 59.0909 29.5779 58.9853C30.4228 58.7917 31.3791 58.5688 32.4234 58.3223C33.4619 58.0701 34.6001 57.8412 35.797 57.5772C36.3954 57.4482 37.0115 57.3132 37.6393 57.1783C37.9561 57.1079 38.2729 57.0433 38.5897 56.9729L38.8479 56.9143L39.0826 56.838C39.2351 56.7734 39.4404 56.6737 39.5695 56.5505C39.857 56.3158 40.0741 55.9814 40.1562 55.6059C40.2501 55.2421 40.1797 54.8197 40.1034 54.5029C39.9567 53.8282 39.8101 53.1476 39.6634 52.4612C39.3642 51.0824 39.065 49.6743 38.7599 48.2721L38.6777 48.0198C38.6484 47.9318 38.5839 47.8203 38.5311 47.7264C38.4782 47.6208 38.4078 47.5504 38.3374 47.4683C38.2729 47.3803 38.1966 47.3099 38.1086 47.2512L37.9854 47.1515L37.9561 47.128L37.8974 47.0987L37.8387 47.0693C37.7507 47.0283 37.6979 46.9872 37.5806 46.952C37.4691 46.9168 37.3576 46.8816 37.252 46.8581L36.9352 46.8347C36.4776 46.8581 36.1842 46.9637 35.8263 47.0341C35.4802 47.1104 35.1399 47.1867 34.7937 47.2629C33.4208 47.568 32.0773 47.8673 30.7689 48.1606C29.4665 48.4657 28.205 48.759 27.014 49.0348C26.7148 49.1052 26.4215 49.1756 26.134 49.246C25.9873 49.2812 25.8465 49.3164 25.7057 49.3516C25.5003 49.3986 25.4123 49.4455 25.2598 49.4983C24.5851 49.8268 24.2154 50.437 24.1802 51.0765C24.1568 51.2349 24.1861 51.3875 24.2096 51.54C24.233 51.6984 24.2682 51.7982 24.2976 51.9331C24.3563 52.1795 24.4149 52.426 24.4736 52.6606C24.5909 53.1359 24.6965 53.5818 24.8021 54.0042C25.0075 54.849 25.1894 55.5824 25.336 56.1926L25.7995 58.117ZM26.134 58.0173C26.1222 57.9645 25.9756 57.278 25.7291 56.1046C25.6001 55.4944 25.4417 54.7552 25.2598 53.9045C25.1718 53.482 25.072 53.0244 24.9723 52.5492C24.9195 52.3086 24.8726 52.0681 24.8139 51.8158C24.7611 51.5518 24.7024 51.3347 24.7317 51.1235C24.7376 50.9064 24.8315 50.6893 24.9547 50.5016C25.0779 50.3138 25.2832 50.1671 25.4475 50.0791C25.559 50.0381 25.7467 49.9735 25.8289 49.9618C25.9697 49.9325 26.1164 49.8973 26.263 49.8679C26.5564 49.8034 26.8497 49.7447 27.149 49.6802C28.3458 49.4103 29.6073 49.1287 30.9097 48.8353C32.2122 48.5302 33.5558 48.2134 34.9228 47.8966C35.2631 47.8145 35.6093 47.7382 35.9495 47.656C36.284 47.5798 36.6712 47.4683 36.9235 47.4566L37.1347 47.4683L37.3224 47.5094C37.3811 47.5152 37.475 47.5798 37.5513 47.6091L37.6099 47.6384C37.6099 47.6384 37.6569 47.6619 37.6158 47.6384L37.6393 47.656L37.7273 47.7206C37.7859 47.7616 37.8446 47.8086 37.8857 47.8673C37.9326 47.9201 37.9913 47.9729 38.0148 48.0315C38.0441 48.0961 38.0852 48.1254 38.1145 48.2075L38.2025 48.4598C38.5369 49.8386 38.8655 51.2173 39.194 52.5726C39.3583 53.2532 39.5226 53.9338 39.681 54.6026C39.7749 54.9547 39.8218 55.2245 39.7573 55.5238C39.7045 55.8171 39.5343 56.087 39.3114 56.2747C39.2586 56.3275 39.1999 56.3745 39.1412 56.4038C39.0767 56.4332 39.0415 56.486 38.9535 56.5094L38.7188 56.5916L38.4958 56.6444C38.179 56.7206 37.8622 56.7969 37.5454 56.8732C36.9176 57.0257 36.3074 57.1724 35.709 57.3132C34.518 57.5948 33.3915 57.8823 32.3472 58.1053C31.3028 58.3399 30.3465 58.557 29.5017 58.7448C29.0792 58.8386 28.6803 58.9208 28.3106 59.0029C28.1288 59.044 27.9528 59.0792 27.7826 59.1144C27.6242 59.1379 27.4775 59.1496 27.3367 59.1261C27.19 59.1203 27.0844 59.0675 26.9612 59.0323C26.8967 59.0029 26.838 58.9677 26.7793 58.9384C26.7559 58.9267 26.7031 58.9032 26.7089 58.9032L26.6444 58.8504C26.5564 58.7858 26.4801 58.7213 26.4273 58.645C26.3686 58.5746 26.31 58.5101 26.2865 58.4455C26.2513 58.381 26.222 58.3341 26.1985 58.2813C26.1809 58.2226 26.1633 58.1698 26.1516 58.1287C26.1516 58.0701 26.1398 58.0349 26.134 58.0173Z" fill="#231F20"/>
    <path d="M26.1744 52.3322C26.3269 53.0011 26.9957 53.4235 27.6705 53.271C28.3393 53.1184 28.7617 52.4496 28.6092 51.7749C28.4566 51.1002 27.7878 50.6836 27.1131 50.8361C26.4384 50.9887 26.0159 51.6575 26.1744 52.3322Z" fill="#EFEFEF"/>
    <path d="M29.4258 54.8021C29.508 55.16 29.86 55.383 30.2179 55.3008C30.5758 55.2187 30.7987 54.8608 30.7166 54.5088C30.6344 54.1509 30.2766 53.9279 29.9245 54.0101C29.5666 54.0922 29.3437 54.4442 29.4258 54.8021Z" fill="#EFEFEF"/>
    <path d="M28.3885 56.2101C28.4706 56.568 28.8226 56.791 29.1805 56.7088C29.5384 56.6267 29.7613 56.2747 29.6792 55.9168C29.5971 55.5589 29.2392 55.3359 28.8872 55.4181C28.5293 55.5002 28.3063 55.8522 28.3885 56.2101Z" fill="#EFEFEF"/>
    <path d="M30.8619 50.5604C30.9558 50.9652 31.3547 51.2175 31.7595 51.1236L37.0458 49.915C37.4506 49.8211 37.7029 49.4222 37.609 49.0174C37.5151 48.6125 37.1162 48.3602 36.7113 48.4541L31.4251 49.6627C31.0262 49.7507 30.7739 50.1556 30.8619 50.5604Z" fill="#EFEFEF"/>
    <path d="M34.8643 54.8607C34.9582 55.2655 35.3571 55.5178 35.762 55.4239L38.1792 54.8724C38.584 54.7786 38.8363 54.3796 38.7424 53.9748C38.6485 53.57 38.2496 53.3177 37.8448 53.4115L35.4275 53.963C35.0286 54.051 34.7763 54.4559 34.8643 54.8607Z" fill="#EFEFEF"/>
  </g>
  <defs>
    <clipPath id="clip0">
      <rect width="70" height="60" fill="white"/>
    </clipPath>
  </defs>
</svg>
